<?xml version="1.0" encoding="utf-8"?>
<!-- Generator: Adobe Illustrator 26.3.1, SVG Export Plug-In . SVG Version: 6.00 Build 0)  -->
<svg version="1.1" id="Layer_2_00000000209288346042121180000015504383886279483273_"
	 xmlns="http://www.w3.org/2000/svg" xmlns:xlink="http://www.w3.org/1999/xlink" x="0px" y="0px" viewBox="0 0 800 464"
	 style="enable-background:new 0 0 800 464;" xml:space="preserve">
<style type="text/css">
	.st0{fill-rule:evenodd;clip-rule:evenodd;fill:#FF582B;}
</style>
<g id="Layer_1-2">
	<g>
		<path class="st0" d="M735.9,229.1c1.8-1.4,4.4-1.7,6.4-2.6c0.2,0.9,0.1,1.4-0.7,2.6c1.6-0.1,3.5-1.4,4.8-2.3
			c-0.5-1.3-1.4-5.8-1.2-7.1c-1.3-0.7-1.9-0.5-2.8-0.8c-0.8-0.6-1.6-1.3-2.5-1.9c-1.7-0.6-4.1-1.2-5.9-1.8c-1.2-0.6-2.4-1.1-3.6-1.7
			c-1.6-0.3-2.7,0.2-4.7-1c-0.5,1.5-0.9,3.2-0.5,5c0.2,0.4,0.6,0.7,1.3,1.2l-0.3,0.5c-3.9-0.6-7.5-3.4-11.6-4.4
			c-2.7-0.7-5.8-0.1-8.5-0.4c0.1-1.1-0.3-2.4-0.5-3.4c0.6-0.4,1.5-0.3,2.2-0.3c0.6-1.3,0.3-1.5,0.3-2.5c-0.5-0.2-1.1-0.5-1.6-0.7
			c0.9-1,2.3-0.8,2.8-2.3c0.3-0.8,0-2.4,0.1-3.3c0.4-3.1,1.5-6.7,1.2-9.7l0.2-0.2c-0.3,0.1-0.5,0.1-0.8,0.2l-0.2-0.2
			c1.5-1.4,0.8-1.6,2.2-4c-2.1-0.4-3.1-2.2-5-1.2c-0.9-0.1-0.2,0.4-0.1,1.3c-1.6-0.1-3.5,0.4-5.2-0.3c0.4-0.4,0.4-0.4,0.7-0.6
			c-0.1-0.6-0.3-0.5-0.3-1.2c-0.7,0.2-1.8,0.7-2.4,1.1c-0.5-0.6-0.5-0.1-0.2-0.8c-1.2-0.5-1.1-0.1-1.7-0.4c-0.7,1.4-5.3,3.5-7,3.6
			c-1.9,0.2-2.7-4.3-2.3-4.8c-0.5-0.1-0.3-0.1-0.6-0.1c0-0.3,0.2-0.5,0.4-1.1c-0.9-0.3-0.7-0.3-1.4,0.1l-0.2-0.2
			c0.5-0.2,1-0.5,1.5-0.7c-0.2-0.6-0.4-1.1-0.6-1.7c-0.1-0.3,0-0.1-0.3-0.5c-0.7,0.3-0.4,0.4-1.1,0.7c-0.4,0-0.3-0.2-0.9-0.2
			l-0.2-0.2l-0.3,0.5l0.9,0.2c-0.5,0.3-1,0.6-1.5,0.7l-0.2,0.2c0-0.3,0.3-0.5,0.8-1.2l-0.2-0.2c-0.5,0.4-0.6,0.5-1.1,0.7l-0.3,0.5
			l-0.2-0.2c0.6-0.6,1.1-1,1.8-1.2c0,0,0.5-1,0.1-0.6l-0.4,0.1c0.8-0.7,1.6-1.3,2.6-1.4l0.2-0.2l-0.5-0.3c-0.8,0.5-1.7,1.2-2.6,1.4
			l-0.2,0.2l-0.2-0.2c0.4-0.2,0.6-0.3,0.9-0.4c0.4-1,0.1-0.7,0.5-1.3l-0.5-0.3c-0.5,0.4-0.9,0.8-1.4,1.1c-0.7,0.4-0.6,1.7-0.6,2
			l0.1,0.4l0.2-0.2l0.2,0.2l-0.4,0.1c-0.4,1.1-0.4,2.4-0.1,3.3c-0.9,0.1-6-0.6-6.2-0.9c-0.8,0.5-0.5,1.3-2.1,0.7
			c-0.2,0.9-0.7,1.1-0.7,1.6l-0.2,0.2c-0.3-0.5-0.4-0.7-0.5-1.3c-0.9,0.2-1.1,0.5-1.4,1.1c-0.3-0.6-0.5-0.8-0.7-1.1
			c-1-0.1-1.5,0.6-2.3,1.5c-0.7-0.6-0.6-0.7-1.2-0.8c-0.1-0.2-0.1-0.8-0.1-1.4c-0.1-0.2,0.7-0.3,0.8-1.2c0.8-0.4,0.2-0.3,0.9,0.2
			l0.3-0.5l-1.2-0.8c-1,1.4-1.4,1.4-1.5,1.8c-0.6-0.1-0.2,0-0.7-0.5c-0.3,0.6-0.4,0.7-0.4,1.1c0.2,0.5,0.4,0.4,1,0.6
			c-0.4,0.8-0.4,1.3-1.1,1.7c0.1,0.3,0.1,0.3,0.6,0.7c-1,1.1-1.1,0.3-2.1,0.7c-0.9,0.4-1.4,1.3-2.3,1.5c-1.7,0.4-3.4-0.4-5.2-0.3
			c-0.4,0.2-0.2,0.2-0.6,1c1,0.7,0.5,0.7,1.3,0.5l0.7,0.5l-0.4,0.1c-0.7,0.5-1,0.3-1.7,0.6c-0.4-0.7-0.4-0.7,0.1-1.7
			c-1-0.1-1.5,0-1.7-1.1c-1.3-0.6-1-0.3-1.9,0.8c-0.8-0.2-1.2-0.3-1.9-0.2c0,0-0.9-0.7-0.3-0.5l0.4-0.1c-0.6-0.1-0.6-0.1-0.6-0.1
			c-1,0.5-1.1,0.3-2.3,0.9c-0.8-0.2-1.4-0.6-1.8-0.8c-1.6,0.3-4.9,1.6-6,0.5c0,0.8-0.2,0.2,0.4,0.9c0.1,0.7,3.5-0.1,5,0.5
			c-1.5,1.6-2.9,0.2-4.5,1.2l-0.5-0.3c0.3,0.7,1.3,0.6,1.4,0.9c0.4,0.8-0.4,0.8,0.6,1.7l-0.3,0.5c-1.7-1-3.4-2-5.2-3
			c-0.4,0.6-0.6,0.7-1,1l-1.4-0.9c0.1-0.5,0.1-0.3,0.1-0.6c0.9-0.9,1.6-0.8,2.6-1.4l-0.2-0.2c-0.1-0.4-0.3-0.1-0.6-0.7
			c-2.5,0.3-5.3,2-7.5,3.3c-2.2-1.6-6.1-6.5-7-6.5c0-0.6,0,0,0.3-0.5c-0.7-0.3-1.6-0.8-2.2-0.7l-0.4,0.1c0.4,0.8,0.7,1.8,1,2.7
			c0.2,0.8-0.8,0.7-0.2,1.9c-0.8,0.8-2.3,1.2-3.3,0.9l0.1,0.4c-0.2,1-0.2,0.8,0.7,1.5c-0.5,0.2-0.4,0-0.9,0.4l0.2,0.2
			c0,0.1,0.1,0.3,0.1,0.4l0,0l0.1-0.2l0.2,0.2c-0.2,0-0.3,0.1-0.4,0.1l0,0l0,0c-0.4,0-0.5-0.2-0.9-0.2l-0.2-0.2
			c0.2-0.1,0.4-0.2,0.5-0.3l-0.2-0.2c0.2-0.6,0.2-0.5,0.2-0.9c-0.4,0-0.6-0.1-0.7-0.5c-2.4-1.5-4-0.3-5.7-0.6
			c-0.5,1.4-0.9,3.4-0.2,4.6c0,0-0.7,0.9-0.5,0.3l-0.1-0.4c-0.4,1.1-1.3,4.6-1.3,4.6c-0.7,0.4-0.1,0.3-1,0c0,1,0.3,0.7-0.3,1.5
			l0.1,0.4c-0.4-0.5-0.4-0.6-0.7-1.1c0.5,0,0,0,0.7,0.5l0.2-0.2c-0.2-0.5-0.5-1-0.7-1.5c-0.5,0.3-0.7,0.4-1.3,0.5
			c-0.6,1.4,0,1.9,0.1,3.1l0.5,0.3c-0.2-0.8-0.3-1.6-0.5-2.4l0.2-0.2c0.1,0.5,0.2,1,0.3,1.6l0.5,0.3c-0.1-0.5-0.2-1-0.3-1.6l0.2-0.2
			c0.3,0.5,0.1,1.2,0.7,1.1l0.2,0.2c-0.9,0.7-0.6,0.8-0.6,2c0,0.5-0.2,0-0.5,0.7c-0.4-0.5-1.5-1.4-2.1-1.4c-0.1,0-1.4,1.1-1.9,1.4
			c0.2,1,0.5,2.3,0.5,3.4l-0.2-0.2l-0.2,0.2c0-0.6,0,0,0.3-0.5c-0.3-0.5-0.4-0.7-0.9-1.2c-0.5,0.2-0.8,0.2-1.4,0.1
			c-0.2,1.2,0.1,2.2-0.2,3.5l-0.2-0.2c-0.4,0-0.1,0.1-0.6-0.1l0.2-0.2c-0.2-0.5-0.1-0.1,0.3-0.5c-0.2-0.4-0.3-0.6-0.4-0.9
			c0,0-0.5-0.3-0.6-0.3c0,0,0,0.1,0,0.2c-0.1-0.1-0.1-0.2,0-0.2c0-0.2,0.1-0.2,0.2-0.7c0.4,0.6,0.3,0.3,0.4,0.9l0.5,0.3
			c0-0.5,0-1-0.1-1.4l0.2-0.2c0,0-0.5-0.3-0.7-0.3l0,0.2l0,0l0.1,0.4l-0.1-0.4c-0.1-0.1-0.1-0.2,0-0.2l0-0.2l-0.5-0.3
			c0,0.7-0.2,0.9-0.1,1.3l-0.2,0.2c-0.5-0.6-0.6-0.6-1.3-1.2l-0.4,0.1c-0.1,0.4,0,0.2,0.1,0.4l0.2,0.2c-0.6,0.5-0.4,3-0.2,3.5
			l-0.2,0.2c-0.1-0.3-0.1-0.5-0.2-0.8l-0.2-0.2l-0.3,0.5c0.4,0.6,0.7,0.9,0.7,1.5c0,0,1,0.5,0.6,0.1c0.3,0.4,0.2,0.2,0.3,0.5
			c-0.8-0.1-0.1-0.2-0.8,0.2l-0.5-1.3c-0.5,0.5-0.2,0.1-0.5,0.7c-0.1-0.3-0.1-0.5-0.2-0.8L594,211c0.1,0.3,0.1,0.5,0.2,0.8L594,212
			c-0.5-0.8-0.2-0.7-1-1c0.4-0.4,0.3,0.1,0.3-0.5c0.5,0,0,0,0.7,0.5l0.2-0.2l-0.1-0.4c-0.5-0.2-1.1-0.5-1.6-0.7
			c-0.2,0.6-0.3,1-0.3,1.5l0.1,0.4l0.2-0.2l0.2,0.2c-0.4,0.7-0.3,0.5-0.3,1.5c-0.5-0.2-0.2,0.2-0.5-0.3c-1.2-0.3-0.9,0.7-1.8,1.2
			c-0.5,0.2-0.1,0.1-0.5-0.3l-0.2,0.2c-0.6,0.3-0.5,0.7-0.1,1.7l-0.2,0.2c-0.2-0.4-0.4-0.9-0.5-1.3c0,0-1-0.5-0.6-0.1l0.1,0.4
			c-0.3-0.4-0.3-0.4-0.8-0.8l-0.2,0.2c0.3,0.3,0.7,0.7,1,1l-0.2,0.2c-0.6-0.6-0.7-0.6-0.9-1.2l-0.2-0.2l-0.3,0.5
			c0.3,0.3,0.7,0.7,1,1c-0.3,0.2-0.2,0.1-0.4,0.1c-0.4-0.1-0.5,0-0.7,0.1l0,0l0,0c-0.1,0.1-0.3,0.2-0.5,0.3
			c-0.5-0.4-0.5-0.5-0.8-0.8c0.5,0,0,0,0.7,0.5c-0.1-0.6,0-0.4-0.4-0.9c0.6-0.5,0.1,0.1,0.8-0.2c0.7-0.1-0.2-0.7,1.1-0.7l0.2-0.2
			l-1.7-0.4c-0.5,0.7-0.4,0.2-0.5,0.7c-0.4,0-0.5-0.1-1.3-0.5l-0.3,0.5l0.9,0.2c-0.5,0.5-0.2,0.1-0.5,0.7c-0.5-0.6-0.6-0.9-0.7-1.5
			l-0.5-0.3l-0.7,0.6c0.2,0.4,0.3,0.6,0.4,0.9l0.5,0.3c-0.1-0.3-0.1-0.5-0.2-0.8l0.2-0.2c0.2,0.4,0.4,0.9,0.4,1.3c0,0,0,0,0.1,0
			l-0.1,0.1c0.2,1.1,0,2.2,0.3,2.7c0.3,0.7,1.1,1,1.4,1.5l0.2,0.2c-3,0.2-6-1.7-9.2-2.5c-0.9-0.2-2.4-0.2-3.1-0.3
			c-2.1-0.4-3.8-1.9-5.7-1.6c-1.2-0.8-1-0.9-1.5-0.3c-0.8-1-4.7-2.4-5.9-2.4c0,0-1-0.5-0.6-0.1l0.1,0.4c-0.8-1-1.3-0.8-2.9-1.8
			c-0.4,0.4-0.4,0.4-0.7,0.6l-0.2,0.2c0-0.6,0,0,0.3-0.5c-1.2-0.4-2-0.7-2.8-1.4c-0.4,1.1-0.2,1.4,0.3,2.2l-0.5,0.7
			c-0.1-0.6-0.3-1.3-0.4-2l-0.5-0.3c0.1,0.3,0.1,0.5,0.2,0.8l-0.2,0.2c-0.1-0.3-0.1-0.5-0.2-0.8l-0.5-0.3c0,0.9,0.4,1.4,0.1,2.4
			l0.2,0.2l-0.8,0.2c0.1,0.8,0.4,1.3,0.3,2.2l1,0c-1.8,0.8-2.8-0.7-4.6-0.2c-0.6,0.3-0.6,1-1,2.1c0.3,0.4,0.2,0.2,0.3,0.5
			c0.5-0.3,0.2-0.1,0.5-0.7l0.1,0.4c0.4,0.7,0.3,0.1,0,1c1.1,0,0.8-0.2,1.7,0.4c-0.1-0.4-0.2-0.8-0.3-1.2l0.2-0.2
			c0.1,0.4,0.2,0.8,0.3,1.2c0.6,0.3,0.7,0.4,1.1,0.4c0,0,1,0.5,0.6,0.1l-0.1-0.4c0.5,0.5,1.7,0.6,2.1,1l0.5,0.3
			c-0.4,0.4-0.4,0.4-0.7,0.6c-1.7,0.9-4.2,0-6,0.5c-0.3,0.1-0.3,0.1-0.7,0.6c1,0.5,2,1,2.8,0.8c0.3-0.1,0.3-0.4,0.7-0.5l0,0l0.4-0.1
			c-0.2,0-0.3,0.1-0.4,0.1l-0.3,0.4c1.8,0.8,8.4,1.8,10.2,1.5l0.5,0.3c-0.6,0.5-0.9,0.2-1.3,0.5l-2.3,2.6c-0.7,0.4-2.3,0.4-2.9,0.8
			c-1.8,1.2-0.8,2.2-3.3,2.6l-0.5,0.7c0.9,0.2,2.6,1.2,2.9,1.2c1,0.8,0.8,1,1.2,1.8c-2.5,3.1-7,5.9-10.3,6.2l-0.6,1
			c0.6,0.3,1.2,0.6,1.8,0.8c-1.2,1.7-2.2,2-3.3,3.6l0.7,0.5l0.1,0.4c-2.6,3-7.7,4.2-9.9,7.1c1.1,0.6,6.8,1.3,7.6,0.8l0.7,0.5
			c-0.7,1.9-1.6,2.9-0.9,4.5c-0.4,0.4-0.4,0.4-0.7,0.6c-0.7,0.4-1.1,0.1-1.8,0.2c-1.5,0.5-2.3,2.5-3.7,3.7c-0.8,0.6-1.7,0.4-2.5,0.8
			c-1.2,0.5-1.9,2.2-3.1,2.7l-0.9,1.4l-0.2-0.2c-0.4,0.1-0.7-0.4-1.1-0.4c-0.7,0-1.1,0.9-1.9,0.8l-1.3-0.5l-1.9,1.4
			c-0.5,0.2-1-0.4-1.5-0.3c-1.4,0.3-2.5,1.7-3.7,2.7c-0.6-0.2-1-0.3-1.5-0.3c0-0.4,0.1-0.9,0.1-1.3c-1.1-0.5-2.8-1.2-3.9-0.8
			c-0.5-0.4-0.5-0.5-0.8-0.8c0.3,0,0.5,0.4,1.1,0.4c0.5-0.1,0-0.2,0.2-0.9c-2-0.7-2.7-0.6-4.5-1.9l-0.8,1.2c0.4,0.1,1.1,0.3,1.5,0.3
			c0.4,0.6,0.2,0.5,0.7,1.1l-0.3,0.5c-1.1-1.1-2.3-1.6-2.3-2.8c-0.3,0.1-0.7,0.3-0.9,0.4c-0.1-0.8-1.3-2.6-2.7-2.1
			c-0.4-0.7-0.4-0.6-0.1-1.4c-1.1-0.2-2.5-1-3.7-1c-2.7-0.1-5,1.6-7.9,1.3c-0.3,0.7-0.2,1.8,0.3,1.6c0.3,0.7-0.2,1.6-0.5,2.4
			c0.7,0.6,0.3,0.3,1,0.6l-0.4,0.1l-0.5,0.7c0.7,0.2,0.7,0.1,1.3,0.1l-3.5,0.8c-0.9-0.7-0.6-0.7-1.1-1.4c-0.4,0.1-0.6,0.1-1,0
			c-0.8,1.6,0.1,2.1,0.5,3.4c0.2,0.3-1.2,0.6-1.8,1.2c-1.4-0.8-1.9-0.8-1.9-2.2c-1.4-0.6-3-0.7-4.2-0.3l-0.7-0.5
			c1.6-1.4,1.1-1.5,2.4-3.8c-1-0.1-2.6-0.7-3.6-0.6c-1.3,0.1-2.1,0.9-3.5,0.8c-0.2-0.2-0.2,0-0.2-0.8c-2.9-1.8-11.8,1.5-14,3.5
			c-1-0.6-2.2-1-3.1-1c-0.5-0.8-0.4-0.9,0.2-1.9c-1.1-0.2-1.9-0.2-2.8,0.2c-0.4,0.2-0.4,1-0.8,1.8c0.3,0.4,0.4,0.6,1,1
			c-0.7,0.3-0.7,0-1.5,0.7c-2.5-2.6,0.1-5.1-0.2-8.2c-0.1-0.6-1-0.8-1.1-1.4c0.5-1.1,0.9-2.1,1.4-3.2c0.2-2.3-1.5-4.2-2.4-6.2
			c-0.5-1.2-0.8-3.8-2.1-4l-0.2-0.2l0.5-0.3c-1-0.4-1.2-0.6-2.4-0.5c-1-1.3-1.7-3-4.1-3.6l-0.5,0.3c-1-0.4-1.5-2.2-2.6-2.3
			c-0.5,0.2-0.7,0.6-0.5,1.3c-0.4,0.7-0.7,1.1-1.2,1.3c-2.7,0.2-3.9-2.7-6.6-1.2c-1.6-1.7-3.5-4.1-4.5-5.6c-0.4,0.1-0.6,0.1-1,0
			c-0.2,0.2-0.5,0.4-0.7,0.6c0.7,1.7,0.5,3.4,1.9,4.9c-1.2,1-4.7-0.4-7,0.9c-4.1-2.9-6.8-11.2-6.2-15.1c0.1-0.6,0.9-1,1-1
			c0.2-0.2,0.3-1.7,0.4-2.1c0.2-2.7,0-5.9,0.4-8.5c0.2-1.4,1.6-3.3,1.8-3.9c1.5-4.3,7-12.2,8.6-14c1-1.1,0.5-2,1.4-2.8
			c-0.5-0.8-0.2-0.5-0.8-0.8c0.2-0.2,0.5-0.4,0.7-0.6c-0.5-0.7-3.3-3.1-3.4-3.2c-0.7-0.2-1-0.2-1.4,1.1c-0.4-0.6-0.3-0.5-0.3-1.2
			c-0.5-0.1-0.3-0.1-0.6-0.1c0.2,1.7-2.3,3.6-2.3,6.3c-0.1,0.6-0.1,0.6-0.1,0.6l0.2,0.2c-1.2,1-1.1,2.1-2.1,3.7
			c-1.1-0.8-1.4-1.7-2.2-1.8c-0.1-0.6,0.5-5.1,1.7-5.3l0.2-0.2c-1.7-0.4-2.4,0.6-3,1.5c-0.5-0.6-0.9-0.9-1.8-0.8l-0.5-0.3
			c-1,1.5-1.2,2.7-0.8,3.9c-0.4,0.3-0.2,0.2-0.5,0.3l-0.4,0.1c0.1-1.5-0.7-2.9,0.2-3.9c-3.2-1.1-6.7-2-9.8-0.9
			c-1.3-1.2-0.5-2.2-0.8-3.5c-0.2-1.1-1.6-6.4-1.6-6.4c0.1-2.8,1.2-4.3-1.2-6.5c0.6-0.2,0.3-0.2,1,0c0-1.6-0.9-0.5-1.4-1.5l0.4-1.1
			c-0.2-0.8-1.1-1.1-1.4-1.9c-0.1-1.4-0.2-2.8-0.3-4.2c-0.5-1.2-1.4-1.9-1.7-3.1l-0.2-0.2c-0.4,0.3-0.2,0.2-0.5,0.3
			c-1.5,3.9,1.4,9-0.1,12.7l0.7,0.5l-0.4,0.1c-0.2,0.7,0.1,1,0.5,1.3c-0.8,1-1.2,1.2-1.5,2.4c-0.1,0.5,0.8,0.6,1.2,1.8
			c0.4,1.1,0.8,6.3,0.6,7.5c-0.3,2-1.3,3.3-0.5,5c-0.4,0.5-0.5,0.6-0.8,0.8c-0.1-0.6-0.1,0.1-0.5-0.3l0.2-0.2
			c-0.5-0.6,0.1-0.1-0.2-0.8c-0.1-0.3-0.7-0.6-1.3-0.5c-1.1-0.1-1.1,0.1-1.5,0.7c-0.1-0.2-0.2-0.4-0.3-0.5l-0.3,0.5
			c-0.5-0.7-0.4-0.3-0.3-1.2c-1-0.2-1.1,0.1-2.1-0.4c-0.4,0.6-0.6,0.7-1,1l-1-0.6c0.4-0.5,0.5-0.5,0.8-0.8l-0.2-0.2l-0.1-0.4
			l-0.2,0.2c-0.6,0-1.5,0.7-2.2,1.3c-1.5-1.6-0.1-5.8,0.9-7.2l-0.5-0.3c-0.9,1.5-1.8,4.1-3.4,4.9c-1.2-0.1-1.8-3.1-2.4-4.6
			c-1.7-4-4.6-8.6-4.9-12.3l-0.5-0.3l-0.2,0.2c0.3,0.7,0.4,1,0.5,1.3c0,0.3-0.2,1-0.1,1.3l-0.3,0.5l-0.2-0.2
			c0.3-1.2,0.1-3.4-0.6-4.4c0.2-0.7-0.3-0.4-0.7-0.5c-0.2,0,0.1,3.9-0.4,5.4c0.5,0.1,0.3,0.1,0.6,0.1c0.3-0.1,0.3-0.1,0.7-0.6
			c0.5,0.4,0.6,0.5,0.8,0.8l0.2,0.2c-0.6-0.1-0.2,0-0.7-0.5l-0.8,1.2c0.3,0,0.7,0,1,0c-0.4,0.4-0.3-0.1-0.3,0.5l-0.3,0.5
			c0.8,0.1,0.1,0.2,0.8-0.2c0.1,0.5-0.1,0.9,0.1,1.4l0.1,0.4l0.2-0.2l0.2,0.2l-0.5,0.3c1.8,2.6,3.1,5.3,5,7.9
			c-0.7,0.9-1.7,1.8-2.7,1.6c0.1,0.3,0.3,0.7,0.4,0.9c0,0.7-0.2,0.5-0.6,1c0.3,0.4,0.4,0.6,1,1c-1,0.4-0.8,0-1.2,0.9
			c-1-1.3-1.2-1.1-2.6-2.3l-1.2,1.3c-0.3-0.4-0.2-0.2-0.3-0.5c-0.4,0.3-0.4-0.1-0.3,0.5c-0.7,0.1-3.2,0.3-4-0.6
			c-0.1,0.5-0.1,0.3-0.1,0.6l-0.2,0.2l-0.3-0.5c-0.5,0.7-0.4,1.6-1,2.1c-0.8,0.8-1.4,0.7-2.4,0.5c-0.7,1.2-0.7,1.6-0.9,2.5
			c1-0.1,0.7,0,1.1-0.7l0.6,0.7c0.2-0.7,0.2-0.5,0-1l0.2-0.2l0.3,0.5l0.5-1.3c0.4,0.4,0.9,0.8,1.3,1.2c-0.6,0.4-0.7,0.2-1.4,0.1
			c-0.6,1-0.5,1-0.4,1.7c1,0.3,0-0.3,1,0l0.2-0.2c0.1,0.3,0.1,0.5,0.2,0.8c1.9-0.2,2,0.6,3.6,0.6c0.9,0,0.7-0.9,1.5-1.4
			c1.2-0.6,1.4,0.9,3-0.4c0.8,0.4,1.5,0.8,2.3,1.1c0.7-0.8,1.5-1.4,1.5-2.4c1-0.6,2.3-0.3,3.4-0.5c0.4,0.8,0.3,0.1-0.2,0.9
			c1.7,0.5,3.8,3.5,5.3,3.8c0.8,0.8,0.5,0.9,1,1.6c-0.4,0.3-0.8,0.8-1.3,1.5c-0.1-0.3,0-0.7,0-1l0.2-0.2c-0.7-0.2-0.7-0.1-1.3-0.1
			c-0.9,0.9-1.9,2.6-3.2,3l-0.2,0.2c0.4,0.4,0.9,0.8,1.3,1.2c-0.9,1.4-1.8,1.4-3.1,2.7c0.1,0.3,0.1,0.5,0.2,0.8
			c0.6,1.5,3.2,2.3,4.3,3.8c1.7,2.2,5,5.4,6.7,7.4c1.4,1.5,3.7,2,4.8,3.1c1.4,1.3,1.2,2.6,2.4,4.2c0.9,1.3,2.6,2,2.8,3.5
			c0.2,1.1-0.5,1.9-0.6,3c0.7,0.6,1.5,1.2,2.2,1.8c-1.6,1.6-3.7,1.9-5.7,1l-0.5,0.7c1.9,0.6,5.6,3.2,8.1,3.2
			c0.3,0.5,0.5,4.7,0.2,5.5c0,0.4-0.1,0.3-0.7,0.6l-0.2,0.2c1.5,0.4,2.4,0.2,2.4,1.5c2.1,1.3,9.8,2.4,12.1,2.1
			c0.4,0.6,0.3,0.3,0.4,0.9c0.3,0.5-0.3,1.4-0.5,2.4c-1.5-0.1-3.5-0.5-5-0.5l-0.5,0.7l0.7,0.5c-0.7,0.6-1.3,0.7-2.1,0.7l-0.3,0.5
			c1.2,0.3,1.8,1.1,2.9,1.2c2.5,0.2,6.1-1.1,8.8-1.1c-0.2-0.4-0.3-0.5-0.8-0.8c0.3-0.9,1.1-2.4,1.1-3.3c0.7-1,0.9-1,1.5-1.4l0.7,0.5
			l0.5-0.7c1.6,0.1,6.6-0.2,7.5,1.4c1.1,0.6,0.8,0.7,1.3,0.1c1.1,0.7,1,0.7,1,1.6c0,0.5-0.9,0.9-1.6,1c0.2,0.6,3.7,4.3,4.2,4.4
			c0.4,0.6,0.2,0.7,0.1,1.4c1.6,1.5,3,3,4.2,4.4c-0.4,0.7-0.6,1.4-0.6,2c-0.9,1.1-1.4,1.2-2.4,1.1c-1.1,1.7-0.4,2.2,0.9,3.3
			c-0.5,0.8-1,1.7-1.6,2c-1.8,1.3-4-0.2-5.5-1.5c0.2-0.5,0.5-1.1,0.7-1.6c-2.3-1.4-5.2-1.2-7.4-1c-0.6,0-1.3,0.9-1.9,0.8
			c-1.2-0.1-0.8-0.9-1.9-1.2c-1.9-0.5-4.3-0.3-6.1-0.5c-2.1-0.3-2.4-2.8-4.5-2.5c0,0-1-0.5-0.6-0.1c-3-1-7,0.8-10.7,0.9l-2.4,4.2
			L393,275l-2.3,3.6c-0.6-0.1-0.9-0.1-1.4,0.1l-1.2-0.8c0.6-1.5-0.5-2.7-1.3-3.8c0.1-0.4,0.8-1,0.8-1.2c-0.1-0.6-0.5-0.3-0.3-1.2
			c-0.3-0.3-0.7-0.7-1-1c-2.4,0.5-3.3-2.3-5.2-1.3l-0.5-0.3c1.4-1.5,4.1-1.5,6.1-0.1c0.3-0.9,0.2-1.3,0.9-2.5
			c-3.4-0.5-8.5,1.5-11.8,2.2c-0.6,0.3-1.8,2.4-3,3.1c-0.4,0.3-3.5,1.1-4.1,1.1c-0.4-0.1-0.7-0.2-1.1-0.4c-0.8,0.3-0.6,0.9-0.9,1.4
			c-2.5-0.9-4.6-0.9-6.8-1c-2.1,3.3-7,8.4-9.4,8.8l-0.2,0.2c-0.1-0.3-0.1-0.5-0.2-0.8c-1.2-0.6-1.2-0.5-2,0
			c-0.4-0.4-0.4-0.4-0.6-0.7c-0.7-0.9-0.4-2.4-0.1-3.5l-0.5-0.3c-0.3-0.5,0.6,0.1,0.6,0.1c0.3-0.6,0.4-0.7,0.4-1.1
			c-0.7-2.1-3.5-2.8-5.4-4.8c-1.7-1.8-5.3-4-6.5-6.2c-0.2-0.5,0.1-1.3-0.2-1.8c-0.6-1-1.8-1.5-2.2-2.4c-0.3-1-0.2-1.3,0.6-2
			c-0.8-1.2-1.7-1.6-3.2-2.4l0.5-0.7c-1.4-1.9-4.2-3.6-4.6-5c-0.3-1,0.1-2.1-0.1-3.1c0.7-0.7,0.6-0.4,1.2-0.9l0.7,0.5l0.5-0.7
			l-0.7-0.5l0.9-0.4c-0.6-0.8-2.3-1.9-2.6-2.3l-0.4-0.9c0.6-0.6,0.6-0.7,1.2-0.9c0.1-1.2-0.9-1.6-1.4-2.6l-0.2-0.2l0.5-0.3
			c-1-1.6-4.9-4.6-6.1-4.6c-2.2-1.5-0.6-2.2-2-3.7l0.3-0.5c1,0.3,1.5,0.5,2.2,0.7c0.8-0.5,2.1-1.1,2.2-1.9c0.3,0,1,0.2,1.3,0.1
			l0.4-0.1l-0.2-0.2c0.4-0.1,0.2,0.1,0.9,0.2c-0.2,0.1-0.4,0.2-0.5,0.3c1.2,1.8,3,2.6,3.7,4.7c1.5-0.2,4-1.3,4.5-2.8
			c0.2,0.3,1.4,1.5,2,1.6l1.3-0.5c0.6,0.1,0.8,1,1,1c0.8,0.1,1.8-1,2.7-1c0.2,0.3,1.2,1,1.8,0.8c0.8-0.2,2.6-2.5,2.7-2.6
			c0-0.9,0.2-0.3-0.6-0.7c0.9-0.6,2-0.6,2.1-0.7c1.2-2.4,2.4-4.8,3.6-7.1c-1.6-1.3-0.5-1.5-0.8-2.9c-0.2-0.9-1.4-1.6-1.8-2.5
			l0.2-0.2c-0.4-1.4,0.5-1.2,0.5-2.4c0-0.9-0.6-2-0.4-3c0.9-0.7,1.6-1,1.5-2.4c1.1-1.6,1.9-1.2,3.3-0.9l2.6-5.1
			c0.8,0.4,0.8,0.2,1.5,0.3l0.3-0.5c-0.5-0.5-0.9-1-1.4-1.5l0.6-1c-2-1.7-4-3.9-5.5-5.6c-0.9-1-2.5-1.5-3-2.6
			c-0.9-0.5-1-0.4-1.7-0.4l-0.9,1.4c0.4,0.4,0.4,0.4,0.6,0.7l1,0.6c-0.8,0.5-4.7-0.9-6.2-1.9c0.2,0.7,0.8,1.6,1.3,2.2
			c-0.7,1.1-1.4,3.5-1.3,4.2c-1.1,1.8-0.4,1.3-0.4,2.8c0.6,0.2,0.5,0.2,0.9,0.2c0.3-0.1,0.3-0.1,0.7-0.6c1.4,0.8,3.8,1.1,4,1.6
			l1.7,1.1c-0.4,0.3-0.4,0.3-0.8,0.8c-2.6-1.1-4.5-1.6-7.2-0.9c-0.3,0.1-0.3,0.1-0.7,0.6c1.1,0.7,1.8,1.1,2.7,1.1l0.2,0.2
			c-1,0.6-2.2,0.4-3.3,0.9c-0.1,0-0.3,0.1-0.4,0.1c0.3,0.7,0.3,1.4,0.3,2.2c1.7,0.5,3.5,0.8,5.1,0.9c-1.3,0.7-11.3,0.8-13.2,0.6
			c-1.1-0.1-2.3-1.1-3.2-0.7c-0.3,0.1-1.4,1-1.8,1.2c-0.4-0.4-0.4-0.4-0.6-0.7c0-0.4,0.1-0.2,0.6-1c-0.8-1.2-0.4-2.2-0.8-2.9
			c-1-1.9-1.6-0.2-1.2-2.8c-2.7-1.9-4-2.4-6.4-2.1c-0.2-0.6-1.4-1.2-1.9-1.2c-0.1,0.3-0.1,0.1,0.1,0.4c-0.9,0.7-0.8,0.2-1.2,0.9
			c-0.5-0.1-0.3-0.1-0.6-0.1c0,0-0.9-0.7-0.3-0.5l0.4-0.1c-1.3-1-1.5-1.2-2.7,0c-0.4-0.7-0.3-0.1,0-1c-1.6-0.6-3.8-0.4-4.4,0.6
			c-0.4-0.5-0.4-0.6-0.7-1.1c0.3-0.7,0.5-0.8,0.5-1.3l0.2-0.2l0.3,0.5l0.3-0.5c-1-0.7-1.6-1-2.4-0.5c-1.2-1.1-1.5-2.6-2.1-3
			c0.4-0.4,0.3,0.1,0.3-0.5l-0.1-0.4c-0.9,0.5-2,0.9-2.3,1.5c-0.7,0.2,0-0.5-0.7-0.5c-0.7,0.1-1.4,0.7-2.1,0.7
			c-1.2-0.1-2.2-1.2-3.3-1.1c-1.4,0.1-1,0.8-2.4,0.5c-0.5,0.6-0.7,0.5-0.8,1.2c-0.9,0.5-5.5,1-6.7,0.4c0,0.7,0.2,0.4-0.1,1.3
			c-1.7-0.7-2.9,0.2-4.6-0.2c-0.3,2.2-0.8,2.5-0.9,4.5c-1.1,0.1-1.9,1.3-3,1.5c-2.1,0.3-4.4-0.9-6.6-1.2c-0.7-0.1-1.5,0.4-2.2,0.3
			c-2.4-0.4-7.7-2.2-8.7-0.6c-1,0-1.7-0.7-2.6-0.7c-0.6-0.4-0.9-0.6-1-1c0.1-0.6,1.2-1.3,1.8-1.2c-0.6-1.8-1.1-1.7-1.5-3
			c-0.1-0.4,0.4-0.6,0.8-0.8c0.5-2.6-2.2-5.4-2.6-7l0.3-0.5c-0.2-1.2-1.1-3.3-1.6-4.4c-0.6-1.4-1.8-2.4-2.3-3.8
			c-0.1-0.3,0.3-0.9,0.1-1.3c-0.3-0.3-0.7-0.7-1-1c-0.2-0.5,0.8-2.2,0.3-3.1c-1.1-2.3-1.7-1.6-1.6-4.4l-0.2-0.2
			c-0.2,0.6-0.3,1-0.3,1.5l-0.2,0.2c-0.1-0.3-0.3-0.6-0.4-0.9c-5.4,3.1-10.6,6.9-16.2,10.5c-1.3,0.9-3.4,1.4-4.6,2.4
			c-0.8,0.6-0.4,1.8-0.6,2c-1.7,1.2-3.8,0.7-4.7,2c-0.8-0.8,0.4-4.3,0.2-5.6c0.2-0.8-0.1,0-0.2-0.8c0,0,1.1-1.8,1.5-2.4L221,177
			c-0.2-0.7-0.5-0.3-1.1-0.4c0.1-0.5,0.3-0.9,0.7-1.6l-0.2-0.2c-0.5,0.5-0.4,0.1-0.5,0.7c-0.9,0.6-2.3,0.3-3.2,2.3
			c-0.6-0.7-0.4-0.5-0.7-1.1c-0.9,0.7-1.9,1.5-2.9,1.9l-0.3,0.5l0.4-0.1l0.2,0.2c-0.8,0.7-1,0.9-0.6,2l-0.2,0.2
			c-0.4-0.6-0.5-0.8-1.4-1.5c-1.4,2-2.7,1.4-4.1,1.7c-0.5,0.3,0-0.2-0.6-0.1c-0.9,0,0.1,0.2-0.7,0.6l-0.2,0.2
			c-0.1-0.5,0.4-2.2,0.4-2.8l0.2-0.2l-0.6-0.1c0.9-0.2,0.3-0.2,1.1,0.4c0.2-0.8,0-1,0.1-1.7c-1.1-0.3-0.4,0.1-1.3-0.5
			c0.1,0.4,0.2,0.8,0.3,1.2l-0.2,0.2c-0.9-1-0.6-0.6-1.8-1.5l-1.5,0.7c-0.6-0.4-0.7-0.6-1-1c0.4-0.4,0.4-0.4,0.7-0.6l0.5-0.7
			c-1.4-0.2-2.3,0.3-4-0.6c0.1,0.3,0,0.1,0.3,0.5c-0.3,0-0.7-0.4-1.1-0.4c-0.3,0-2.2,1-2.4,1.1c-0.6,0.4-0.5,1.1-0.8,1.2
			c0.1-0.9-3.4,0.9-4,1.5c-0.9,0.9-0.6,1.7-2.1,2.7c-1.5,1-3.4,0.5-4.9,1.3c-0.4-0.4-0.4-0.4-0.6-0.7c0.2-0.7,0-0.2,0.7-0.6
			l-0.1-0.4c-0.8-0.2-1.6-0.2-2.3-0.1l-0.4,0.1c0.3,0.4,0.3,0.4,0.8,0.8c-0.8,1-1.8,1.1-2.8,1.2c-1.6-0.4-1.8-3.2-2.8-4.1
			c-1.2-1.1-2.8-0.5-3.6-2.3c-0.7,0-0.5,0.3-1.2,0.9l-0.5-0.3c-0.4,0.2,0.1-0.1-0.1-0.4l-0.2-0.2c-1.4,0.7-3.4,1.9-4,3.1l-0.8,1.2
			c1.5,0.4,2.8,1,4.6,0.2c0.3-0.2,0-0.4,0.6-1c-1.1-0.2-1.6,0.3-2.5,0.8l-0.2-0.2c0.9-1,1.4-1.3,1.1-2.3l0.2-0.2
			c0.6,0.6,0.7,0.6,0.9,1.2c0.5-0.3,0.2-0.1,0.5-0.7c0.8,0.8,1.2,1.1,1.4,1.9c0.8,0.1,0.9,0.1,1.6-0.3l0.5,0.3l-0.4,0.1
			c-0.3,0.8-0.4,0.3,0.2,0.8c-1.1,1-2,1.6-3,3.1l-1-0.6l-0.2,0.2c0.3,0.4,0.3,0.4,0.8,0.8c-1.1,1.1-2-0.3-3,1.5l-0.3-0.5
			c-1.1,0.6-2.3,1-3.4,1.6c-0.5-0.4-0.6-0.5-0.8-0.8c-0.8,0.3-1.2,1.6-2,2.1c-0.1-1.4-7.4,2.6-7.4,2.6c-1.1,0.1-2.9,0.1-3.9-0.2
			l-1.4-0.9c-1.5-0.2-4.2,0.7-5.7,1c-1.5,0.4-2.5,1.3-3.9,1.9c-0.1,0-3.3,0-4.2,0.3c-0.9,0.3-1.5,1.2-2.3,1.5c-1.8,0.7-6.5,2-8.4,2
			l-0.3,0.5c0.8,0.4,1.7,0.9,2.5,1.3c-0.8,0.8-4.2,0.1-5.3,0.3l-0.4,0.1l0.2,0.2l-0.2,0.2l-0.3-0.5c-0.3,0.7-0.1,0.9-0.8,1.2
			l-0.3,0.5c0.6,0.2,1.5,0.4,2.1,0.4l1.9,1.2c-0.4,0.3-0.4,0.3-0.8,0.8c-0.9-0.1-2.5-0.9-3.5-0.9c-0.8-0.3-0.3-0.4-0.8,0.2
			c-1.8-0.2-2.6-0.6-4.2-0.3c0.2-1.3,0.2-1.6,1-2.1l-0.2-0.8c-0.6-0.5-1.2-1-1.8-1.5c-0.3,0.6-0.4,0.7-0.4,1.1
			c-0.4,0-0.5-0.1-1.1-0.4c0,0.9,0.4,0.7,0.9,1.2l0.1,0.4c-0.5-0.1-0.3,0.2-0.5-0.3c-0.6-0.1-1.8,0.5-2.4,2.2
			c-0.5,1.4-2.5,1.6-4.1,2.8l-0.5-0.3c-0.6-0.1,0.3,0.5,0.3,0.5l-0.3,0.5c-0.4-0.6-0.2-0.4-0.4-0.9c-1.2,0.6-2.3,1.1-2.6,2l-0.2,0.2
			l-0.3-0.5l-0.2,0.2c-0.7,0.1-2.1,1.1-2.9,1.9c-2.2-1.3-3.7-0.7-5.5-0.8l-1-0.6c-2.2-0.2-4.9,1.2-6.7,1.1l-1.2-0.8
			c-3-0.1-7.4,2.5-10.2,3.9c-1.9,0.3-3.7,0.5-5.6,0.8c-0.6,0.3-2.4,1.2-2.7,1.6c-0.4,0.4-0.2,1.7-1,2.1c-0.5,0.2-1.7-0.4-2.3-0.1
			c-1.5,0.6-2.1,1.6-3.7,1.6l-0.2,0.2c1.2,0.4,2.6,0.9,3.7,1l0.4-0.1c-0.3-0.5-0.2-0.3-1-0.6c0.9-1.1,2.7-1.2,3.9-0.9
			c1,0,1.3,1.1,1.7,1.1l0.2,0.2l-0.5,0.3c0.8,0.1,1.1-0.2,1.8-0.2c0.3-0.8,0.2-2,0.9-2.5c1-1.2,1.3-0.8,2.3-1.5
			c1.2,0.5,2.2,1,3.2,0.7c1.4,1.3-0.6,1.7,0.9,3.3c-0.5,0.5-0.9,0.1-0.7,0.6l-0.3,0.5l0.4-0.1l0.2,0.2c-0.7,0.8-1.6,1.9-2.4,2.2
			l-0.2,0.2l-0.3-0.5l-1.5,1.4c-0.4-0.2-0.9-0.4-1.3-0.5l-0.3,0.5c-1-0.1-1.1-1-1.7-1.1l-0.5-0.3c0.6-0.4,0.9-0.4,1.6-0.3l-0.5,0.3
			c0.9,0.1,1.8-0.2,2.8-0.2l0.2-0.2c-1.5-0.8-2-0.6-3.6-1.7c-0.1,0.8-0.2,0.9-0.1,1.3c-0.5,0.1-2.1-0.9-3.6-1.7l-0.5,0.7l0.2,0.2
			c0.1,0.3,0.1,0.3,0.6,0.7c-0.4,0.4-0.4,0.4-0.7,0.6l-0.2,0.2c0.5,0.1,0.3,0.1,0.6,0.1c1.3,1.1,0.3,2.3,1.3,3.8l-0.5,0.7
			c-0.1-0.4-0.1-0.6,0-1l-0.5-0.3c-0.7,1.4-0.7,3-0.3,4.2l-0.3,0.5l0.4-0.1l0.2,0.2c-1.1,1.2-0.3,3.2-0.4,4.8c1.1,0.4,1,0.3,1.8-0.2
			c2,1.8,0.4,3.8,2.1,5.7c-0.2,0.6-0.2,0.5-0.2,0.9c-0.9,0.6-2.1,0.7-3.1,0.7c-0.2,0.8-1.9,7.1-1.8,7.6c0.2,0.6,0.6,0.7,0.8,0.8
			l0.2,0.2c-0.8,0.8-1.1,2.9-1.3,4.2l-0.4,0.1c-0.6-0.6-0.6-0.4-0.7-1.1c-2.3,0.8-3.3,6.1-5.6,7.2c-1.5,2.1-1,3.4,0.2,4.9
			c-0.5,0.7-1.1,1.3-1.6,2l0.7,0.5c-2,0.9-4-1-5.5-1.9c0,0.1,0.1,0.3,0.1,0.4c-1,0.5-2.2-0.1-3.2,0.3c-1.6,0.6-2.3,1.4-3.4,1.6
			c-0.3,0-1.5-0.8-2.8-0.4l-0.2-0.2c0.3,0.9,1,1.4,1.7,2.1c-1.7,1.6-4,0.6-5.9,1.3c-1.1,0.4-1.8,1.4-3,1.5c0.1,0.3,0.3,0.7,0.4,0.9
			c0,0.4,0.1,0.1-0.1,0.6c-1.4,0.4-3.3,0.8-4.6,1.4c0.5,0.5,0.5,0.5,1,0.6l0.2,0.2l-0.5,0.3c0.5,0.4,1,0.9,1.5,1.3
			c-0.5,0.7-0.9,1.4-0.9,1.4l-0.3,0.5c0.6,0.3,1.2,0.6,1.8,0.8c-0.5,0.8-0.9,1.6-1.1,1.7l-0.3,0.5c0.7,0,1.3-0.1,2,0l-0.4,0.1
			c-0.3,0.6-0.4,0.9-0.5,1.3c1,0.4,0.9,0.6,1.9,0.2c0.1,0.7-0.5,1.4-0.4,2.1c0.1,0.5,0.7,0.9,0.7,1.5c0.8,0.1,0.1,0.2,0.8-0.2
			l0.2,0.2c-1.4,1.9-3.9,5.5-6.6,6.6l-0.3,0.5c1.3,0.1,4.1,0.6,6,0.1c0.1,0.6,0.2,0.9-0.1,1.7c0.8,0,1.4-0.1,2.1-0.7
			c1.6,1.3,2.3,3.3,3.7,2.7c0.8,0.8,0.7,0.8,0.6,1.7c1,0.2,2.5-0.4,3.3-0.9c2.3,1.9,2.9,4.7,4.6,7l0.8-0.2c0.3-0.1,0.7-0.3,0.9-0.4
			l0.3-0.5l-0.8,0.2l-0.2-0.2c1.3-0.6,2.3-1.2,2.9-2.5l0.4-0.1c0.7,0.6,1,1.1,1.2,1.8c0.9,0.1,2.1-0.9,2-2.1l0.3-0.5
			c1.9,1.5,2.3,2.4,4,3.2c0.2-1.2,0.3-2-0.1-3.1c0.9-0.8,0.2-0.5,1.3,0.1c0.8-0.5,1.5-0.3,2.1-0.7c0.1-0.3,0.1-0.6,0.2-0.9l0.7,0.5
			c0.6-0.2,1.2-1.4,1.7-1.6c1.6-1.2,5.9,1.1,7.2,0.9c1.4-0.1-0.3-0.4,1-1c0,0,2.8-0.4,3-0.4l-0.4,0.1l-0.3,0.5
			c0.8,0,0.4,0.1,1.1-0.7c0,0.4,0,0.3-0.2,0.9c1.1-0.5,1.1-1.9,1.6-3c-0.3,0.1-0.1,0-0.5,0.3c-0.1-0.3,0-0.7,0-1
			c0.4-0.1,0.2,0.1,0.9,0.2c0.8-1.7-0.1-3.6,1.7-4.3l-0.7,0.6l0.5,0.3c0.7-1.2,1.5-2.7,1.4-3.8c0.1-0.5,0.1-0.3,0.1-0.6
			c-0.7,0.4-0.2-0.3-0.8,0.2l-0.5-0.3c0.8-0.5,0.9-0.1,1.8-1.2c0,0.4-0.1,0.5-0.4,1.1c1.7-0.8,1.7-3.7,2.3-5.2
			c-0.3,0.1-0.1,0-0.5,0.3l-0.2-0.2l1.1-1.7c0,0.4-0.1,0.5-0.4,1.1c1.6-0.7,2.3-3.6,3-5.2c-0.4,0.2-0.5,0.3-0.8,0.8
			c0-1.9,2.5-3.5,1.8-4.9c0.4,0,0.3,0,0.9,0.2c0.6-2,2.9-2.4,3.2-3.4c0.4,0,0.3,0.2,0.9,0.2c0.1,0,0.1-0.1,0.2-0.3
			c0,0,0-0.1,0.1-0.2c0,0,0.1,0,0.1-0.1c0.2-0.3,0.6-0.7,1.1-0.8l0.3-0.5c-0.9-0.5-1-0.4-1.7-0.4l0.1-0.6c0.3-3,9-8.7,9.8-11.6
			c0.5,0.1,0.3,0.1,0.6,0.1l1,0.6c-0.6,0.5-1.6,1-1.6,2l-0.2,0.2l-0.3-0.5c-0.9,1-0.7,1.3-2.1,1.7c-0.5,0.9-0.5,0.8-0.3,1.5
			l-0.2,0.2c0.2,0,0.4,0,0.6,0.1c-0.4,0.9,3.8-2.4,4-3.1c1-2.6,6.5-2.9,8.6-5c0.5,0,0.2-0.8,0.1-1.3c0.8-1,0.7-0.9,1.7-0.6
			c0.4,0,1.3,0.8,2.1,1.4l-0.8,1.2c2.7-0.6,4.4-3.6,7-4.6c0.6-0.2,1.4,0.1,2,0c-0.1-0.4,0.1-0.7,0.6-1l0.3,0.5
			c0.5-0.5,0.4-0.7,0.9-1.4c0.4,0.7,0.3,0.6-0.3,1.5c2.1,0.9,7.4-1.1,9-3c0.7,0.8,0.8,0.8,1.7,0.4l0.2,0.2c-0.6,1-1.1,1.6-1.9,1.8
			l-0.2,0.2c1,0.1,1.3-0.4,1.6-1c0.5,0.7,0.8,0.7,0.8,1.9c2.6-0.2,6.1-3.8,8.9-4.4l0.2,0.2c-0.1-0.3-0.1-0.3-0.6-0.7
			c0.6-0.4,0.7-0.2,1.4-0.1l-0.4,0.1c-0.1,0.7,0.1,0.7,0.5,1.3c0.6-0.4,2.7-1.7,3.6-1.4c0.4,0.7,0.3,0.1,0,1
			c1.3,0.5,1.7,0.2,1.8,1.5c0.9,0.1,2-0.2,2.7-0.6c0.6,0,0.1,0.1,0.3-0.5l0.4-0.1c0.1,0.4,0.2,0.8,0.3,1.2c0.9,0.1,1.7-0.3,2.5-0.8
			c0.4,0.7,0.2,0,0.2,0.8l0.4-0.1l0.2,0.2c0-0.8,0.2-0.2-0.4-0.9c0.5-0.2,1-0.5,1.5-0.7c0.6,0.8,0.5,0.9,0.2,1.8
			c1,0.1,1.7-0.7,2.7-1c0.4,0,0.2,0.1,1,0.6c3.1-1.7,9.2-3.1,9.2-6.9l-0.1-0.4l0.2,0.2c0.7-0.5,0.3-0.4,1.2-0.3
			c0.6-0.3,0.1,0.1,0.3,0.5c1.3-0.3,2.7,0,4-0.5l0.7,0.5c-0.8,0.4-1.9,0.9-2.8,1.2c0.3,0.5,0.2,0.3,1,0.6l-0.8,0.2l-0.2,0.2
			c2.7,0.9,10.3-0.9,12.7-2c1.2,0.9,1,1.2,2.6,2.3c-0.5,0.7-0.7,1.3-0.8,1.8c0.8,0,1.9-0.5,2.6-0.4c0.8,0.1,0.4,1,2,0.6
			c0.5-0.3,0.3-0.2,0.6-1l0.4-0.1c0,0.4,0.1,0.1-0.1,0.6c1.4,0.2,0.9,0.7,2.1,1c1.8,0.4,8.8-0.9,10.5-1.7c0.7-0.5,0.8-1.7,1.1-2.7
			c2.3,0.3,5.9,1.8,8,1.1c0,0.4,0.1,0.1-0.1,0.6c0.4-0.2,0.6-0.4,1-1c0.5,0.6,0.5,0.1,0.2,0.8c0.7,0.3,2.2,0.9,2.6,1.7
			c0.2,0.4-0.5,0.3-0.9,0.4c-0.5,0,0,0-0.7-0.5l-0.7,0.6c0.9,1,1.2,0.7,0.9,2.3c0.7,0.3,1.4,0.5,2.3,1.1l-0.6,1c1,0.6,2,0.9,2.8,0.8
			l1.2,0.8c-0.4,0.7-0.1,0.5-0.5,0.7c-0.5,0.7-0.8,1.3-0.8,1.8c0.3-0.1,1.2,0.9,2.1,1c2.2,0.2,5,0,7.1,0.5c0.2,0.3,0.3,0.6,0.4,0.9
			c1.7,1.1,1.5,1.7,2.1,3c-0.8,1-1.6,1.2-2.7,1c-0.4,0.6-0.5,0.9-0.5,1.3c1.2,2.4,3.3,0.9,3.2,3.4c1,0.1,2.2,0.5,3.1,0.3
			c0,0.4,0,0.3-0.2,0.9c2,0.7,4.6,0.8,6.5,0.4c0.6,0.6,0.5,1.4,0.9,1.2c1.4,0.7,2.8,0.7,3.9,0.2c0.5,0.7,0.8,1.1,0.8,1.9
			c1,0.6,1.5,0.7,2.4,0.5c1,1,0.8,2.1,0.5,3.4c2,0.6,3.8,0.1,5.7,0.6c0.5-0.2,0.7,1.5,0.7,2.1c-0.1,0.5,0.2,0.3-0.3,0.5
			c-0.4,1.4,0.5,0.8,1,1.6c1,1.4-0.8,3.9-2.8,3.9c0.3,0.5,0.1,0.2,0.7,0.5c-0.8,0.4-0.4,0.3-0.9-0.2c-0.7,0.3-0.8,0.8-0.9,1.4
			c-1.8-0.6-2.4,0.2-3.4-0.5c-0.9,1-1.7,2-2.6,3l-0.3-0.5c-0.5,0.5-1,0.9-1.5,1.4c-1.4,0.4-1.6-0.4-2.4,1.1c0-0.4-0.1-0.1,0.1-0.6
			c-1.1-0.2-0.8,0.1-1.5-0.3c-0.7,0.7-0.4,0.8-1.2,0.9l-0.2,0.2c0.3,0.1,0.6,0.1,0.9,0.2c-0.4,0.4-0.3-0.1-0.3,0.5
			c-0.4,0-0.3-0.2-0.9-0.2l-0.4,0.1c0.4,0.5,1,0.8,1,1l0.5,0.3c-0.5,0.8-1.8,2.9-1.9,3.5c-0.3,0.2-1.9,0.9-2.9,0.8l-0.3,0.5
			c0.7,0.6,0.3,0.3,1,0.6c-0.4,0.3-0.4,0.3-0.8,0.8c0.9,0.3,1.3,0.2,2.1,0.4c-1.5,0.8-3.8,1.8-5.1,3.2c-0.4-0.5-0.4-0.6-0.7-1.1
			c-0.1,0-0.3,0.1-0.4,0.1c-0.4,0.7-0.5,1.1-0.4,1.7c0.1,0.4,0.3,0,1.1,0.4c-0.8,1.2-1,1.7-0.7,2.6c0,0,3.5,2.6,4.1,2.6
			c1,0.1,1.4-0.5,2.1-1.7l0.2,0.8l0.4-0.1c0.2-0.3,0.2,0,0.1-0.6l0.2-0.2l0.3,0.5c1.4-2.1,2.5-3.5,3-5.2c1.1-0.5,2.5-2.3,3.2-3.4
			l-0.6-0.7l0.5-0.3l-0.2-0.2c1.1-0.6,3.3-0.3,4.5-0.2c0.9-0.7,1.2-1.1,1.6-2c1.9,0.4,8.1-0.1,9.9-0.7c0.6,0.8,0.5,0.3,0,1
			c2,0.6,1.5-0.6,3.1-0.7c2.9-0.2,6-0.2,9.2,1.5c0.1-0.5,0.2-0.7,0.5-1.3l0.4-0.1c0.6,0.7,0.5,0.1,0.4,0.9c1.1,0.3,2.2-0.3,3.1-0.1
			c0.3,0.3,0.7,0.7,1,1c0.5,0.1,2.6,0.4,2.8,0.4c0.5,0.7,0.3,0.7,0.5,1.3c-0.2,0.8,2.1,0.5,2.9,0.2c1.4,1.2,2.1,5.6,1.6,7.4l0.7,0.5
			c1.5-2.2,2-1.5,2.6-3l0.2,0.8l0.4-0.1l0.2,0.2c0.1-0.8,0-1.9-0.4-2.6c0.9-1.4,2.4-2.2,2.4-2.2c0.8-0.4,1.4,0,2.2-0.3
			c0.7-0.3,0.6-0.9,0.2-1.9l0.3-0.5c0.6,1,0.6,1.7,1.3,2.2l0.1,0.4c0.7-1.2,0.8-1-0.1-1.4l0.5-0.3c-0.7-1.2-1.6-3.4-2-5.3
			c0-0.9,0.5-0.8,0.4-1.7l0.6-1c0.4,0.1,0.7,0.2,1.1,0.4c0.7-0.2,1.1-1,1.8-1.2c1.6-2.5-0.2-3.8,0.5-5c-0.3-0.4-0.2-0.2-0.3-0.5
			c-0.6-0.3-0.9-0.4-1.3-0.5c-1,0.7-1.9,1.2-2.8,2.3c-1.8-1.5-0.2-1.4-2-2.6c0,0,0.7-0.9,0.5-0.3l0.1,0.4l0.6-1l0.7,0.5l0.4-0.1
			c0.4-0.8,0.2-0.8,0.3-1.5l-0.5-0.3l-1.4,1.1l-0.9-0.2c-0.2-1.4-1.4-2.5-1.5-4c-1.8-1.1-4-0.8-5.3-0.1c-0.1,0-0.1,3.6-0.2,4.6
			l-0.4,0.1c-1.4-1.3-1.7-5.2-1.3-6.9c0.2-0.8,1.5-1.8,1.8-3.3c0.5-3.2-1.7-7-0.8-10.3c-0.6-0.2-0.5-0.2-0.9-0.2l-0.5-0.3
			c1.2-1.2,2.5-3.7,2.3-5.6c0.9-0.6,2.1-0.1,2.9-0.8c0.8-0.7,0.3-1.3,1.1-1.7c0.5-0.1,2.8,1.1,3.4,1.5c0.4-0.3,0.4-0.3,0.8-0.8
			c0.8-0.5,0.7-1.9,1.2-2.9c-0.8-1-2.5-1.5-3.5-2.9c-0.8-1.1-1.1-2.7-1.9-3.3c1.1-0.8,2.7-1.7,2.3-3.6l0.5-0.7
			c1.3,1.5,3.7,3.9,4.1,5.7c0.1,0.6-0.4,1.3-0.2,1.9c0.6,1.5,1.7,1.6,1.6,3.4c1.8,1,2.3,0.5,4.1,0.9c0.4,0.2,0.5,0.2,0.3,1.2
			c0.9,0.5,0.8,0.5,1.5,0.3c0.2,0.8,0.3,1.6,0.5,2.4c0.8,0,0.2,0.2,0.9-0.4c0.7,0.5,1.3,0.7,1.8,0.8c-0.1,0.6-0.1,0.8-0.3,1.5
			c0.6,0.1,0.9,0.1,1.4-0.1l0.7,0.5c-0.1,0.5-0.1,0.3-0.1,0.6c-0.9,1-2,1.1-3.1,0.7c-0.4,1-0.3,1.3-0.4,2.1c1.1,1,2.3,2.9,3.9,2.8
			c-0.7,2.5,0.2,5.4-0.1,8c0.3,0.4,0.2,0.2,0.3,0.5l0.2,0.2c0.6-0.9,0.8-1.5,0.7-2.2l0.6-1l0.2,0.2c0.1,1.1,1,1.7,1.2,2.8
			c0.2,1.1-0.6,2.3-0.5,3.4c0.1,0.8,1,1,1.2,1.8c0.3,1.1-0.8,2.5-0.6,3.6c0.1,0.5,0.5,0.7,0.5,1.3c0.5,0.3,1.6,0.2,1.7,0.4
			c0.6,0.7,0.5,1,1.1,1.4l0.1,0.4c0.3-0.6,0.4-0.7,0.4-1.1l0.2-0.2l0.3,0.5c0.3-1,0.5-2.2,0.3-3.1c0.4-0.5,0.5-0.5,0.8-0.8
			c2.9,2.2,0.5,4.9,1.2,7.5l-0.2,0.2c0.5-0.1,0.6-0.2,1.1-0.7c0.4,0.7,0.5,1.2,0.8,1.9c-0.7,1.1-1.5,1.8-2.4,2.2l-0.3,0.5l0.4-0.1
			l0.2,0.2c-0.7,0.4-1.6,0.4-2.4,0.5c-0.9,1.6-0.4,1.4-0.7,2.6c0.6,0.5,0.7,0.5,0.8,0.8c0,0.5,0,0-0.5,0.7c0.5,0.1,0.3,0.1,0.6,0.1
			l0.4-0.1l-0.2-0.2c0.4-0.1,0.2,0.1,0.9,0.2c-0.3,0.5-0.3,0.8-0.1,1.7l-0.3,0.5c1.6-0.7,2.6-4.4,3.8-4.9c0.7-0.3,1.6,0,2.2-0.3
			c1.2-0.5,0.6-1.2,1.9-1.4l0.2-0.2c1.2-0.1,2.4,0.7,3.6,0.6c0.7,0.7,0.5,3.2,1.1,3l0.2,0.2l-0.4,0.1c-0.3,1,0.3,0,0,1l0.8-0.2
			c0.4-0.2,0.4-1,0.8-1.8c1.1,0.6,1.3,0.4,1.8,0.8c1.1-1.1,1.6-1.3,2.3-2.6c0.6,0.2,0.5,0.2,0.9,0.2c0.9,0.3,0.7,0.3,1.4-0.1
			l0.2,0.2c-0.1-0.3-0.1-0.5-0.2-0.8c0.4-0.1,0.6-0.1,1,0l-0.4,0.1l-0.3,0.5c1,0.4,0.7,0.4,1.4-0.1c0.3,0.4,0.2,0.2,0.3,0.5l0.2,0.2
			c-0.6,0,0,0-0.5-0.3l-0.3,0.5l0.1,0.4c0.6,0.1,0.8-0.3,0.9,0.2c0.4,0.6,0.8,1.2,0.8,1.9l0.2,0.2c0.6-0.7,0.3-0.4,0.8-1.2
			c0.9,2.1,3.2,4,4,5.9c0.4,0.6,0.2,0.6,0.1,1.4l0.4-0.1c0.5-0.2,1.3-0.9,1.8-1.2l-0.2-0.2c0-0.4-0.1,0.1-0.4,0.1l-0.2-0.2l0.2-0.2
			c0.3-0.3,1.2-0.3,2-1.1c0.5,0.7,0.1,0.2,0,1l0.6,0.7c0.4,0,0.1-0.1,0.6,0.1c0.5-0.9,0.5-0.8,0.3-1.5l0.3-0.5
			c-0.3,0.1-0.3,0.1-0.7,0.6c-0.6-0.8-0.2-1.1-0.3-2.2c0.4,0,0.3-0.2,0.9-0.4c-0.3-0.4-0.3-0.4-0.8-0.8c1.3-1.5,0.9-6,1.7-8.4
			l0.4-0.1c1.1,0.8,2,1.7,1.9,2.9c1.4,0.3,2.6-0.4,4.1-0.1c0.6-0.2,1.7,1.9,2.3,2.2l0.4-0.1c-0.2-0.4-0.4-0.7-0.7-1.1
			c0.4,0,0.4,0.1,1.1,0.4c0.5-1,0-0.9,0.1-1.7c0.8-0.4,0.5-0.1,0.8-0.8l0.4-0.1c1.4,1.3,2.9,2.5,4.3,3.8c1.1,2-0.5,2.2,2.3,3.8
			c-0.4,0-0.3,0-0.9-0.2c-0.3,1.5,0.8,2.5,0.9,3.9c0.3-0.1,0.7-0.3,0.9-0.4c0-0.8,0.1-0.4-0.7-1.1l0.3-0.5c0.4,0.5,0.3,0.6,1,0.6
			c0.1,0.5-0.1,0.9,0.1,1.4c-0.6,0.5-0.1,0.5-0.8,0.2c-0.7,1.6,0.6,4.4,1.5,5l0.1,0.4c0.2-0.4,0.4-0.9,0.5-1.3l0.7,0.5l1.2-1.3
			c0,0.8-0.5,0.9-1.1,1.7c0.3-0.1,0.1,0,0.5-0.3c0.1,0.7-0.3,1.6-0.8,1.8c-0.7,1.2-0.4,1.2-0.4,2.1c1.9,0.4,1.8-1.5,3.3-0.9
			c0.3-0.6,0.5-1.1,0.7-1.5c0,0,0-0.1,0-0.1l0.3-0.5l0,0c0.2-0.5,0.5-1,1.1-1.7c-1.1-1-2.7-4.5-3.2-6.1l-0.2-0.2
			c0.7-0.4,1-0.3,1.9,0.2l0.3-0.5c-0.8-0.9-0.7-1.6-1.6-2.7c-1.5-1.8-3.2-2-3.8-3.5c-0.5-0.7-0.3-0.7-0.5-1.3c0.7-0.4,0.7,0,1.5,0.3
			c-0.2,0.1-0.4,0.2-0.5,0.3l1.2,0.8c0.6-0.8,0.6-1,1.2-1.3c0.6-0.9,0.7-1,1.4-1.1c0.1,0,3.2,1.4,3.2,1.4s1,0.5,0.6,0.1l-0.1-0.4
			c1.2,1.1,1.7,1.2,2.8,1.4l-0.9,0.4l0.1,0.4c0.7,0.1,0.6-0.1,1.2-0.3c0.6-1.1,0.7-1.5,0.1-2.3c0.7-0.7,0.7-0.7,1.5-0.7l-0.3-1.2
			c1.2,0.3,1.8,0.9,2.5,0.9c0.8,0,0.4,0,1-1c0.7,0.3,0.6,0.1,1,0.6c0.5-0.3,0.2-0.1,0.5-0.7c0.3,0.4,0.2,0.2,0.3,0.5
			c1.1,0.4,1.1,0.1,2.1,0.4c0.8-1,0.9-0.9,0.8-1.8c2-0.9,2.4,0.8,5.1,1.6l-0.5,0.3c0.8,0.8,2.1,1.8,3.3,1.8c1.3,0.6,2.9,0.6,3.9,0.2
			c0.5-0.3,0.4-0.6,0.9-1.4l0.4-0.1c0.4,0.4,0.9,0.9,1.1,1.4c1.3,0.7,2.2,0.4,3.3,0.1c0.4-0.1,0.2-0.2,0.7-0.6
			c-1.3-0.8-0.9-0.7-2-1.6c0.4-0.4,0.4-0.4,0.7-0.6c1.3-0.5,4.6,0.1,4.9,0.8c0.9,0.1,0.5-0.1,0.7-0.6l0.4-0.1l-0.2,0.2
			c1.2,0.1-0.2-0.2,0.8-0.8c0.7-0.4,3.5,0,4.3,0.1c0.5-0.5,0.2-0.1,0.5-0.7c3.6,0.5,13.1-0.2,14.4,1.2l0.5-0.7
			c0.7,0.3,1.5,0.4,2,0.6c1.5,0.6,1.4,1.8,1.7,2.1c0.4,0.2,0.9,0.4,1.3,0.5c1.6,0.9,2.7,2,2.8,2.5c1.1,0.7,1.3,0.6,2.2,0.7
			c0-0.4,0.1-0.7,0-1l0.2-0.2c-0.9-0.1-0.5,0.1-0.8,0.8c-0.3-0.6-0.2-0.6-0.9-1.2c1-0.8,1.7-0.9,3-0.4c0.6-1.3,0.3-2.2-0.3-3.2
			c0.6-0.9,1.2-1.6,1.5-1.8l0.5-0.3c0.4,0.5,0.8,1.1,1,1.6c2.1,1.5,2.7,1.2,4.2,0.3c0.8,0.7,0.8,0.8,1.1,1.4c-0.6,0.8-0.7,1-1.4,1.1
			l-0.2,0.2c1.2,0.3,1.3-0.2,2.5,0.3c0.4-0.6,0.5-0.9,0.5-1.3c2-2.7,5.6-0.6,8.1-1.6c0.9,0.9,1,1,1.1,2.4c3.1,0.2,6-1.4,8.7-1.5
			c0.2,0,0.3,0.7,0.8,0.8c1.1,0.2,1.7-0.4,3.1,0.3c1.5-1.3,3.7,0.5,5.7-0.4c0.5,0,0.5,0.6,0.8-0.2l-0.2-0.2c0.8-0.1,0.8,0.2,1.6-0.3
			c0.4,0.6,0.2,0.4,0.4,0.9c0.4,0,0.1-0.1,0.6,0.1c0.4-0.5,0.5-0.6,0.8-0.8l0.3-0.5c-0.7-0.2-0.7-0.1-1.3-0.1l0.1-0.6
			c0-0.5,1.1-2.4,1.5-3.4c1.9,0.3,3.9,0.2,5.7,0c0,0.3-0.6,1-0.6,1c0.4,1.9,1,1.8-0.6,4c0.9,0.9,1.5,1.5,2.9,1.2
			c0.5-0.1,2.1-0.8,3-2.1c-0.6-0.3-0.7-0.3-1.1-0.4l0.2-0.2c-0.2-0.3,1.6-0.2,2.1-0.7c0.3-0.3,0.2-0.9,0.2-0.9
			c0.4-0.6,1.4-1.3,1.5-1.4c0.6-0.2,1-0.1,1.7,0.1l-0.4,0.1c-0.3,0.6-0.3,0.7-0.4,1.1c0.8,0.5,0.9,0.3,1.3,0.5
			c0.4,0.8,0.3,0.2-0.2,0.9c0.4,0.6,0.4,0.3,0.8,0.8c-0.3,0.6-1.5,2.3-1.5,3.4c-0.8,1.3-0.9,1.7-1.5,1.4c-0.8,2.3-2.4,4.7-3.1,7.4
			l1,0c-0.3,0.1-0.6,0.3-0.9,0.4c-0.2,0.1-0.7,1-0.7,1.6c-0.5,0.8-0.8,1.5-1,2.1l1,0.6c-0.2-1.7,1.1-2.3,1-3.7l0.8-0.2l0.3,0.5
			c-0.9,1.4-1.3,2.1-1.9,2.5c0.4,0.7,0.3,0.1,0,1c0.5,0.1,0.3,0.1,0.6,0.1c0,0,4.1-6,4.3-8.3l0.3-0.5c0.4,0.7,0.3,0.8-0.1,1.7
			c0.7,0.5,1.3,0.7,1.8,0.8c-0.1,1.5-0.7,3-0.3,4.2c-0.4,0.4-0.4,0.4-0.7,0.6l-0.2,0.2l-0.2-0.2l0.5-0.3l-0.2-0.2
			c0.1-0.5,0.1-0.3,0.1-0.6c-0.7,0.7-1.1,1.1-1,2.1l-0.2,0.9l0.4-0.1c0.5-0.3,0.2-0.1,0.5-0.7c0.5,0.1,0.7,0.2,1.3,0.5
			c0.6-1,0.3-1,1.2-1.3l0.3-0.5c0.5,0.6,0.5,0.1,0.2,0.8c0.7,0.3,0.9,0.1,1.2,0.8l0.2,0.2c2.1-3.6,0.5-6.7,0.9-9.8
			c0.1-1,0.7-1.1,0.7-1.6c0.6-0.4,0.6-0.1,1.2-0.3c1.1-0.6,0.5-3.7,0-4.7c1.1-1.1,1.2-0.5,2.4-0.5l0.4-0.1c-0.5-0.5-0.1-0.2-0.7-0.5
			l-0.1-0.4c0.7-0.7,0.9-0.6,1.6-1c0.5,0.8,0.2,0.8,0.3,1.6c0.6,0,0,0,0.5,0.3c0.4,0,0.1-0.1,0.6,0.1c0-0.6-0.2-0.7-0.1-1.4
			c0.3-0.1,0.1,0,0.5-0.3l0.1,0.4c0.6,0.8,0.4,0.4,0,1c2.3,1,4.5,1.3,4.7,3.7l0.2,0.2c0.4-1.2,0-1.4,1.2-1.9l0.2-0.2
			c-0.7-0.2-0.5-0.2-1,0l-0.2-0.2c1.2-0.7,1.8-1,1.7-2.6l0.3-0.5c0.9,1.4,1.8,2,1.7,4.1c1,0.4,0.8,0.2,1.7,0.1
			c0,0.7-0.1,0.5,0.3,1.2l-0.4,0.1c-0.4,0.3-0.2,0.2-0.5,0.3c0.1-0.5,0.1-0.3,0.1-0.6c0.1-0.5,0.1-0.3,0.1-0.6
			c-0.4,0.3-0.2,0.2-0.5,0.3c-0.3,2.1,2.2,5.3,3.3,5.8l0.2,0.2l-0.5,0.3c0.4,0.5,0.5,0.6,0.7,1.1c0.9,0.4,0.9,0.4,1.7,0
			c0.3,0,0.1,0,0.2-0.2c0-0.8-0.2-0.3-1,0c0-0.9,0.4-1.5,0.1-2.3l0.2-0.2c1,0.9,1.6,1.6,1.7,2.1l0.7,0.5c0.1-1.1,0.6-2.5,0.2-3.5
			l0.3-0.5l-0.2-0.2c-0.5,0.9-0.6,1.1-0.4,1.7l-0.5,0.7c-0.5-0.1-0.3-0.1-0.6-0.1c-0.2-0.8,0-0.9,0.5-1.3c-0.3-0.9-0.5-2.4-0.5-3.4
			c0-0.6,0.2-0.7,0.7-1.6l0.7,0.5c-0.3-1.1-2-2.6-2.9-2.9c0.1-0.7,0.3-0.8-0.1-1.4c0.8-0.9,0.5-0.7,1.2-0.3c0.3-0.7,0.5-0.8,0.5-1.3
			l0.2-0.2c1,0.7,1,0.4,0.7,1.1c1.1,0.6,1.1,0.9,1.6,0.7c0.8,0.9,0.4,0.3,0.3,1.2c0.5,0.1,0.3,0.1,0.6,0.1l0.4-0.1l-0.2-0.2
			c0.7-0.3,0.8,0,1.4-0.1l-0.1-0.4c0-0.2,0-0.1-0.2-0.8c0.6-0.3,0.5-1.1,1.2-1.3c0,0,1.3-0.5,2-0.4c0.4,0,0.1-0.1,0.6,0.1
			c0.1,0.5,0.1,0.8,0.1,1.4c1.2,0.4,3,0.3,3.7,2.1c0.6,0.1,1.1-0.1,1.2-0.9c0.6,0,0,0,0.5,0.3l1.1-1.7c0.7,0.2,0.2,0,0.7,0.5
			c0.2-0.6,0.2-0.7,0.1-1.3c0.5-0.3,6,1,5.6,0.2c0.3-0.4,0.2,0,0.6,0.1c0.6-1.4,1.1-2.5,0.8-3.9c1.4-0.1,3.6,1.1,4.7,1l0.2,0.2
			l0.3-0.5c-1-0.6-0.8-0.5-1.9-1.2c0.4-0.5,0.5-0.6,0.8-0.8l0.5-0.7c-0.5-0.1-0.3-0.1-0.6-0.1l-0.7-0.5c0.8-0.8,0.6-0.9,1.9-0.8
			c-0.1-0.3-0.8-0.9-0.9-1.2c0.1-0.4,0.3-0.4,0.6-1c0.2,0.6,0.2,0.3,0,1l0.5,0.3c0-0.4,0.1-0.7,0-1c1.2-0.2,1.7,0.1,2.8,0.4
			c0.1-0.5,0.4-1.1,0.8-1.8c1.9,1.5,3.8,2.9,4.6,5c0,0.4-0.1,0.5-0.5,1.3c0.6,0.3,0.7,0.4,1.1,0.4c0.5-0.3,0.3-0.2,0.6-1l0.5,0.3
			c0.5,0.1-0.1,0.4,0.7,0.5l0.2,0.2c-0.4,0.4-0.3-0.1-0.3,0.5c0.1,1.6,2.1,5.1,3.8,5.1l0.2,0.2l-0.5,0.3l0.7,0.5l0.6-1
			c1.3,1.9,1.6,1.2,3.8,2.4l0.3-0.5c-0.7-0.5-1.3-1.1-2-1.6l0.7-1.6c1.7,0.7,0.5-0.5,2.2-0.3c0.1-0.6-0.3-1.6-0.7-1.5
			c-1.4-0.9-1-1-1.7-0.1c-0.7-0.7-0.7-0.8-1.3-1.2c1.7-2.6,3.1-1.1,4.8-2.3c0.2-0.2,0.2-0.9,0.8-1.2c0.8-0.4,0.2-0.3,0.9,0.2
			c0.4-0.9,0.5-0.5,0-1c1-1.2,3.4-2.5,4.7-2.7c1-0.6,2,1.8,3.7,2.1l0.9-0.4c1.1,1.7,6,4.8,8.1,6.2c1.1,0.7,2.1,0,2.7,1.1
			c0.4-0.1,0.8-0.8,1.2-0.9c1.5-0.2,3.1,0.5,4.4-0.6c0.7-0.1,0.5-6.7,4.2-7.1c0.5-0.7,0.7-1.3,0.8-1.8l-1-0.6l0.5-0.7l0.2,0.2
			c1.3-0.2,2.9,1,3,2.2l0.5,0.3c0-0.4,0.1-0.7,0-1l0.2-0.2c0.4,0.6,0.5,1,1,1.6c0.6-0.2,0.9-0.1,1,0l0.5,0.3l0.5-0.7
			c0.9,0.4,6.3,0.6,7.2,0.3l0.5,0.3l0.2-0.2c-1.3-0.5-2.7-1.1-4-1.6c0.9-1.4,0.6-1.6,1.8-3.3c-0.9-0.3-0.3-0.4-1,0l-0.7-0.5
			c0.7-0.3,1.4-0.3,2.2-0.3l0.2-0.2c-2-0.7-4.5-1.2-5.2-3.4l-0.5-0.3l0.4-0.1l0.3-0.5c1.4,0.9,1.6,2.2,3,2.6c2.7,0.8,6,0.6,8.6,0.8
			c1.2,0.6,2.4,1.1,3.6,1.7c1.3,0.1,3-0.7,4.4-0.6c2.6,0.3,6.5,3.4,8.3,2.3c0,0.4,0.1,0.1-0.1,0.6l0.8-0.2c3.2,6.4,4.8,3.2,10.4,3.7
			c1.2-2.3-0.3-3.2-0.1-5.1l-2.4-1.5c0.7-0.7,0.5-0.5,1.3-0.5c0.9-1.3,1.2-1.1,0.7-2.2c1-1.1,2.2-1.3,2.9-0.8c0.5-0.5,0.8-0.9,1-1
			c0.6-0.4,4.6-0.3,5.9-0.3l0.3-0.5c-1.6-0.8-2.5-1.1-3.3-2.1l-0.4,0.1l0.5-0.7l1,0.6c-0.2-0.9-0.5-0.3,0-1
			c-0.4-0.1-0.7-0.2-1.1-0.4l-0.9,1.4c-0.8-0.9-0.5-1.4-1.7-1.1l-0.2-0.2c1.2-0.8,2.8-1.3,4.3-0.9c-0.1-0.6,0-0.4-0.4-0.9l0.3-0.5
			c4.5,0.5,9.8,1.4,14.1,0.6l0.2,0.2c-0.3-0.7-1.4-1.8-1.8-2.5l0.5-0.7l-0.7-0.5l0.2-0.2c2.4,0.4,5.1,2.5,6.8,0.3
			c3.7,1.5,7.7,3.2,11.1,2.7c0.8-1.5,0.2-1.9-0.1-3.1c0-0.4-0.1-0.1,0.1-0.6c0.5-0.1,0.9-0.3,1.3-0.5c2.7,2.1,4,8.8,4.6,11.7
			c2,1.1,2.3,0,3.9-0.2c0.8-1.4,1.6-3.9,1.5-4.4c0.3-2-1.8-3.2-2.8-4.5l-0.1-0.4c0,0,3.9,1.2,4.2,1.3c-0.3-0.9-0.8-1.3-1.4-1.5
			c0.1-0.7,0.1-1.4,0-2c0.6-0.2,1.2-0.5,2-0.4c0.5-1.1,0.8-2,1.1-2.7l0.6,0.1c0.2,0,1,0.5,1.6,0.7l0.1,0.4c-0.6,0.6-1.2,0.3-2.2,0.3
			c-0.5,1.1-0.4,1.7,0.4,2.6c-0.6,0.4-0.5,0.3-1.2,0.3l-0.2,0.2c0.9,0.5,2.4,1.1,2.8,1.4c1.1,0.5,0.9,0.5,1.7,0.1
			c0.4-0.2,0.2-0.2,0.6-1l-0.9-0.2c0.1-0.7,0.4-1,0-1.7c0.7-0.8,0.3-0.2,0.9-0.4c0.6-0.2,0.4-0.8,1.5-0.7c0.1-0.5,0.1-0.3,0.1-0.6
			c0-0.4-1.7-0.1-2.3-0.1l-0.2-0.8l0.2-0.2l0.3,0.5l0.2-0.2c0.7-0.5,0.8-1.8,0.6-3l0.3-0.5c0.9,0.4,1.5,0.8,2.6,0.7
			c0-0.3,0.2-0.8,0.3-1.5c0.6,0.1,0.8,0.4,1.1,0.4l0.4-0.1l-0.2-0.2l0.5-0.7c0.6,1.2-0.6,2.9-0.1,4.3l-0.2,0.2
			c-0.1-0.6-0.3-1.3-0.4-2l-0.2-0.2c-0.6,0.9-0.8,0.7-0.7,1.6c-0.8,0.4-0.2,0.3-1.1-0.4c0,1-0.2,1.4-0.1,2.3l-0.3,0.5l0.4-0.1
			l0.2,0.2l-0.9,0.4c0.5,0.9,0.8,1.5,0.8,2.5c0.6,0.2,0.7,0.2,1.3,0.1c0.6,0.9,1.6,2.7,1.6,3.7l0.2,0.2c0.8-0.9,1-0.9,1.9-1.8
			l0.2,0.2c-0.5,2-1.9,3.4-1.6,5.1c-0.7,0.7-1.4,0.9-2.3,0.9c-3.5,5.4,0.9,5.8,1.1,9.8c1.1,0.7,1.6,0.8,2.5,0.9
			c-0.2,1.3-0.2,2.4-0.2,3.5l0.7,0.5c0.5-1.3,0.5-3.4,0.2-4.6l0.6-1c0.5,0.7,0.6,1,0.6,1.7c1.2,0.6,1.9-0.2,2.8,0.8
			c0.6,0.6,0.5,2,2.1,2c1.5,0.1,1.2-0.7,1.1-1.7c1.1,0.1,1.8,0.4,2.7-0.6c0.6,0.8,1.8,1.8,2.4,2.5c0.4-0.2,0.6-0.3,0.9-0.4
			c1.2-2.2,0.2-6.2,3.4-6.9c0.7-1.9-0.3-3.3-0.9-4.9c-1.3-3.6-1.3-8.5-3.6-11.7c-0.8-1.6-3.4-0.8-4.5-2.5c-1.2-1.9-6.6-9-9-9.1
			c-1.5-1.1-3.2-3.4-5.3-3.8c-0.3,0.1-0.6,0.3-0.9,0.4c-1.5-0.2-2.6-1.6-4.3-1.1c-0.5,0.1-0.9,1.2-1.4,1.1c-0.2-0.2-0.4-0.5-0.6-0.7
			c-0.5,0.7-0.7,1.3-0.8,1.8l-0.5-0.3c-0.5-0.1-0.3,0.2-0.5-0.3c-0.7-0.5-1-0.8-1.3-1.2c0.6-0.8,0.5-0.8,1.2-0.9l0.2-0.2
			c-0.8-0.8-1.9-1.5-2.4-1.5c-1-1-0.6-1.6-1.4-2.6c0.7-0.7,4.1-0.7,5,0.1c0.2,0.2,0.4,1.3,0.5,1.3c1,1,1.5,0,2.1,1
			c1.2,0.8,1.3,0.9,0.7,2.1c1-0.1,8.7-5.3,9.7-6.2c0,0.5,0,0.4-0.5,0.7l-0.6,1c1.5-0.1,3.8-1.3,5-2.5C736,232,736.5,230,735.9,229.1
			L735.9,229.1z M727.9,220c0.3-0.1,0.6-0.3,0.9-0.4c0.7,0.6,0.6,0.7,0.9,1.2l-0.3,0.5l-0.4,0.1C728.2,220.7,728.3,220.6,727.9,220
			L727.9,220z M707.5,192.4c0.3,0.5,0.2,0.3-0.3,0.5L707.5,192.4z M685.6,183.1l0.7-0.6l0.5,0.3l-0.7,0.6L685.6,183.1z M685.4,183.3
			l0.5,0.3c-0.6,0.4-0.6,0.2-1.4,0.1L685.4,183.3z M679,184.9c1-0.2,1.4,0.4,2.7,0c0.4,0.6,0.1,0.9,0.3,1.6l-0.3,0.5
			C680,186,679.9,186.2,679,184.9L679,184.9z M679.9,187.8l0.2-0.2l0.5,0.3l-0.2,0.2L679.9,187.8z M670,186.9
			c0.5,0.1,0.3-0.2,0.5,0.3l0.2,0.2l-0.2,0.2L670,186.9z M667.2,186.1c0.1,1.4-0.4,1-1.6,1C666.2,186.7,666.5,186.8,667.2,186.1z
			 M419.9,193l0.5-0.3l0.5,0.3c-0.4,0.3-0.6,0.4-1,1C419.9,193.7,420,193.3,419.9,193z M418.2,196.3l0.2,0.2c-0.4,0.5,0,0.6-0.5,0.3
			L418.2,196.3z M395.1,180.2l0.3-0.5c0.4,0.6,0.1,0.6,0.3,1.2l0.2-0.2l0.2,0.2c-0.6,0.2-0.4,0.2-1.3-0.1
			C395.2,180.2,395.1,180.7,395.1,180.2L395.1,180.2z M397.9,195.4c0.1-0.5,0.1-0.3,0.1-0.6c0.4,0,0.3,0,0.9,0.2l-0.5,0.7
			L397.9,195.4z M370.8,184.5c-0.4,0.3-0.2,0.2-0.5,0.3C370.7,184.5,370.5,184.6,370.8,184.5z M372.6,198l-0.5-0.3
			c0.2-0.2,0.5-0.4,0.7-0.6l0.2,0.2L372.6,198L372.6,198z M381.7,207.9c-0.4,0.2-0.6,0.3-0.9,0.4C381.4,207.9,381.1,208,381.7,207.9
			z M387.5,225.1c0.4-0.1,1.4,0.5,1.8,0.8l0.4-0.1l-0.3,0.5C388.4,225.6,388.3,225.9,387.5,225.1L387.5,225.1z M326.4,229.7l0.1,0.4
			l-0.5-0.3c0.4-0.3,0.2-0.2,0.5-0.3L326.4,229.7L326.4,229.7z M343.5,194.5l0.1,0.4l0.5,0.3c-0.7,0.4-0.1,0.3-1,0L343.5,194.5z
			 M342.2,198.1L342,198l0.6-1c0.4,0.5,0.5,0.8,1.2,0.8c0.6,0.4,0.9,0.6,1,1l0.2,0.2c-0.7,0-2-0.7-2.7-1.1l0.2,0.8l-0.2-0.2
			C341.9,198.7,342.4,198.4,342.2,198.1L342.2,198.1z M287.1,196.4c0.4,0.6,0.2,0.4,0.4,0.9c-0.4,0-0.3,0-0.9-0.2L287.1,196.4z
			 M284.2,196.7l0.5-0.7l0.7,0.5l-0.5,0.7L284.2,196.7z M331.5,230l0.2-0.2l0.5,0.3l-0.2,0.2L331.5,230z M275.4,204.1
			c-0.5,0.4,0.2,0.4-0.7,0.6C274.9,204.5,275.1,203.7,275.4,204.1z M323.5,239.4l-0.3-0.5C323.2,238.8,323.5,238.7,323.5,239.4z
			 M321,238.1l0.5-0.7c1.1,0.3,1.3,0.2,2.2-0.3l1,0.6c-0.4,0.3-0.4,0.3-0.8,0.8c0-0.4-0.1-0.1,0.1-0.6c-0.6-0.1-1.2,0-2.4,0.5
			L321,238.1L321,238.1z M245.2,172c0.7-0.3,1.1-0.3,1.8-0.2c-0.4,0.3-0.4,0.3-0.8,0.8C245.6,172,245.8,172.2,245.2,172z
			 M226.3,182.5c0,0.6-0.1,0.7-0.6,1L226.3,182.5z M218.5,180.5c0.1,0.4,0.2,0.8,0.3,1.2l-0.2,0.2c-0.5-1-0.1-0.8-1.1-1.4
			C217.8,180.4,218.1,180.4,218.5,180.5L218.5,180.5z M213.9,179.2l0.2-0.2l0.5,0.3l-0.2,0.2L213.9,179.2z M214.9,179.8
			c0.2-0.1,0.4-0.2,0.5-0.3l0.2,0.2l-0.3,0.5L214.9,179.8L214.9,179.8z M213.8,181.5c0.6-0.5,0.1,0.1,0.8-0.2l0.4-0.1
			c-0.7-0.6-0.6-0.4-1-1l0.4-0.1l0.4-0.1l-0.2,0.2c0.5,0.6,0.4,0.9,0.7,1.5c-0.5,0.2-0.2-0.3-1,0L213.8,181.5L213.8,181.5z
			 M175.2,181.3l0.2-0.2l0.5,0.3l-0.2,0.2L175.2,181.3z M53.5,304.4c0.4-0.3,0.2-0.2,0.5-0.3C53.7,304.4,53.9,304.3,53.5,304.4z
			 M44.1,281.2c-0.4,0.3-0.2,0.2-0.5,0.3C44,281.2,43.8,281.3,44.1,281.2z M37,281.4c0.4-0.1,0.8-0.2,1.2-0.3
			c-0.1,0.3-0.1,0.6-0.2,0.9l-0.2-0.2C37.1,281.7,37.5,281.8,37,281.4z M40.2,283.7c0.4-0.3,0.2-0.2,0.5-0.3l-0.2,0.2l0.1,0.4
			L40.2,283.7L40.2,283.7z M49.9,286.9c0.3-0.1,0.5-0.1,0.8-0.2c-0.4-0.7,0.3-0.2-0.2-0.8l0.2-0.2c0.9,1,1.1,1.2,2.4,1.5
			c-0.3,0.6-0.1,0.6-0.1,1.7c0.8,0.3,0.8,0.2,1.1,0.4c0.5,0.4,0.5,0.5,0.8,0.8l0.1,0.4c-0.7,0-0.7-0.3-1.2-0.8
			c-0.8,0.8-2.7,3-3.7,3.7c-1.4,0.9-2.1-0.1-3.8,2.3l-0.7-0.5c0.3-0.9,0.3-1.4,0.4-2.1c-2.3-1.3-1.9-1.5-1.9-3.3
			c0.1-0.9-0.7-1.5-1.3-2.2c1.3-1.9,2.3-1,4-0.5c1.1-1,2.1-1.6,2-3.1l0.4-0.1C49.4,285,49.6,286,49.9,286.9L49.9,286.9z M76.9,297.9
			c0.4-0.3,0.2-0.2,0.5-0.3C77.1,297.8,77.3,297.7,76.9,297.9z M66.9,289.4l0.2-0.2l0.5,0.3l-0.2,0.2L66.9,289.4z M77.5,296.9
			c0-0.4,0-0.3,0.2-0.9c-0.3,0.1-0.3,0.1-0.7,0.6c0-0.4,0.1-0.5,0.4-1.1l0.7,0.5L77.5,296.9L77.5,296.9z M78.6,296.2
			c0.4-0.3,0.2-0.2,0.5-0.3C78.8,296.2,79,296.1,78.6,296.2z M72.1,289l0.2-0.2l0.5,0.3l-0.2,0.2L72.1,289z M76,290.9
			c-0.4,0.3-0.2,0.2-0.5,0.3C75.9,290.9,75.7,291,76,290.9z M73.3,289.8c-0.4,0.3-0.2,0.2-0.5,0.3C73.2,289.8,73,289.9,73.3,289.8z
			 M73.7,290.7c0.4,0,0.1-0.1,0.6,0.1C73.8,291.2,74.3,291,73.7,290.7z M77,290.8c-0.6,0.4-1.2,1-1.8,1.2
			C75.9,291.4,76.3,290.9,77,290.8z M78.1,293.9c0.4-0.3,0.2-0.2,0.5-0.3C78.2,293.9,78.5,293.8,78.1,293.9z M76.4,291.8
			c0.2-0.2,0.5-0.4,0.7-0.6l0.2,0.8l-0.3,0.5C76.6,291.7,77.1,292.2,76.4,291.8L76.4,291.8z M79.5,292.8l-0.5,0.7
			c0-0.4,0-0.3,0.2-0.9l-0.2-0.2c-0.4,0.3-0.2,0.2-0.5,0.3l0.6-1C79.5,292.4,79.3,292.3,79.5,292.8L79.5,292.8z M78.6,291.5l-0.6,1
			l-0.6-0.7c0.5-0.2,0.4,0,0.9-0.4L78.6,291.5L78.6,291.5z M70.8,287.5l-0.2,0.2l-0.6-0.7c0.5-0.5,0.2-0.1,0.5-0.7l0.4-0.1
			C70.9,287.2,70.3,286.7,70.8,287.5L70.8,287.5z M73.2,284.7l0.3,0.5c-0.6,0.4-0.3,0.3-0.9,0.4C73.2,285.2,73,285.3,73.2,284.7
			L73.2,284.7z M74.6,286.2l0.5-0.3l0.2,0.2C74.8,286.6,75.3,286.6,74.6,286.2L74.6,286.2z M74.2,286.3l-0.5-0.3l0.5-0.3l0.2,0.2
			L74.2,286.3L74.2,286.3z M76.4,287.7c-0.4,0.3-0.2,0.2-0.5,0.3C76.2,287.7,76,287.8,76.4,287.7z M77.3,288.3
			c-0.4,0.3-0.2,0.2-0.5,0.3C77.2,288.3,77,288.4,77.3,288.3z M79.9,289.6c0.4-0.3,0.2-0.2,0.5-0.3C80,289.6,80.2,289.5,79.9,289.6z
			 M78.1,289.2l-0.3-0.5c0.3-0.6,0.4-0.7,0.4-1.1c0.9-0.1,0.8,0.1,1.5,0.3C78.8,288.4,78.6,287.4,78.1,289.2z M75.6,280.5l0.2,0.2
			c-0.4,0.5,0,0.6-0.5,0.3L75.6,280.5z M80.1,283.4c0,0.5,0,0.4-0.5,0.7L80.1,283.4z M81.2,284.4c-0.4,0.3-0.2,0.2-0.5,0.3
			C81.1,284.4,80.8,284.5,81.2,284.4z M81.7,285.1c0.4-0.3,0.2-0.2,0.5-0.3C81.9,285.1,82.1,285,81.7,285.1z M81.4,284.5
			c0.4-0.3,0.2-0.2,0.5-0.3C81.5,284.5,81.8,284.4,81.4,284.5z M79.5,282.3c0.4-0.3,0.2-0.2,0.5-0.3l-0.2,0.2l0.1,0.4L79.5,282.3
			L79.5,282.3z M81.9,282.2c0,0.6-0.1,0.7-0.6,1L81.9,282.2z M83.8,284.4c-0.5,0.3-0.1,0.2-0.6-0.1c0.4-0.3,0.2-0.2,0.5-0.3
			C83.8,284.2,83.8,284.3,83.8,284.4L83.8,284.4z M82.4,283.5l0.6-1C83,283.1,82.9,283.3,82.4,283.5z M80.1,279.7
			c-0.6,0.3-0.4-0.3-0.7-0.5l0.3-0.5C79.8,278.8,80.4,279.8,80.1,279.7z M81.4,278.8l-0.1-0.4c0.6,0,0,0,0.5,0.3
			c0.3-0.9,0.3-1,0.1-1.7c0.4-0.1,0.6-0.1,1,0l-0.5,0.3c0.7,0.3,1.6,0.7,1.6,0.7l0.2,0.2c-0.6,0.4-1,0.7-1.5,1.4
			c0-0.4,0-0.3,0.2-0.9C82.3,278.8,82,278.9,81.4,278.8L81.4,278.8z M84,279.5c0.4-0.3,0.2-0.2,0.5-0.3
			C84.1,279.5,84.3,279.3,84,279.5z M83.5,279.2c0.4-0.3,0.2-0.2,0.5-0.3C83.6,279.1,83.9,279,83.5,279.2z M85.6,279.1
			c0.4-0.3,0.2-0.2,0.5-0.3C85.7,279.1,85.9,279,85.6,279.1z M84.2,275.9l-0.2,0.2c-0.3-0.3-0.5-0.6-0.8-0.8
			c0.4-0.3,0.2-0.2,0.5-0.3l-0.1,0.6L84.2,275.9L84.2,275.9z M84.4,275.7l-0.4-0.9C84.5,274.2,84.5,275.6,84.4,275.7z M85.8,274.6
			l0.5,0.3l-0.2,0.2l-0.6-0.7C85.8,274.3,85.6,274.4,85.8,274.6z M85.5,273.4l-0.3,0.5l-0.5-0.3l0.5-0.3L85.5,273.4L85.5,273.4z
			 M103.3,259.9c-0.7,0.7-0.6,0.4-1,1l-0.5-0.3c0.7-0.7,0.6-0.4,1-1L103.3,259.9z M240.4,305l0.5,0.3l-0.2,0.2l-1-0.6l0.3-0.5
			C240.4,304.8,240.3,304.6,240.4,305L240.4,305z M241.1,304c0.5-0.5,0.2-0.1,0.5-0.7C242.1,303.9,241.9,303.9,241.1,304z
			 M244.9,302.7c0,0.7-0.1,0.5,0.3,1.2c0.3,0.4-0.1,0.4,0.5,0.3l0.2,0.2l-0.5,0.3c-0.7-0.8-0.7-1.2-1.4-1.5c0.2-0.2,0.5-0.4,0.7-0.6
			L244.9,302.7L244.9,302.7z M248.1,289.3l-0.3-0.5C247.8,288.8,248,288.7,248.1,289.3z M295.2,302c-0.6,0.5-0.6,0.5-1.3,0.5
			c0.4-0.2,0.7-0.4,1.1-0.7L295.2,302z M294.3,301.8c-0.8,0-0.2,0.1-0.9-0.2l0.3-0.5C293.9,301.9,294.1,301.3,294.3,301.8
			L294.3,301.8z M295.8,301.7l-0.2,0.2c-0.6-0.4-0.7-0.6-1-1c0.5-0.2,0.8-0.2,1.4-0.1C295.5,301.4,295.6,300.8,295.8,301.7z
			 M288.1,294.1l0.1,0.4l-0.2-0.2c-0.6,0.3-0.1-0.1-0.3-0.5C288.1,293.9,288,293.6,288.1,294.1z M244.7,203.3l-0.2,0.2l-0.5-0.3
			l0.2-0.2L244.7,203.3z M245.1,202.5l-0.2,0.2c-0.4-0.1-0.5-0.1-1.1-0.4l0.5-0.3L245.1,202.5L245.1,202.5z M243.5,201.9l-0.3-0.5
			C243.2,201.3,243.5,201.2,243.5,201.9z M218.3,185c0.2,0.6,0.2,0.4,0.3,0.5l0.2,0.2c-0.5,0.5-0.2,0.1-0.5,0.7l-0.6-0.7L218.3,185z
			 M216.2,185l0.7,0.5c-0.4,0-0.3,0-0.9-0.2L216.2,185z M197.1,176.5c0.3,0.5,0.2,0.3-0.3,0.5L197.1,176.5z M221.6,194.5l1,0.6
			l-0.2,0.2c-2.3-0.8-3.4,0.5-5.3,1C218.7,194.3,220.3,195,221.6,194.5L221.6,194.5z M209.6,210.7c-0.5,0.1-0.2-0.2-0.9-0.2
			C209.2,210.5,209.3,210,209.6,210.7z M128.2,200l0.5,0.3c-0.6,0.4-0.3,0.3-0.9,0.4L128.2,200z M111,202.1l0.5-0.3l0.2,0.2
			l-0.3,0.5L111,202.1L111,202.1z M93.2,211.6c0.8-0.4,0.4,0,0.8-0.8c0.5,0.4,0.5,0.5,0.8,0.8c-0.3,0.3-1.1,0.7-1.1,0.7
			C93.3,212.9,93.6,212.4,93.2,211.6z M72.1,212.9l0.2,0.2c0.4,0,0.3,0,0.9,0.2l-0.5,0.7l-0.2-0.2c-0.4,0-0.3,0-0.9-0.2L72.1,212.9z
			 M149.6,242.7l-0.5,0.7l-0.7-0.5c0.4-0.7,0.1-0.5,0.5-0.7c0.4-0.3,0.2-0.2,0.5-0.3C149.5,242.2,149.6,242.5,149.6,242.7z
			 M139.9,232.1l0.2,0.2c-0.3,0.1-0.5,0.1-0.8,0.2c-0.5,0,0,0-0.7-0.5c0.7-0.4,0-0.2,0.8-0.2C139.9,231.9,139.8,231.6,139.9,232.1z
			 M200,224.5l-0.2,0.2l-0.5-0.3l0.2-0.2L200,224.5z M200,224.1l-0.3-0.5C199.6,223.6,199.9,223.5,200,224.1z M291.4,280.7l0.2,0.8
			c-0.9,0.4-0.8-0.1-1.5-0.3c0.6-0.4,0.5-0.2,1.1-0.7L291.4,280.7z M276.6,259.1l-0.3,0.5l-0.5-0.3l0.5-0.3L276.6,259.1L276.6,259.1
			z M275.7,258.9c-0.5,0.6-0.8,0.9-1.4,1.1c-0.4,0-0.1,0.1-0.6-0.1c0-0.7,0-0.9-0.3-1.6c0.7-0.2,1.1-0.1,1.9,0.2l0.4-0.1
			L275.7,258.9L275.7,258.9z M248.6,208.1c2.5,3.5,6,8.6,8.7,13.3c1.7,3.1,2.2,5.6,5.2,7.1c0.2-0.6,0.2-0.5,0.2-0.9l0.2-0.2
			c0.3,0.9,0.3,0.6-0.1,1.3c1.1,0.4,2.3,1,3.1,1l0.2,0.2c0.1-0.7,0-0.5,0-1c0-0.3,0.6-0.9,1.2-1.3c-2.4-3.6-6.5-8.4-8.6-12.3
			l0.3-0.5c3.7,1.7,5.9,8.2,8.2,11.3c1.5,2.1,4.2,2,5.3,4.4l0.2,0.2c0.6-1,0.8-1.8,1.4-2.1c1.3-0.6,3.8,0.5,5.2,0.3l0.7,0.5
			c-0.9,0.6-2.1,1.4-3.1,1.7l-0.5,0.7c0.6,0.2,0.7,0.2,1.3,0.1c0,0.4,0,0.3-0.2,0.9c0.3,0.4,0.2,0.2,0.3,0.5
			c1.1,0.6,2.1,0.1,3.4-0.5c0.5,0.4,0.6,0.5,0.8,0.8c-0.6,2.8-9.5,6.5-9.7,8.9l-0.3,0.5c1.1,0.6,3,1.7,4.3,1.1l0.5,0.3
			c-1.2,1.5-2.6,2.2-3.8,3.3c-1.4,1.3-1.8,2.4-2.8,3.3l0.1,0.4c2.1,1.2,2.3,0.9,4,2.2c-0.8,0.7-1.6,1.4-2.4,2.2
			c-0.9-1.5-1.7-3.9-2.8-5.1c-0.7-0.3-1.4-0.7-2.1-1c-1.1-1.1-2.1-2.3-2.6-3.3l-0.3,0.5c-0.5,0.4-0.4,0.2-0.2,0.9
			c-0.3,0-1.1-0.3-1.5-0.3c-0.3,0.1-0.3,0.5-0.8,0.8c-0.4,0.2-1.6-0.2-2.5-0.3c-0.3,0.8-0.4,0.9-0.3,1.5l-0.2,0.2
			c-0.3-0.3-0.7-0.7-1-1c0.1-0.4,0.1-0.5,0.4-1.1c-0.4,0.2-0.5,0.3-0.8,0.8l-0.1-0.4c-1.2-0.5-0.5,0.1-1.7-0.1
			c0.2,0.7,0.5,1,0.6,1.7l0.1,0.4l-0.2-0.2c-0.5,0-0.9-1.3-1.4-1.9c0.7-0.6,1.1-0.6,1.8-1.2c-0.4-0.7-1.1-1.5-1.3-2.2l-0.5-0.3
			c-0.5,0.9-0.6,1.1-0.4,1.7l-0.3,0.5c-1-1.5-1.6-3.2-2.8-4.5c-1.9-2-3.7-0.4-4.2-4c-1-0.5-1.4-0.6-2-0.6c-0.3,0.1-0.8,0.7-1.3,1.5
			c-1.8-1.2-0.5-1.3-1.5-2.3l-1.6-0.7c-0.3-0.4-1.2-1.7-1.5-2.3c-0.9-2,1.4-3.6-0.8-5.6c1.4,0,2.4,1.3,3,2.2c0.4,0,0.1-0.1,0.6,0.1
			c0.1-0.8-0.2-0.7,0.4-1.1c0,0,0.5-1,0.1-0.6l-0.4,0.1c0.4-0.4,0.3,0.1,0.3-0.5c-0.2-1.7-1.8-1.7-2.7-3.1c-1.3-0.5-0.2,0.2-1.4,0.1
			c-1.2-0.4-1.2-2.8-1.9-3.9c0,0-4.6-5.3-4.7-5.3l0.5-0.3c-0.2-0.5-0.5-1-0.7-1.5l0.2-0.2l-0.2-0.2c-0.5,0.6-0.5,0.4-0.6,1
			c0,0-0.7,0.9-0.5,0.3l-0.1-0.4c-1.1,2.5-1.3,5.1,0.1,7.2l-0.8,1.2c-1.5-0.6-1.8-0.5-3.2-0.7c-0.8,0.8-3.1,2.4-3.6,3.4
			c-0.2-0.4-0.4-0.7-0.7-1.1c-2.4,1.2-5.2,0-7.6,0.8c-0.3,0.1-0.1,0-0.5,0.3c0,0.4,0.1,0.1-0.1,0.6l0.7,0.5
			c-0.8,0.8-0.7,0.5-1.2,1.3c-2.1-1.8-7.1-5.4-8.3-7c-1.5-0.5-3.9-2-4.1-3c-0.9-0.3-0.6-0.2-1.3-0.1c-0.2-0.2-0.1,0-0.1-0.4
			l-0.5-0.3c-0.5,0.9-0.5,1.2-0.9,1.4c-0.4,1.1-0.3,1,0.2,1.8c0,0.4,0.1-0.1,0.4-0.1l0.2,0.2c-0.1,1,0.6,1.3,0.6,1.7
			c0,0.6-0.9,0.9-0.8,1.8c-0.9-0.1-1.2-0.9-2.1-1l-3.3,1.9c-0.9,0.7-0.4,2-1.3,2.5c-0.5,0.1-1.1-0.1-1.7-0.1c-2-1.3-3.9-4.2-4.6-6
			l-0.2-0.2c-0.5,1.2-0.1,1.6-0.4,2.8c-1.3-0.1-2.1,0.9-2.9,0.8c-1.5-0.1-0.9-1-2.5-0.3c-1.1-0.8-1.2-1.2-1.3-2.2
			c-1.3-0.6-1.2-0.1-2,1.1c-1.2-0.3-2.1-1.1-3.2-0.7l-0.4,0.1c0.6,1.2,0.8,2.2,1.2,3.4c-1.8,0.2-3.2-2.1-5.1-1.9l-0.6-0.1l-0.3,0.5
			c0.6,1,0.7,1.9,1.9,2.9c-1.2,0.6-1.6,0.8-2.6,2l-2.8-0.8c-0.4,0.4-0.8,0.9-1.2,1.3c-0.7,0.1-1.5-0.9-2.2-0.7
			c-0.4,0.1-0.4,0.8-0.8,0.8c-1.5,0-3.5-1.2-4.2-1.3c0.1-0.6,0.1-1.3,0.2-1.9c-1-1-2.6-1.8-3.3-1.8c-1.1-0.1-1.1,0.3-1,1
			c-1.3,1-2.9,0-4.4,0.6c-0.5,0.3,0,0.9-0.7,1.6c-0.9,0.9-3.5,0.9-3.5,2.8c-1.8,0.2-6.2-1.7-8.1-2.1l-0.6,1
			c-1.5-0.7-2.3-0.3-3.5-0.2l-0.5,0.7c0.6,0.4,0.9,0.6,1,1l0.1,0.4c-1.1-0.4-2.2-0.7-3.3-1.1c-0.4,0.3-0.8,0.8-1.3,1.5
			c-1.3-0.5-2.7-1-3.9-0.8c0,0,0.2,2.2,0.2,2.8c-1.8-0.3-5-2.1-7-2.2c-0.8-0.2-1.6,0.2-2.4,0.5c-1.3,0.7-1.8,3.1-1.5,4.4l-0.9,1.4
			c-2.9-1.3-5.8-2.2-8.9-2.4c-0.3,0.8-0.4,0.3,0.2,0.8l-0.5,0.7c0.5,0.4,0.6,0.5,0.8,0.8c0.3,0.5-0.1,1.4-0.5,2.4
			c-1.4,0.2-3.2,0.2-4.8-0.4c-0.8,1.1-1.1,2-0.7,3.2c-1.4,1.2-5.8,2-8.1,2.2c-0.8,1.4-0.9,1.6-1.8,2.9c0.1,0.5,0.2,1,0.3,1.6
			c0.1,0.4-0.1,0.2-0.2,0.9c-0.7-0.1-2.3-1-3.1-1c-0.5-0.4-0.6-0.5-0.8-0.8c0-0.7,1.7-2.2,1.7-3.6c0.5,0.1,0.3,0.1,0.6,0.1
			c0.5-0.2,0.9-1.1,1.4-2.1c-0.8-0.6-2.6-0.8-3.8-0.4c-1.2-0.8-1.3-1.1-1.3-2.2c-0.8-0.4-1.1-0.4-1.3-0.5c-1.1-2.2,1.8-4.4,3-5.8
			c0.2,0.6,0.2,0.3,0,1L84,236c0.5-0.8,1.6-2.1,1.8-3.3c0-0.4-0.7-1.1-0.7-1.5c0.1-1.5,1.7-1.1,2.3-1.5c0.5-0.3,1.2-1.6,2.2-2.3
			c0.3-0.2,6.3-2.8,6.6-2.9c0.3,0,1.6,0.9,2.5,0.9c0.7,0.1,1,0,1.6-0.3l0.4-0.1l-0.2-0.2c0.1-0.7-0.1-0.7-0.5-1.3
			c0.4-0.5,0.5-0.6,0.8-0.8l0.3-0.5c0.6,0.7,0.6,0.7,0.3,1.6c1.2,0.1,2.7,0.2,3.3,1.8c1.8,0.7,3.4-0.3,5-0.5c0.1-0.7,0-1.6-0.3-2.2
			c0.4-0.6,0.6-0.9,1-1c1.1-0.7,5-0.7,6.5-1.2c1.6,1.3,3.7,1.2,5.5,0.8c1.6-0.6,2.9-2.5,4.3-3.6c-0.3-0.4-0.4-0.6-1-1
			c1-0.1,1.9,0.5,2.1,1.4c1.6,1,4.9,1.7,5.4-0.6c0.1-0.6,0.5-2.2,0.4-2.8l-0.5-0.3c0.2-2.6,7.9-4.3,9.2-4.9l0.1-0.6
			c0.7-0.5,2-1,2.7-1.6c0.1-0.2,1-2.3,1.1-2.3l0.5,0.3c0.9-0.3,2.2-0.7,3-1.1c0.6-0.2,2.9-1.9,2.9-1.9l0.7,0.5
			c0.1-0.3,0.1-0.6,0.2-0.9c-0.2,1,2.3-0.2,2.7-0.6c1.3,0.5,4.4,1.8,4.7,2.7c2.3,0.9,5.2-0.2,7.1-1.2c1.6,0.9,1.8,0.9,1.8,2.5
			c1.2,0.3,2.3,0.6,3.5,0.9c0.5,0,1.7-0.4,2.2-0.3c2.6,0.5,4.6,2.5,7,2.2l0.2,0.2c0.1-1.2-0.4-2.1-0.1-3.5c1.1,0.2,6.6,1,7.3,1.3
			c0.9,0.4,0.8,1.9,1.7,2.1c0.3,0,0.4-0.9,0.4-1.1c-0.1-1,0-0.7-0.7-1.1l0.5-0.3c0.1,0.4,0.2,0.8,0.3,1.2c0.9,0.5,0.8,0.3,1.5,0.3
			l-0.2,0.2l0.2,0.2c-1,0.1-1.1,2.2-1.1,2.7l-0.2,0.2l-0.3-0.5l-0.3,0.5c0.9,0.4,0.5,0.5,1,0c0.5,0.5,0.1,0.2,0.7,0.5l-0.5,0.3
			c1.2,0.7,6.3,2,7.1,1.5c0.8-0.7-0.3-2.1,0.2-3.5c1.9,0.9,7.3,3.2,9.1,3.1c1.1,0.6,0.8,0.7,1.3,0.1c0.1-0.3,0.1-0.1-0.3-0.5
			l0.2-0.2c0.4,0.4,0.4,0.4,0.6,0.7l0.5,0.3c0.3,0.5-0.6-0.1-0.6-0.1l-0.2,0.2c0.9,0.4,0.5,0.5,1,0c1,1,1.1,1.8,2.3,2.8
			c1.1-1.3,3.8-2.7,4.5-2.8c0.7-0.1,1.8,0.3,2.4-0.1c0.6-0.4,0.1-0.9,0.4-1.1c0.4-0.4,1.6-0.5,2.1-0.7c-1.3-1.2-5.8-4.1-7.5-4.1
			l-0.5-0.3c0.5-0.3,0.6-0.2,1.1-0.7c0.6,0.3,1.2,0.6,1.8,0.8l0.5-0.7c-0.9-0.3-0.8-0.7-1.7-0.4c-1.4-1-1.4-1-1.9-0.2
			c-1.1-0.7-3.5-2.6-4.1-2.6c-0.8-0.7-0.2-0.3-0.4-0.9c0.2,0,1,0.2,1.7,0.4l0.2-0.2c-0.6-1.4-0.4-1.5-1.8-2.5c1.1-0.4,1,0,1.6-1
			c0.8,0.4,1.7,0.9,2.5,1.3c0.7-1.1,0.7-1,1.6-1l-0.9,0.4c0.3,0.5,0.4,0.7,0.5,1.3c1.3,0.9,3.7,2.8,4.9,2.8c0.5,0.1,0.3,0.1,0.6,0.1
			c-1.1-1.2-4-2.7-4.2-4.4c-0.1-0.3-0.1,0,0.2-0.2c0.8-1.3,1.4-1.6,2.2-2.3c1,0.4,3.3,1.9,4.1,2c1.5,0,0.4-1.1,2.5,0.3
			c0.1-0.4,0.1-0.5,0.4-1.1c-1.1-2-1.1-3.6-3.9-5.5l0.2-0.2c2.8,0.9,5.6,1.1,8.2,1.9c2.9,0.9,9.5,6.1,10.2,6.2c0.7,1.1,0,1,0.3,2.2
			c0.4,1.5,2,2.4,2.2,3.4c2,0.2,0.3-1.1,2.3,0.1c0.2-0.7,0.2-0.5,0-1l0.2-0.2C247.5,205.5,247.9,207.1,248.6,208.1L248.6,208.1z
			 M253.4,246.9c0.4-0.2,0.6-0.3,0.9-0.4l0.1,0.4C253.7,247.4,254.2,247,253.4,246.9z M224.8,224.9l-0.3,0.5l-1.2,0.3l-0.5-0.3
			l0.5-0.7c0.3-0.1,0.5-0.1,0.8-0.2L224.8,224.9z M234.2,228.5l0.5-0.7l0.7,0.5c0.2,1.3,1.2,2.5,1.3,3.8c0.1,0.2-0.5,0.6-0.8,1.2
			c-0.5-0.6-0.4-0.3-0.2-0.8C235.3,231.2,234.8,229.7,234.2,228.5L234.2,228.5z M229.5,215.8l0.6-1l0.2,0.2l0.2,0.8
			C229.8,216.2,230.4,216.1,229.5,215.8z M194.5,211.2c0.6,0,0.6-0.5,0.9,0.2C194.8,211.5,195.2,211.2,194.5,211.2z M193,210.3
			c0.2-0.1,1-0.7,1.2-0.3L193,210.3z M304.3,244.2l0.7,0.5c-0.4,0-0.3,0-0.9-0.2L304.3,244.2z M304.3,245.8c0.4-0.3,0.2-0.2,0.5-0.3
			l-0.2,0.2c0,0.1,0.1,0.3,0.1,0.4L304.3,245.8L304.3,245.8z M325.1,293.2c-0.6-0.8-0.3-0.7-1.4-0.9c1.1-0.5,1.2-0.2,2,0
			C325.2,292.7,325.4,292.6,325.1,293.2z M337.8,293.9c-0.1-0.3-0.3-0.6-0.4-0.9C337.9,292.4,337.9,293.9,337.8,293.9z M354.3,297.1
			c-0.6,0.4-0.5,0.3-1.2,0.3c0.6-0.4,0.4-0.2,0.9-0.4L354.3,297.1z M355.4,297.5l0.5-0.7C355.8,297.3,355.8,297.2,355.4,297.5z
			 M356.5,297.2l-0.3-0.5C356.2,296.7,356.5,296.6,356.5,297.2z M350.2,284c-0.4,0.6-0.5,0.9-0.5,1.3c-0.6,0.3-1-0.1-1.5,1.4
			c-1.4,0.5-3-0.3-3.7,1l-0.1-0.4c0-0.6,0.3-1.3,0.2-1.9c0.7-0.9,1.5-1.8,2.4-2.2c0.8-0.5,1.8-0.3,2.7,0l0.4-0.1L350.2,284
			L350.2,284z M380.6,307.5c0.4-0.3,0.2-0.2,0.5-0.3C380.7,307.5,380.9,307.4,380.6,307.5z M383.5,306.7c0.4-0.3,0.2-0.2,0.5-0.3
			C383.6,306.7,383.8,306.6,383.5,306.7z M382.3,305.9c0.4-0.3,0.2-0.2,0.5-0.3C382.4,305.9,382.6,305.8,382.3,305.9z M381.8,305.6
			l0.5-0.7C382.2,305.5,382.3,305.4,381.8,305.6z M382.2,304.5c0.4-0.3,0.2-0.2,0.5-0.3C382.3,304.5,382.5,304.4,382.2,304.5z
			 M379.1,300.9c0.4-0.3,0.2-0.2,0.5-0.3C379.2,300.9,379.5,300.8,379.1,300.9z M379.2,299.6l-0.1-0.4c0.4,0,0.1-0.1,0.6,0.1
			C379.8,299.3,379.1,300.2,379.2,299.6L379.2,299.6z M381.8,296.2l0.1,0.4l-0.5-0.3c0.4-0.3,0.2-0.2,0.5-0.3L381.8,296.2
			L381.8,296.2z M385.2,284.6l0.7,0.5l-0.2,0.2l-0.9-0.2L385.2,284.6L385.2,284.6z M387.2,286.2l0.7,0.5c-0.4,0-0.3,0-0.9-0.2
			L387.2,286.2z M389.7,287.5l0.2,0.2c-0.8,0.6-1.2,0.6-2.2,0.3c0.7-0.4,1.2-0.5,1.9-0.8L389.7,287.5L389.7,287.5z M452.1,290.4
			l-0.3,0.5l-0.9-0.2l0.7-0.6L452.1,290.4z M463.9,286.8c-0.4,0.3-0.2,0.2-0.5,0.3l-0.4,0.1c0.2-0.7,0-0.2,0.5-0.7
			c-1.1-0.1-1.5,0-1.9,0.8c-0.6-0.6-2.4-1-4.2-1.3c0.4-0.4,0.4-0.4,0.7-0.6l0.2-0.2l0.2,0.8c2.3-0.2,3.1,0.8,4.9-0.2
			C463.5,286.3,463.4,286.3,463.9,286.8L463.9,286.8z M468.2,279.5c-0.6-0.1-0.6,0-1.3-0.1C467.5,279.3,468.1,278.7,468.2,279.5z
			 M482.3,287.5c-0.6,0.2-0.4,0.2-1.3-0.1c0.8-0.4,1.3-0.7,2.1-0.7C482.7,287.1,482.6,287.4,482.3,287.5z M481.3,285.9l0.5,0.3
			c-0.7,0.4-0.1,0.3-1,0l0.5-0.7C481.3,285.6,481.3,285.8,481.3,285.9z M464.8,273.3l-1.3,0.5l-1-0.6l0.7-0.6
			c0.5,0.1,0.3,0.1,0.6,0.1L464.8,273.3L464.8,273.3z M461.5,269.5l-0.2,0.2l-0.9-0.2l0.3-0.5L461.5,269.5L461.5,269.5z
			 M478.2,279.2l0.7,0.5l-0.2,0.2c-0.8-0.4-0.7-0.2-1.2-0.8l0.2-0.2l0.3,0.5L478.2,279.2z M477.6,278.5l-0.2-0.2c-0.5,0,0,0-0.7-0.5
			c0.2-0.2,0.5-0.4,0.7-0.6C478.2,278.2,477.8,277.6,477.6,278.5z M469.4,271.9l-0.9,1.4l-0.2-0.2c0.2-0.7,0.2-0.5,0-1l0.9-0.4
			L469.4,271.9L469.4,271.9z M473.5,270.8c0.7,0.5,1,0.8,1.3,1.2l-0.5,0.7c-0.4-0.2-0.9-0.4-1.3-0.5c0.2-0.6,0.2-0.5,0.2-0.9
			c-0.2-0.4-2-0.6-2.7,0l-1-0.6c1.2-0.5,2.2-0.3,3.4-0.5C473.4,270.5,473.4,270.4,473.5,270.8L473.5,270.8z M507.7,301.5l-0.2-0.2
			c0.1-0.4,0.2-0.9,0.1-1.3c0.4,0,0.9,0.1,1.3,0.1C508,300.7,508.4,300.4,507.7,301.5L507.7,301.5z M512.5,304.5l-0.3,0.5l-0.5-0.3
			l0.5-0.3L512.5,304.5L512.5,304.5z M518.6,283.9l0.5,0.3c-0.6,0.4-0.3,0.3-0.9,0.4L518.6,283.9z M525,286.6l-0.2,0.2l-0.5-0.3
			l0.2-0.2L525,286.6z M520.6,286.1l-0.3,0.5c-0.3-0.7,0-0.7-0.7-1.5c0.5-0.7,0.8-1.3,0.8-1.8l0.2-0.2l0.3,1.2l-0.2,0.2l0.2,0.2
			c0.4-1.4,0.2-1.5,0.7-2.6c0.7,0.1,0.4,0.2,1.1,0.4C521.8,283.3,522,285.2,520.6,286.1L520.6,286.1z M538.5,291.9
			c0,0-0.5,1-0.1,0.6l0.4-0.1c-0.8,1-1,0.7-1.9,1.8c-0.2-0.6-0.2-0.3,0-1c-0.8-0.3-0.3-0.4-0.8,0.2c-0.4-0.6-0.8-1.2-1.2-1.8
			l0.2-0.2c0.2,0.4,0.3,0.6,0.4,0.9c0.8,0.1,1.2-1.1,2.3-1.5c0.4,0,0.3,0,0.9,0.2C538.4,291.6,538.4,291.5,538.5,291.9L538.5,291.9z
			 M516.2,275.6c0.7,1,0.4,1.3,0.5,2.4c-0.6,0.4-0.3,0.3-0.9,0.4c-0.4,0-0.1,0.1-0.6-0.1c-0.2-1-1.1-2.1-1.5-3
			c0.7-0.3,0.8-0.4,1.6-0.3C515.6,275,516.1,275.3,516.2,275.6L516.2,275.6z M532.4,285c0.8-0.5,0.6-0.3,1.7-0.6l0.5,0.3
			c-0.7,0.4-0.7,0.1-0.8,0.8C533.6,285.5,533,285.1,532.4,285L532.4,285z M535.3,284.8l0.5,0.3l-0.4,0.1c0,0-0.7,0.9-0.5,0.3
			l-0.1-0.4l0.5-0.7L535.3,284.8L535.3,284.8z M540.4,284.7c0.3,0.4,0.2,0.2,0.3,0.5c-0.3-0.1-0.6-0.1-0.9-0.2l0.5-0.7L540.4,284.7
			L540.4,284.7z M565.3,278.8c-0.6,0.5-0.1,0.5-0.8,0.2l0.3-0.5L565.3,278.8z M582.1,286.8c-0.2-0.2-0.4-0.5-0.6-0.7
			c0.7-0.4,0.1-0.3,1,0L582.1,286.8z M584.8,286.8l0.5,0.3c-0.4,0.3-0.2,0.2-0.5,0.3c-0.6,0.1-0.4-0.2-0.9-0.2c-0.6-0.4-0.7-0.6-1-1
			c0.3-0.6,0.4-0.7,0.4-1.1C583.4,285.2,584.6,286.4,584.8,286.8L584.8,286.8z M732.5,264.3l-0.5,0.7c-0.4-0.6-0.2-0.4-0.4-0.9
			l0.6-1l0.4-0.1C732.7,263.4,732.5,264,732.5,264.3z M729.3,255.2l-0.3,0.5l-0.2-0.2c0.2-0.8,0.3-1.2,0.2-1.9l0.2-0.2
			C729.3,254,729.2,254.6,729.3,255.2L729.3,255.2z M739.2,252.8c0.3,0.4,0.2,0.2,0.3,0.5c-0.6-0.1-1.3-0.3-1.9-0.2
			c-0.5-0.6-0.4-0.7-0.9-1.2C737.6,251.7,738.8,251.7,739.2,252.8L739.2,252.8z M615.2,193.2l0.3,0.5l-0.3,0.5l-0.2-0.2
			c0.1-0.5,0.1-0.3,0.1-0.6L615.2,193.2L615.2,193.2z M611.6,192.9c0.4-0.3,0.4-0.3,0.8-0.8l0.2,0.2c-0.3,0.6-0.2,0.9-0.3,1.5
			C612.4,193.8,611.8,193,611.6,192.9L611.6,192.9z M615,194.4c-0.4,0.3-0.2,0.2-0.5,0.3C614.9,194.4,614.7,194.5,615,194.4z
			 M610.7,194.3l0.2-0.2l0.5,0.3l-0.2,0.2L610.7,194.3z M612.9,195.1l0.2,0.2c-0.6,0.8,0.1,0.6-0.9,0.4L612.9,195.1L612.9,195.1z
			 M611.5,195.2c0,0,0.3-0.1,0.3,0.5L611.5,195.2z M611.9,196.1c-0.4,0.3-0.2,0.2-0.5,0.3C611.8,196.1,611.6,196.2,611.9,196.1z
			 M610.7,196.4l0.3-0.5c0.2,0.7,0.4,1.1,0.5,1.3l0.2,0.2c-0.7,0.5-0.2,0.1-1,0C610.8,197,610.8,196.7,610.7,196.4z M610.2,196.7
			c0.1,0.4,0.2,0.8,0.3,1.2l0.1,0.4l0.2-0.2l0.2,0.2c-0.4,0.2-0.6,0.3-0.9,0.4c0.1-0.6,0.2-1.1,0-1.7L610.2,196.7L610.2,196.7z
			 M614.5,200.5c-0.4,0.3-0.2,0.2-0.5,0.3C614.4,200.5,614.2,200.6,614.5,200.5z M611.9,199.8c0.4-0.3,0.2-0.2,0.5-0.3
			C612,199.8,612.2,199.7,611.9,199.8z M609.3,197.5l0.3-0.5l0.2,0.2c-0.2,0.6-0.2,0.7-0.1,1.3l-0.2,0.2L609.3,197.5z M610.5,199.3
			l-0.1-0.4c0.4,0,0.1-0.1,0.6,0.1C611.1,199,610.4,199.9,610.5,199.3L610.5,199.3z M608.3,199.2l0.2,0.2c-0.4,0.5,0,0.6-0.5,0.3
			L608.3,199.2z M608.5,200.3c0.2-0.6,0.2-0.7,0.1-1.3l0.2-0.2c0.1,0.4,0.2,0.8,0.3,1.2l-0.3,0.5L608.5,200.3z M610,199.6l0.2,0.2
			c-0.4,0.5,0,0.6-0.5,0.3L610,199.6z M604.2,206l0.2-0.2l0.1,0.4l0.1,0.4l-0.9-0.2C604.1,206,603.9,206.1,604.2,206L604.2,206z
			 M603,206.9l0.1,0.4l0.2,0.2c-0.4,0-0.3,0-0.9-0.2L603,206.9L603,206.9z M601.3,209.5c-0.3-0.1-0.6-0.1-0.9-0.2
			c1.3-0.5,0.9-0.1,1.5-1.4c0.7,0.1,0.5,0.2,1.3,0.5c-0.3,0.1-0.5,0.1-0.8,0.2c0.3,0.4,0.2,0.2,0.3,0.5l0.2,0.2
			c-0.5,0.1-0.6,0.1-1.3-0.1c0,0.4-0.1,0.8-0.1,1.3l-0.9-0.2C601.1,209.5,600.8,210.1,601.3,209.5L601.3,209.5z M603.3,210.5
			l0.2,0.2l-0.4,0.1c-0.5,0,0,0-0.7-0.5C603.1,210.2,602.9,210.5,603.3,210.5z M602.3,212.2l0.5,0.3c-0.6,0.5-0.1,0.5-0.8,0.2
			L602.3,212.2z M596.7,211c0,0,0.3-0.1,0.3,0.5L596.7,211z M596,210.9c0,0,0.3-0.1,0.3,0.5L596,210.9z M594.7,212.4
			c0,0,0.3-0.1,0.3,0.5L594.7,212.4z M594.2,212.7c0,0,0.3-0.1,0.3,0.5L594.2,212.7z M594.7,214.1l0.2-0.2l0.5,0.3l-0.2,0.2
			L594.7,214.1z M592.8,214.9c-0.4,0.3-0.2,0.2-0.5,0.3C592.7,214.9,592.5,215,592.8,214.9z M592.7,215.5c0,0,0.3-0.1,0.3,0.5
			L592.7,215.5z M590.4,218.7c0.4-0.3,0.2-0.2,0.5-0.3l0.2,0.8l-0.2,0.2L590.4,218.7z M592.6,219.4l-0.2,0.2l-0.9-0.2
			C592.1,219.3,591.9,219.3,592.6,219.4L592.6,219.4z M585.2,217.8c0.5,0.1,0.3-0.2,0.5,0.3l0.2,0.2l-0.2,0.2
			C585.6,218.2,585.4,218,585.2,217.8z M585.8,219.5c0.6,0.3,0.9,0.4,1.3,0.5c-0.6,0.2-1,0.1-1.7-0.1L585.8,219.5z M556.3,215.1
			c0,0,0.3-0.1,0.3,0.5L556.3,215.1z M552.9,213.6c0,0,0.3-0.1,0.3,0.5L552.9,213.6z M556.6,216.2c0,0,0.3-0.1,0.3,0.5L556.6,216.2z
			 M550.9,216.7l0.2,0.8l-0.2,0.2l-0.6-0.7C550.8,216.7,550.6,216.8,550.9,216.7z M548.2,216.2c0.5,0,0.1,0,0.3,0.2
			c0,0,0.1,0,0.1,0.1l0.2-0.8l0.1,0.4c0.2,0.5,0,0.6-0.3,0.4l0,0c-0.1,0-0.1-0.1-0.1-0.1C548.4,216.4,548.3,216.3,548.2,216.2
			L548.2,216.2z M549.9,217.7c0.4-0.3,0.2-0.2,0.5-0.3C550,217.7,550.3,217.6,549.9,217.7z M578.2,268.1c0.6-0.5,0.9-0.4,1.5-0.7
			l0.7,0.5l-0.2,0.9C579.5,268.6,579,268.5,578.2,268.1L578.2,268.1z M613.9,265.1c0.1,0.3,0,0.1,0.3,0.5l-0.6,1l-1.4-0.9
			c0.5-0.5,0.8-0.6,1.2-0.9L613.9,265.1z M703.8,251.3c-0.8,0.2-1.6,0.3-2.4,0.5l-0.7-0.5l0.5-0.7c0.8,0.2,0.8,0.2,1.4-0.1
			L703.8,251.3L703.8,251.3z M723.5,252.1c-0.9,0.8-0.3,0.4-1.2,0.3l0.7-0.6L723.5,252.1z M673.8,208.8l-0.2,0.2l-0.5-0.3l0.2-0.2
			L673.8,208.8z M672.7,208.5c0.4-0.3,0.2-0.2,0.5-0.3C672.8,208.4,673,208.3,672.7,208.5z M671,209c1.2,0.4,2.8,1.2,4,1.6l-0.4,0.1
			c-0.7,1.1-0.8,1-0.5,1.3l0.2,0.2c-0.7,0.5-0.8,1.1-1.4,2.1c0.6,0,1.4,0.6,2,0.6c1.1,0,0.3-0.9,1.6-0.3c0.3,0.1,0-0.1,0.5,0.3
			c0-0.8,0.2-0.2-0.4-0.9c0.1,0,8.1,3.1,10.3,3.9c1.3,0.4,2.4,1.9,3.5,1.9c0,0.6-0.5,0.6-0.6,1c-0.2,0.7,0.2,1.6,0.1,2.4
			c1,0.6,1,0.5,1.7,0.4l-0.2,0.9c-1.5,0-2.7,0.4-4.2,0.7l-0.8,1.2c1.1,0.4,3,0.8,3.3,1.1c1.7,2.4,1.3,4.2,0.5,7.1l0.2,0.2
			c0.7-0.2,1.5-0.5,1.7-0.6c0.5,0,1.1,0.6,1.4,1.5c-0.3,1.8-4.4,2.3-5.9,4c-2.1-0.8-3-1.5-5.1-2.6c-1.8,1.1-3.7,3.9-5.7,4.7
			c-1.4,0.8-3-0.3-4.5,0.8c-2.3,1.5-5.7,6-7.4,6.7c-0.6,1-0.5,1.2-0.6,2c1.2,0.6,1.8,0.6,2.8,0.4c0.3,0.4,0.2,0.2,0.3,0.5
			c-0.2,0.2-0.1,0.3-1,0c-0.9,1.3-1.2,1.7-3,2.1c-0.4,0.9-0.6,1.6-0.5,2.4c-0.5,0-0.5-0.4-1.3-0.1c-0.1-0.7,0.2-1.6,0.5-2.4
			l-0.5-0.3c-1.5,0.7-3.7,1.9-5.3,2L656,256c0-0.8-0.1-1.4-0.7-2.1c-0.9-1.3-2.4-0.1-3.5-0.2c-1.8-0.2-2.6-2.1-4.4-2.1
			c-2.3-0.1-4.5,2-6.7,2.1c-1.8,0.1-3.8-1.2-5.5-0.8c-0.4-0.8-0.2-1.6,0.3-2.5c-0.4-0.4-0.4-0.4-0.6-0.7c-3.6-2.1-5.5,0.8-8.5,1.6
			l-0.2,0.2l-0.6-0.7c0.2-0.9,0.8-2.3,0.7-3.2c0.1-0.5,0.1-0.3,0.1-0.6c-1.7,1.2-3.5,3.8-5.1,6.5c-1.9,0.2-6.3,0.8-7.2,4.5
			c0.1,0.5,0.2,1,0.3,1.6c-0.3,1.2-1.3,0-0.8,1.2c-1.1,1.4-3.4,0.5-5.3,1c-3.2,0.9-13.1,4.7-15.7,4.1c-0.9,1.2-1.5,1.8-1.4,3.2
			c-1.4,1.8-8.2,1-10.3-0.2l0.6-1c-1.9-1.7-5.3-2.1-7.7-1.2l-0.2-0.2c0.5-0.7,0.4-0.2,0.5-0.7c0,0,0.7-0.9,0.5-0.3l0.1,0.4
			c0.4-0.3,0.2-0.2,0.5-0.3c0.5-0.9,0.5-0.8,0.3-1.5c-0.1-0.3,0-0.1-0.3-0.5c-0.2,0.1-1.6,0.6-1.7,0.6c-0.2-0.2-0.4-0.5-0.6-0.7
			c-1.1-0.6-2.5-0.2-2.8,0.2c-0.4-0.4,0.1-0.3-0.5-0.3c-0.8-0.8-0.7-0.8-0.6-1.7c-2.2-1-4.3,0-6.8,0c-0.2-0.1-0.4-0.3-0.8-0.8
			c-1.3,0.5-2.7-0.1-4,0.5l-0.5-0.3c0.1-1.4,0.1-2.8-0.5-4c0.4-0.6,0.5-0.9,0.5-1.3c1-1.2,1.7-0.7,2.8-1.2c0.6,0.5,1.6,1.3,1.8,1.9
			l0.2,0.2c2.5-3.5,4.3-6.2,5.9-11.4c0.5-1.7,2.3-3.6,1.6-5.1c0.9-1,1.5-0.8,2.2-0.3c0.4-0.9,0.5-0.7,0.3-1.5l0.2-0.2
			c0.1,0.4,0.2,0.8,0.3,1.2c1.3,0.4,0.8-0.2,1.4-0.1c0.4,0.4,0.9,0.8,1.3,1.2l1.2-0.3c0.3,0.3,0.5,0.6,0.8,0.8c0.7,0,2.3-0.9,3-1.1
			c2.5-0.6,5.9,1,7.7,2.2c1.7-1.1,5.9-1.7,7.8-1.7l0.5-0.7l1.2,0.8c0.1,0.6,0,0.4,0.4,0.9c-1.1,1.9-0.4,1.5-0.7,3.2
			c0.4,0.1,1,0.9,1.4,0.9c0.4,0,6.9-4.3,7.5-4.9c2.1-2,2.8-5.7,5.1-6.9c0.6-1,0.7-1.4,1.5-1.4l0.2-0.2c0.7,1-0.3,1.6,0,2.7l0.1,0.4
			c2.3-2.3,4.1-3.5,6.6-5.5c2.3-1.8,3.5-4.1,5.7-5.8c2.5-1.8,5.6-2.7,8.1-4.2c0.4,0.6,0.3,0.3,0.4,0.9c2.5,1.5,10.1-1,11.9-2.8
			c0.4-0.1,0.3-1.3,0.2-1.9c0.9-0.9,9.9-1.7,11.5-1.7c0.4-0.9,0.7-1.8,1.1-2.7c0.5,0,0.9-0.1,1.4-0.1c0.2-0.1,2.5-3.8,2.6-4.1
			c1.8,0.3,8.4,1.4,9.5,0.4C671.9,208.2,671.6,208.2,671,209L671,209z M676.2,213c-0.4,0.3-0.2,0.2-0.5,0.3
			C676,213,675.8,213.2,676.2,213z M653.5,191.1l0.5-0.7l0.7,0.5l-0.5,0.7L653.5,191.1z M679.4,209c1.2,0.1-0.1,0.4,1.1,0.4
			c0.1,0.3,0.1,0.5,0.2,0.8l-0.2,0.2C679.7,209.7,679.9,209.9,679.4,209z M681.7,210.2c0,0.5,0,0.4-0.5,0.7L681.7,210.2z
			 M682.3,211.9l-0.3,0.5c-0.6-0.8-0.2-0.4-0.8-0.8c0.4-0.3,0.7-0.6,1.2-1.3l0.7,0.5C682.3,211.1,681.8,210.9,682.3,211.9
			L682.3,211.9z M707.2,223.9l-0.3,0.5c-1.1-0.1-2,0-3.1-0.3c1-0.7,1.9-0.1,3-0.4L707.2,223.9z M733.5,232.3l-0.3,0.5l-0.5-0.3
			l0.5-0.3L733.5,232.3L733.5,232.3z"/>
		<path class="st0" d="M27.2,281.5l-0.3,0.5c0.3-0.1,0.1,0,0.5-0.3L27.2,281.5z"/>
		<path class="st0" d="M28.9,279.2l0.5,0.3l0.2-0.2C29,279.2,29.3,279.2,28.9,279.2z"/>
		<path class="st0" d="M28.6,280.3l0.7,0.5l0.2-0.2C28.9,280.3,28.9,280.3,28.6,280.3z"/>
		<path class="st0" d="M64.6,224.6l-0.3,0.5C64.8,224.9,64.8,225.1,64.6,224.6z"/>
		<path class="st0" d="M25.9,287.1l0.5,0.3C26.5,286.8,26.5,287.1,25.9,287.1z"/>
		<path class="st0" d="M32.6,289.3l-0.6-0.7l-1.2,0.3c0.2,0.2,0.4,0.5,0.6,0.7c0.3-0.1,0.5-0.1,0.8-0.2L32.6,289.3z"/>
		<path class="st0" d="M101,207.2c0.6-0.1,0.5-0.3,1.2-0.3l0.5-0.7c-0.5-0.1-0.3-0.1-0.6-0.1c-1.6-1.1-2.7-0.8-3.9,0.2
			C98.9,207,100.3,206,101,207.2L101,207.2z"/>
		<path class="st0" d="M48.6,287.4l0.4-0.1c0.3-0.1,0.1,0,0.5-0.3c-0.4-1,0.3-0.9-0.8-0.8C48.8,286.7,48.8,286.8,48.6,287.4
			L48.6,287.4z"/>
		<path class="st0" d="M83.1,278.2l-0.3,0.5c0.3-0.1,0.1,0,0.5-0.3L83.1,278.2z"/>
		<path class="st0" d="M94.1,268.4l0.2-0.2c-0.5-0.1-0.3-0.1-0.6-0.1L94.1,268.4z"/>
		<path class="st0" d="M94.1,270.5c-0.1-0.3-0.3-0.2-0.5-0.1c-0.1,0.1-0.1,0.2-0.2,0.3C93.4,270.9,93.9,270.6,94.1,270.5z"/>
		<path class="st0" d="M99.2,263.6c0.3-0.1,0.1,0,0.5-0.3l-0.2-0.2L99.2,263.6z"/>
		<path class="st0" d="M100.7,262.9l-0.2-0.2l0.2-0.2l-0.2-0.2l-0.6,1C100.1,263.2,100.3,263.1,100.7,262.9L100.7,262.9z"/>
		<path class="st0" d="M165.1,186c-0.5-0.4-0.6-0.5-0.8-0.8l-0.2-0.2c-0.8,1.4-0.3,1.4-0.7,2.6l0.6,0.1L165.1,186L165.1,186z"/>
		<path class="st0" d="M171.6,177l0.3-0.5c-1.7-1.1-1.5-1.1-2.4,0.1c0,0,0.9,0.7,0.3,0.5l-0.4,0.1
			C170.4,177.5,170.7,177.1,171.6,177L171.6,177z"/>
		<path class="st0" d="M169.9,180.6c0.3-0.1,0.1,0,0.5-0.3l-0.2-0.2L169.9,180.6z"/>
		<path class="st0" d="M126.6,250.2c0.3-0.1,0.1,0,0.5-0.3l-0.2-0.2L126.6,250.2z"/>
		<path class="st0" d="M167.8,186l-0.3,0.5c0.3-0.1,0.1,0,0.5-0.3L167.8,186z"/>
		<path class="st0" d="M169.9,185.3l-0.3,0.5c0.3-0.1,0.1,0,0.5-0.3L169.9,185.3z"/>
		<path class="st0" d="M134.6,248.9c0.3,0.4,0.2,0.2,0.3,0.5l0.5,0.3l-0.1-0.4l0.1-0.6C134.6,248.7,135.3,248.5,134.6,248.9
			L134.6,248.9z"/>
		<path class="st0" d="M181.1,182.1c-0.2-0.5-0.5-0.1-0.6-0.1C180.2,182.5,180.8,182.3,181.1,182.1z"/>
		<path class="st0" d="M201.4,172.9c0.4-0.3,0.4,0.1,0.3-0.5l-0.1-0.4c-2.7,1.2-4.3,0.4-6.9,2.3c0,0.4,0,0.3-0.2,0.9
			C196.2,175.5,200.1,174,201.4,172.9z"/>
		<path class="st0" d="M152.6,248c-0.9-0.3-0.3-0.4-1,0c0.5,0.1,0.3,0.1,0.6,0.1l0.2,0.2L152.6,248L152.6,248z"/>
		<path class="st0" d="M202.5,172.2l0.2,0.2l0.2-0.2c-0.9-0.3-0.3-0.4-1,0C202.4,172.3,202.2,172.3,202.5,172.2L202.5,172.2z"/>
		<path class="st0" d="M211.2,175.1c0.5-0.7,0.7-1.3,0.8-1.8l-0.3-0.5c-1.9,1.1-2.9,1.2-4.7,3.1c0.4,0.9,0.2,0.5-0.4,1.1
			c0.6,0.3,0.7,0.4,1.1,0.4c0.4-0.2,0.3-0.2,0.2-0.9l0.4-0.1l-0.2,0.2c0,0,1,0.5,0.6,0.1l-0.1-0.4c0.2,0.2,0.4,0.5,0.6,0.7
			C210.1,176.3,210.2,175.5,211.2,175.1L211.2,175.1z"/>
		<path class="st0" d="M210.1,180.4l-0.3,0.5c0.3-0.1,0.1,0,0.5-0.3L210.1,180.4z"/>
		<path class="st0" d="M199.5,217.5l0.2-0.2c-0.5-0.1-0.3-0.1-0.6-0.1L199.5,217.5z"/>
		<path class="st0" d="M182.4,245.2l0.5,0.3l0.3-0.5l-0.5-0.3L182.4,245.2z"/>
		<path class="st0" d="M212,226.8c0.3-0.1,0.1,0,0.5-0.3l-0.2-0.2L212,226.8z"/>
		<path class="st0" d="M212.6,226.5c0.3-0.1,0.1,0,0.5-0.3l-0.2-0.2L212.6,226.5z"/>
		<path class="st0" d="M229.7,213.9l-0.2-0.2l-0.3,0.5C229.5,214.1,229.3,214.2,229.7,213.9z"/>
		<path class="st0" d="M214,247.9c0.3,0.6,0.2,0.9,0.7,1.5c0.3-0.6,0.3-0.7,0.4-1.1C214.5,248,214.4,247.9,214,247.9L214,247.9z"/>
		<path class="st0" d="M243.8,207.1l0.5,0.3C244.4,206.9,244.4,207.1,243.8,207.1z"/>
		<path class="st0" d="M302.8,192.4l-0.2-0.2l-0.3,0.5C302.6,192.6,302.4,192.7,302.8,192.4z"/>
		<path class="st0" d="M236.7,299.2l0.3-0.5c-0.6,0.3-0.9,1.1-1.5,1.8c0.6,0.2,0.5,0.2,0.9,0.2C236.8,300.5,236.8,299.9,236.7,299.2
			z"/>
		<path class="st0" d="M238.3,298.2l0.5,0.3c0.4-0.9,0.2-0.9,0.4-1.7c-0.6-0.2-0.5-0.2-0.9-0.2C238.6,297.2,238.6,297.4,238.3,298.2
			L238.3,298.2z"/>
		<path class="st0" d="M245.1,289.8l0.2-0.2c-0.5-0.1-0.3-0.1-0.6-0.1L245.1,289.8z"/>
		<path class="st0" d="M246,290c-0.5-0.5-0.1-0.4-0.7-0.5l0.6,0.7L246,290z"/>
		<path class="st0" d="M258.8,283.7l0.5,0.3c0.1-0.5,0.1-0.3,0.1-0.6l0.2-0.2C259.1,283.3,259.2,283.3,258.8,283.7L258.8,283.7z"/>
		<path class="st0" d="M262,279.1c-0.3,0.5,0.3,0.3,0.6,0.1C262.5,278.7,262.2,279,262,279.1z"/>
		<path class="st0" d="M299.1,243.9l0.5,0.3l-0.1-0.4l0.3-0.5C299.4,243.5,299.5,243.4,299.1,243.9L299.1,243.9z"/>
		<path class="st0" d="M340.6,188.6c1.4,0.9,2,1.9,3,2.2c0,0.1,0.1,0.3,0.1,0.4c0.6-0.7,1.2-1.2,1.9-1.4l0.3-0.5
			c-2.2-1.5-6-4.3-6.7-6.3l-0.2-0.2c-0.5,1.7-0.8,5.2,0.2,6.5c0.1,0.3,0,0.1,0.3,0.5c0.4,0,0.1-0.1,0.6,0.1L340.6,188.6L340.6,188.6
			z M339.3,186.8l0.2-0.2c0-0.4,0-0.3,0.2-0.9l0.7,0.5l-0.2,0.2c0,0.4,0,0.3-0.2,0.9L339.3,186.8z"/>
		<path class="st0" d="M324.8,209.5c-0.5-0.1-0.3-0.1-0.6-0.1l0.5,0.3L324.8,209.5z"/>
		<path class="st0" d="M344,192.2c0.4,0,0.1-0.1,0.6,0.1c0-0.4,0.1-0.7,0-1l0.3-0.5c-0.4,0.2-1.1,0.6-1.5,0.7L344,192.2z"/>
		<path class="st0" d="M345.1,190.5c0.7,0.1,0.8-0.1,1.4-0.1l0.2-0.2C345.8,190,345.8,190.1,345.1,190.5L345.1,190.5z"/>
		<path class="st0" d="M280.7,294.7c0.3-0.1,0.1,0,0.5-0.3l-0.2-0.2L280.7,294.7z"/>
		<path class="st0" d="M310.8,254.1l-0.4,0.1c-0.8-0.1-0.1-0.2-0.8,0.2c0,0.4,0.1,0.1-0.1,0.6l0.6,0.1L310.8,254.1z"/>
		<path class="st0" d="M286.6,297.5l-1.2-0.8c-0.4,0.4-0.4,0.4-0.7,0.6l-0.2,0.2c0.6,0.1,0.9,0.1,1.4-0.1l0.5,0.3L286.6,297.5
			L286.6,297.5z"/>
		<path class="st0" d="M310.2,258.1l0.7,0.5l0.2-0.2c0-0.1-0.1-0.3-0.1-0.4C310.2,257.8,310.9,257.7,310.2,258.1L310.2,258.1z"/>
		<path class="st0" d="M367.3,173.1c0,0.4,0.1,0.1-0.1,0.6l0.5,0.3C368,173.1,368.2,173.1,367.3,173.1z"/>
		<path class="st0" d="M368.3,180.5c-0.3,0.1-0.3,0.1-0.7,0.6C368,180.9,367.9,180.9,368.3,180.5z"/>
		<path class="st0" d="M365.5,193.8l-0.2-0.2l-0.2,0.2c0.6,0.2,0.5,0.2,0.9,0.2c0.4,0.8,0.3,0.2-0.2,0.9l0.5,0.3l0.6-1
			C366.2,194,365.9,193.8,365.5,193.8L365.5,193.8z"/>
		<path class="st0" d="M367.3,194.7l-0.3,0.5c0.5,0.1,0.3,0.1,0.6,0.1l-0.2-0.2L367.3,194.7L367.3,194.7z"/>
		<path class="st0" d="M368.4,195c0-0.1-0.1-0.3-0.1-0.4c-0.6-0.2-0.5-0.2-0.9-0.2c0.3,0.5,0.2,0.6,0.7,1.1L368.4,195L368.4,195z"/>
		<path class="st0" d="M310.9,294.9c-0.2-1.1-0.5-0.9-1.3-0.5c-1.8-1.3-3-2.1-4.4-1.5c0.5,1.3,0.4,2.6-0.2,3.5
			c1.5-0.1,1.9-1.3,3.4-1.6c-0.5,0.5-0.4,0.1-0.5,0.7c0.7,0.3,3.1-0.7,3.9-0.2c0.1-0.5,0.1-0.3,0.1-0.6
			C311.6,293.9,311.3,294.7,310.9,294.9L310.9,294.9z"/>
		<path class="st0" d="M370.6,195.4c-0.3-0.4-0.2-0.2-0.3-0.5c-1-0.4-1-0.4-1.8,0.2c0.8,0.1,1,0.1,2,0.6L370.6,195.4L370.6,195.4z"
			/>
		<path class="st0" d="M371.5,191.3c-0.8-0.1-0.1-0.2-0.8,0.2l0.7,0.5l0.2-0.2L371.5,191.3L371.5,191.3z"/>
		<path class="st0" d="M371.3,194.8l-0.2-0.2l-0.3,0.5C371.1,195,370.8,195.2,371.3,194.8z"/>
		<path class="st0" d="M311.2,293.4l-0.2-0.2l-0.3,0.5C311,293.6,310.7,293.7,311.2,293.4z"/>
		<path class="st0" d="M311.3,295.8l0.2-0.2c-0.5-0.1-0.3-0.1-0.6-0.1L311.3,295.8z"/>
		<path class="st0" d="M381.2,187.7l-0.3,0.5c0.3-0.1,0.1,0,0.5-0.3L381.2,187.7z"/>
		<path class="st0" d="M305,308.3c0.3-0.1,0.1,0,0.5-0.3l-0.2-0.2L305,308.3z"/>
		<path class="st0" d="M305.5,307.9c-0.3,0.5,0.3,0.3,0.6,0.1C305.9,307.5,305.6,307.9,305.5,307.9z"/>
		<path class="st0" d="M382.3,191.8c-0.5-0.1-0.3-0.1-0.6-0.1l0.5,0.3L382.3,191.8z"/>
		<path class="st0" d="M382.6,194l-0.3,0.5c0.3-0.1,0.1,0,0.5-0.3L382.6,194z"/>
		<path class="st0" d="M318.8,295.6l1.4,0.9l0.2-0.2l-0.2-0.2c-0.1-0.2-0.8-1.1-1.7-1.1C318.8,295.5,318.7,295.3,318.8,295.6
			L318.8,295.6z"/>
		<path class="st0" d="M378.1,208.3c-0.8-0.3-0.7,0.4-0.7-0.5l-0.5-0.3c-0.5,0.7-0.4,0.2-0.5,0.7l-0.3,0.5c0.4,0.1,0.5,0.1,1.1,0.4
			c0.4-0.4,0.4-0.4,0.7-0.6L378.1,208.3L378.1,208.3z"/>
		<path class="st0" d="M322.3,294.4c0.3-0.1,0.1,0,0.5-0.3l-0.2-0.2L322.3,294.4z"/>
		<path class="st0" d="M336.2,295.3l0.2-0.2c-0.5-0.1-0.3-0.1-0.6-0.1L336.2,295.3z"/>
		<path class="st0" d="M410.9,194c-0.5-0.1-0.3-0.1-0.6-0.1l0.5,0.3L410.9,194z"/>
		<path class="st0" d="M361,290.3c0.3-0.1,0.1,0,0.5-0.3l-0.2-0.2L361,290.3z"/>
		<path class="st0" d="M378.6,299.5l-0.2-0.2l-0.3,0.5C378.4,299.7,378.2,299.9,378.6,299.5z"/>
		<path class="st0" d="M387.7,291.6c0.3,0.6,0.2,0.6,0.9,1.2l0.3-0.5l-0.1-0.4C388.2,291.7,388.1,291.6,387.7,291.6z"/>
		<path class="st0" d="M380.2,306l-0.2-0.2l-0.3,0.5C380,306.2,379.8,306.3,380.2,306z"/>
		<path class="st0" d="M380.4,305.7c0.3-0.1,0.3-0.1,0.7-0.6C380.7,305.3,380.8,305.3,380.4,305.7z"/>
		<path class="st0" d="M381.4,305.7c-0.3,0.1-0.3,0.1-0.7,0.6C381,306.1,381,306.1,381.4,305.7z"/>
		<path class="st0" d="M384.9,306l-0.1-0.4c-0.1,0.2-0.2,0.4-0.3,0.5C384.7,306.4,384.9,306.1,384.9,306z"/>
		<path class="st0" d="M425.1,255.9l-0.5,0.7c0.5,0.4,1,0.9,1.5,1.3c0.2-0.8,0.2-0.8-0.1-1.4C425.8,256.1,425.8,256.3,425.1,255.9
			L425.1,255.9z"/>
		<path class="st0" d="M424.3,290.8l0.2-0.2c-0.3-0.4-0.6-0.7-1.3-1.2l-0.5,0.7C423.8,290,423.3,290,424.3,290.8L424.3,290.8z"/>
		<path class="st0" d="M424.5,289.9l0.2-0.2c-0.5-0.1-0.3-0.1-0.6-0.1L424.5,289.9z"/>
		<path class="st0" d="M423.2,296.1L423,296l-0.3,0.5C423,296.3,422.8,296.5,423.2,296.1z"/>
		<path class="st0" d="M423.5,297.7l0.2-0.2c-0.2-0.2-0.4-0.5-0.6-0.7l-0.3,0.5L423.5,297.7L423.5,297.7z"/>
		<path class="st0" d="M434.7,287.7l0.2-0.2c-0.5-0.1-0.3-0.1-0.6-0.1L434.7,287.7z"/>
		<path class="st0" d="M435.1,290.6l-0.3,0.5c0.3-0.1,0.1,0,0.5-0.3L435.1,290.6z"/>
		<path class="st0" d="M438.7,290.9c-0.2-0.2-0.4-0.5-0.6-0.7c-0.8,0.2-1.2,0-2,0.4c1,0.3,1,0.8,2.1,0.4l0.2,0.2L438.7,290.9
			L438.7,290.9z"/>
		<path class="st0" d="M440.9,294.3c1.4,0.7,2.3-1.2,3.9-1.9c0.3-0.6,0.4-0.7,0.4-1.1l-0.1-0.4l-0.2,0.2
			C444.3,291.1,441.7,293.5,440.9,294.3L440.9,294.3z"/>
		<path class="st0" d="M453.2,293.5l-0.2-0.2l-0.3,0.5C453,293.7,452.8,293.8,453.2,293.5z"/>
		<path class="st0" d="M457.1,295.3c0.8-0.2,1.6-0.3,2.4-0.5l0.2-0.2c-0.5-0.1-0.3-0.1-0.6-0.1C458.1,294.4,457.8,294.6,457.1,295.3
			z"/>
		<path class="st0" d="M503.2,264.9c0.3,0.5,0.7,0.6,1.3,0.5l0.6,0.1l0.3-0.5c-1.4-1-1.5-1.5-2.7-1.1
			C503.5,264.7,502.5,264.1,503.2,264.9L503.2,264.9z"/>
		<path class="st0" d="M511.4,268.8c-0.5-0.1-0.3-0.1-0.6-0.1l0.5,0.3L511.4,268.8z"/>
		<path class="st0" d="M499,288.8l-0.3,0.5C499.2,289.1,499.2,289.3,499,288.8z"/>
		<path class="st0" d="M501.9,291l-0.2-0.2l-0.3,0.5C501.7,291.2,501.5,291.3,501.9,291z"/>
		<path class="st0" d="M509.6,293.2l0.2-0.2c-0.6-0.2-0.5-0.2-0.9-0.2L509.6,293.2z"/>
		<path class="st0" d="M511.8,288.2l-0.3,0.5c0.3-0.1,0.1,0,0.5-0.3L511.8,288.2z"/>
		<path class="st0" d="M505,306.8c0.6,0.2,0.5,0.2,0.9,0.2c0.6-0.2-0.2-0.4,0.7-0.6l0.2-0.2c-0.7-0.2-0.7-0.1-1.3-0.1L505,306.8
			L505,306.8z"/>
		<path class="st0" d="M505.6,307.9l0.2-0.2c-0.5-0.1-0.3-0.1-0.6-0.1L505.6,307.9z"/>
		<path class="st0" d="M521.4,283.3l0.2,0.2c0.2-0.8,0.2-0.4-0.2-0.8C521.5,283,521.5,282.7,521.4,283.3L521.4,283.3z"/>
		<path class="st0" d="M510.5,306.6c0,0.4,0.1,0.1-0.1,0.6l1,0c-0.1-0.3-0.4-0.8-0.7-1.1L510.5,306.6L510.5,306.6z"/>
		<path class="st0" d="M511,306.3c0.5,0.1,0.3,0.1,0.6,0.1l0.2,0.2l0.2-0.2C511.3,306.1,511.6,306.1,511,306.3L511,306.3z"/>
		<path class="st0" d="M511.9,305.9l0.2-0.2c-0.5-0.1-0.3-0.1-0.6-0.1L511.9,305.9z"/>
		<path class="st0" d="M511.4,307.8l0.2-0.2l-0.5-0.3c-0.4,0.3-0.4,0.3-0.8,0.8C511,308.9,510.4,308,511.4,307.8L511.4,307.8z"/>
		<path class="st0" d="M512.3,307.4l0.3-0.5c-0.4,0-0.7-0.1-1,0L512.3,307.4z"/>
		<path class="st0" d="M513,305.8l-0.2-0.2c-0.2,0.2-0.5,0.4-0.7,0.6C512.7,306.6,512.3,306.6,513,305.8L513,305.8z"/>
		<path class="st0" d="M511.6,308l-0.2-0.2l-0.3,0.5C511.4,308.2,511.2,308.3,511.6,308z"/>
		<path class="st0" d="M532.1,289.1c-0.3-0.4-0.2-0.2-0.3-0.5c-0.5,0.2-1,0.7-1.4,1.1l1.3,0.1L532.1,289.1L532.1,289.1z"/>
		<path class="st0" d="M583,215l0.5,0.3l0.1-0.2c0,0,0-0.1,0-0.1C583.1,214.9,583.3,214.9,583,215L583,215z"/>
		<path class="st0" d="M539.2,287l-0.2-0.2l-0.3,0.5C539,287.2,538.8,287.3,539.2,287z"/>
		<path class="st0" d="M586,214.9l0.5,0.7l0.1,0l0.1-0.2C586.3,214.9,586.6,215,586,214.9L586,214.9z"/>
		<path class="st0" d="M589.8,213.3l0.5,0.3l0.2-0.2C589.9,213.2,590.2,213.2,589.8,213.3z"/>
		<path class="st0" d="M590.9,211.6l0.5,0.3l0.2-0.2C591,211.6,591.2,211.6,590.9,211.6z"/>
		<path class="st0" d="M592.1,211.7c-0.5-0.1-0.3-0.1-0.6-0.1l0.5,0.3L592.1,211.7z"/>
		<path class="st0" d="M594.8,210.8c-0.5-0.5-0.1-0.4-0.7-0.5l0.6,0.7L594.8,210.8z"/>
		<path class="st0" d="M541.1,293.9l-0.2-0.2l-0.3,0.5C541,294.1,540.7,294.2,541.1,293.9z"/>
		<path class="st0" d="M538.9,299.5l0.5,0.3C539.4,299.3,539.5,299.5,538.9,299.5z"/>
		<path class="st0" d="M543.9,292.3l-0.3,0.5C544.1,292.6,544.1,292.8,543.9,292.3z"/>
		<path class="st0" d="M599.5,206l0.5,0.3l0.2-0.2C599.6,206,599.8,206,599.5,206z"/>
		<path class="st0" d="M599.9,205.3c0.2,0.2,0.4,0.5,0.6,0.7l0.5-0.7C600.6,205.3,600.3,205.2,599.9,205.3z"/>
		<path class="st0" d="M603.5,199.8l0.5,0.3l0.2-0.2C603.6,199.8,603.8,199.8,603.5,199.8z"/>
		<path class="st0" d="M550.2,287.6c-0.9-0.5-0.7-0.3-1.2-0.8c-0.3,0.1-0.5,0.1-0.8,0.2l-0.2,0.2l0.9,0.2l-0.5,0.3
			c0.6,0.2,0.5,0.2,0.9,0.2l0.5,0.3L550.2,287.6L550.2,287.6z"/>
		<path class="st0" d="M604.6,203.9l0.2-0.2c-0.6-0.2-0.5-0.2-0.9-0.2L604.6,203.9z"/>
		<path class="st0" d="M605.3,203.7l-0.2-0.2l-0.1-0.4l-0.3,0.5C605.2,203.8,605,203.8,605.3,203.7L605.3,203.7z"/>
		<path class="st0" d="M602.4,208.9l-0.1-0.4L602,209c0.5,0.1,0.3,0.1,0.6,0.1L602.4,208.9L602.4,208.9z"/>
		<path class="st0" d="M570.6,280.5c-0.7-0.2-0.5-0.2-1,0c0.5,0.1,0.3,0.1,0.6,0.1l0.2,0.2L570.6,280.5L570.6,280.5z"/>
		<path class="st0" d="M565.9,290.9c0.3,0.4,0.4,0.6,1,1l0.2-0.2C566.7,290.7,567.2,290.5,565.9,290.9z"/>
		<path class="st0" d="M638,189.6l0.5,0.3l0.2-0.2C638.1,189.6,638.3,189.6,638,189.6z"/>
		<path class="st0" d="M640.4,189.5l-0.3,0.5c0.3-0.1,0.1,0,0.5-0.3L640.4,189.5z"/>
		<path class="st0" d="M591.9,279.3l-0.2-0.2l-0.3,0.5C591.7,279.5,591.5,279.6,591.9,279.3z"/>
		<path class="st0" d="M599,279.8c-0.9-0.3-0.3-0.4-1,0c0.5,0.1,0.3,0.1,0.6,0.1l0.2,0.2L599,279.8L599,279.8z"/>
		<path class="st0" d="M599.8,279.6l-0.2-0.2l-0.3,0.5C599.6,279.8,599.4,280,599.8,279.6z"/>
		<path class="st0" d="M669.4,183.1l-0.3,0.5c0.3-0.1,0.1,0,0.5-0.3L669.4,183.1z"/>
		<path class="st0" d="M669.7,182.7l0.5,0.3l0.2-0.2C669.8,182.6,670.1,182.6,669.7,182.7z"/>
		<path class="st0" d="M670.1,184.6l0.3-0.5c-0.6-0.2-0.5-0.2-0.9-0.2C669.7,184.1,669.9,184.4,670.1,184.6L670.1,184.6z"/>
		<path class="st0" d="M672.7,184.2l-0.2-0.2l0.3-0.5l-0.5-0.3c-0.5,0.2-0.4,0-0.9,0.4c0.3,0.4,0.2,0.2,0.3,0.5
			c0.5,0.1,0.3,0.1,0.6,0.1L672.7,184.2z"/>
		<path class="st0" d="M674.5,184.1c-0.3-0.6-0.2-0.7-0.9-0.2C674.2,184,673.7,184.4,674.5,184.1z"/>
		<path class="st0" d="M620.3,277.6l-0.2-0.2l-0.1-0.4l-0.3,0.5C620.2,277.7,619.9,277.7,620.3,277.6L620.3,277.6z"/>
		<path class="st0" d="M684.6,178.8l0.8-0.2l0.3-0.5l-0.2-0.2C685.1,178.2,685.1,178.3,684.6,178.8L684.6,178.8z"/>
		<path class="st0" d="M686,177.6l-0.3,0.5c0.3-0.1,0.1,0,0.5-0.3L686,177.6z"/>
		<path class="st0" d="M684.6,180.4c0.3-0.1,0.1,0,0.5-0.3l-0.2-0.2L684.6,180.4z"/>
		<path class="st0" d="M686.6,179.4l-0.4,0.1l-0.6-0.1l-0.5,0.7c0.4-0.1,0.8-0.2,1.2-0.3L686.6,179.4L686.6,179.4z"/>
		<path class="st0" d="M685.8,180.2c0.5,0.1,0.3,0.1,0.6,0.1l0.5,0.3l0.2-0.2C686.2,180,686.4,180,685.8,180.2L685.8,180.2z"/>
		<path class="st0" d="M688.6,186.3c0.3-0.1,0.1,0,0.5-0.3c0,0.4,0.1,0.1-0.1,0.6c0,0,1,0.5,0.6,0.1l-0.1-0.4l0.4-0.1l-1-0.6
			L688.6,186.3L688.6,186.3z"/>
		<path class="st0" d="M690.9,185.8l-0.2-0.2l-0.7,0.6l0.5,0.3L690.9,185.8L690.9,185.8z"/>
		<path class="st0" d="M673.2,213.5l-0.2-0.2l-0.3,0.5C673,213.7,672.7,213.8,673.2,213.5z"/>
		<path class="st0" d="M673.6,212.8l-0.2-0.2l-0.3,0.5C673.4,213,673.2,213.1,673.6,212.8z"/>
		<path class="st0" d="M703.6,181.8l-0.7,0.6C703.6,182.3,704.1,182.5,703.6,181.8z"/>
		<path class="st0" d="M703.5,186.1l-0.2-0.2c-0.4,0.2-0.7,0.4-1.1,0.7C702.9,187.3,702.8,186.9,703.5,186.1z"/>
		<path class="st0" d="M704.5,186.1l-0.3,0.5c0.3-0.1,0.1,0,0.5-0.3L704.5,186.1z"/>
		<path class="st0" d="M706.3,187.6c-0.2-0.5-0.7-0.2-0.9-0.2C705.9,187.4,705.4,187.9,706.3,187.6z"/>
		<path class="st0" d="M709.3,181.8l-0.3,0.5l0.5,0.3l0.3-0.5L709.3,181.8z"/>
		<path class="st0" d="M709.9,187.2l0.5,0.3l0.2-0.2C710,187.2,710.3,187.2,709.9,187.2z"/>
		<path class="st0" d="M712.4,187.5l0.2-0.2c-0.5-0.1-0.3-0.1-0.6-0.1L712.4,187.5z"/>
		<path class="st0" d="M712.9,187.8l-0.2-0.2l-0.3,0.5C712.7,188,712.5,188.1,712.9,187.8z"/>
		<path class="st0" d="M667,270.5l0.5,0.3C667.5,270.2,667.5,270.5,667,270.5z"/>
		<path class="st0" d="M689.2,256.8l-0.3,0.5c0.3-0.1,0.1,0,0.5-0.3L689.2,256.8z"/>
		<path class="st0" d="M689.9,258.3c0.3,0.4,0.2,0.2,0.3,0.5l0.7,0.5c0.1-0.5,0.2-0.7,0.5-1.3C690.6,257.7,690.6,257.9,689.9,258.3z
			"/>
		<path class="st0" d="M720.6,253c-0.3,0.5,0.3,0.3,0.6,0.1C721,252.6,720.7,253,720.6,253z"/>
		<path class="st0" d="M718.8,256.2l-0.3,0.5c0.5,0.1,0.3,0.1,0.6,0.1l-0.2-0.2L718.8,256.2L718.8,256.2z"/>
		<path class="st0" d="M738.7,229.9c-0.6,0.5-1.3,1-1.9,1.4c0.9,0.1,1.2-0.3,2-0.4l0.5-0.7L738.7,229.9L738.7,229.9z"/>
		<path class="st0" d="M728.1,250.7l0.2-0.2c-0.5-0.1-0.3-0.1-0.6-0.1L728.1,250.7z"/>
		<path class="st0" d="M742.2,234.5l0.5-0.7l-0.2-0.2c-1,0.7-2.2,1.3-3.2,2.3C740.4,236.1,741.1,234.8,742.2,234.5L742.2,234.5z"/>
		<path class="st0" d="M748,226.1l1,0.6c0.3-1.2-0.4-1.7-0.6-2.7c-0.3,0.1-0.9,0.6-1.2,0.9C747.9,225.4,747.9,225.3,748,226.1z"/>
		<path class="st0" d="M748.4,229c-0.3,0.2-0.7,0.5-1.1,0.7c-0.6-0.1-0.2,0-0.7-0.5c-0.5,0.3-1.2,1-1.8,1.2c-0.2,0.8,0.1,0,0.2,0.8
			c0.1,0.4-0.8,0.6-1.4,1.1c0,0.4,0.1,0.1-0.1,0.6c1.6,0.1,4.1-2.4,5.4-3.2L748.4,229L748.4,229z"/>
		<path class="st0" d="M749.5,229.4l0.5-0.7c-0.8,0-0.2-0.2-0.9,0.4L749.5,229.4z"/>
		<path class="st0" d="M771.2,212.4c-2.8,0.2-7.1-0.4-9.7,0.9c-1.1,0.6-1,1.4-1.9,1.8c-0.9,0.4-1.3-0.1-2.3,0.9
			c1.8,1.1,3.2,1.7,4.7,1l0.7,0.5c-0.5,0.4-1,0.5-1.5,0.7c0.4,0.6,0.3,0.7,0.5,1.3c-0.8,0.9-2.5,2-2.8,3.3c0.1,0.3,0.3,0.6,0.4,0.9
			c-0.3,1-2.7,2-3.4,2.2c0.1,0.3,0.1,0.3,0.6,0.7c-1.5,0.9-4.3,2-4.2,4.4c-0.1,2.1,2.1,2.3,0.9,4.9l0.5,0.3c1.1-1.9,2.6-3.2,3.5-2.8
			c0.6,0.9,0.1,0.9,0.2,1.8l-0.2,0.2c0.8-0.3,1.8-1.6,2.1-1.7c0.8-0.6,1.1-0.2,2-0.4c0.2,0.8-0.2,1.9-0.4,2.8
			c0.5,0.1,0.3,0.1,0.6,0.1c1.4-0.5,4-6,5.3-6.7l0.3-0.5c0.7,1,0.6,1.3,1.1,2c3.3-2.1,6.4-6,9.1-8.3c0.9-0.8,1.3-1.9,2.2-2.3
			c1.2-2.5-2.2-5.8-3-8C774.5,211.2,773,212.2,771.2,212.4L771.2,212.4z"/>
		<path class="st0" d="M760.8,218.1c-0.3,0.5,0.3,0.3,0.6,0.1C761.2,217.7,760.9,218.1,760.8,218.1z"/>
	</g>
</g>
</svg>
