<?xml version="1.0" encoding="utf-8"?>
<!-- Generator: Adobe Illustrator 26.3.1, SVG Export Plug-In . SVG Version: 6.00 Build 0)  -->
<svg version="1.1" id="Layer_2_00000023265692105825966640000004456819627121257356_"
	 xmlns="http://www.w3.org/2000/svg" xmlns:xlink="http://www.w3.org/1999/xlink" x="0px" y="0px" viewBox="0 0 800 800"
	 style="enable-background:new 0 0 800 800;" xml:space="preserve">
<style type="text/css">
	.st0{fill-rule:evenodd;clip-rule:evenodd;fill:#FF582B;}
</style>
<g id="Layer_1-2">
	<g>
		<path class="st0" d="M515.8,211.6c-6.1-1.1-13.8-1.3-19.7,0c-5,1.1-9.8-0.8-14,0.9c-2.4,1-3.6,2.9-7.5,3.1
			c-0.3,0.8-0.1,0.4-0.4,0.9v0.4h2.2c-0.3,1.5-0.8,1-0.9,1.3c0.1,1.2,0.3,2.3,0.4,3.5h-0.9c0.1,1.9,0.3,3.8,0.4,5.7
			c-0.6,0.3-1.2,0.6-1.8,0.9c-0.9,1.5-0.4,4.9-0.4,7.1c-1.2,0.6-1.5,0.7-2.2,1.8h-1.3c0.1,1.8,0.2,2.9-0.9,3.5
			c0,2.6-0.3,3.5-1.8,3.5c0.2,0.9,0.1,0.9,0.4,1.3c-0.6,1-0.7,0.7-1.3,1.3c-0.3,0.4-0.2,0.4-0.4,1.3c-10.1-0.9-22.6-0.4-34.6-0.4
			v0.9c5-0.7,9.6,0.3,14,0.9c2.3,0.3,6.9-1.4,9.2,0c0.3,0.6,0,0.4,0,1.8c0.7-0.4,1.2-0.8,1.8-1.3h0.4c-0.6,1.4-0.4,4-0.4,6.2
			c1-0.1,1.2-0.1,1.8-0.4h0.4c-3.5,8.9-5.4,16.9-5.3,28c-1.1-0.1-1.5-0.2-2.2-0.4c-0.3,0.3-0.6,0.6-0.9,0.9c0.6,1.1-0.2,0.3,0.9,0.9
			v0.9h0.4v-1.8h1.3c0,2.5-0.2,2.2-0.4,4.9h-2.2c0,1.3-0.1,2.8,0.4,3.5v0.9c-0.8-0.2-1.3-0.4-2.6-0.4v1.8c1.2,0,2,0,2.6,0.4h1.3
			c-0.9,1.2-14,0.6-17.5,0.4v-3.5c1.7,0,3.9-0.2,4.9,0.4c1.9-0.3,1.9-1,3.1-1.8c0.4-0.2,0.9,0,2.2,0v-4h-4v1.8
			c-3.5-0.3-7.7-1.1-9.2,0.9c-0.3-0.4-0.2-0.4-0.4-1.3c-2,0.6-2.2,1.2-3.5-0.4c-0.4,0.6-0.4,1.1-0.4,2.2c-1.2-0.2-2.2-0.4-4-0.4
			c-0.1,1-0.1,1.2-0.4,1.8v5.7c1.7-1,4.5-1.5,5.7-3.1h1.8c-1,1.4-1.7,1.4-1.8,4h4v4.4h-6.6v6.2c-1.3,0-2.4,0-3.1,0.4
			c-2.5-2.9-2.2-7.2-4-10.9c-1.1-2.3-3.3-2.6-3.5-6.2c-1.9-0.8-2.9-1-4-2.6c-3.5-0.1-4.3,0.6-6.2,1.8v2.2h3.5v0.4
			c-0.4,0.4-0.9,0.9-1.3,1.3h-3.1c0-2,0.2-3.9,0.4-4.4v-2.2h-0.9v2.2H401c-0.1-4.5,0.1-7.2,1.8-9.6h2.6c-0.1-3.1,0.4-5.7,0.4-9.6
			c1.1-0.1,1.5-0.2,2.2-0.4c0-2.2-0.4-6.1,0.4-7.5c0-2.6-0.2-6,0.4-7.8h1.8c0-2.6,0-4.6,0.4-6.2c-3.5-0.9-7.1,3.6-9.6,0h-0.4
			c0,1.3-0.1,2.8,0.4,3.5v0.4c-0.3-0.1-0.6-0.3-0.9-0.4c-0.7,0.3-1.1,2.3-1.8,2.6c-1.3,0.7-3.8-0.2-4.9,0.4h-0.4
			c0.6,0.8,2,1.7,1.3,2.2c0,2.6-0.4,2.8-2.2,3.5c0,1.3,0,2.4-0.4,3.1v5.7c-0.8-0.1-1.4-0.3-2.2-0.4v2.6c-1.9-0.9-1.7-1-4-0.9
			c0-2.2-0.2-7.9,0.9-9.6c-0.1-2.6-1.2-3.5-2.6-4.9v-0.4c0.3,0.1,0.6,0.3,0.9,0.4c0-2.4-0.3-3.4-0.9-4.9c-5-0.1-9.5-3-12.7-0.9
			c-5.8-0.1-1.7-2.4-4.4-4.4c0.6-1.3,0.9-1.3,1.8-2.2c-1.2-0.2-2.2-0.4-4-0.4c0.1,2.3,0.3,4.6,0.4,7.1c-9.3,0-19.7-0.2-27.1,1.8
			c-2.3,0.7-2.5-1-3.5-1.3l-13.1,0.4c-2.6,0.6-5.4,1.7-7.5,2.2c-3.8,1-7.2-0.6-9.6-0.4c0.6,0.3,0.8,0.3,1.8,0.4v1.3
			c3.1,0.1,4.1,1.3,5.3,1.8c0.9,0.4,1.7,0.2,2.2-0.9c1.5,0.2,1.3,0.6,2.6,0.9v1.8c2.9,0.2,3.8,1.7,5.7,2.2c2.4,0.7,6.7-2.5,10-0.9
			c1.4,0.7,0.2,0.7,0.9,1.8c0.3-0.1,0.9-1.3,1.8-1.8h6.6c2.9-1,12.1-3.9,16.2-1.8c0.6-0.6,1.2-1.2,1.8-1.8c2.4-1,7.7,0.1,7.5,2.2
			h2.2c-0.3-1-0.6-2.1-0.9-3.1c0.1-0.1,0.3-0.3,0.4-0.4h1.3c-0.3,0.8-0.4,1.7-0.4,3.1h1.8c-0.1,2.6-0.3,5.3-0.4,7.8h1.8
			c0.1,3.1,0.3,5.1,0,7.8h1.3c0.1,0.1,0.3,0.3,0.4,0.4c-0.1,3.4,0,6.2-0.4,9.6c-0.1-0.1-0.3-0.3-0.4-0.4c-1.5-1.3-1.4-5-1.3-7.8
			c-0.1-0.1-0.3-0.3-0.4-0.4h-1.8v-1.3c-2.1,1.1-5.7-0.3-9.2,0.9c-0.7,0.2-1.5,1.5-2.2,1.8h-6.6c-2.8,0.8-11.8,3.4-13.1,2.6
			c-6-0.1-3.8,1.7-6.6,4.4c-3.1,3.1-5.8,9.3-3.1,14.4c-1.2,2.9,0.1,8.1,0.9,10.9c1.3,5.2-0.8,8.3,1.8,10.9v3.1
			c-0.6-0.3-1.2-0.6-1.8-0.9c-0.3,0.3-0.6,0.6-0.9,0.9c0.1,1.2,0.3,2.3,0.4,3.5c0.4,0.3,0.9,0.6,1.3,0.9c0.6,1.7-0.6,6.1,0.9,8.3
			v0.4h-2.2v-1.8h-2.2c-0.6-6.7-0.4-14-0.4-21.8h-6.6c0.1-8.7,0.3-17.5,0.4-26.3h-6.6c0.2-2.6,0.7-7.6,1.3-10.5v-7.5
			c0.2-1,1-4.1,0.4-5.7c-0.6-1.4-1.2-1-1.3-2.2c-5.3,0.1-3.2,2.1-7.1,3.5c-1,0.7-3.5,0.6-5.3,0.4v1.3c0.7,0.2,0.8,0.3,1.8,0.4v0.4
			h-4.9c0.4-1.3,0.4-1.3,1.8-1.8c-1.4-1.2-4.4-1.4-7.1-1.3v1.8c0.4-0.4,0.9-0.9,1.3-1.3h0.9c-0.6,1.9-1.7,1.8-2.6,3.1h-0.4
			c0.4,0.3,0.4,0.2,1.3,0.4c0.1,1.8,0.3,3.5,0.4,5.3h-6.6v6.6h-0.4v-0.4c-0.2-0.3,0.1-1.3-0.4-2.2c0.1-2,0.1-3.1-0.9-4
			c0,0-1.5,0.3-2.6,0v2.2c-1.1,0.1-1.5,0.2-2.2,0.4v3.5h1.8c0.1,2.1,0.4,5.7-0.4,7.1v0.9c-1.3-0.4-3.1-0.4-4.4,0
			c-1.3-3.3-2.5-6.1-4.9-8.3V278c-0.3,0.4-0.2,0.4-0.4,1.3c-1-0.4-1.5-0.9-2.2-1.8h-1.8c0.6,0.6,1.2,1.2,1.8,1.8
			c-0.3,0.8-0.1,0.4-0.4,0.9v0.4c-1.8-0.6-2.6-2.1-3.5-3.5h-1.8c0.4,2,1.1,1.7,1.3,4l1.3-0.4c-0.2,1.2,0.3,2.4,0.4,4.4
			c-2.8-0.1-5.5-0.3-8.3-0.4v1.8c-1.3,0-2.4,0-3.1-0.4h-4.4c0.6,2.5,0.8,4.6,0.4,7.5c-0.6-0.6-1.2-1.2-1.8-1.8h-0.4v1.8
			c0.8,0.1,1.4,0.3,2.2,0.4v1.8h1.3c1.3,3.1,0.8,6.7,4,8.7c-0.2,2.4-1,3.1-3.1,3.5c0.1,1.5,0.2,2.2,0.9,3.1c-0.9,2.4-2.4,3-2.6,6.5
			c1.3,0.1,2.6,0.3,4,0.4v1.8h1.3c-0.2-0.7-0.3-1-0.4-2.2c1.2,0.1,2.3,0.3,3.5,0.4v2.2c1.8-0.6,0.8-1,1.8-2.2c1.5,2.2,3.3-1,4-1.3
			c2.2-1,4,1.1,5.7,0h0.4c-0.2,0.8-0.4,1.3-0.4,2.6c0.9-0.2,0.9-0.1,1.3-0.4h0.4c-0.1,0.3-0.3,0.6-0.4,0.9c1-0.1,1.2-0.1,1.8-0.4
			h1.3c-0.2,0.7-0.3,1-0.4,2.2c1.9,0.1,3.8,0.3,5.7,0.4v2.2h4v2.2h3.5c-0.4,0.4-0.9,0.9-1.3,1.3c1.4,1.2,4.7,1,7.5,0.9
			c-0.2,0.9-0.1,0.9-0.4,1.3v0.9h2.2v2.2c3.6,0,5.4-0.8,8.3-0.9v6.5c2-0.1,4.1-0.3,4.9,0.9c1.2-0.3,0.7,0.2,0.9-0.9
			c3.6,0.1,4.7,1.3,8.7,1.3c0.1,1.1,0.2,1.5,0.4,2.2h3.5v2.2h7.5c0,2.1,0,4.1,0.4,4.9v0.4c-2.8-0.2-5.7-1.5-8.3-2.2
			c-2.9-0.8-8.6,0-9.6-0.4c-0.4-0.8-0.9-1.4-1.3-2.2c-2.2-0.1-4.4-0.3-6.6-0.4c-0.8-0.2-3-1.9-4-2.2c-1.9,0.1-3.8,0.3-5.7,0.4
			c-2.2-0.9-6.6-1.3-10.5-1.3c0.2,2,0.4,1.5,1.3,2.6c-1.2,0.8-1.3,1.2-3.5,1.3c0.4,0.4,0.9,0.9,1.3,1.3v6.5c0.4,0.9,1.7,2.1,1.3,4
			c-0.3,1.7-1.7,5.4-0.9,7.1c-0.7,1.1-1.8,1-2.6,1.8c-1.1,1.5-1,4.7-0.9,7.5h1.8v1.8c-0.8,0.6-1.2,1.3-1.8,2.2h-9.6v3.1
			c-4.4-0.3-8.7-0.6-13.1-0.9v1.8c-0.1,0.1-0.3,0.3-0.4,0.4c-1.9-0.2-4.1-0.4-6.5-0.4c0.2,1.7,0.2,1.3,0.9,2.2
			c-0.7,0.4-1.2,0.8-1.8,1.3h-0.9c0.6-1.1,0.9-1.5,0.9-3.5c-0.9-0.2-0.9-0.1-1.3-0.4h-0.9c1.7-5,1.4-15.4,1.3-21.4h-4v6.2
			c-0.4-0.6-0.4-1.1-0.4-2.2c-1.9-0.1-3.8-0.3-5.7-0.4v1.8h-4v1.8h-2.2c0.1,1,0.1,1.2,0.4,1.8c-0.8,0.8-1.4,1.4-2.2,2.2
			c-1.4-0.1-2.9-0.3-4.4-0.4v2.2c-1.7-0.2-2.9-0.6-4.4,0c-0.6-1-1-1.4-1.3-2.6c-1.2,0.2-1.7,0.7-2.6,0h-0.4c0,2-0.3,5,0.4,6.2v0.4
			c-1.5,0-0.9,0.8-2.2,1.3c-3.6-0.1-7.3-0.3-10.9-0.4v4.4h-0.4c-0.2-0.8-0.4-1.3-0.4-2.6h-1.3v-2.2c-2.6,0.1-3.8,0.2-6.2,0
			c-0.1,1-0.1,1.2-0.4,1.8c-0.4,0.2-7.9,0-8.7-0.4h-0.4c0.1,1,0.1,1.2,0.4,1.8c-0.2,1.5,0.2,1.1-0.9,1.3c-0.6,1.5-0.9,3-0.9,5.3
			c-0.8-0.3-0.4-0.1-0.9-0.4H185c0.3,1,0.6,2.1,0.9,3.1c-0.8,0.3-1.2,0.7-2.2,0.9c-0.6-0.9-0.6-0.3-0.9-1.8h-0.4
			c-0.6,1.1-0.9,1.7-0.9,3.5c-2.4-0.1-5-0.3-7.5-0.4v2.2c-1.4-0.1-2.9-0.3-4.4-0.4v-2.4c-0.8-0.1-1.4-0.3-2.2-0.4
			c-0.1,3.2-0.3,6.1,1.3,7.8c-0.9,0.7-2.9,1.2-4,0.4h-0.4v4c-0.9-0.2-0.9-0.1-1.3-0.4H162c-0.1,2.8-0.3,5.5-0.4,8.3h1.8v6.2h2.2
			c-0.3,4.6-0.6,9.4-0.9,14h-4.4c0.1,3.9,0.1,6-2.2,7.5v0.4h1.8v4c-2.1-0.1-4.1-0.3-6.2-0.4c-0.1,1-0.1,1.2-0.4,1.8
			c0.1,3.3,2,5.2,4,6.5c-0.1,2.8-0.3,5.5-0.4,8.3h1.8v1.8c1.1,0.1,1.5,0.2,2.2,0.4c-0.1,1.9-0.3,3.8-0.4,5.7c1.3,0.1,2.6,0.3,4,0.4
			c0.2,2.4,0.9,2.2,2.6,1.8c-0.1,2.1-0.7,9.9-1.3,10.9v3.5c-0.8-0.3-0.4-0.1-0.9-0.4c-3,0.2-3.2,0.3-3.1-1.8
			c-0.8,0.4-1.4,0.9-2.2,1.3c-0.2,0.1-2.1-0.6-2.6-0.9h0.2c0.4,3.3,2.6,2.1,4,4.4c1.4-0.4,0.7,0.2,1.3-0.9h6.5
			c-0.2,1.2-0.4,2.2-0.4,4h-4.4v2.2h4.4c0.1,2.8,1,3.5,1.8,5.3c-0.4,1.5-0.4,3-0.4,6.2c-1.7-0.3-1.8-0.8-4-0.9v-1.3
			c-3.2,0-4.9-1.1-6.2-3.1c0-0.6-0.3-0.2,0.4-0.9c-0.3-1.5-1.2-2.2-2.2-3.1v-0.9h3.5c0-2.1,0.3-3.6,0-4.4c-0.1-1-0.1-1.2-0.4-1.8
			c-1-0.8-2.6-0.2-4-0.9c-0.6-0.8-1.2-1.4-1.8-2.2c-0.3-0.1-5.8-0.2-6.5,0c0.2-0.9,0.1-0.9,0.4-1.3c-0.4-2.1-1.7-3.3-2.6-4.9
			c-0.8-0.3-0.4-0.1-0.9-0.4c-4.1,0.3,0.2,1.8-6.2,1.8v-2.2h-1.8v-4c1.3,0,2.4,0,3.1,0.4c1,0.6,0.9,0.8,1.3,1.8h1.8v-1.8h1.8
			c0.2-0.9,0.1-0.9,0.4-1.3c-0.4-0.3-1.7-0.7-2.2-0.9v-1.8c-1.3,0-2.8,0.1-3.5-0.4c-0.3-0.6,0-0.4,0-1.8c-1.9-0.1-2.3-0.8-3.1-0.4
			c-0.9-0.6-1.8-3.1-2.2-4c-1.8-0.1-3.5-0.3-5.3-0.4V460h2.6v-2.2H130v-4c-3.1-0.1-4.5,0-5.7,1.8h-0.4c0.4-1.3,0.4-3.8,0.4-5.7
			c-1.3-0.1-2.6-0.3-4-0.4v-3.8h-4c0.1-1,0.1-1.2,0.4-1.8c-0.9-0.6-1.2-0.2-2.2,0c0.2-0.9,0.1-0.9,0.4-1.3v-0.9
			c-0.1,0.1-0.3,0.3-0.4,0.4c-2.2,0.2-2,0.6-2.6,2.2h-1.3c-0.1,2.1,0,2.2-1.8,2.6c0.1,1.3,0.3,2.6,0.4,4c-1,0.1-2,0.3-3.1,0.4
			c0.9-6.6,1.1-12.5,1.3-19.7h-1.3c-0.1,8.1-1.4,16.3-2.2,23.2h2.2c0.3,0.8,0.1,0.4,0.4,0.9c0,1.2-0.2,1.9-0.4,2.6
			c-4.2,0.3-8.5,0.6-12.7,0.9c-9,2-24.3,2.8-32.9,0.9c-4.1-0.9-9.3,1-12.2-0.9c-2.1,0.2-2.6,1.2-3.5,2.6H44v0.4h4.9
			c-0.4,1.2-0.8,2.8-0.9,4.4h2.2c-0.1,1.3-0.3,2.6-0.4,4H44v1.8h-2.2c-0.1,3.2-0.3,6.4-0.4,9.6c-0.8,0.6-1.4,1.2-2.2,1.8
			c-0.1,3.2-0.3,6.4-0.4,9.6h-1.8c-0.1,1.9-0.3,3.8-0.4,5.7h-4c-0.1,3.2-0.3,6.4-0.4,9.6h-4c-0.1,3.2-0.3,6.4-0.4,9.6
			c-1.7,0-3.3,0.1-4.4,0.4v6.9h-4c-0.6,3.4,0.4,9.8-2.6,10.9c0.4,0.3,1.2,0.7,1.8,0.9c0,1.4-0.1,2.6-0.4,3.5h-5.5v1.8h1.8v2.2
			c1.9,0.1,3.8,0.3,5.7,0.4v1.8c4.4,0.3,8.7,0.6,13.1,0.9c-0.6,0.3-0.8,0.3-1.8,0.4c-0.1,1.2-0.3,2.3-0.4,3.5c2.9-0.1,2.4-1.1,4-1.8
			c2-0.9,6.2,0.9,7.8,0.9c1.1,0,5.6,0.1,6.2,0c0.6-0.6,1.2-1.2,1.8-1.8c3.6,0.1,7.3,0.3,10.9,0.4c8.5-1.8,25.8-0.6,36.3-0.4v1.3h4
			v1.8h1.8v1.8c2,0.1,4.1,0.3,6.2,0.4v-2.2c0.9,0.2,0.9,0.1,1.3,0.4c1.1-0.7,0.7-1.7,1.3-2.6c1.1-1.9,6.6,0.6,8.7-0.9h0.9v2.2
			c1.8,0.1,4,0.8,4.9,1.3c0.4,0.1,0.9,0.3,1.3,0.4v1.8c1.9-0.3,3.9-2.1,4.9-3.5h0.4c-0.3,1.4,0.2,0.7-0.9,1.3c0.8,0.4,0.6,0.4,1.3,0
			h0.9c-0.2,1.3-0.1,1.1-0.9,1.8v0.4c1.3,0,2.4,0,3.1,0.4h1.8c-0.3-0.8-0.1-0.4-0.4-0.9c0.6-1,0.8-0.9,1.8-1.3
			c0.9,1.8,1.3,1.8,2.6,1.8c0,1.1,0.1,1.7,0.4,2.2c0.6,0.3,0.4,0,1.8,0c-0.1,1-0.1,1.2-0.4,1.8c0.3,0.3,1,0.6,1.3,0.9h0.9
			c-0.1-1.7,0.2-1.5-0.9-2.2c1.1-1.7,2-0.1,4-0.9c4.4-1.9,13.9,0.3,18.9-0.4c2.2-0.3,4.7,0.7,5.7,1.8c1.1-0.3,1.5-0.7,2.2-1.3
			c0.3-0.4,0.2-0.4,0.4-1.3h1.8v1.3c3.8-0.2,8.7-2.6,14-1.3c0.7,0.1,2.2,1.2,2.6,1.3h6.5c2.1,0.9,0.8,1.4,4,1.3v-1.8
			c1.8,0.8,14.4-1.9,16.2-0.9h0.9v-2.2h2.2v1.3h2.6c-0.4-0.8-1.1-0.8-0.4-1.3v-0.9c1.4,0.7,0.2,0.7,0.9,1.8c0.7,0.2,2.6-0.4,4.9-0.4
			v1.3c1.2-0.2,2.3,0.3,3.5,1.3c2.4-0.4,3.6-1.2,5.3-2.6c1-1.4,0.6-6.4,0-7.8c2.3-0.9,15.4,0.2,15.8,0.4h1.3
			c-0.2-0.6-0.6-1.3-0.9-1.8v-0.4c1.8,0.3,1.3,0.8,2.6,1.3v1.3c2.5-0.1,6.3-0.4,7.4,0.9h1.8c0-1.2-0.3-0.7,0-1.3h13.8
			c3.4,1,8.9,0.4,13.1,0.4c6.3,0.1,12.6,0.3,18.9,0.4h11.4c2.1,0.8,1.8,2.4,4.9,2.6c-0.1,1.7-0.8,2.8,0,4v0.9c1.3,0.4,2.6,0.9,4,1.3
			c2.6,0.7,3.6-0.9,4.9-1.3h8.3c3.3,0.1,6.7,0.3,10,0.4c1.3-0.4,1.3-1.1,3.5-1.3v-1.3c2.2-0.1,3-0.6,4,0.4h1.3
			c-0.3-0.4-0.6-0.9-0.9-1.3l0.4-0.4c1.7,0.2,2.3,0.7,3.1,1.8c1.4-0.6,0-0.4,1.3-1.3c0.4-0.3,0.1-0.1,0.9-0.4c0.6,0.7,0.8,1,1.8,1.3
			c1.2,0.9,0.9-0.9,1.8-1.3c1.5-0.8,2.9,1,4.4,0c0.1-0.1,0.3-0.3,0.4-0.4h-0.4V550h3.1v1.8c0.7-0.6,1.3-1.4,1.8-2.2
			c1.8,0.3,8.5,1.3,9.2,1.8c2.6-0.1,3-0.4,3.1,1.3c2.9,0.1,2.8,0.2,2.6-1.8c3,0.6,5.5-0.1,9.2-0.9c0.3,0.3,0.6,0.6,0.9,0.9
			c-0.9,0.3-2.1,0.4-3.5,0.4v1.8c5.3,0,9,0.7,12.7-1.8c0.6-0.3,0.4-1.9,0.9-2.2c2.3-1.7,3.6,1,6.2,0.4c0.3-0.1,1-0.7,1.8-0.9
			c0.2,0.7,0.6,2.1,0.9,2.6c1.8,1.3,5.1,0.8,7.5,0.4c-0.3-0.8-0.1-0.4-0.4-0.9c1.1-0.9,3.2-0.9,4-0.4c2.5,0,2.6,0.3,4,1.3v2.6
			c2.2,0.1,4.4,0.3,6.6,0.4c0-1.3,0-2.4,0.4-3.1v-0.9c1.1,0.6,0.3-0.2,0.9,0.9h1.8c-0.4-1.1-1.1-2.2-1.8-3.1h0.4
			c0,0,2.4-0.1,3.5,0.4c1.3,0.7,5.8,0.4,10,0.4v-4c2.8,0.1,5.5,0.3,8.3,0.4v-1.8c-2.6-0.1-5.3-0.3-7.8-0.4c0.3-1.4,0.6-2.9,0.9-4.4
			c4.1,1.4,8.8,1,13.1,0.9v2.2c3.4,0.2,3.6,2.1,5.7,3.5c0,1.4,0.1,3.1-0.4,4v0.9h2.2c0.2-2,4.9-8.2,6.6-9.2v-1.3h2.2v1.3h1.8
			c-0.7-1-0.9-1.1-0.9-3.1c0.9-0.1,1.8-0.3,2.6-0.4c-0.4-0.3-0.4-0.2-1.3-0.4v-0.6c1.3-0.4,3.8-0.4,5.7-0.4c0.1,1.5,0.1,1.2,0,2.2
			h1.8c-0.9-1.3-1.1-1.1-0.9-2.6h-5.3v-1.8c3,0,5-0.2,7.1,0c-0.2,0.7-0.3,1-0.4,2.2h0.4c0.4-1.5,0.4-1,0.4-2.2c2,0.1,6.2,1,7.8,0
			c0.6-0.2,2.3-1.3,2.6-1.8l-0.4-1.3c2,0,4.3,0,5.7,0.4c0.3,0.8,0.1,0.4,0.4,0.9c-0.3,1.5-0.3,1.4-1.3,2.2c0.1,1.1,0.2,1.5,0.4,2.2
			c2.5,0,13-2.2,14.4-3.1c1.5,0.4,1.1,1,1.8,2.6c3.1,0.1,5.5,0.1,7.1-1.3h3.1c-0.2,1-0.4,2.8-0.9,3.5v3.1c0.9-0.4,1.2-0.6,1.8-1.3
			h0.4c-0.2,2.1-0.8,2.6-2.2,3.5v2.2h4v-1.8h4v2.2c3,0.1,5.8,0.3,8.7,0.4c-0.4,0.3-0.1,0.1-0.9,0.4c0.9,0.8,2.9,0.7,4,1.3
			c4.2,0.2,5.7,0.2,6.9-2.6c3.1,0.1,13.9,2.1,16.2-0.4c2.4,0.1,3.3,0.3,3.5-0.9c3.3,0,9.6-0.7,10.9-2.2h0.4
			c-0.3-0.3-0.6-0.6-0.9-0.9v-0.4c1.7,0.4,2.4,1.1,4,1.8c-0.8,0.6-2.2,0.4-3.5,0.4c2.3,1.5,11.6,0.4,13.1,0.4
			c0.3,0.3,0.6,0.6,0.9,0.9h0.4c0.1-0.1,0.3-0.3,0.4-0.4c2.2,0,2.5-0.3,2.6,0.9c1.8-0.3,2.3-1.3,3.1-2.6c2,0.1,7.3,1.1,8.3,0.4
			c2.4,0,2.1-0.3,3.1-1.8c1.8,0.3,3.5,0.6,5.3,0.9c3.4-0.4,4.6-1.8,8.3-1.8c3.6,0,8.1,2.1,10.5,0.4h0.9v2.2c1.5,0.4,0.9,0.9,1.8,1.3
			c2,1,3.1-1,5.3,0c1.3,0.7,2.2,1.3,4.9,1.3c0.1-4.5,3.8-6,8.7-5.7v-0.4c-1.3-0.7-3.1-0.9-4-1.3h-1.2v-0.4
			c5.3,0.3,10.5,0.6,15.8,0.9v-2.2h-1.8V535h4v2.2c3.3-0.1,9.5-3,10.5-1.3c1.7,0,4.2,0.2,5.3-0.4c0.3-0.4,0.2-0.4,0.4-1.3h1.8
			c0.1,2.4,0.4,3.5-1.8,4c0.4,0.8,0.9,1.4,1.3,2.2c2.9,0,6.8-0.6,7.8-2.6c3.3,0.3,2.6,2.3,4.9,3.1c0.9,0.3,2.1-0.4,2.2-0.4
			c0,0,6.8,1.2,6.9,1.3h0.4v-4h2.2v-4c3.3,0.1,6.7,0.3,10,0.4c0,1.2,0,2-0.4,2.6c0.1,1,0.2,1.1,0.4,1.8c1.4-0.2,2-0.7,3.1,0h0.9
			c0.1-2.6,0.3-5.3,0.4-7.8h4c-0.1,1.3-0.3,2.6-0.4,4c2.8,0,8.9-0.4,10.9,0.9h0.9c0.1-0.8,0.3-1.4,0.4-2.2c3.3,0.1,6.7,0.3,10,0.4
			c0-5.1,0-15.7,1.3-21.8c0.1-2.6,0.3-5.3,0.4-7.8v-5.7c-0.4,0.4-0.9,0.9-1.3,1.3h-0.4v-1.8h-2.2c0.3-0.8,0.1-0.4,0.4-0.9v-5.3
			c1.2,0.2,2.2,0.4,4,0.4V490h-3.5c0.1-3.3,0.3-6.7,0.4-10c1.3,0,2.8-0.1,3.5,0.4h0.4c0.1-4.1,0.3-8.2,0.4-12.2h-1.8V466
			c-1.9,0.1-5,0.3-6.2-0.4h-0.4c0.8-0.4,0,0,0.9,0c-0.3-0.8-0.1-0.4-0.4-0.9c0,0,0.1-1.8,0.4-0.9l0.4,0.4c-0.1-1-0.1-1.2-0.4-1.8
			c0.8-0.4,0,0,0.9,0c-0.4-2.3-0.4-5.7-0.4-8.7c1.3,0.1,2.6,0.3,4,0.4v-2.2c-5.7-0.1-15.7-1.2-17.1,0.9c-0.3-0.4-0.2-0.4-0.4-1.3
			c-3.5,0-6.8,0.1-9.7-0.4c-0.4,0.1-0.8,0-1-0.2c-1.1-0.2-2.1-0.7-3-1.1c0.8-1.3,1.3-0.8,2.6-0.4c0.1-0.1,0.3-0.3,0.4-0.4v-1H749
			c-0.2-2.2-0.7-2-0.9-4h1.3c-0.2-3.4-2.5-3.3-4.9-4.4v-3.1c1.7-0.4,1.5-0.9,3.1-1.3c0.3-0.8,0.1-0.4,0.4-0.9c0-1.2,0-2-0.4-2.6
			v-0.4c-1.1,0.7-0.6-0.1-0.9,1.3c-2-0.2-1.7-0.7-2.6,0.9h-0.4c0.3-1.5,0.7-1.2,0.9-3.1c2.3,0,2.6-0.6,4.4-0.9
			c-0.2-0.9-0.1-0.9-0.4-1.3c-0.8-0.4-1.1-0.1-2.6,0c-1.3,1.3-2.6,2.6-4,4h-1.3v-0.4c0.7-0.2,0.8-0.3,1.8-0.4v-2.2
			c1.9-0.4,1.5-1.3,3.5-1.8c-0.3-0.8-0.1-0.4-0.4-0.9c0.7-0.4,0,0,1.3,0c-0.1-0.4-0.3-0.9-0.4-1.3c0.1-0.1,0.3-0.3,0.4-0.4
			c5.3,0.1,6.7,3.3,9.6,2.6c-0.3,1.4,0.2,0.7-0.9,1.3v0.9h1.3v-1.8h0.4c0.3,0.6,0.4,0.9,0.9,1.3v0.4h0.4c-0.1-1.2-0.3-2.3-0.4-3.5
			h1.3c0,1.8-0.1,2.6-0.4,3.1c-0.4,1.2-0.8,1.5-1.8,2.2v0.4c1.3,0.7,1.7,1.1,3.5,1.3c0.7,3.4,2.8,2.3,5.3,3.5c0,1.3,0,2.4-0.4,3.1
			v0.4h3.1c-0.1,1.4-0.2,2.6-0.9,3.5v0.4c1.1,0,1.7,0.1,2.2,0.4c1.5-0.2,1.3-0.6,2.6-0.9v-2.6c2,0.1,1.7-0.2,1.8,0.9h1.8
			c-0.2-1.5-0.3-5.1,0.4-6.2v-1.8c-0.8,0.1-1.4,0.3-2.2,0.4c-0.3-5.8,0.7-12.5,1.3-18.4h1.8c0.1-0.8,0.3-1.4,0.4-2.2h-2.2
			c0-2.9-0.4-8.8,0.9-10.9c-0.6-1-0.7-0.7-1.3-1.3c-0.3-0.7-0.1-0.6,0.4-1.3c0.6-1,1.1-1,1.8-1.8c1.1,0.7,0.6-0.1,0.9,1.3
			c0.9-1.2,1-3.4,0.9-5.7h4v-4c-3.1-0.2-3.3-1.2-4.9,0.9c-0.3-0.3-0.6-1-0.9-1.3V389h2.2c0-4.9,1.3-9.4,1.8-11.8
			c-0.7-0.6-0.6-0.2-0.9-1.3c-1.1,0.6-2.1,4.3-2.2,7.1h1.3c-0.1,0.1-0.3,0.3-0.4,0.4c-0.4,1.1-0.4,1.1-1.3,1.8
			c-0.6,0.2-0.8-0.1-1.8,0c0.6-1.5,0-5.6,0.9-7.1c-0.3-1.2,0.2-0.7-0.9-0.9c0-5.7,0.9-11.1,2.2-16.2c-0.9-0.6-0.3-0.6-1.8-0.9
			c0.2-0.8,0.4-1.3,0.4-2.6c-1.1,0-1.7,0-2.2-0.4h-0.4c-0.1-2,0.2-1.7-0.9-1.8c0.8-2,2.4-7.8,0.9-10c0.2-1.5-0.2-1.1,0.9-1.3
			c0-3.6-1-6.4-0.4-9.6c0.8-4.4,1.3-9.3,1.3-14h-2.2v1.3c-0.3,0.1-0.6,0.3-0.9,0.4v0.4c-1.2-1-0.9-0.7-0.9-2.2
			c-1.2-0.6-1.7-0.6-2.6-0.4c0-1.1,0-1.7,0.4-2.2v-0.9c0.9,0.3,2.1,0.4,3.5,0.4v-1.8h1.8c0.2-0.9,0.1-0.9,0.4-1.3
			c-0.7-0.7-0.9-0.7-2.2-0.9c0-1.8,0.4-6.1,0.4-9.6h2.2c0.3-3.3,0.6-6.7,0.9-10H775c0.3-4,0.9-7.8,0.9-12.2h-1.8v-4
			c-1.7,0-3.9-0.2-4.4-0.4c-1.4,0.6,0,0.4-1.3,1.3v0.9h3.5c0,1.7,0.2,4.2-0.4,5.3v4.9c-0.8,0.3-0.4,0.1-0.9,0.4
			c-1-0.1-1.2-0.1-1.8-0.4c-0.6-0.9-2.4-12-2.2-12.7h-2.2c0.7,1,0.8,0.9,0.9,2.6h-1.3V277l-2.6,6.2c-1-0.1-2-0.3-3.1-0.4
			c0.3,1.5,0.2,1.1,1.3,1.8c-0.6,0.6-2.2,2-3.5,2.2v1.3h-4c-0.1,2.2-0.3,4.4-0.4,6.6c-2.5,0-6.3,0.2-7.5,0c-0.8,0.8-1.4,1.4-2.2,2.2
			c-0.4-0.4-0.9-0.9-1.3-1.3c0,0,0.2-3.9,0.9-4.9v-0.4h-2.2V288h-4c0,1.1,0,1.7-0.4,2.2v2.6c-1-0.3-1-0.4-1.8-0.9
			c-0.1,0.4-0.3,0.9-0.4,1.3c-2.2-0.6-5.4-5.6-6.6-7.5c-2,0-2.1-0.1-2.6,1.3c-0.9-0.6-1-0.9-2.2-1.3c-0.1,0.1-0.3,0.3-0.4,0.4v2.2
			c-1.8,0.3-3.5,0.6-5.3,0.9c0.1-1.2,0.3-3.1,0.9-4c-0.4-0.3-0.4-0.2-1.3-0.4c-0.1-1-0.1-1.2-0.4-1.8v-0.8h-1.8
			c0.1-2.6,0.3-5.3,0.4-7.8h1.8c0.3-3.1,0-14.1,1.3-16.2c-0.2-4.3-0.2-6.9,4-7.1l0.4-4.4c1.3-0.6,2.4-1.1,3.5-1.8v-4
			c-1.8-0.1-3.5-0.3-5.3-0.4v-0.4c-0.3-0.4-0.2-0.4-0.4-1.3h1.8c0-1.7-0.6-0.7,0.4-1.8c-0.8-0.4-1.2,0.2-1.8,0
			c-0.8-0.8-1.4-1.4-2.2-2.2c-0.3,0.1-2.3,1.9-4,2.2c-1.4,0.2-4.5-1.2-6.6-0.4c-0.6,0.6-1.2,1.2-1.8,1.8c-1.3,0.4-2.6,0.9-4,1.3
			h-1.3c0.4-1.2,0.8-1.1,0.9-3.1c-1.7,0-6.5-0.8-8.3,0.4h-0.4c0.6-1.7,0.8-4.6,0.9-6.6c-3.5,0.1-3,1.5-6.2,1.8
			c-0.6,1.5-0.6,5.5-0.4,6.6c-2.8-0.4-3.8-1.5-6.2-2.2c-0.2,1-0.3,0.4,0,1.3c-0.9,0.8-2.4,1.2-3.5,0.4h-0.9c0.2-0.8,0.4-1.3,0.4-2.6
			c-2-0.1-4.1-0.3-6.2-0.4c0,1.7,0,1.9,0.9,2.6v1.8h-0.4c-0.6-1.1-1.2-1.7-1.8-2.6c-3.8,0.1-7.5-1.4-7.8-4.4
			c-6.1,3.3-12.9,1-22.3,0.9c-0.1,1.9-0.3,3.8-0.4,5.7c-1.7,0.7-2,0.3-2.2,2.6c-1.1-0.4-0.7-0.4-1.8-0.9c0.1-1.3,0.3-2.6,0.4-4h-2.2
			c0.1-1,0.1-1.2,0.4-1.8V235h-4v-2.2c-2.8,0-9.3,0.4-11.4-0.9c-3.1-0.2-6.3-0.7-6.9,1.8c-2.4,0-10.8,0-12.2-0.9h-5.7
			c0.2-0.7,0.3-1.1,0.4-2.2c-1.8,0-4.6,0.3-5.7-0.4c-3.3,0-4.3,1.2-4.9,4c-1.5,0-3-0.1-4-0.4v-1.8h-1.8v1.8h-2.2v2.2
			c-0.9,0.6-1.7,1-2.2,1.8c-4-0.3-7.8-0.6-11.8-0.9c-0.2,0.9-0.1,0.9-0.4,1.3c-0.6,1-1,0.7-1.8,1.3c-0.3,0.4-0.2,0.4-0.4,1.3h2.2
			c0.2,0.9,0.1,0.9,0.4,1.3c0.7,1.1-0.1,0.6,1.3,0.9c-0.7,1-0.9,1.3-2.2,1.8c0.1,1.2,0,1.9,0.4,2.6h0.9l-0.4,3.5
			c0.7,3,0.7,6.7,0.9,9.6h-1.3v0.9h1.3c-0.1,3.4-1.1,11.8,0.9,13.6c-0.2,1.8-0.4,1.8-0.9,3.1h-1.3c0.4-1.2,0.8-1.1,0.9-3.1h-0.6
			c0-7.3-0.4-15.2-1.8-21.4v-6.6h-0.9c-0.8-1.7-0.3-10.6-0.9-12.7c-1.2-4.9,1.1-12.8-1.3-16.7v-0.9c-0.9,0.6-0.8,0.7-2.2,0.9
			c-0.1-1.7-0.3-3.2-0.4-4.9c-0.4,0.7-0.4,1.4-0.4,2.6c-1.7-0.4-2.8-1.8-3.5-3.1c-3.9,0.3-4.7,2.5-6.2,5.3c-3.5,0-17.1-0.1-18.4,0.9
			c-1.7-0.3-1.4,0-1.8-1.8h-0.4c-0.1,0.6-0.3,1.2-0.4,1.8c-3.1-0.1-3.9-1.3-4-4.4c-0.3,0.4-0.2,0.4-0.4,1.3h-4c0-1.1,0-1.7,0.4-2.2
			c1-0.7,2.5-0.3,3.5,0C516.4,212.3,516.2,212.3,515.8,211.6L515.8,211.6z M430.5,293.9c-0.4-1.1-0.4-1.1-1.3-1.8c0.8-0.4,0,0,0.9,0
			l0.4-2.6h2.6c-1,1.5-1.9,2-2.2,4.4H430.5z M308.7,273.3v-2.6h3.5v2.6H308.7z M286.9,284.7H286V283c1.2,0,2,0,2.6-0.4h0.4v2.6
			C288,285.1,287.4,285.1,286.9,284.7L286.9,284.7z M288.2,286.5c0.1-0.1,0.3-0.3,0.4-0.4c0.3,0.4,0.1,0.1,0.4,0.9
			C289.1,286.8,287.3,286.8,288.2,286.5L288.2,286.5z M295.2,297.4v1.8h-2.2c0.1-0.1,0.3-0.3,0.4-0.4c0.4-0.4,0.9-0.9,1.3-1.3
			L295.2,297.4L295.2,297.4z M289.1,298.7h3.1C291.3,299.3,289.9,299.3,289.1,298.7z M286.9,302.6c0.1-1.3,0.3-2.6,0.4-4h1.3v4
			H286.9z M294.3,308.8c0.1-1,0.3-2.1,0.4-3.1h0.4v3.1H294.3L294.3,308.8z M299.6,321c0-1.3-0.1-2.8,0.4-3.5c0-1.8,0-3.6,0.4-4.9
			l0.4-0.4h0.4v8.7L299.6,321L299.6,321z M300.9,328.9c0.3,0.6,0.3,0.8,0.4,1.8C301,330.2,301,330,300.9,328.9z M320.6,333.7v-1.8
			h1.8v0.4c-0.4,0.4-0.9,0.9-1.3,1.3L320.6,333.7L320.6,333.7z M223.5,382.7v-2.2c0.8,0.3,1.8,0.4,3.1,0.4c0.6-2.1,1.3-2.8,1.3-5.7
			c2.8,0.4,4.4,0.8,5.7-1.3h0.4v1.8h1.8c-1.3,0.9-5,0.6-7.1,0.4c0,1.3,0,2.4-0.4,3.1c-0.1,2.2-0.4,1.9-1.3,3.1c-1.3,0-2.4,0-3.1,0.4
			L223.5,382.7L223.5,382.7z M45.7,476.4v-5.3c2.1,1.1,3.5,2.5,5.7,3.5c-0.6,0.8-1.2,1.4-1.8,2.2C48.3,476.7,47,476.5,45.7,476.4
			L45.7,476.4z M108.3,477.8c0.1-0.1,0.3-0.3,0.4-0.4c0.3,0.4,0.2,0.1,0.4,0.9C109.2,478.2,107.4,478.1,108.3,477.8L108.3,477.8z
			 M154.7,484.7v-0.9c0.3,0.1,0.6,0.3,0.9,0.4v0.4H154.7L154.7,484.7z M68.5,497c0.1-0.3,0.3-0.6,0.4-0.9c0.1-0.1,0.3-0.3,0.4-0.4
			c0.3,0.4,0.2,0.4,0.4,1.3L68.5,497L68.5,497z M95.6,497.4c0.8,0.3,0.4,0.1,0.9,0.4h-0.4c-0.1,0.1-0.3,0.3-0.4,0.4V497.4
			L95.6,497.4z M225.1,551.7v0.4c-0.1,0.1-0.3,0.3-0.4,0.4h-0.9v-0.9H225.1L225.1,551.7z M128,551.2l0.9,0.4
			c-0.1,0.1-0.3,0.3-0.4,0.4c-0.4,0.3-0.4,0.2-1.3,0.4c0.2-0.9,0.1-0.9,0.4-1.3c0.1-0.1,0.3-0.3,0.4-0.4V551.2L128,551.2z
			 M41.3,546.9h1.3C41.9,547.2,42.1,547.2,41.3,546.9z M35.2,549.5c-0.6-0.6-1.2-0.8-1.8-1.3c1.3,0.1,2.6,0.3,4,0.4
			C36.8,549.1,36.2,549.3,35.2,549.5z M229.1,546c-0.1,1.3-0.3,2.6-0.4,4c-1.8-0.4-5-2.5-7.5-0.9h-0.4c0.7-1.7,1.3-1,1.3-2.6
			C223.9,546,226.7,545.9,229.1,546L229.1,546z M375.3,549.9c-0.1,1-0.1,1.2-0.4,1.8c-0.4-0.1-0.2,0.1-0.4-0.4
			c-0.4-0.9-0.2-0.3,0-1.3H375.3L375.3,549.9z M468.5,537.2v1.3h-1.3v-1.3H468.5z M382.7,535.9c-0.8-0.3-0.4-0.1-0.9-0.4
			C382.6,535.8,382.3,535.6,382.7,535.9z M678.2,538.1v0.9c-1.2-0.3-0.7,0.2-0.9-0.9H678.2z M330.2,501.8h0.4v1.3
			C330.3,502.6,330.3,502.7,330.2,501.8z M329.3,508.3c0.3-1,0.4-2.4,0.4-4h0.4v4H329.3L329.3,508.3z M701,506.5h1.3
			c0.3,0.8,0.1,0.4,0.4,0.9c-0.8,1.2,0,0.7-1.3,0.4c0.4,1.7,0.3,1.9,2.2,2.2c-0.6,0.7-0.2,0.6-1.3,0.9c0.4,0.3,0.4,0.2,1.3,0.4
			c-0.8,0.4-0.6,0.4-1.3,0h-1.8C700.7,510.1,701,508.5,701,506.5L701,506.5z M721.5,509.2c0.7,0.2,1.1,0.3,2.2,0.4
			c-0.6,0.4-1.1,0.4-2.2,0.4V509.2L721.5,509.2z M404.6,508.8h1.8c-0.1,0.1-0.3,0.3-0.4,0.4C405.3,510.5,405.3,509.6,404.6,508.8z
			 M304.4,512.3c-0.3-0.6-0.3-0.8-0.4-1.8C304.3,511.1,304.3,511.3,304.4,512.3z M280.7,511.4v1.3c-0.3-0.4-0.2-0.4-0.4-1.3H280.7z
			 M167.4,511.8h0.9v1.3C167.2,512.5,167.8,513.3,167.4,511.8z M302.7,514.5c0.1-0.3,0.3-0.6,0.4-0.9c0.1-0.1,0.3-0.3,0.4-0.4
			c0.3,0.4,0.2,0.4,0.4,1.3L302.7,514.5L302.7,514.5z M385.8,515.8h1.8C386.8,516.3,386.6,516.3,385.8,515.8z M388,515.8
			c0.1-0.1,0.3-0.3,0.4-0.4c0.3,0.4,0.1,0.1,0.4,0.9C388.9,516.3,387.1,516.1,388,515.8L388,515.8z M216,525.9v-3.1h3.1v3.1H216z
			 M514.4,531.6c-0.4,1.2-0.8,1.3-1.3,2.2h-1.3v-2.2H514.4z M504.4,531.6h3.5v0.4c-0.9,0.6-0.9,0.3-1.3,1.3c-1.8-0.7-5.4-1.4-6.6,0
			h-0.4v-2.2C501.2,531,503.5,530.9,504.4,531.6L504.4,531.6z M525,531.6c0.4-1.2,0.4-3.3,0.4-5.3h1.8c0,0.8,0.9,2.2,0.9,2.2
			c-0.7,1.3-1,1.3-0.9,2.6c-0.8,0.3-0.4,0.1-0.9,0.4H525L525,531.6z M736.4,531.1c-0.4,1.2-0.4,1.1-1.3,1.8c0.6,0.3,0.8,0.3,1.8,0.4
			c-0.2,1.2-0.4,2.2-0.4,4h-6.2c0.2-0.9,0.1-0.9,0.4-1.3c-0.7-1.1-0.6-0.8-2.2-0.9c0.1-0.8,0.3-1.4,0.4-2.2h1.3
			c0.2,0.7,0.3,0.8,0.4,1.8c1.7-0.6,1.5-1.2,4-1.3c0.1-0.8,0.3-1.4,0.4-2.2H736.4L736.4,531.1z M687.4,531.6h1.8v0.4
			c-4,1.5-16.9,0-19.7,1.8h-7.5c0.3-1,0.7-1.8,0-2.6v-0.4c4.4,1.2,14.2-2.1,18.9,0.9h4.9c-0.8-1.1-1.3-1-1.8-2.6
			c1.2-0.1,2.3-0.3,3.5-0.4V531.6L687.4,531.6z M724.6,528.5v0.9h-1.3v-0.9H724.6z M696.1,528.1v0.9c-4.5,0.1-7.6,1.1-7.5-1.8
			c1.1,0,1.7,0,2.2,0.4C692.8,527.6,694.9,527.6,696.1,528.1L696.1,528.1z M742.1,527.2v-1.3h1.8v1.3H742.1z M771.4,525.4v1.3h-1.3
			v-1.3H771.4z M719.8,522.8h-0.4c-0.1,0.1-0.3,0.3-0.4,0.4v-0.9C719.6,522.7,719.4,522.4,719.8,522.8L719.8,522.8z M706.7,518v-3.1
			h2.6c-0.6,1.3-0.9,2.2-0.9,4.4C707.4,518.8,707.5,518.6,706.7,518z M734.7,512.3c0.6,0.4,1.2,0.7,2.2,0.9c0,1.4-0.1,2.6-0.4,3.5
			c-5.3,0.2-5.7-1.4-5.3-5.7c-0.6,0.3-0.9,0.4-1.3,0.9H729c-0.3-0.8-0.1-0.4-0.4-0.9c0.4-0.3,0.4-0.2,1.3-0.4
			c-0.3-1.2,0.2-0.7-0.9-0.9c0.2-0.9,0.4-3.2,0.9-4c0.1-0.1,0.3-0.3,0.4-0.4c0.6,1.2,1.2,1.9,2.2,2.6c0.3,0.2,1.2,0,2.6,0
			C735.1,509.4,735.3,511.4,734.7,512.3L734.7,512.3z M780.1,502.2v0.4c-0.4,0.4-0.9,0.9-1.3,1.3h-0.4c0.1-0.6,0.3-1.2,0.4-1.8
			H780.1z M747.8,497v8.7c-0.3-0.4-0.2-0.1-0.4-0.9h-0.4v2.2c0.3-0.4,0.2-0.1,0.4-0.9h0.4v5.7c-0.8-0.3-1.7-0.4-3.1-0.4v-1.8
			c-0.9-0.2-0.9-0.1-1.3-0.4h-2.6c0.3-0.8,0.1-0.4,0.4-0.9c0-1.2,0-2-0.4-2.6c-0.4-0.3-0.4-0.2-1.3-0.4c-0.1-1-0.1-1.2-0.4-1.8v-0.9
			c0.7,0.2,1.1,0.3,2.2,0.4c0-1.9-0.2-5.2,0-5.7v-0.9C744.4,497.5,743.9,497.1,747.8,497L747.8,497z M355.6,365.3
			c0.8,0.1,1.4,0.3,2.2,0.4c-0.3,0.6-0.4,0.9-0.9,1.3c-0.4,0.3-0.4,0.2-1.3,0.4V365.3L355.6,365.3z M371.4,365.7h0.9v4.4
			C371.5,369,371.4,367.7,371.4,365.7z M411.2,373.1v-2.6c1.7,0.1,3.2,0.3,4.9,0.4v2.2H411.2L411.2,373.1z M357.8,378.4h-0.9v-1.3
			c0.8,0.3,0.4,0.1,0.9,0.4h0.4v1.3C358.1,378.7,358,378.5,357.8,378.4z M264.6,381.9V381h0.4v0.9H264.6z M273.8,380.6h0.4v3.1
			C271.2,382.9,272,383,273.8,380.6z M258,389.7c1-2.5,2.4-3.6,2.6-6.6c0.8,1.2,0.6,4.6,0.4,6.6H258z M364.4,384.4
			c1,0.1,2.1,0.3,3.1,0.4c-0.7,0.4-1.8,0.4-3.1,0.4V384.4L364.4,384.4z M338.2,387.5c0.3,0.1,0.6,0.3,0.9,0.4v2.2h-0.9V387.5
			L338.2,387.5z M319.8,390.6v-0.9c1.2,0,2,0,2.6,0.4h1.3v0.9C322.4,391,321.1,390.7,319.8,390.6z M259.7,398.9v-2.6h0.9v2.6H259.7z
			 M397.6,398c0.1-1.7,0.3-1.7,0.9-2.6c1.2,0,1.9-0.2,2.6-0.4c0.2,1.2-0.3,2.2-0.4,4.4h-1.8c-0.2,0.9-0.1,0.9-0.4,1.3v0.4h-0.9
			C398.4,399.1,399.4,399.4,397.6,398L397.6,398z M169.2,406.4c0.1-2.5,0.6-4.3,0-6.2h0.4v-0.4h0.4c0.1,2.2,0.3,4.4,0.4,6.5
			L169.2,406.4L169.2,406.4z M266.4,420c0-1.1,0.1-1.7,0.4-2.2c0-1.3-0.1-2.2-0.4-3.1h-1.8c0,2.1,0.3,3,0.9,4.4
			c-0.1,0.1-0.3,0.3-0.4,0.4c-1.2,0-1.9-0.2-2.6-0.4c-0.3-0.9-0.6-1.8-0.9-2.6c1.1-0.7,1-0.2,1.3-1.8h-2.2c0.3-1,0.4-2.4,0.4-4
			c-1.3,0.3-3.2,1.3-4.4,2.2c-1.2,0-1.9-0.2-2.6-0.4c0.2-2.1,0.8-4.4-0.4-6.2v-6.2c1,0.3,2.4,0.4,4,0.4v4h4c0,1.2,0,2-0.4,2.6v1.3
			c2.2-1.4,2.8-1.7,6.2-1.3v2.2c1.2,0,2,0,2.6-0.4h0.4c0,3.5-0.8,1.3-1.8,3.5c-1.2,2.8,0.6,4.4-1.3,7.5H266.4L266.4,420z M473,402.4
			h0.4v18.4c-1.8-0.1-3.5-0.3-5.3-0.4c0.2-0.9,0.1-0.9,0.4-1.3v-0.9c-1.8-0.3-5.3-0.7-6.2-0.4h-0.4c0.4-1.1,0.4-3.1,0.4-4.9
			c-2.9,0.1-2.5,0-6.2,0v-1.8c0.8,0.3,0.4,0.1,0.9,0.4c3.1,0,3.9-1.7,3.5-3.5c0.1-0.1,0.3-0.3,0.4-0.4c2.3,0.1,4.4,1.1,5.3,2.6
			c1.8-2.1,3.8-4.3,4-7.8C471.5,402.6,472,403.1,473,402.4L473,402.4z M456.3,406.4h-5.7c0.1-0.4,0.3-0.9,0.4-1.3
			c1.1,0,1.7,0.1,2.2,0.4h3.1L456.3,406.4L456.3,406.4z M401.6,402.9h0.9v4.4c0.7,1.5,1.8,0.9,1.8,4c4.1,0.1,4.3,1.9,7.5,2.6v1.8
			c1.3,0,2.4,0,3.1,0.4c0.4,0.1,0.9,0.3,1.3,0.4c-0.7,1.4-0.2,0-1.3,0.9c-1.4,0.6-1.2,0.3-1.3,2.2c-1.5-0.6-1.9-0.9-3.1,0
			c-1.1-0.7-0.7-0.2-0.9-1.8c-4.1,1.2-3.3,0.3-7.1-0.4c0,1.3-0.2,1.8,0,2.2v0.4c-1.2-0.7-1.9-1.1-2.6-2.2c-0.3,0.4-0.2,0.4-0.4,1.3
			c-0.3-0.3-0.6-0.6-0.9-0.9c-2.9,0.2-2.3,0.7-2.2,3.1c-3.2,0.7-9.5,0.1-10.5,0.4c-0.7,0.2-0.7,0.9-2.2,0.9c-1.1,0-2-1-2.6-0.9
			c-0.8,0.1-2.9,1.2-4,0.9c-1.8-0.4-4.1-1.9-5.7-1.8c0.3-1.1,0.1-0.2,0-1.3c0.8-0.2,1.3-0.4,2.6-0.4v1.8c1.9-0.7,2.1-2,4-2.6v-6.6
			c0.4,0.6,0.4,1.1,0.4,2.2c2.4-0.1,3-0.7,4-2.2h2.2c-0.1-3.6,0.9-5.3,3.5-6.2c1.3-0.9,4.4-1,6.6-0.9c0,2.2,0.1,3.2,0.9,4.4h0.9
			v-2.2h2.2c0-1.4,0.1-3.1-0.4-4v-0.4C399.1,402.9,401.2,403.1,401.6,402.9L401.6,402.9z M368.3,419.1c0.3,0.4,0.1,0.1,0.4,0.9
			c0.1,0.1,0.3,0.3,0.4,0.4c-1.8,0.7-3.1,0.6-4.9,0.4v-2.2h3.1v1.3C367.7,419.6,368.1,419.4,368.3,419.1L368.3,419.1z M370.9,412.9
			h-0.4v-1.8h0.9c-0.2,0.9-0.1,0.9-0.4,1.3V412.9L370.9,412.9z M261.5,425.6c0.1-0.3,0.3-0.6,0.4-0.9c0.1-0.1,0.3-0.3,0.4-0.4
			c0.3,0.4,0.2,0.4,0.4,1.3L261.5,425.6L261.5,425.6z M269.3,423c-0.3-0.4-0.1-0.1-0.4-0.9H268c-0.3,1.1-0.1,0.2,0,1.3
			c-2,0.6-3-0.1-4.4,1.8h-0.4c0-2-0.1-3.1,0.9-4.4c0.6-0.3,2.8,0.2,4.4-0.4c0.6-0.6,1.2-1.2,1.8-1.8c0.8-0.3,0.3,0.6,0.4,0.9h4
			c0.1,0.8,0.3,1.4,0.4,2.2h-1.3c-0.1,1.2-0.3,2.3-0.4,3.5c-0.7,0.7-1,1.1-1.3,2.2c-1.2,0.2-1.2,0.6-2.2,0c-0.4-0.1-0.9-0.3-1.3-0.4
			C268.8,425.6,269.1,424.3,269.3,423L269.3,423z M260.6,428.7c-0.3-0.4-0.2-0.4-0.4-1.3c1.5,0.2,2.3,0.3,3.1,1.3
			C262.3,428.3,261.5,428.1,260.6,428.7z M247.9,433.5c0-1.2,0-2,0.4-2.6v-1.3c-0.9,0.8-1.8,1.4-2.6,2.2c-0.3-0.9-0.6-1.8-0.9-2.6
			c0.9-0.7,0.9-0.6,1.3-1.8c2.1,0.1,4.1,0.3,6.2,0.4c0,2.1-0.4,2.6-0.4,5.7H247.9L247.9,433.5z M464.6,430.4v-3.5
			c0.8,0.1,1.4,0.3,2.2,0.4V426c0.9,0.2,0.9,0.1,1.3,0.4h3.1l-0.9-0.9v-0.9c0.9,0.3,2.1,0.4,3.5,0.4v-1.3h0.9
			c0.2,6.6-0.3,6.5-3.5,9.6l0.4,1.3c1.2-0.1,2.3-0.3,3.5-0.4v2.6c-3-1.1-4.4,0.3-6.2,0c-1.8-0.3-2.6-1.2-5.3-1.3
			C463.7,433.9,463.8,431.7,464.6,430.4L464.6,430.4z M247.1,437.1l0.4-0.4c0.3,0.4,0.1,0.1,0.4,0.9
			C247.9,437.4,246.2,437.4,247.1,437.1L247.1,437.1z M258,461.5c0.1-2,0.3-4.1,0.4-6.2c1.8-0.3,1.5-0.4,2.2-1.8
			c1.3,0.1,2.6,0.3,4,0.4c-0.3,1.7,0,6.4-0.9,7.8C263.7,462,259.7,461.5,258,461.5L258,461.5z M253.7,467.2h4v0.9
			C256.3,467.9,254.5,467.7,253.7,467.2z M200.2,495.6v-1.3l0.4-0.4c4.6-0.1,6.1,0.3,10-0.4c0.3,0.3,0.6,0.6,0.9,0.9
			C208.9,496.2,204.2,495.7,200.2,495.6L200.2,495.6z M328.5,494.7c0.8,0.3,0.4,0.1,0.9,0.4C328.6,495,328.9,495.2,328.5,494.7z
			 M330.7,493.9v1.3h-0.4c-0.1-0.4-0.3-0.9-0.4-1.3H330.7L330.7,493.9z M271.1,491.8c0.1,0.9,0.3,1.8,0.4,2.6
			c-6.4-0.1-12.8-0.3-19.3-0.4v-6.5c1.1,0,1.7-0.1,2.2-0.4c0.9,1.3-0.7,1.1,0.9,1.3v1.8c4.4-0.1,3.5-2.3,5.3-4.9
			c1-1.4,1.4,0.8,2.2-1.8h0.9v5.7h-4.4v2.2c2.3-0.3,4.4-1.5,5.7-3.1C268,488.7,268.6,490.8,271.1,491.8L271.1,491.8z M638,488.2
			c0,0-1.8-0.1-0.9-0.4c0.1-0.1,0.3-0.3,0.4-0.4C637.9,487.8,637.6,487.5,638,488.2L638,488.2z M343.8,481.6v0.9h-10v-0.9
			C337.3,481.7,341,482.6,343.8,481.6z M268.5,478.2c-0.1,1.9,0,3.4,0,6.2c-1.7-0.3-1.8-0.8-4-0.9c-0.3-0.8-0.1-0.4-0.4-0.9v-1.3
			c0.8,0.3,0.4,0.1,0.9,0.4h1.8c-0.8-1.1,0-0.6-1.3-0.4c0.1-1.4,0.3-2.9,0.4-4.4C266.9,477.3,267.5,477.8,268.5,478.2L268.5,478.2z
			 M595.9,476v-0.9h0.4v0.9H595.9z M630.9,475.1c0,0-1.8-0.1-0.9-0.4c0.1-0.1,0.3-0.3,0.4-0.4C630.8,474.7,630.7,474.3,630.9,475.1
			L630.9,475.1z M264.6,473.8v1.3c-0.1-0.1-0.3-0.3-0.4-0.4h-4.9c0.4-0.3,0.1-0.2,0.9-0.4c0,0-0.1-1.8-0.4-0.9
			c-0.1,0.1-0.3,0.3-0.4,0.4v-2.6c1.3,0.1,2.6,0.3,4,0.4C263.5,473.5,263.4,473.1,264.6,473.8L264.6,473.8z M596.8,467.7v0.9h-0.4
			v-0.9H596.8z M407.2,467.7c-0.8,0.3-0.4,0.1-0.9,0.4h-2.2l2.2-3.1c0.3,0.3,0.6,1.3,0.9,1.8V467.7z M461.6,466.4h-0.9v-0.9h0.9
			V466.4z M629.1,464.2v1.8c-1.9-0.2-2.4-0.9-4-1.3v-0.9C627.3,463.4,626.9,463.9,629.1,464.2L629.1,464.2z M405.1,460.7
			c-0.8,0.8-1.4,1.4-2.2,2.2c0.4,0.3,1.2,0.7,1.8,0.9c-2.6,2-7.8-0.2-10.5-0.4c-1.7-0.1-1.8,1.2-3.5,0.9c-0.3-0.3-0.6-0.6-0.9-0.9
			c-2.4-0.6-5.7,1.3-7.5,0.4c0-0.7,0.1-0.4,0.9-1.3c-0.6-0.4-1.2-0.9-1.8-1.3v-0.4c3.4,0.7,18.4,0.3,19.7,2.2
			c0.9-0.2,0.9-0.1,1.3-0.4c0.3-0.2-0.6-1-0.9-2.2C402.7,460.4,403.6,460.7,405.1,460.7L405.1,460.7z M420,457.1
			c-0.9-0.3-0.4,0.7-1.3-0.4C419,456.8,420.2,456.4,420,457.1z M296.6,457.6v4.4c-0.1-0.1-0.3-0.3-0.4-0.4h-0.9c0-1.8,0-3.6,0.4-4.9
			C295.9,457,296.3,457.4,296.6,457.6L296.6,457.6z M400.7,459.8v0.4c-1.4,0.2-3.5,0.6-4.9-0.4H400.7z M457.6,457.6
			c0.9,0.2,0.9,0.1,1.3,0.4h0.9v0.9C458.3,458.7,458.3,458.7,457.6,457.6z M764,457.1v0.9h-2.2v-1.8
			C763.2,457.1,762.8,457.1,764,457.1L764,457.1z M644.5,455.9h-1.3v-0.4c0.8-0.3,0.4-0.1,0.9-0.4
			C644.5,455.5,644.3,455.1,644.5,455.9L644.5,455.9z M456.3,454.6h0.4v1.3l-0.4-0.4h-0.9v-1.3C456.2,454.4,455.9,454.2,456.3,454.6
			z M358.2,454.2c-0.1,1.7-0.3,1.7-0.9,2.6h-3.1v-1.3c2-0.1,2.5-0.3,3.5-1.3C357.8,454.2,358.2,454.2,358.2,454.2z M274.2,457.6
			c-1.3,1-2.6,2.1-4,3.1c-1.3,2.8,0.3,4.6-0.9,6.6v0.4c-0.3-0.4-0.2-0.4-0.4-1.3c-0.9,0.2-0.9,0.1-1.3,0.4c0.8,0.8,0.1,2.8,0,6.2
			c-1.1-0.7-0.6,0.1-0.9-1.3c-0.7,0.2-0.8,0.3-1.8,0.4c0.3-3.3,0.6-6.7,0.9-10h2.2c0-2,0.3-5.8-0.4-7.1v-0.9h-1.3
			c0-3.5-0.1-10.5,0.9-11.4c-0.6-0.4-1.1-0.4-2.2-0.4c0.1-0.1,0.3-0.3,0.4-0.4v-4c1.4,0.9,1.4,1.4,2.6,0.4c0.2,0.7,0.6,0.2,0,0.9
			c0.3,1.1,1.5,2.3,5.3,2.2c-0.4,1.2-0.4,3.3-0.4,5.3h1.8c0.1,2.5,0.6,4.1-0.4,5.3L274.2,457.6L274.2,457.6z M471.6,443.1
			c1.2,0.1,2.3,0.3,3.5,0.4l0.4,0.4v4.4c-3,0.1-3.1-0.2-5.7-0.4c-0.2-0.8-0.4-1.3-0.4-2.6c-2.2,1.4-2.6,2.1-4.9,3.5
			c-0.1-0.1-0.3-0.3-0.4-0.4v-0.9c-0.3-0.9-0.4,0.9-0.4,0.9c-0.9-0.2-0.9-0.1-1.3-0.4c-1-1-1-3.6-2.6-5.7v-0.9
			c1.1,0.4,2.1,1.1,2.6,2.2c1-0.6,1.3-1,2.6-1.3c0.2,0.6,0.6,1.8,0.9,2.2C468,446,469.3,443.8,471.6,443.1L471.6,443.1z M441,445.3
			h1.3C441.5,445.8,441.7,445.8,441,445.3z M341.6,443.6v-0.9c1.2,0.1,2.3,0.3,3.5,0.4C344.3,443.7,343,443.7,341.6,443.6
			L341.6,443.6z M466.8,439.7c1.7,0,1-1.1,2.6-1.8c1.7,0.1,3.2,0.3,4.9,0.4c-0.7,0.6-1.4,0.8-2.6,0.9v1.3c-2.3,0.9-2.4,1.5-4.9,1.8
			V439.7L466.8,439.7z M442.7,438.8c0,0-1.8-0.1-0.9-0.4l0.4-0.4C442.6,438.4,442.5,438.1,442.7,438.8L442.7,438.8z M597.7,452.8
			v0.9h-0.4v-0.9H597.7z M540.8,452.4c-0.1,0.1-0.3,0.3-0.4,0.4v0.9c-1.2-0.6-0.3-0.1-0.9-1.3L540.8,452.4L540.8,452.4z
			 M326.3,449.7c-1.7-0.3-1.9-0.7-2.6-1.8c-0.6,0.9-0.2,1.2,0,2.2c-1.5,0-3.5,0.1-4.4-0.4c-0.3,0.4-0.2,0.4-0.4,1.3
			c-1.9-0.7-2.3-1.9-3.5-3.1v-0.4h-0.4c0.1,1.7-0.2,1.5,0.9,2.2v0.9c-1.8-0.2-3.2-1.2-3.5-1.3c-1.8,0.3-3,0.9-3.5,2.6
			c-1.7-0.3-2.4,0-3.5-0.9c-0.4,0.7-0.4,1.4-0.4,2.6c-1.9-0.7-2.2-2.5-4-3.1c-2.3-0.8-4.2,0.8-5.7,0c-1.1,0.7-0.6-0.1-0.9,1.3
			c-2.3-0.3-3-1.4-3.5-2.6c-1,0.6-0.7,0.7-1.3,1.3c-0.6,0.4-2,0.7-3.1,1.8H283v-0.4c0.8-0.2,1.3-0.4,2.6-0.4c0-1.5,0.2-2.3,0.4-3.5
			c-1.2-0.4-2.3-0.8-4-0.9c0-1.2,0-2-0.4-2.6V444c3.3,0.1,3.8,0,5.3,1.3c1.3,0.2,0.6-1.4,2.2-0.9c0.1,0,2.4,1.2,3.1,1.3
			c1.9,0.4,4.3-0.9,5.7-1.3l5.7,1.3h0.4l2.2-0.9c2.1-0.2,6,2.6,8.3,1.3h0.9c-0.1,0.1-0.3,0.3-0.4,0.4c0.7,1.1-0.1,0.6,1.3,0.9v-1.3
			c2,0.1,3.8,0.7,4.9,0c0.3,0.4,0.2,0.4,0.4,1.3h1.8v-1.3c1.3-0.1,1.2-0.3,1.8,0c1.4,0.6,0,0.4,1.3,1.3
			C326.7,448.6,326.6,449,326.3,449.7L326.3,449.7z M641.5,443.6c1.4,0.8,1.4,3,1.3,5.3h-2.2c-0.1-2.2,0.9-3.6,0.4-5.7
			C641.2,443.3,641.3,443.5,641.5,443.6L641.5,443.6z M598.2,446.2h-0.4v-0.9h0.4V446.2z M643.2,438.8v3.1c-1.7-0.1-1.9,0-2.6-0.9
			c-0.3-0.2-0.1,0,0-0.4v-2.2C641.3,438.6,641.9,438.7,643.2,438.8L643.2,438.8z M598.6,438.8c-0.3-0.4-0.2-0.4-0.4-1.3h0.4V438.8z
			 M626.9,437.9c-0.3-0.8-0.1-0.4-0.4-0.9c0.1-1,0.1-1.2,0.4-1.8c0.4-0.3,0.1-0.1,0.9-0.4c0.1,0.1,0.3,0.3,0.4,0.4v2.6H626.9
			L626.9,437.9z M737.2,437.1v-0.9c0.8,0.3,0.4,0.1,0.9,0.4h-0.4L737.2,437.1L737.2,437.1z M651.5,436.6h-0.4v-0.9h0.4V436.6z
			 M743,435.3c-0.4,1.2-0.8,1.3-1.3,2.2h-1.3v-1.3c0.3-0.3,0.6-0.6,0.9-0.9H743z M739.9,434c-0.3,1-0.2,0.7-0.9,1.3v0.9h-0.4
			c0.3-1.4,0.4-1,0.9-2.2H739.9z M632.7,432.2v1.3c-1.1-0.1-1.4-0.2-2.2-0.4v-1.3C631.2,431.9,631.9,432.1,632.7,432.2z
			 M628.3,432.6c-0.3,1-0.4,1-0.9,1.8c-3-0.1-3.9-1.5-4.4-4c1,0.3,1,0.4,1.8,0.9c0.4-0.1,0.2,0.1,0.4-0.4
			C626.7,431.5,626.5,432.2,628.3,432.6L628.3,432.6z M609.5,429.1c0.1-1.3,0.3-2.6,0.4-4h-1.3c0.2-1.2,0.6-0.8-0.4-1.8
			c0.3-0.3,1.3-0.6,1.8-0.9c0.4-0.9,0-2.3-0.9-3.1c0.4-1.2,0.8-1.3,1.3-2.2h0.9c0.6,1.4,0.3,1.2,0.9,2.6c0.7-0.2,0.8-0.3,1.8-0.4
			c-0.2,0.9-0.1,0.9-0.4,1.3c-0.7,1.1,0.1,0.6-1.3,0.9c2.1,1.8,2.6-0.3,2.6,4c1.1-0.7,0.9-0.9,0.9-2.6c1,0.3,2.1,0.8,2.6,1.8
			c0.6,0.3-0.3,0.8-0.9,1.3c0.8,0.7,1.2,0.3,1.8,1.3h0.4c-0.1-0.8-0.3-1.4-0.4-2.2c0.1-0.1,0.3-0.3,0.4-0.4c3,0.2,2.8,1.5,2.6,3.5
			c0.8-0.3,0.4-0.1,0.9-0.4c1,0.1,1.1,0.2,1.8,0.4v0.9c-0.8,0.3-0.4,0.1-0.9,0.4c-2-0.2-2.5-0.7-3.1-2.2h-0.9
			c0.4,1.2,0.8,1.5,1.8,2.2v0.4c-1.7,0-4-0.6-4.4-0.4c-2.2,0.6-4.7,1.7-7.8,1.8V430h1.3C610.2,428.9,610.9,429.6,609.5,429.1
			L609.5,429.1z M599.8,423c0,0-1.8-0.1-0.9-0.4l0.4-0.4C599.8,422.6,599.6,422.3,599.8,423L599.8,423z M599,419.5h-0.4
			c0.1-0.4,0.3-0.9,0.4-1.3c0.8,0.3,0.4,0.1,0.9,0.4h0.4c-0.1,0.1-0.3,0.3-0.4,0.4v0.4c-0.3-0.1-0.6-0.3-0.9-0.4V419.5L599,419.5z
			 M612.6,417.8h1.3v1.3h-1.3V417.8z M627.1,427.4h0.4v0.9h-0.4V427.4z M677.3,429.1v1.3h-3.1c0.3-1,0.2-0.7,0.9-1.3
			C675.6,428.9,675.9,429.1,677.3,429.1L677.3,429.1z M627.1,431.3c0.1-0.3,0.3-0.6,0.4-0.9c0.1-0.1,0.3-0.3,0.4-0.4
			c0.3,0.4,0.2,0.4,0.4,1.3L627.1,431.3L627.1,431.3z M744.7,426.5v0.4c-1.3,0.7-2.5,1.5-3.5,2.6h-0.9c0.4-2.4,1.7-1.9,3.1-3.1
			H744.7L744.7,426.5z M690.9,430c2.5,0.1,4.3,0.6,6.2,0v0.9c-2.2-0.1-4.4-0.3-6.6-0.4v-5.7C691.1,425.8,691,428.3,690.9,430
			L690.9,430z M755.2,424.8v-1.3c0.9,0.3,1.8,0.6,2.6,0.9c-0.2,0.7-0.3,0.8-0.4,1.8C756.2,425.7,756.1,425.4,755.2,424.8
			L755.2,424.8z M699.6,424.4h-0.9v-0.9h0.9V424.4z M767.9,427.4v1.8c-1-0.2-0.9-0.4-1.8,0h-0.9v-0.4c0.8-0.4,1.5-0.8,2.2-1.3H767.9
			z M767.5,422.2h0.4v4.9c-0.3-1.7-2,0.4-2.2,0.9h-0.9l-0.9-0.9c0.4-1.2,1.3-1.7,1.8-2.6c-0.3-1.3-0.7-1-0.4-2.2
			C766.7,422.3,766.7,422.5,767.5,422.2L767.5,422.2z M677.8,421.7v1.3c-0.3-0.4-0.2-0.4-0.4-1.3H677.8z M627.8,422.6v3.1h1.3v0.9
			c-4.3,0-5.6-1.1-7.5-3.5c0.4-0.3,0.4-0.2,1.3-0.4l-0.4-0.4c-0.3-0.4-0.6-0.9-0.9-1.3c-1,1.3-1.3,2.3-1.3,3.5h-0.9
			c-0.7-0.9-1.3-1.5-1.8-2.6c-0.9,0.2-0.9,0.1-1.3,0.4c-0.9-0.2-0.9-0.1-1.3-0.4c-1-1.4-1.7-5.5-1.8-7.5h1.3c0.4,3.9,3,2.9,3.1,7.5
			c1.7-0.3,2-0.1,2.6-2.2c1.2,0.3,1.7,0.8,2.6,1.3c0.3,0.9,0.6,3.1,0.9,4c0.3,0.1,0.6,0.3,0.9,0.4c0.4-1.4,0.3-1.8,0.4-3.5
			C626.8,421.8,626.8,422.1,627.8,422.6L627.8,422.6z M706.2,417.8v-1.3h4.4c-0.1,0.4-0.3,0.9-0.4,1.3H706.2L706.2,417.8z
			 M749.6,418.6h1.8c-0.9,1.3-1,0.7-0.9,2.2h-0.9V418.6L749.6,418.6z M767.9,412.5v8.7c-1-0.2-0.9-0.4-1.8,0
			c-0.4-0.6,0.1-0.6-0.4-1.3c-0.1-0.2-2.3,0.7-3.1,1.3h-0.9c0.2-2.8,0.9-5.1,0.9-8.7H767.9L767.9,412.5z M710.5,415.5
			c-0.4-0.7-0.4-1.4-0.4-2.6C710.5,413.6,710.5,414.3,710.5,415.5z M625.3,412c0,1.3,0,2.4,0.4,3.1c-0.3,1-0.4,1-0.9,1.8h-3.1
			c0.4-1.4,0.8-1.8,2.2-2.2c-0.4-1-0.7-1.2-0.9-2.6H625.3L625.3,412z M676,410.4v0.4h-0.4v-3.5c0.3,0.1,0.6,0.3,0.9,0.4
			C676.5,408.9,676.5,409.7,676,410.4L676,410.4z M622.6,408.2h0.9v2.6C623.1,410.3,622.9,408.7,622.6,408.2z M620.4,410.8
			c-0.1-0.1-0.3-0.3-0.4-0.4c-0.3-0.1-0.6-0.3-0.9-0.4c0.7-1.1-0.1-0.6,1.3-0.9V410.8L620.4,410.8z M691.4,403.3v4
			c-0.4-0.7-0.4-1.4-0.4-2.6c-2.2-0.1-4.4-0.3-6.6-0.4v-0.9c0.1-0.1,0.3-0.3,0.4-0.4C687.1,402.9,689.8,402.8,691.4,403.3
			L691.4,403.3z M775.4,398.9v0.9h-0.9v-0.9H775.4z M717.2,398c-0.8,0.6-2.2,0.6-3.1,0H717.2z M697.9,398c-0.3-0.6-0.3-0.8-0.4-1.8
			C697.9,396.8,697.9,397,697.9,398z M730.3,391.1v1.3c-1.7-0.1-3.2-0.3-4.9-0.4v-0.9L730.3,391.1L730.3,391.1z M600.7,392.8h-0.4
			v-1.8h0.9c-0.2,0.9-0.1,0.9-0.4,1.3L600.7,392.8L600.7,392.8z M710.5,390.2v1.8h-6.9c0.4-0.3,0.4-0.2,1.3-0.4v-1.8
			C706.8,389.8,708.7,390.1,710.5,390.2z M730.7,386.6v1.3c-0.3-0.4-0.2-0.4-0.4-1.3H730.7z M718.9,378.8v0.4
			c-0.3,0.3-0.6,0.6-0.9,0.9c-0.3-0.4-0.2-0.4-0.4-1.3L718.9,378.8L718.9,378.8z M602,374v0.9c-2-0.8-1.7-0.6-3.5,0.4v-0.4
			c-0.8-0.7,0.2-0.2-0.4-0.9c0.2-1.7,0.2-1.3,0.9-2.2c0.7,0.6,0.6,0.2,0.9,1.3c1-0.4,1-0.8,1.8-1.3C601.9,373.1,600.9,373.3,602,374
			z M719.8,371v1.3h-2.2V371H719.8z M711.4,372.2h-1.3l0.4-0.9c0.1-0.1,0.3-0.3,0.4-0.4C711.4,371.4,711.3,371.3,711.4,372.2
			L711.4,372.2z M557.9,369.7v1.3c1.1-0.7,0.6,0.1,0.9-1.3h1.3c0.1,2.9,2.5,11.5,1.3,14.4c-0.6,0.4-1.2,0.9-1.8,1.3v13.1
			c0.8,6,2,14.1,0.9,20.1c2.4,5.1,0.2,12.6,1.8,19.7c0.6,2.5,1.4,5.1,1.8,7.5c-9.4,0-20.3,0-28.9,1.8c0.2-0.9,0.1-0.9,0.4-1.3v-0.4
			c-20.3,0.1-39.8,2.8-59.6,2.6c0.2-2.6,1.1-2.1,1.3-2.6c0.3-0.9-0.4-5.6-0.4-7.5h2.2c0-1.2,0-2,0.4-2.6v-0.4
			c-1.5,0.3-1.1,0.6-2.6,0.9c-0.1-10.7-0.7-19.7,0-30.2h-1.3c0.1-3,0-16.4-0.9-17.1v-4c4.7,1.3,14.3-0.3,19.7-0.4
			c11.8-0.2,23.5,0.9,35.8,0.9v-6.2c3.5,0.2,8.1,0.4,12.2,0.4v-6.2c4,0,6.9,0.3,12.2,0.4c0-1.4,0.1-3.1-0.4-4v-0.3L557.9,369.7
			L557.9,369.7z M379.6,365.7h-0.9c0-1.2,0-2,0.4-2.6c0.8-0.4,6.4,0.1,7.8,0.4c7.2,0.3,14.3,0.6,21.4,0.9v2.2
			c-6.8-0.1-13.7-0.3-20.5-0.4C385.6,366.1,381.3,366.7,379.6,365.7L379.6,365.7z M574.9,363.5v0.9h-2.2c0.4-0.8,0.6-0.8,0.9-1.8
			C574.5,363,574.2,363,574.9,363.5L574.9,363.5z M568.8,364.4c-1.1-0.3-0.2-0.1-1.3,0c0-1.2,0.3-0.7,0-1.3c0.4-1,0.3-0.7,0.9-1.3
			C568.7,362.4,568.5,363.5,568.8,364.4z M568.4,361.3c-0.9-0.2-0.9-0.1-1.3-0.4c-0.8-0.3-0.4-0.1-0.9-0.4c-0.3-0.4-0.2-0.4-0.4-1.3
			c1.1-0.1,1.4-0.2,2.2-0.4C568.1,359.4,568.3,360.1,568.4,361.3L568.4,361.3z M763.9,349c-0.3-0.8-0.1-0.4-0.4-0.9
			c0.4-0.3,0.4-0.2,1.3-0.4v1.3L763.9,349L763.9,349z M325.8,351.7c0.6-1.2,0.6-1.7,0.4-2.6h2.2v0.4c0.4,0.6-0.1,0.9,0.9,1.8v0.4
			H325.8L325.8,351.7z M767.9,347.3c0.1,1.7-0.2,1.5,0.9,2.2v2.2c-1.7-0.7-4.5-1.5-3.1-4v-0.9C766.5,347.2,766.8,347.3,767.9,347.3
			L767.9,347.3z M338.9,343h0.9v2.6h-3.1c1-1.4,1.8-1.7,1.8-3.1C338.7,342.6,338.8,342.7,338.9,343z M609.5,240.5
			c0.6-1,0.8-1,0.9-2.6c1.3,0.2,3.3,0.2,4,1.3c0.3,0.4,0.2,0.1,0.4,0.9c-0.3,0.4-0.2,0.1-0.4,0.9
			C612.7,240.8,611.1,240.6,609.5,240.5L609.5,240.5z M616.9,240.1H616c0.1-1.9,0.3-3.8,0.4-5.7h4v2.2c1.3,0,2.4,0,3.1,0.4h0.9v1.8
			h1.8c0.1,1,0.1,1.2,0.4,1.8v0.9C623.9,240.6,619.6,241.8,616.9,240.1L616.9,240.1z M652.4,245.8c0.1-1,0.1-1.2,0.4-1.8
			c0.1-0.4,0.3-0.9,0.4-1.3c1.2,0,2,0,2.6,0.4h-0.4c0.1,0.3,0.3,0.6,0.4,0.9c-0.9,0.6-1.7,1-2.2,1.8H652.4L652.4,245.8z
			 M694.4,246.6v-0.9h0.9v0.9H694.4z M699.6,247.9c0.1-0.1,0.3-0.3,0.4-0.4c0.3,0.4,0.2,0.1,0.4,0.9
			C700.5,248.3,698.9,248.2,699.6,247.9L699.6,247.9z M688.7,260.1c-0.2,1.3-0.2,1.4-0.9,2.2c-0.4,0.3-0.1,0.1-0.9,0.4
			c-0.1-0.1-0.3-0.3-0.4-0.4c0.1-1.1,0.2-1.5,0.4-2.2H688.7L688.7,260.1z M570.1,264.1c0.6,0.3,0.9,0.4,1.3,0.9
			C570.4,264.7,570.7,264.9,570.1,264.1z M613.8,267.2c0.1-2.1,0.3-4.1,0.4-6.2c-0.3-0.9-1.9-1.9-1.3-4c0.4-1.9,1.3-1.7,1.3-3.5
			c1.7,0.3,1.8,0,2.6,0.9c1.2-0.7,1.5-1.9,1.8-3.5h1.3c-0.9,3.5-1.7,6.6-1.8,10.5c-0.7-0.2-0.8-0.3-1.8-0.4
			c-0.1,1.9-0.3,3.8-0.4,5.7h1.3c-1.1,0.7-2.1-0.1-3.1,0.4L613.8,267.2L613.8,267.2z M560.4,278.6h1.3c0.9,3.9,0,5.1,0,9.6h-1.3
			V278.6z M451.9,302.2v-2.6c0.9,0.3,1.8,0.6,2.6,0.9c-0.2,0.7-0.3,0.8-0.4,1.8L451.9,302.2L451.9,302.2z M404.7,305.7
			c-0.1,1-0.2,1.1-0.4,1.8c-1.8-0.4-1.4-0.2-0.4-1.8H404.7L404.7,305.7z M392.3,306.6v0.4c-2.1,0.8-9.4,1.1-10.9,0
			c-0.8-0.3-0.4-0.1-0.9-0.4l0.4-0.4c2.2,0.1,4.3,0.2,5.3-0.9C388.2,306,389.6,306.6,392.3,306.6L392.3,306.6z M374,294.3
			c0.2-3.4,0.1-5.5,0-8.7c0.8,0.3,1.4,0.6,2.2,0.9c-0.1,1-0.1,1.2-0.4,1.8v7.1C374.7,294.9,374.8,294.8,374,294.3L374,294.3z
			 M377.4,305.7c-0.6-0.1-1.2-0.3-1.8-0.4c-1.1-1.8,0.2-7.7,0.4-9.2h1.3c-0.1,3.5-1.4,8.6,1.3,10c0,1.4,0.1,3.1-0.4,4v0.4
			C377.5,309.3,378.4,307.1,377.4,305.7L377.4,305.7z M539.5,322.8h2.2C540.9,323.2,540.2,323.3,539.5,322.8z M379.6,327.2v-1.8
			c1.7,0.6,4.3,0.6,5.3,0c0.3,0.4,0.2,0.4,0.4,1.3c-1.7,0-3.9-0.4-5.3,0.4L379.6,327.2L379.6,327.2z M552.2,331.1
			c0.3-4.9,0.6-9.6,0.9-14.4c-0.1-2.8-0.3-5.5-0.4-8.3c0.3-0.1,0.6-0.3,0.9-0.4c0.2-0.9-0.4-3.6-0.4-5.3c0-6.8,0-12.2,0-18.9h1.3
			c0.6,17.5,0.4,29.2,0.4,46.9c-1.1,0-1.7,0.1-2.2,0.4H552.2L552.2,331.1z M566.2,311c0.6,0.6,1.2,1.2,1.8,1.8v1.3
			c-0.9-0.4-0.8-0.7-2.2-0.9C566.3,311.5,566.2,312.7,566.2,311L566.2,311z M564,312.7h-0.9v-0.9h0.9V312.7z M567,310.5
			c-0.6-1-0.1-1.2,0-2.6c0.3,0.1,0.6,0.3,0.9,0.4c-0.4,0.3-0.1,0.1-0.9,0.4c0.6,0.3,0.8,0.3,1.8,0.4c-0.2,0.9-0.8,0.4,0,0.9v1.8
			C567.8,311.4,567.6,311.2,567,310.5L567,310.5z M564.4,310.5c-0.4,0.3-0.4,0.2-1.3,0.4c-0.2-0.9-0.1-0.9-0.4-1.3v-3.1
			C564.5,307.7,563.1,309.2,564.4,310.5z M563.5,317.5h-0.4v-3.1c1,0.3,2.1,0.6,3.1,0.9c-0.2,1.1-0.2,0.7,0,1.8h-0.4
			C565,317.5,564.4,317,563.5,317.5L563.5,317.5z M331.6,339c0.2-0.7,0.3-1,0.4-2.2c0.7,0.6,0.6,0.2,0.9,1.3h0.4v0.9H331.6z
			 M753.5,333.7c-0.8,0.4-1.4,0.6-2.2,0H753.5z M751.7,329.4c-0.3-0.6-0.3-0.8-0.4-1.8C751.7,328.1,751.7,328.3,751.7,329.4z
			 M680.8,325.9v0.4c-0.3,0.3-0.6,0.6-0.9,0.9c-0.3-0.4-0.2-0.4-0.4-1.3H680.8L680.8,325.9z M738.6,313.2v0.9h-4.7v-0.9H738.6z
			 M727.6,313.2v0.9h-3.5v-0.9H727.6z M718.5,300.1v1.3H718l-0.4-1.3H718.5L718.5,300.1z M715.4,300.1c-0.8,0.6-1.9,0.6-2.6,0H715.4
			z M615.1,300.1v1.8h1.8c-0.1,0.8-0.3,1.4-0.4,2.2h1.8v2.2c1.1-1.4,1.1-4.2,2.2-5.7v-0.4h0.4c0,2.4-0.2,4-1.3,5.3v0.9
			c3.2,0.1,4.1-0.7,4-4c0.8,1.2,0.2,2.8,0,4.4c2.2,0,2.6-0.1,3.5-1.3h0.4v1.8h1.8c-1,1.4-1.7,1.4-1.8,4h1.8c0.2,2.8,2.8,5.6,1.3,7.8
			c0.7,1.1-0.1,0.6,1.3,0.9c-0.7,4.3,5,14.6,3.5,17.1c0.7,1.1,0.6,0.8,2.2,0.9c-0.4,0.3-0.4,0.2-1.3,0.4v1.8c-1.4-0.4-0.9-1-1.8-1.3
			c-1.4-0.7-3.1,0.8-4,0.4c-1.2-0.4-0.4-1.4-2.6-1.8v-2.2c-1.7-0.1-1.9,0-2.6-0.9c-2,0.1-2.1,0.2-2.6,1.8h-0.9
			c0.3-0.7,0.8-2.3,1.3-3.1c-0.7-1.5-1.4-1.3-2.6-2.2c-0.4-0.9-0.1-0.6,0-1.8c-0.9-0.2-2.4-0.4-3.1-0.9h-0.4v1.8h1.3v0.4
			c-1.2,0.4-1.3,0.8-2.2,1.3v-0.4c-0.2-0.4,0.4-3.3,0.4-5.3h-1.8v-2.2c-1.2,0-1.9,0.2-2.6,0.4c-0.4,0.1-0.3-0.1-0.4,1.3
			c-1.4-1.3-2.1-2.9-4-2.6c0-3,0.2-2.6,0.4-5.3h2.2v2.2h0.9c0.7-1,1.4-2.2,2.2-3.1v-0.9h-1.8V314c-0.6,0.4-0.9,1.1-1.3,1.8
			c-1-0.1-1.1-0.2-1.8-0.4v-1.8c-1.8,0.3-1.5,0.9-3.1,1.3c-0.1,1.4-0.3,2.9-0.4,4.4h1.8c0,1.3-2.1,8.2-2.2,8.3v0.4
			c-0.3-0.1-0.6-0.3-0.9-0.4v0.4c-1,0.8-1.1,1.1-1.3,2.6c1,0.1,1.1,0.2,1.8,0.4c0.8,0.2-0.1,0.6,1.3,1.3c-0.3,1.2,0.2,0.7-0.9,0.9
			c0.1,1,0.3,2.1,0.4,3.1h-1.3c0.1-0.1,0.3-0.3,0.4-0.4c-0.4-1.9,0.1-0.9-1.8-0.9c0.4-1.2,0.4-1.1,1.3-1.8c-0.4-0.3-0.4-0.2-1.3-0.4
			v-2.2h-1.8c0.1-2.4,0.7-2.6,2.2-3.5c0-1.8-0.2-4.2,0.4-5.3V321H601c0-3.9-0.3-9.9,0.9-11.8c0.1-2.2,0.6-2.2,1.3-3.5
			c4.7,0.2,6.4,0,6.2-4.9c0.8,0.3,0.4,0.1,0.9,0.4c1.2-0.7,1-2.1,0.9-4c0.7,0.2,1.1,0.3,2.2,0.4
			C613.6,299.8,613.6,299.6,615.1,300.1L615.1,300.1z M567.9,302.3h0.4c-0.3,1.1-0.1,0.2,0,1.3H567v-1.3h0.4l0.4,0.4L567.9,302.3
			L567.9,302.3z M624.4,294.8v1.3c-0.6-0.3-0.9-0.4-1.3-0.9h-0.4v-0.4H624.4z M621.8,293h0.9c-0.1,0.1-0.3,0.3-0.4,0.4
			c-0.3,0.8-0.1,0.4-0.4,0.9c-0.9-1.8-1-0.3-0.9-1.8C621.6,292.9,621.3,292.7,621.8,293L621.8,293z M620.9,294.3v4.4
			c-0.1-0.1-0.3-0.3-0.4-0.4c-1.1-1-0.8-3-1.8-4c-2.1-2-3.1-0.8-4-4h2.2C617.7,292.2,619.6,294.3,620.9,294.3L620.9,294.3z
			 M579.3,292.6h-0.4c-0.2-1-0.3-1.1-0.9-1.8c0.4-0.3,0.4-0.2,1.3-0.4V292.6L579.3,292.6z M618.7,290.8c-1-0.3-1-0.4-1.8-0.9
			c-0.3-0.8-0.1-0.4-0.4-0.9v-0.4h2.2V290.8L618.7,290.8z M714.5,289h-0.9c0.1-0.4,0.3-0.9,0.4-1.3
			C714.4,288.3,714.4,288.2,714.5,289L714.5,289z M710.1,286.5h0.9v0.9h-7.5v-0.6c1-0.4,0.8-0.1,1.3-0.9
			C706.6,285.9,709.1,285.7,710.1,286.5L710.1,286.5z M613.8,287.7h-0.4c-0.1-0.4-0.3-0.9-0.4-1.3c0.3,0.1,0.6,0.3,0.9,0.4
			L613.8,287.7L613.8,287.7z M572.7,272c0.6-0.6,1.2-1.2,1.8-1.8h0.4v2.2h1.8v2.6c-1.3-0.9-2.1-2.1-4-2.6V272L572.7,272z M567,276.8
			c-0.2-0.9-0.1-0.9-0.4-1.3V275c-0.3,0.3-0.6,0.6-0.9,0.9h-0.9c0.3-1.5,0.3-1.4,1.3-2.2c0.6-0.3,1.4,0.1,2.6,0.4
			c-0.4,0.3-0.4,0.2-1.3,0.4v0.9c0.8-0.3,0.4-0.1,0.9-0.4c0,0,1.8,0.1,0.9,0.4c-0.1,0.1-0.3,0.3-0.4,0.4h3.1
			c0.1,0.1,0.3,0.3,0.4,0.4v4c1.4,0,3.1,0.1,4-0.4h0.4c-0.2,0.8-0.4,1.3-0.4,2.6h1.8v1.8c-1.2-0.4-1.8-1.4-2.6-1.8
			c-2.3-0.9-2.6,1.2-5.7-0.9c-0.9,3.9-1.3,6-1.3,10c2,0.3,3.1,2.4,4.4,1.8c1.5,0.2,1.1-0.2,1.3,0.9c1.4-0.2,1.9-1.3,2.6-3.1
			c0.1-0.1,0.3-0.3,0.4-0.4h0.4c0,4.2-0.4,5.3-0.4,9.6c-1.7-0.3-3.6-2.1-4-3.1c-2.3,0.2-3.5,1.2-3.5,2.6c-0.9,0.1-1.8,0.3-2.6,0.4
			c-0.4-3.9-1.5-0.4-3.5-4h-0.9c0.8,2.3,2.8,5.6,0.9,8.3v0.9c-0.8-0.8-0.8-1.2-1.8-1.8c0.1-3.6,0.8-10.1-0.9-12.2
			c0.4-0.7,2.8-1.5,4.4-1.8c0.3-1.9,0.3-0.1,0.9-1.8c1-1.3,0.6-4.9-0.4-5.7c0-2.2-0.3-2.5,0.9-2.6
			C566.3,278.4,565.6,277.6,567,276.8L567,276.8z M565.7,300.5c-1.1-0.7-0.6,0.1-0.9-1.3c0.6,0.3,0.9,0.4,1.3,0.9
			C565.9,300.2,565.8,300.3,565.7,300.5z M512.8,224.7c1,0.1,1.2,0.1,1.8,0.4c0.3,0.4,0.2,0.4,0.4,1.3h-3.1v-1.3
			C512.6,224.8,512.3,225.1,512.8,224.7z M505.3,225.6h0.4v0.9c-0.4,0.1-0.9,0.3-1.3,0.4C504.7,226.5,504.9,226.1,505.3,225.6z
			 M542.9,223.8c-0.3,1.3-0.6,2.6-0.9,4h-1.2c0.3-1.3,0.6-2.6,0.9-4H542.9z"/>
		<path class="st0" d="M560.4,230.9h-1.8c0.4,0.6,0.9,1.2,1.3,1.8h0.4L560.4,230.9L560.4,230.9z"/>
		<path class="st0" d="M559.5,235.2h0.9c-0.1-1-0.1-1.2-0.4-1.8c-0.6,0.7-0.2,0.6-1.3,0.9C559,234.7,559.2,235,559.5,235.2
			L559.5,235.2z"/>
		<path class="st0" d="M723.2,237c-0.1-1-0.1-1.2-0.4-1.8c-0.6,0.9-0.9,1-1.3,2.2C722.6,237.3,722.6,237.2,723.2,237L723.2,237z"/>
		<path class="st0" d="M388,246.6c-0.2-0.9-0.1-0.9-0.4-1.3v1.3H388z"/>
		<path class="st0" d="M375.3,247c0.3,0.6,0.6,1.2,0.9,1.8h1.8c-0.4-0.6-0.9-1.2-1.3-1.8H375.3z"/>
		<path class="st0" d="M416.5,247.9c-0.6,0.4-1.1,0.4-2.2,0.4c1.2,1.1,1.8-0.1,2.6,1.3c1.4-0.6,1.3-1,3.1-1.3
			C419.2,247.9,417.8,247.9,416.5,247.9L416.5,247.9z"/>
		<path class="st0" d="M424.3,247.9c0.6,0.3,0.8,0.3,1.8,0.4C425.5,248,425.3,248,424.3,247.9z"/>
		<path class="st0" d="M454.1,251l-1.3-0.4v0.9h1.3V251L454.1,251z"/>
		<path class="st0" d="M284.7,257.6v-1.3c3.8-1.7,8.7-1.4,13.1-1.8v1.3c1-0.7,0.9-0.8,2.6-0.9v-0.4c-0.8-0.2-1.3-0.4-2.6-0.4v-1.3
			c-7.4,0-12.9,0.1-20.1,0.9c0.7,0.7,0.9,0.7,2.2,0.9v1.8h2.2v1.3L284.7,257.6L284.7,257.6z"/>
		<path class="st0" d="M279.4,258v0.9h2.2v-1.3C280.9,257.8,280.6,257.9,279.4,258z"/>
		<path class="st0" d="M324.9,261.5h-0.9c0.4,0.3,0.1,0.1,0.9,0.4V261.5z"/>
		<path class="st0" d="M326.3,263.2h-0.4v0.4h2.6v1.8c1.1-0.7,1.3-1.1,3.1-1.3c-0.3-0.3-0.6-0.6-0.9-0.9c-0.7-0.3-1.7,0.1-2.6-0.4
			C327,262.9,326.8,262.9,326.3,263.2L326.3,263.2z"/>
		<path class="st0" d="M290.9,263.2h-3.5c-0.2,1-0.4,0.9,0,1.8c0.8,0.4,1,0.4,1.8,0c0.4,0.7,0.4,1.8,0.4,3.1h0.4
			c0.3-0.9,0.8-2.3,1.3-3.1C290.7,263.6,290.9,264.4,290.9,263.2L290.9,263.2z"/>
		<path class="st0" d="M389.2,264.5h-0.9v0.9h0.9V264.5z"/>
		<path class="st0" d="M446.6,286.5v-1.8c-0.8-0.3-0.4-0.1-0.9-0.4H444c0.2,1,0.6,1.3,0.9,2.2H446.6L446.6,286.5z"/>
		<path class="st0" d="M564.8,291.2c2,0,1.5,0,1.8-0.9c-0.6,0.3-0.8,0.3-1.8,0.4V291.2L564.8,291.2z"/>
		<path class="st0" d="M564,294.8c0.2-0.6,0.6-1.3,0.9-1.8c-1.1-1-0.9-1.3-2.6-1.8C562.4,293.2,562.9,293.8,564,294.8L564,294.8z"/>
		<path class="st0" d="M573.6,294.3v0.9C574.3,294.8,574.1,295,573.6,294.3z"/>
		<path class="st0" d="M571.8,296.5h-0.9c0.4,0.3,0.1,0.1,0.9,0.4V296.5z"/>
		<path class="st0" d="M566.2,297v0.9h0.9V297H566.2z"/>
		<path class="st0" d="M613.8,317.5h1.3c0-1.7,0.1-2.2,0.9-3.1v-0.9h-3.1C613.7,314.6,613.9,315.4,613.8,317.5L613.8,317.5z"/>
		<path class="st0" d="M304.9,332.8v2.2h1.8c-0.1-1-0.1-1.2-0.4-1.8C305.6,332.9,305.7,333,304.9,332.8L304.9,332.8z"/>
		<path class="st0" d="M779.7,372.6c-1.2,0.7-1.2,1.1-1.3,3.1c1.1-0.1,1.4-0.2,2.2-0.4v-9.2c-0.6,0.4-1.2,0.9-1.8,1.3
			C778.7,370.3,777.9,371.2,779.7,372.6L779.7,372.6z"/>
		<path class="st0" d="M280.3,368.8c0.6-1.2,0.1-0.9,1.3-1.3c-0.6-1.1,0.2-0.3-0.9-0.9c-0.4,0.3-0.1,0.1-0.9,0.4v1.8H280.3
			L280.3,368.8z"/>
		<path class="st0" d="M785.4,390.6c1.1-0.1,1.4-0.2,2.2-0.4v-1.8h-1.3c-0.3,0.6-0.4,0.9-0.9,1.3V390.6L785.4,390.6z"/>
		<path class="st0" d="M472.8,404.6v-0.9H472v0.9H472.8z"/>
		<path class="st0" d="M402,412.9v-1.8h-2.2v1.8H402z"/>
		<path class="st0" d="M394.5,412.9h-0.4v1.8h1.8c-0.1-0.1-0.3-0.3-0.4-0.4C395.1,413.8,394.9,413.3,394.5,412.9z"/>
		<path class="st0" d="M398.1,412.9h-1.8c0.4,0.4,0.9,0.9,1.3,1.3v0.4h-1.8c0.1,1,0.1,1.2,0.4,1.8c0.7,0.6,2.3,1.1,3.1,1.3
			c0.9-1.5,2.5-3,4-4v-0.9c-2.5,0.4-2.3,1.5-5.3,1.8V412.9L398.1,412.9z"/>
		<path class="st0" d="M766.1,412.9h-0.9v4h0.4l0.4-0.4L766.1,412.9L766.1,412.9z"/>
		<path class="st0" d="M392.8,416.4c0.1-0.9,0.4-0.1,0-0.9c-0.1-0.3-0.3-0.6-0.4-0.9h-0.9c-0.6,1-0.6,1.3-0.9,1.8
			c-0.6,0.3-1.2-0.2-2.6-0.4v2.2h4v2.2c2.2-0.1,2.2-0.6,3.5-1.3v-0.4h-1.8C393.7,416.4,394,416.5,392.8,416.4L392.8,416.4z"/>
		<path class="st0" d="M610.7,423c-0.4,0.3-0.1,0.1-0.9,0.4c0.4,0.3,0.1,0.1,0.9,0.4c0.7,0.2,0.2,0.6,0.9,0
			C611.6,423.6,611.8,423.6,610.7,423L610.7,423z"/>
		<path class="st0" d="M612,426c-0.9,0.1,0,0.7,0.4,0.9C612.9,426.2,612.3,426.2,612,426z"/>
		<path class="st0" d="M617.8,426.9c-0.9,0.4-0.8,0.7-2.2,0.9v1.8c1.2-0.4,1.3-0.8,2.2-1.3V426.9L617.8,426.9z"/>
		<path class="st0" d="M156.8,430.9c0.3,2.3,0.6,5.6-1.8,6.5c0.6,0.4,1.1,0.4,2.2,0.4c0.1-3,0.8-4.2,0.9-7.1L156.8,430.9
			L156.8,430.9z"/>
		<path class="st0" d="M745.6,437.5c-0.1,0.1-0.3,0.3-0.4,0.4c0.7,1.1-0.1,0.6,1.3,0.9v-1.3L745.6,437.5L745.6,437.5z"/>
		<path class="st0" d="M153.4,437.9c-0.4,0.4,0.1,0.6,0.4,0.4h0.9C154.2,438.1,154.3,438.1,153.4,437.9L153.4,437.9z"/>
		<path class="st0" d="M753,450.6h0.4v-0.4h-2.6c0,0.2,0.1,0.6,0.3,0.7c0.3,0.1,0.7,0.1,1,0.2C752.4,451,752.7,450.8,753,450.6
			L753,450.6z"/>
		<path class="st0" d="M783.2,456.3V454H781v2.2H783.2z"/>
		<path class="st0" d="M269.3,457.6v0.9C270.1,458,269.9,458.3,269.3,457.6z"/>
		<path class="st0" d="M44.4,468.5c0.3,0.6,0.4,0.9,0.9,1.3v0.4h0.4v-1.8C45.7,468.5,44.4,468.5,44.4,468.5z"/>
		<path class="st0" d="M257.1,490.9c0.7,1.2,0,0.4,1.8,0.4C258.3,490.9,258.1,490.9,257.1,490.9z"/>
		<path class="st0" d="M730.3,509.6c0.4,0.3,0.1,0.1,0.9,0.4v-0.4H730.3z"/>
		<path class="st0" d="M732.5,510.1h-0.9c0.4,0.3,0.1,0.1,0.9,0.4V510.1z"/>
		<path class="st0" d="M517.5,534.7c-0.4,0.4,0.1,0.6,0.4,0.4h0.9C518.4,534.8,518.4,534.8,517.5,534.7z"/>
		<path class="st0" d="M506.6,539v1.3h0.9C507,539.3,507.3,539.6,506.6,539z"/>
		<path class="st0" d="M546,546.5v-2.2h-4c0.1-1.4,0.3-2.9,0.4-4.4h-2.2c0,2.3-0.2,4.3-0.4,6.2c1.7,0,4.2-0.2,5.3,0.4H546L546,546.5
			z"/>
		<path class="st0" d="M502.2,541.2v2.6h1.8c0.1-0.9,0.3-1.8,0.4-2.6H502.2L502.2,541.2z"/>
		<path class="st0" d="M547.7,542.9v-0.4H546v1.8l0.4-0.4C546.9,543.5,547.3,543.3,547.7,542.9z"/>
		<path class="st0" d="M504,546h2.2v-2.2H504V546z"/>
		<path class="st0" d="M599.8,545.2h-0.9c0.3,0.8,0.1,0.4,0.4,0.9v-0.4C599.6,545.4,599.7,545.3,599.8,545.2L599.8,545.2z"/>
		<path class="st0" d="M458.1,549.9c0.4,0.3,0.1,0.1,0.9,0.4v-0.4H458.1z"/>
		<path class="st0" d="M581.1,550.3l0.4-0.4h-0.9c0.3,0.8,0.1,0.4,0.4,0.9L581.1,550.3L581.1,550.3z"/>
		<path class="st0" d="M458.8,550.3c0.9,1,1.1,1,1.8,0H458.8z"/>
		<path class="st0" d="M578.8,550.3c0.1,0.4-0.3,1.5,0.4,1.3C579,550.8,579.8,551.3,578.8,550.3z"/>
		<path class="st0" d="M476.8,551.2c-0.1,0.4-0.3,0.9-0.4,1.3c0.1-0.1,0.3-0.3,0.4-0.4c0.3-0.3,0.6-0.6,0.9-0.9
			C477.7,551.2,476.8,551.2,476.8,551.2z"/>
		<path class="st0" d="M231.3,557.8h1.3v-2.6c-1.1,0.3-1,0.6-2.2,0.9C230.8,557.2,230.8,556.7,231.3,557.8z"/>
		<path class="st0" d="M413.8,556.1c-0.7-1.1,0.1-0.6-1.3-0.9v1.3C413,556.4,413.4,556.2,413.8,556.1z"/>
		<path class="st0" d="M580.6,557.8h1.3c-0.3-1.2-0.9-2-1.8-2.6c0.1,1,0.1,1.2,0.4,1.8L580.6,557.8L580.6,557.8z"/>
		<path class="st0" d="M228.2,557.8c-0.1-1-0.1-1.2-0.4-1.8c-0.4-0.3-0.4-0.2-1.3-0.4c0.2,1.4,0.4,1.2,0.9,2.2H228.2L228.2,557.8z"
			/>
		<path class="st0" d="M219.9,558.3v0.9c0.7-0.8,0.3-1.2,1.3-1.8c-0.7-1.1,0.1-0.6-1.3-0.9C219.6,557.5,219.4,557.4,219.9,558.3z"/>
		<path class="st0" d="M405.9,556.5c-1.3,0.3-0.9,0.3-1.8,0.9v0.9c0.7-0.2,0.8-0.3,1.8-0.4V556.5L405.9,556.5z"/>
		<path class="st0" d="M180.5,557c0.3,0.8,0.1,0.4,0.4,0.9v-0.4c0.1-0.1,0.3-0.3,0.4-0.4H180.5L180.5,557z"/>
		<path class="st0" d="M216.8,558.7h0.4V557h-0.9c0.2,0.9,0.1,0.9,0.4,1.3L216.8,558.7L216.8,558.7z"/>
		<path class="st0" d="M162.6,557.8h-2.2c0.2,2,0.4,1.5,1.3,2.6C162.7,560,162.5,559.7,162.6,557.8z"/>
		<path class="st0" d="M400.3,560.5v1.8c-3.5-0.1-7.8-1-7.8,1.8c-0.8-0.3-0.4-0.1-0.9-0.4h-4.4c-0.4,2.1-0.4,2.8-0.4,5.3
			c6.2,0,9.6-2.3,15.3-2.6v1.3c1.9,0.1,3.8,0.3,5.7,0.4v-1.3c1.3-0.2,1.1-0.1,1.8-0.9h1.8c-0.4,1-0.3,1.2-1.3,1.8v1.8
			c3.8-1.1,5.5-5.3,9.2-6.6c-0.9-1.7-1.8-1.2-2.2-3.5c-2.2-0.1-4.4-0.3-6.6-0.4v2.2h-2.2v-2.2c-0.9-0.2-0.9-0.1-1.3-0.4h-0.4v2.2
			L400.3,560.5L400.3,560.5z"/>
		<path class="st0" d="M479.5,561.8h1.3c-0.7-1.2-1.3-1.2-3.1-1.3C478.3,561.5,478.7,561.1,479.5,561.8z"/>
		<path class="st0" d="M454.5,560.9c-0.3,0.4-0.2,0.4-0.4,1.3h1.8C455.3,561.3,455.2,561.6,454.5,560.9z"/>
		<path class="st0" d="M358.7,561.4c-0.2,0.8-0.4,1.3-0.4,2.6C359.7,563.1,359.5,562.4,358.7,561.4z"/>
		<path class="st0" d="M468.5,568.3c-2.8,0.1-2.8,1.1-4.4,2.2v2.2h1.8v4c1-0.1,1.2-0.1,1.8-0.4c0.3-0.4,0.2-0.4,0.4-1.3h1.3
			c0.1,1.1,0.2,1.5,0.4,2.2h2.2c0.1-1.4,6.7-10.3,7.8-11.4c-0.1-1-0.1-1.2-0.4-1.8c-1.2-0.8-7.6-1.8-9.6-1.8
			c0.1,1.9,0.3,3.8,0.4,5.7C469.2,568,469,568,468.5,568.3L468.5,568.3z"/>
		<path class="st0" d="M479.9,563c-0.3-0.8-0.1-0.4-0.4-0.9v0.9H479.9z"/>
		<path class="st0" d="M230.4,562.6v0.9h0.9v-0.9H230.4z"/>
		<path class="st0" d="M367,575.4c0.3-0.4,0.2-0.4,0.4-1.3c1.4-0.2,1.8-0.4,2.2-0.4c2-0.9,1.7-2,3.1-4c-0.3-1.1-0.6-1-0.9-2.2
			c-2.8-0.3-4.1-1.5-6.6-1.8v1.3c-1.1,0.4-1.1,0.4-1.8,1.3h-2.6c0-1.1,0-1.7,0.4-2.2c-0.4-0.3-0.4-0.2-1.3-0.4
			c-0.2,1.3-0.2,1.4-0.9,2.2c-1,0.6-0.9-0.4-2.2,0c-1.9,0.7-1.4,2.2-4.9,2.2c0.2-0.9,0.1-0.9,0.4-1.3v-0.9c-2,0.3-3.8,3.4-5.7,4.9
			c2.2,3.3,8.1-0.1,11.8,1.8c0.6,0.6,1.2,1.2,1.8,1.8C361.1,577,364.9,573.9,367,575.4L367,575.4z M364.3,568.8v-0.9
			c0.8,0.3,0.4,0.1,0.9,0.4h0.4v0.9C365.2,569.1,364.8,568.9,364.3,568.8z"/>
		<path class="st0" d="M452.3,567.4c0.6-0.4,1.2-0.9,1.8-1.3c-0.4-0.3-0.4-0.2-1.3-0.4C452.6,566.3,452.4,566.4,452.3,567.4z"/>
		<path class="st0" d="M445.3,581.4c-0.1-0.3-0.3-0.6-0.4-0.9c2.5-1.3,5.7-2.9,8.7-3.5v-1.2c3.6-0.1,3.4-1.7,6.2-2.2
			c-0.6-0.6-1.1-1-1.8-1.3c0.9-0.6,1.2-0.2,2.2,0v-4h2.2c-0.2-0.9-0.1-0.9-0.4-1.3v-0.9c-1.7,0.1-4.2,0.2-5.3-0.4
			c-2.6,1-3.2,3.4-6.6,4c-0.3,2.3-0.8,1.8,0,4c-2.9-1-8.7-0.8-11.8-0.9v1.3c-1.1-0.4-1.1-0.4-1.8-1.3H436v1.8h-2.2v3.5
			c2.6-1.3,5,1.3,8.3-0.9c0.3,0.4,0.6,0.9,0.9,1.3c0.9,1.3,0,4.2-1.8,5.3c0.6,1,1,0.7,1.8,1.3c0.4-0.6,0-1.9,0.4-2.6
			C443.7,582,445.2,581.9,445.3,581.4L445.3,581.4z"/>
		<path class="st0" d="M465,566.1h-0.9C464.8,566.7,464.5,566.9,465,566.1z"/>
		<path class="st0" d="M441.9,569.6c0.3-0.4,0.1-0.1,0.4-0.9c-0.3-0.3-0.6-0.6-0.9-0.9c-1.2,0.4-1.1,0.8-3.1,0.9v2.2
			C440.5,571.1,441.2,571.2,441.9,569.6z"/>
		<path class="st0" d="M577.1,578.4v0.9h2.2v-1.3c0.1-0.1,0.3-0.3,0.4-0.4h1.8v-1.8c-1.3-0.1-2.6-0.3-4-0.4
			C577.6,577.4,578.1,577.4,577.1,578.4L577.1,578.4z"/>
		<path class="st0" d="M458.8,577.5h0.4c-0.2-1.3-0.1-1.1-0.9-1.8c0.2,0.9,0.1,0.9,0.4,1.3V577.5L458.8,577.5z"/>
		<path class="st0" d="M576.6,579.2c-1.8-0.1-3.5-0.3-5.3-0.4v1.8h-4c-0.2,0.9-0.1,0.9-0.4,1.3c0.4,0.3,1.7,0.7,2.2,0.9
			c0,1.3,0,2.4-0.4,3.1v0.9h2.2c0-1.3-0.1-2.8,0.4-3.5c1.3-1,3.5-2,5.3-2.2V579.2L576.6,579.2z"/>
		<path class="st0" d="M561.3,585.9c-0.3-0.4-0.2-0.4-0.4-1.3c-1.5,0.3-2,0.6-3.1-0.4c-0.6-0.8-0.4-2.5-0.4-4
			c-0.8-0.3-0.4-0.1-0.9-0.4h-0.9v2.2h-2.2v1.8h1.8v3.5c3.2,0.4,6.4,0.9,9.6,1.3c0.1-2.1,0.3-4.1,0.4-6.2
			C563.3,582.8,562.2,584.4,561.3,585.9L561.3,585.9z"/>
		<path class="st0" d="M595.9,581.9l1.3-0.9v-0.4h-1.8v1.8C595.6,582.2,595.7,582,595.9,581.9z"/>
		<path class="st0" d="M555.1,588.1c-0.3,0.4-0.2,0.4-0.4,1.3h2.2v-1.8C555.9,587.7,555.7,587.6,555.1,588.1L555.1,588.1z"/>
	</g>
</g>
</svg>
