<?xml version="1.0" encoding="utf-8"?>
<!-- Generator: Adobe Illustrator 26.3.1, SVG Export Plug-In . SVG Version: 6.00 Build 0)  -->
<svg version="1.1" id="Layer_2_00000005984862980930211950000015033181552830456480_"
	 xmlns="http://www.w3.org/2000/svg" xmlns:xlink="http://www.w3.org/1999/xlink" x="0px" y="0px" viewBox="0 0 800 800"
	 style="enable-background:new 0 0 800 800;" xml:space="preserve">
<style type="text/css">
	.st0{fill-rule:evenodd;clip-rule:evenodd;fill:#FF582B;}
</style>
<g id="Layer_1-2">
	<g>
		<path class="st0" d="M605.3,116.1c-0.4-0.5-1.2-0.3-1.6-0.7c-0.5-1-1.1-2-1.6-3c-0.9-0.1-2.9-0.7-4,0c-0.6,0.2-0.3,0-0.7,0.3
			c1.1,0.4-1.8,1.3-2,1.6c-1,1.7,1.7,2.8-1.3,4c0.8,1.8,0.9,4.9,1.3,5.3c-0.3,2-0.5,0.5-2,1.3l-1,0.3v1c0.6-0.3,0.9-0.5,1.6-0.7
			c0.5,0.6,0.7,0.7,1,1.6c0.3,0.3,0.1,0.1,0.3,0.7l-0.3,0.3c-1.4,0-2,0-2.6-0.7c-2.5,0.4-3.4,2-4.9,3.3c-1.1,0.6-6.2-3.3-6.2-4.9
			c-2,0.3-3.1,1.6-3.6,3.3c0.7,0.7,1.3,1.9,1.6,3c0.3,1.1-1.3,4.7-0.3,5.9v1.6l-1,0.3c-0.4-0.4-0.8-0.7-1.3-1v-1.3
			c-0.5,0-2,0.3-2,0.3c-0.7-0.4-0.1-1.5-1.6-0.7c-2.1,0-2.1-0.5-3.3-1.3v-1c-2.1-0.4-5-1.7-6.9-2.6c-0.3,0.6-0.4,0.5-0.7,1.3
			c-0.6,1.3,0.6,0.4,1,1.3c-0.2,0.8-0.4,1.5-0.7,2.3c0.1,0.2,1.1,1,1,1.3c-0.3,0.3-0.7,0.7-1,1c0.3,1.4,0.2,1.2,1.6,1.3
			c-0.2,0.4-0.4,0.7-0.7,1c0.1,1.2-0.2,0.9,0.7,1c0.4,3.7,2.6,6.4,4.3,9.5c0.4,0.8,0.1,1.7,0.7,2.6c0.2,0.4,1.1,0.5,1.3,1
			c0.4,1-1,0.6,0,1.6c-0.5,1-1.9,1.7-3,2c-0.6,0.2-1.6,0-3.3,0c0.4,2.5,1.4,1.7,0.7,4c0.7,0.6,1.2,1.2,2,1.6v1.3h1v0.7
			c0.3,0.7-0.1,0.9,0,2c-0.8,0.3-1.1,0.5-1.6,1c-3.3-0.4-7.2-1.6-9.2-0.7c-0.7-1.3-3.1-2.4-2.3-4c0.5-1.1,3.1-2.3,4.3-2.6
			c-0.2-1.3,0.1-2.6-0.7-3.6c-0.9-2.2-2.3-0.3-4-1.6c-0.4-0.3-0.2-1.4-0.7-1.6c-1.1-0.6-1.6,0.1-2.3-0.7c-2.7,0.2-3.2,1.4-5.3,2
			c0.2,0.8,0.4,1,0.7,1.6c-0.7,0.4-0.6,0.5-1.6,0.7c0.8,0.6,2.4,0.9,3.6,1c0.7,2.8,0.9,3.8,2.6,5.6c0.1,0.1,0.1,1.6,0.3,2.6
			c-0.6,0.3-1.5,0.6-2,1c-0.2-0.4-0.2-0.3-0.3-1c-1.2,0.3-1.5,0.8-2.3,1.3c-0.3-0.1-0.2,0.1-0.7-0.7c-1.3,0.2-1.5,0.5-2.3,1v1.3
			c0.5-0.4,1.1-0.9,1.6-1.3h0.7c-0.6,0.8-0.7,1.1-2,1.3c1.1,4.2,5.4,6.3,7.9,9.2l0.3,0.3h-0.3c0.7,1.1,1.5,0.7,2,2.3
			c0.6-0.2,0.3-0.1,0.7-0.3h0.3l-0.3,0.3c1,2,3.6,2.3,5.3,3.6c0.4,0.3,0.3,1.3,0.7,1.6c2.8,2.3,6.1,2.5,7.9,5.9
			c-0.2,0.2-0.4,0.4-0.7,0.7c-0.6,0.3-1.2-0.4-1.3-0.3c-0.7,0.7-0.6,1.1-1.6,1.6c0.1,2.5,0.5,3.5,1.3,5.3c-1.2,0.6-1.1,0.5-1,1.6
			c-1.6-0.3-3.1-1-4.6,0c-0.2,0.4,0.1,1.1,0.7,1.6c-0.5,0.5-1.2,0.7-1.6,1.3c-0.6-0.2-0.3-0.1-0.7-0.3c0.1-0.3-0.1-0.1,0.3-0.3
			c-0.2-1.5-0.5-1.7-1.6-2.3c0.4-0.2,0.3-0.2,1-0.3c0.7-0.3,0.4-0.3,1,0.3h0.7c0.1-1.5,0.5-1.5-0.3-2.3c0.3-1.2,0.5-1.2,1.3-1.6
			c-0.1-1.6-0.4-1.9-1.6-2.3l-8.9,0.7c-0.3,0.2-0.3,1.5-0.7,0.7c-0.6,0.2-0.7,0.6-1.3,1.3l-0.3,0.3h0.3v0.7c0.9-0.3,1.1-0.3,1.6-1
			h0.3c0.7,1.4,0.9,3.6,1.6,4.6v0.3c-2.4,0.6-2.3,1-4.6-0.3c-0.1,0.3-0.2,0.7-0.3,1c-0.5-0.3-0.9-0.6-1.3-1c-2,2-2.6,3.5-4.3,5.3
			h-0.7c-0.6,0.3,0.7,0.3,0.7,0.3c-0.9,1.7-3.8,1.9-5.6,2.6c-0.4-0.8-0.8-1.3-1-2.3c-0.8,0.4-1.1,0.7-2,1v0.3c0.6,0.3,0.8,0.6,1.3,1
			c-0.2,1.4-0.4,2-1.3,2.6v0.3c0.9-0.1,1.1-0.1,1.6-0.3c0.1-1.1,0.1-0.5,0-1.6c0.3,0.3,0.1,0.1,0.3,0.7c1,0,1.8-0.4,2.6,0
			c0.3-0.4,0.3-0.8,0.3-1.6c0.9,0,0.5,0.2,1,0l1,0.3c0.1,1.1,0,1.1,0.3,2c-0.8,0.6-1.2,1.7-2,2.3c-1.2,0.8-3,0.5-4.3,1.3h-0.7
			c-0.4-1.5-0.4-1.2-0.3-3c-1.3,0.3-0.9,0.4-1.6,1c-0.6-2.2-2.2-3.8-3-5.6c0.3-1.5,0-2.6-1-3.6l-6.9-1.3c-0.2,0.2-0.4,0.4-0.7,0.7
			h-0.7c0.1-1.8,0.2-1.4,1-2.6c0.1-0.1,0-2,0-2c-0.7-1.2-1.3-0.8-3-0.7v-1c-1.7,0-2.2,0.3-3.3,0.7c0.1,0.7,0.1,0.6,0.3,1
			c-0.6,1.1-0.6,0.1-1.3,1c-1.4-0.3-1.5-0.8-2-2c-1.9,0.1-3,0.6-4,1.6c-1,0.6,0.2,1.4-0.7,2.6c-0.4,0.6-2.1,0.7-1.3,1.3l-0.3,0.3
			c-0.5,0.3,0,0-1,0c-0.8,1.9-1.4,1.2-2,2.3l0.2,1c0.1,0.1,0.1,0.2,0.1,0.3l-0.1-0.3c-0.5-0.7-3.1,2.5-3.2,2.7
			c-2.3-0.1-2.3-0.8-3.6-1.6c-0.6-0.6-0.8,0.8-2,0.3c-0.5-0.2-1.5-1-2.3-1.3c-1.3,1.6-5.4,5-3.3,7.2c-0.5,1-1.3,1-2,1.6
			c-1.3-0.2-0.9-0.5-1.6-1c-1.6,0.7-0.7-0.4-2,0c-0.4,0.1-1.3,1.2-1.6,1.3c-1.4,0.4-1.6-1.7-3.6,0c-0.3,0.5,0,0,0,1
			c-0.9,0.2-1.8,0.1-2.3,0.3c-0.6-0.5-0.4-0.7-1.3-1c0.9-1.3,1.1-1.3,1-3c2.5-0.7,4.1-2.3,5.6-4h0.3c-0.3-1-0.7-1.2-1-2.3
			c-1.6-0.1-3.3,0.3-4.3,1.6c-0.4,0.2-0.2,0.1-0.3,0.3c-0.4,0.7-0.5,0.5-1,1c-1.1-0.5-2-2.4-2.3-3.6c-0.3-0.6,0.3-0.4,0-1
			c0.4-4,5.2-2.9,7.6-4.9c0.2-0.2,0.9-2,0.7-2.6v-1.3c-1.6,0.2-2.7,0.1-4,1.3c-0.2-0.2-0.8-2-1-3c0.9-0.9,1.7-2,2.6-3h0.7
			c-0.4-0.2-0.3-0.2-1-0.3c-0.2-1.3-0.5,0-0.3-1.3c-1.3,0-1.4,0-2,0.7c-0.8-0.1-0.8-0.2-1.3-0.3c-0.1-0.8-0.1-0.9-0.3-1.3v-1.3
			c0.6,0.2,0.3,0.1,0.7,0.3h0.7c-0.4-1.2,0.4-1.8-0.3-2.3c0.1-1.8,0.8-2.3,2.3-2.6c0.2-1.6-0.3-2.2,0.3-3.3l-1-0.3
			c0.4-3.1,1.8-4.6,3-6.2c-0.1-0.3-0.2-0.7-0.3-1c0.7-0.3,1.3-0.7,2-1c-0.1-0.3-0.2-0.7-0.3-1c0.7-0.2,1.3-0.4,2-0.7
			c2-2.4,0.6-4.9,3.6-5.9c-0.5-1.1-0.6-2.6-1-3.3c2.1-2.1,4.5-3.8,6.6-5.9c1.6,0.1,2.3,0.6,3,1.6h0.7c-0.2-0.6-0.1-0.3-0.3-0.7v-1.3
			c0.9,0.5,1.3,0.5,1.6,1.6c0.8-0.5,0.9-1,1.3-2c0.2,0.2,0.4,0.4,0.7,0.7c1.4-0.5,1.3-0.4,1.3-1.6c1.2,0.8,3.1,1.8,4,3h0.7
			c-0.1-0.7-0.2-1.3-0.3-2c1.3,0.4,1.2,0.8,2,1.6c-0.2,1.3-0.4,1.5-1,2.3l0.3,0.3c1.2-0.2,2.1,0.1,3-0.7c1,0.4,2.3,1.5,2.6,2.6
			c0.3,0.3,0.1,0.1,0.3,0.7c-0.4,0.2-0.7,0.4-1,0.7l-0.3,0.3c1,0.8,1.5,1.6,3,2c0.3-0.3,0.1-0.1,0.7-0.3c-0.3-0.8-0.1-0.5-0.7-1
			v-0.7c0.7,0.4,1.7,0.8,2.3,1.3c0.1-0.1,2.4-2,2.6-2.3c0.3-0.5-0.1-1,0.3-1.3c1.2-1,7.2-4,8.2-4.3v-1c1.5-0.2,1.1-0.2,1.2-0.6
			l-2.2,0.3c0.2-0.2,0.4-0.4,0.7-0.7h1.6v0.1c0.1-0.1,0.2-0.3,0.3-0.4c0.7-0.8,2.1-0.7,3-1.3c-0.8-0.6,2-3.1,2.3-4
			c0.4-1.3-0.1-1.5-0.3-3h-1.3v-0.3c0.8,0.1,0.9,0.1,1.3,0.3c0.2,0.4,0.2,0.3,0.3,1c0.6-0.1,3.3-4.5,2.6-5.6c0.4-0.4,1-0.5,1.6-0.7
			c-1.3-2.9-0.6-2.8-3-4.9c0.5-0.2,0.1-0.4,0.7,0c0.5-0.2,1-1.2,1.3-2.3c-2.3-1.1-4.2-3.2-6.6-4.3c-0.3-0.3-0.1-0.1-0.7-0.3
			c-0.4,0.4-0.6,0.5-1.3,0.7c0.2,0.2,0.4,0.4,0.7,0.7v1l-0.3-0.3c-0.9-0.5-0.3,0.1-0.3-1c-1.2,0.4-1.7,0.1-2.6,0.3l-5.3,4.3
			c-0.6,0.2-0.3,0.1-0.7,0.3c1,0.3,1.7,1,2.3,1.6h0.3v0.3h-1.3v-1c-1.7-0.2-2.1-1-3.3,0h-1.3c0.1,0.3,0.2,0.7,0.3,1
			c-0.9-0.2-1,0.2-2.3,0.3c-0.1,0.8-0.1,0.9-0.3,1.3c-0.8,0.4-1.5-0.2-2-1c-0.5,0.5-1,1.1-1.3,1.6c-1.3-0.2-1.7-0.5-2.6-1
			c-0.5,0.5-0.8,0.8-1.6,1c-1.3,0.4-1.8-1.3-3.6-1.6c-0.2-0.9-0.5-1.4-1-2c0.6-0.3,0.8,0,1.3-0.3c0-0.4-3.8-4.5-2.3-4.9
			c0-0.7-0.2-0.4-0.3-0.7c0-2.4-1.3-3.4-2.6-4.3v-0.7c0.8,0.3,0.5,0.1,1,0.7c0.3-0.3,0.1-0.1,0.3-0.7c0.3-0.3,0.1-0.1,0.3-0.7
			c-1.2-0.7-3.1-1.6-4-2.6h-0.3c0.1,0.7,0.2,1.3,0.3,2c-2.3-1.6-3.9,0.6-5.6-0.3c-0.3,0.4,0,1,0,1c-0.7,0.1-1.3,0.2-2,0.3
			c-0.7,0.7-1.3,1.3-2,2v1c-0.7,0.2-1.3,0.4-2,0.7v1.3c-0.7,0.2-1.3,0.4-2,0.7v1.3c-1.1,1.3-2.3,0.2-2.6,2.6c-1.3,0-0.9-0.3-2-0.3
			l0.7-1c0.2-0.5,0.1-0.4-0.3-1c0.4-0.2,0.3-0.2,1-0.3c-0.3-1.3,0-4.5,1.3-5.3c-0.5-0.4-1.6-0.4-2.6-0.3c0.6-0.4,1.7-0.6,2.6-0.7
			c-1.3-2.1-2.7-7.6-1.6-9.9l-0.3-0.3c-0.8,0.1-0.9,0.1-1.3,0.3c-3.2,0.4-5.2,12.3-7.9,13.8c-0.7,0.3-1.4,0-2-0.7
			c-0.2-0.4-0.2-0.3-0.3-1c-0.9-0.1-1.1-0.1-1.6-0.3c0-1.4,0.8-2.4,0-3.3c0.3-1.2,0.2-1,1.3-1.3c0-4.6-1.3-5.5-2.6-9.2
			c-1.2,0-2.6,0.1-3.3-0.3c-3.7,2.1-3.8,7.4-8.2,8.6v1.3c-2.2,0.3-6.2,0.3-7.9-1c-0.7,0.1-0.6,0.1-1,0.3h-0.3
			c0.1,0.2,0.2,0.4,0.3,0.7h-0.3c-1.1,1.4-7.4,4.9-9.2,5.6c0.3,0.9,0.5,0.7,1,1.3c-1.3,0.7-2.2,2.1-3,3.6c0.6,0.1,0.1,0.3,0.7,0h0.3
			c-0.9,1.3-1.9,3.1-2.6,4.6c0,0.4-0.2,0.2,0.3,0.7c-0.6,0.7-0.8,0.4-1,1.6c-1.2-0.4-1.5-0.3-2.6-1c-0.4-0.5-2.1,0.9-2.3,1
			c-0.8,0.3-0.5,0.1-1.3-0.3l-0.3,0.3c-0.2,0.8-0.1,0.2,0,1c-4.3,1.7-7.4,7.7-9.5,7.6v1.6c-0.5,0-1.3-0.4-1.3-0.3v0.7
			c-0.8,0.5-0.8,0.2-1.3-0.3c-0.4,0.6-0.2,1-0.3,1.3l-0.3,0.3c-0.4,0.6-0.2,0-0.7-0.3c-1.1-0.3-4,0.7-5.3,2l-0.3,0.3h0.3
			c-0.3,0.7-1.9,0.9-2.6,2c-0.7,1-0.9,1.8-1.6,2.6v0.3l-1.3,0.3c0.1,0.3,0.2,0.7,0.3,1c-0.3,0.5-2.3,1.7-2.6,2.3
			c-0.5,0.8-0.3,1.9-1,2.6c-0.4,0.4-1.2,0.3-1.6,0.7c1,0.9-2.6,3-3,3.6v1.6c-0.4,0.7-2.5,1.9-3,2.6v1.3l-1.3,0.3
			c-0.7,0.6,0.5,0.8,0,1.3c-0.7,0.2-1.3,0.4-2,0.7c0,0,0,1.1-0.3,1.6l0.7,0.3c1-1,2.7-1.2,3.6-2.3l0.7,0.7c0.4-0.6,0.4-1,0.3-1.3
			v-0.7c1.6,0.2,1.7,0.7,1.3,2c1-0.4,0.8-0.1,1-1.3c0.7,0.4,1.9,1.3,2.3,2c0.3,1.1-2,3.7-0.3,5.6c0.6,0.9,0,0.5,1,0.3
			c0.9,1.9,2.2,5.1,3.3,6.2v0.3c0.3-0.4,0.3-0.5,0.3-1.3c0.3,0.3,0.4,0.6,0.7,1c4.1-0.4,9.7-6.5,11.5-3c1.2-0.5,0.5-1,1.3-1.6h1.3
			c0.5-0.4,0.3-1.1,0.7-1.6c1.1-1.5,6.2-3.6,7.9-3.6v-1c0.5,0.4,0.7,0.6,1,1.3c0.4-0.2,1-0.4,1.3-0.7h0.3c-0.8,3.9-1.6,5.9-2.3,8.9
			c-0.2,0.9,0.3,2.3,0.3,2.6c0,0.9-0.9,1.1-1,1.6c-0.2,1.1,0.7,1.1,0.3,2c-0.1,0.9-0.1,1.1-0.3,1.6c-1.3-0.2-1.7-0.5-2.6-1
			c-0.2-0.2-1.4,0.2-2,0.7c-0.6,0.4,0,0.2,0.3,0.7c-0.9,0.7-1.7,1.5-2.6,2.3h-0.3v1.3c-1.2,2.9-1.6,7.9-5.3,8.9
			c0.3,0.6,0.8,0.6,0.3,1c-0.4,1.6-1,1.1-1.3,2.6c-0.2-0.2-0.4-0.4-0.7-0.7v0.3h-0.3c0.2,0.2,0.4,0.4,0.7,0.7c0,2-0.4,1.7-1.3,2.6
			c-0.4,0.5-0.3,1.1-0.3,2c-2.5,1.2-13.1,2.2-14.8,2c-0.9-0.1-2.9-1-4.3-1c-1.2,0-2.7,1-4.3,0.7c-1.4-0.3-5.7-1.2-6.9-0.7
			c-0.2,0.3-0.4,0.7-0.7,1c-1-0.1-2-0.2-3-0.3c0.3-1.7,0.5-1.2,0-2.6c1.5-0.8,2.9-2.4,3.6-4l-1-0.3c-0.9,0.9-3.2,2.6-4.3,3.3
			c-0.5-1-0.9-2.2-1.6-3c0.2-1,0.8-2,1-2.3c0.7-1.1,4-2.8,5.6-1.3h0.7c-0.4-1.5-0.7-1.2,0-2.3c-1-0.7-1.2-1.2-3-1.3
			c-0.2-0.6-0.1-0.3-0.3-0.7c0.2-2,0.7-1.6,1-3.3c0.6-0.2,0.3-0.1,0.7-0.3c1.2,0.2,0.9,0,1.3,1c0.3,0.6,0.2,0.7-0.3,1.3
			c0.4,0.8,0.3,0.6,1,1v0.3c1.4-1.4,2.1-3,4-4l0.3-2.6c-0.1-0.2-1.2-0.4-1.3-0.7c0,0-0.2-2.5,0-3c0.4-1.2,2.5-2.8,3.3-4.6
			c-0.4-0.3-0.9-0.7-1.3-1c-0.5-0.2-0.4-0.1-1,0.3c-1.5-0.3-1.2-0.8-2-1.6c-0.5-0.2-0.1-0.4-0.7,0c-2.7,0.4-3.1,3-5.3,4
			c-0.1,2.6-0.5,3.6,1,4.6c-0.4,1.8-2.6,3.1-4,4c-0.3-0.6-0.5-0.9-0.7-1.6l-0.3,0.3c-2.5,1.3-0.5,3.6-1.6,5.6v0.7
			c-0.7-0.2-0.4-0.3-1,0c-0.5-0.5-0.8-0.8-1-1.6c-0.9,0.5-0.9,1.7-1.6,2.3l-1.3,0.3v1.3c-0.7,0.8-2.7,0.8-3.3,1.6l0.3,1l-1.3,0.3
			c-0.6,0.5-0.2,1.6-0.7,2.3c-0.4,0.7-1.4,0.5-2,1c-0.8,0.6,0.5,0.6,0,1.3c-1.5,2.2-4.3,2.9-6.6,3.6c-1.4,0.1-2.9,0.2-4.3,0.3V222
			h-0.7c-1,0.1-3.3,1.4-5.3,0.7l-0.7-1c-0.7-0.2-1,0.6-1.3,0.7c-1.8,0.5-5-1-5.6-2c-0.1-0.1-1.6-6.2-1.6-6.2c0.1-0.2,0.8-0.4,1-0.7
			c0,0-1-4.4-1-4.6v-0.3c0.5-0.8,0.1-0.8,1-1.3c-0.3-0.9-0.4-0.8-0.7-1.6c-1.2,0.1-1,0.2-1.6,0.7c-0.6-1.3-1.4-3.4-1-4.3
			c-0.3-2.8-0.9-1-3-2c-0.6-0.3-1-1.5-1.6-2c0-2,0-2.2,0.3-3.3l-0.7-0.7c-0.6-0.5-0.8,0.7-2,0.3c-0.3-0.1-0.9-0.8-1.3-1
			c0.1-1.4,0.3-2,0.7-3l-0.3-0.3c-1.7,0.3-3.5,1.3-4.6,2.3c-1.5-0.3-3-1.1-4.6-1.6c-1.3,1.8-7,4.3-9.2,5.3c-0.4-0.8-0.8-1.3-1-2.3
			c-0.3-0.8-0.1-1,1-1.3c-0.6-1-1.3-4-1-5.3c-0.6-0.3-0.9-0.4-1.3-1c-0.9,0.3-1.1,0.3-1.6,1c-0.8-0.1-0.8-0.2-1.3-0.3
			c0-1,0-2.1,0.3-2.6v-2.3c-0.8,0.3-0.5,0.1-1,0.7h-0.3v-0.7c0.9-0.4,0.4-0.3,1.3-0.3c-0.6-1.5-1.5-2.4-2.3-3.6
			c-1.4-0.1-2.9-0.2-4.3-0.3c-0.1,0-5.2,2.9-5.3,3l0.3,1c-0.7,1-2.7,2.4-4,3c-1.1-2.1-2.1-4-2.3-6.9c-1.6,0.4-2,0.9-2.6,2.3H274
			c-0.4-1.6-0.8-2.5,0-4h-0.3c-0.5-0.3-0.8,0-1.3,0.7c-1.3,0.6,0,1.2-1,2.3l-1.3,0.3c0.9,0.8-5.4,5.8-5.6,6.6v0.3
			c-0.2,0.2-0.4,0.4-0.7,0.7h-0.7c-0.4,0.2-0.3,0-1.3,0c-0.4-1.5-0.5-1.1,0-2.3l-0.7-0.7c-0.7,0.1-0.6,0.1-1,0.3h-0.7
			c0.4-0.5,0.4-0.3,0.7-1c-1.5-1.5-3.7-2.2-4.3-4.6c-0.7,0.3-1.5,0.8-2,1.3h-2.3c0.7,0.3-0.3,2.7-0.7,3.3c-1.2,2-3.7,3.2-4,5.9
			c-0.3-0.3-0.1-0.1-0.3-0.7c-1,1.1-2.1,2.4-3,3.6c-0.7-0.1-0.6-0.1-1-0.3c-1.7-0.1-2.9-1.2-2-2.6c-1.1-0.8-2-0.3-2.6-1.6
			c-1.9,0-1.6-0.3-1.6,1c-1.3,0.7-2.6,1.3-4,2c-0.1,0.2-4.6-1.1-5.6-0.3c-1.5-0.5-1.3-1.6-2.3-1.6c0.2-0.4,0.4-0.7,0.7-1v-0.7
			c-3.1,0.6-1.9,3.2-4.3,4.3c-0.3-0.1-0.1,0.1-0.3-0.3c-0.9,0.5-0.3-0.1-0.3,1c-3.1,1.6-5.4,4.5-8.2,5.3l0.7,0.7
			c-3.8,3.8-3.5,5.1-5.9,10.5c-0.5,1.1-1.9,2.3-2.3,3.3l0.3,1.3h-0.7l-0.3,2c-0.4,0.4-0.9,0.9-1.3,1.3l-0.3,2h-0.7l0.3,1
			c-1.5,2.1-1.3,2.7-2.6,4.9c-0.9,1.5-3.3,4.6-3,5.6c-0.7,0.2-1.3,0.4-2,0.7l0.3,1c-0.5,0.6-1.1,1.3-1.6,2c0.2,1.1,0.4,1,0.7,2
			c0.4,0.3-1,2.2-1,2.6c0.4,0.9,4.6,4.8,5.6,5.6c0.6,0.5,1.2,0.1,1.6,0.7c0.5,0.7,2.5,8.2,2.6,9.9c0.1,0.8-0.8,0.6-0.7,1
			c0.5,1.2,2.2,2.9,0.7,4v0.3c0.4,1,1.3,1.9,1.6,3.3c-0.9,0.8-1.3,1.3-2.6,1.6c-0.1,2.5,0.5,4.6-0.3,6.6c-0.3,0.7-1.2,1.5-1.3,2
			c-0.3,1,0.7,0.8,0.3,1.6c0.5,0.8-0.1,0.4,1,0.7v0.3c-7.2,1.8-13.1,4.1-22.7,5.3c-0.7,1.2-1.3,2.4-2,3.6c-3,0.6-4.9,1.2-7.9,2
			c0.8,1.7,0.2,5.4,1,6.2c-0.4,0.4-0.9,1.6-1.3,2c-1,0.8-2.2,0.7-3,1.6h-2v2.6c5.5-0.2,7.9-0.4,13.5,0c2,0.1,5.4-1.2,6.9-0.3h1.3
			v0.7c-1.4,0.4-1.9,1.2-3,1.6c-2.7-0.8-8.2,0.5-9.9-0.7H171c1.4,2.5,0.2,2.5,1,5.6c-2.8,0.8-5.4,2.5-8.9,2.6
			c-0.9,4.2-2.2,10.1-1.6,14.1c-2.5,1.5-4.1,1.7-6.9,1c-0.6,0.9-0.3,0-0.3,1.3l-3.3,1.6c-0.3,1.8-0.8,2.6-0.7,4.3
			c-1.8,0.9-3.3,1.5-4.9,2c0.1,1.3,0.4,1.3,0.7,2.3l-3.3,1.6c-0.5,2.2-1.6,6.3-0.7,7.6c-1.1,2.2-10,5.1-12.5,6.6
			c-0.2,1.3-0.2,2.4-0.7,3.3c-1,2.6-6,3.3-9.2,3.6c-0.2,0.4-0.3,2.1-0.7,2.6c-0.5,0.7-2.2,0.8-3,1.3c-3.3,2-7.5,5.3-11.5,6.2
			c0.2,0.9,1.1,5.7,1.3,5.9c-0.4,2.1-9,7.6-11.5,8.2l0.7,0.7c-0.5,0.5-1.1,0.8-2,1c0.6,1.6,1.7,3.2,2.3,4.6
			c-0.1,0.4-0.6,0.6-0.3,1.3c0.4,1,2,2.5,2.3,3.6l-0.3,1.6c0.3,0.9,1.9,1,2.3,2c0.6,1.7-0.4,4.7-0.3,4.9c0.2,0.9,3.1,8.6,3.6,9.2
			c-0.1,2.5-7.4,9.5-8.6,9.9c0.2,0.8,0.4,1,0.7,1.6c-0.4,0.2-0.7,0.4-1,0.7h-0.3c1,2.9,4.5,9.5,6.6,11.5c-0.3,1.2-0.2,1-1.3,1.3
			c0.2,0.8,0,1.8,0,3.3h1c0.8,1.6,1.7,3.7,3,4.9c-0.4,0.5-0.9,1.6-1.3,2l-1.3,0.3c-0.1,0.1-0.1,1.8-0.7,2.6c1.9,1.9,2.4,4.9,4,7.2
			c0.6,1,1.4,0.5,2,1c0.7,0.6,0.8,2.1,1.3,3c1.6,2.5,3.3,5.4,5.6,7.2c-0.4,1.2-0.7,0.6,0,1.6c-0.3,1.1-2,2.6-2.6,3.3
			c-0.5,0.6,1.2,1.4,0.3,2.6c-0.2,0.3-1.3,0.3-1.6,0.7c0.8,0.5-0.9,4.3-1,5.6c-0.7,0.1-2.4,0.3-3,0.7c-2,0.3-2,1.7-3.3,2.6v1.3h-1
			c0.3,0.5,0.8,0.9,1,1.3c-0.8,1.7,0.1,3.1-0.3,4.9l-0.7,0.7l1,1c1,2.7-0.5,5.3,0,7.2l0.7,0.7c0.5,1.6-1.1,3.7-1,4
			c0.4,1.1,0.5,2.5,1,4.6c0.2,1.1-0.7,2.4-0.7,2.6c1.7,5,0.7,9.6,1.6,13.5c0.3,1.3-1.1,3.7-1,4c0.5,1.5,0.9,2.6,1.3,4.3
			c1.7,0.4,3.6,0.9,5.6,1v1c0.8,0.1,1.6-0.1,2.3,0.3h0.3l-0.3,0.7c0.8-0.1,1.5-0.2,2.3-0.3c0.5,0.5,1.5,0.8,2,1.3
			c0.8,1.1,0.9,2.5,2,3.3c0.7,0.5,1.5,0.1,2.3,0.7c0.4,0.3,1.1,1.5,1.6,1.6c0.7,0.2,1-0.6,1.3-0.7c0.5-0.1,3.7,1.3,4.3,1.6
			c1.4,0.7,4.9,3.5,6.2,2.6c0,0,1.3,0.1,0.7,0.3l-0.3,0.3c1.1-0.1,1.3-0.4,2,0c1.3,0.5,1.4,1.7,2.3,2.6c0.2,0.1,1,0.1,1.6,0l0.7,0.7
			c-0.5,0.9,0.1,0.3-1,0.3v0.3c1,0.4,1.2,0.3,1.6,1.3c1.7,0.1,2,0.3,2.6-0.3c1.2,1.2,3.3,3.3,4,4.9c0.3,0.8,0,1.8,0.3,2.3
			c0.5,1.1,1.8,1.2,2.6,2c0.2-0.4,0.2-0.3,0.3-1c0.4,0.3,0.6,1.1,1,1.3c1.8,1,3.4-0.2,4.9,2c0.8,1.3,1.3,5.7,2,7.9
			c0.2,0.7-0.7,2.6-0.7,2.6c0.2,2,1.3,4.3,1.6,5.6c0.2,0.9-0.8,1-0.7,1.3c0.2,0.4,1.5,1.3,1.3,2h-0.7c-0.2,1.8,1.5,2.7,0.7,4.3v1
			c6.6,1.1,13.4,1.8,19.1,3c3.1,0.6,6.2,0.3,7.2,3c0.3,0.8,0.1,0.5-0.3,1.3l1,1v0.3c0.2,0.6,0.3-0.7,0.3-0.7
			c0.3,0.2,6.3,2.3,6.6,2.3l-0.7,0.7c0.9,0.2,1.4,0.5,2,1h2c-0.3-0.4-0.7-0.9-1-1.3c0.9-0.2,1.8,0.2,3.3,0.3l-0.7,0.7
			c0.5,0.9,1.4,0.9,2,1.6c1-0.3,2-0.7,3-1l0.3-0.3h-0.3v-0.7c0.7,0.1,0.6,0.1,1,0.3c1,0.7-1,0.6-0.7,1h0.7c-0.6,0.9-1.4,0.4-2,1.3
			c-0.4,1,1,4,2,4.9c-0.4,0.4-1.4,0.5-1.6,1c-0.8,1.4-0.2,2.8-1,4c-0.6,0.9-2.1,1.2-2.6,2v1.6c-0.5,1-1.9,2.4-3.3,2.6
			c0.3,0.8,0.2,1.2,1,1.6c-0.2,1-0.8,2.2-1.3,3v0.3H195v-0.7c-0.8,0.1-0.8,0.2-1.3,0.3c0.2,1.8,0.1,3.3,1.6,4c-0.6,0.3-0.2,0.1-1,0
			l0.3,1.3c-3.1-1.8-2.7-2.4-6.2-3v0.3h-0.3c0.5,0.4,1,0.6,2,0.7c-0.1,0.7-0.1,0.6-0.3,1c-0.2,1.4-0.4,1.1-1,2
			c-0.8-0.3-0.5-0.1-1-0.7c-1.7,0-2.2,0.2-3,1c-0.3,0.3,1.4,3,2,3.6c0.5,0.9-0.1,0.3,1,0.3c0.4,0.8,0.7,1.7,1.3,2.3
			c-0.4,0.8-1,1.2-1.6,1.6c0.5,2.5,3.4,2.9,4.3,4.9c0.5,0.8-0.3,0.4,0,1c0.9,1.6,3.8,1.9,5.3,3l1,1.6c1.1,0.8,2.6,1,3.3,2
			c0.5,0.7,0.4,1.5,1,2c1.3,1,3.7,1.7,4.6,2.3c0.1,0.1,2.8,3.9,3.3,4.6c0.3,1,0.7,2,1,3c0.6,0.9,1.6,0.9,2.3,1.6
			c1.8,1.9,1,4.7,4.3,5.3c0.8,0.4,1.6-0.1,2.3-0.7c1.7,2.2,4.6,3.4,6.6,5.3c0.2,0.7,0.4,1.3,0.7,2l3,1.3c0.7,0.5,3.4,2.7,4,3.3
			c0.3,0.4,0.2,1,0.7,1.3c1.8,1.3,6.3,3.8,7.2,5.6c0.6-0.2,0.3-0.1,0.7-0.3c0.3-0.5,0,0,0-1c4.2-1.4,6.8-3.1,9.9,0.7
			c3.2,0,3.9-1,5.9-2l0.3-0.3v-0.3c-0.8,0.3-0.5,0.1-1,0.7h-0.3v-0.7c2.4-0.5,5.9-1.2,7.6-3.3c0.8,0.1,0.6,0.1,1,0.7
			c1-0.3,0.9-1.1,1.6,0c2.3-1.4,4.8-2.5,7.2-4c0.9-0.5,2.4-2,3.3-2.3c1-0.3,2.6,0.5,3.6-0.7v-1.3c0.2-0.3,0.7-0.3,1-0.7
			c0.9,0.5,0.3-0.1,0.3,1c3.4-1.8,7.9-5.2,11.8-6.9c1.4-0.6,2.4-0.4,3.6-1v-1c1.3,0,6.6-1.7,7.2-2.3c0.6,0.4,1.4,0.8,2,1.3
			c2.5-0.4,6.4-4.2,7.9-5.9c1-1.1,3-1.1,4-2.3c0.9-0.6,0.5,0,0.3-1c1.5-0.8,3.1-1.5,4.6-2.3c0.7-0.6-0.5-0.8,0-1.3
			c0.7-0.2,1.3-0.4,2-0.7c0.3-0.4-0.3-0.7-0.3-0.7c0.4-0.7,1.2-1,2-1.3c-0.1-1.2-0.2-1-0.7-1.6c0.9-0.5,0.6-1.2,1.3-1.6
			c0.8-0.6,1.7,0.1,2.3,0c1.2-0.2,2.6-1.9,4-2.3c-0.1-1-0.1-0.9-0.7-1.3c0.3-1.1,0.9-0.7,0-1.6c0.9-1.8,6.3-2.7,8.2-3.3
			c0.7-0.2,1.4,0.4,1.6,0.3c1-0.4,2.1-1.6,3.3-2c-0.9-4.7,0.4-7.2,0.3-11.5c3.8-0.5,8.5-2.2,12.2-1.6c2.4,0.4,4.4-1.6,5.9,0l3.6-2.3
			c1.1-1.7,0.3-3.8,4.3-4c-0.3-1.2,1.2-3.1,0.7-5.6c-0.2-1,0.6-8.8,1.3-10.5c-0.1-0.2-0.7-1-0.7-1c-0.1-1,0.7-1.1,1-1.6
			c-1-2.1,0.4-2.7-0.3-3.6c0.3-1.3,0.6-0.9,1.3-1.6c3.6,0.2,2.7,1.8,4.9,2.6c0.8,0.3,1.4-0.4,2.6,0c0.9,0.3,1.6,1.3,2.3,1.6
			c1.7,0.8,3.5,0.3,5.3,1c0,0,0.9,0.3,1,0.3v0.7c1,0.5,1.2-0.6,2.3,0v0.7c0.7,0.3,1.3-0.5,2.3,0c0.4,0.2,1.1,1.1,1.6,1.3
			c1.7,0.7,3.1,0,4.3,0.7c1.4-1.3,3.4-2.5,3.6-4.9c0.2,0.4,0.2,0.3,0.3,1c0.5-0.4,0.4-0.2,0.7-1c1.4,0,2-0.1,2.6,0.7
			c0.7-0.2,5.6-3.6,5.9-4c-0.1-0.3-0.2-0.7-0.3-1c1.6-1.5,4.8-2,5.3-4.6c0.5,0.1,1.1,0.2,1.6,0.3c0-0.8,0-1.2-0.3-1.6
			c0.9-0.6,0.8,0.6,1.3-1c0.5,0.2,0.5,0.2,1.3,0.3c0-1,0.2-0.9,0-1.3c0.3-0.8,1.2-1,2.3-1v-2c1.2-0.3,1.3-0.9,2.3-0.3h0.3
			c0.1-2.5,0.5-1,1-2.6l0.7,0.7c1.5-1.2,3.8-3.4,4.9-4.9c0.2-0.5,0.1-0.4-0.3-1c0.6-0.3,0.4-0.3,1,0c0.3-0.4,0.3-0.5,0.3-1.3
			c0.8,0.4,0.2-0.2,0.7,0.7h0.7v-2.3c0.8,0.4,0.2-0.2,0.7,0.7c1.4-1.4,2.7-3.3,4-4.9c0.3-0.4,1.3-0.3,1.6-0.7
			c0.5-0.5,0.1-1.3,0.7-1.6c0.8-0.5,1.4,0,2.3-0.3v-1.3c1.4-0.1,1.9-0.3,2.6-1c0.2-0.3,0.5-1.1,0.7-2.3l0.7,0.7h0.3
			c0.2-0.6,0.3-1.3,0.3-2.3c0.9-0.2,1.3-0.4,1.6-0.3c0.9-0.5,0.8-1.7,1.6-2.3c-0.4-4.2-4.8-9.2-6.6-12.8c5.4-3.2,11.2-5.8,16.8-9.2
			c2.3-1.4,5.1-3.7,7.6-4.6c-0.3-1.2-0.9-1.5-1.3-2.3c0.4-0.8,0.9-0.9,0.3-2c-0.7-1.3-2.6-3.1-3-4.6c-0.2-0.9,0.4-0.9,0-1.6
			c0.1-3.4,3.6-3,5.3-4.9c0.5,0.5,0.2,0.6,1,1c2.5,1.1,5.2-3,7.6-1.6c2.6-0.4,1.7-2.2,3.3-3.3c2.7-1.8,5.8-2.6,8.6-4.3
			c1.3-0.8,3.1-2.5,4.6-3c1-0.3,1.3,0.2,1.6,0c0.9,0.3,1.9,0.8,2.3,1.6c0.2-0.4,0.2-0.3,0.3-1c4.2,0.2,6,1.6,9.5,2
			c3,0.3,4-1.3,7.2,0.7c0.7-0.7,2.4-0.9,3-1.6v-1.3h0.7c0.6-1,0.6-2.1,1.3-3c1-1.2,2.5-1.9,3.6-3c3.3,0.8,1.6,3,6.2,2v1
			c1.8,0,3.4-0.5,4.3-0.3c0.4,0.1,1.7,1.2,2.3,1.3c0.6,0.1,1-1,2-0.7v0.7c1.2,0.6,5.9-1,6.6-0.7c1.3,0.1,1.3,0.4,2.3,0.7
			c0,1.3,0.1,1.6-0.3,2.3c-0.4,0.6-0.2,0-0.7-0.3c-0.6,1.1-1.8,2.6-2.6,3.6c0.4,0.9,1.1,1.2,1.6,2c1.3-0.2,2.8-0.3,3.6-1
			c0.8,0.3,0.6,0.8,1,1c1.5,0.8,3.3-1.3,4.3-1c2.7,0.7,14.3-1.7,17.8-3c1.5-0.1,3.1-0.2,4.6-0.3c0.9-0.3,2.9-1.3,4-1.6
			c0.6,0.1,0.1,0.9,1,0.7c0.2-0.1,1.1-0.9,1.3-1c0.9-0.2,0.5,0.9,1,0.7c1.3-0.5,2.5-1.1,3.6-1c0,0,1.3-0.1,0.7-0.3l-0.3-0.3
			c0.8,0.4,0.2-0.2,0.7,0.7c4.4-1.4,6.2-2.4,11.5-2.6c0.6-3.7,5.7-4.7,7.6-6.9c0.3-0.4-0.1-1,0.3-1.3c0.8-0.6,2.1-0.6,2.6-1.3v-1
			c0.3-0.3,1.4-0.3,1.6-0.7v-1.3c0.7-0.8,2.4-0.8,3.3-1.3c0.7-0.4,2.8-1.3,3.3-2c0.1-0.4,0.2-0.9,0.3-1.3c0.8-0.7,2.1-0.7,3-1.3
			v-0.3c0.1-0.5,5.4-4.9,6.9-5.3l-0.7-0.7c0.7-0.7,1.8-0.7,2.6-1.3c0.5-0.4-0.1-1.2,0-1.3c0.9-0.3,1.8-0.7,2.6-1
			c1.3-1.3,2.6-4,4.3-5.3c2.2-1.6,4.3-3.1,5.9-5.3c0.6-0.4-1.8-3-2-3.6c-0.5-1.8,0.9-4.8,1.3-6.6c-1-1.1-0.7-1.9-2-2
			c0.2-2.3-1.4-4.3-2-6.6c0.1-0.4,0.2-0.9,0.3-1.3c-0.2-0.8-1.6-2.1-1.6-3c0-1.8,0.7-2.8-0.7-4.3c0.5-2.1,1.6-1.2,3-2.3
			c0.5-0.4,0.4-1.6,1-2c1.2-0.8,3.4-0.9,4.3-2c0.6-0.7,0.1-1.9,0.7-2.6c0.6-0.8,2.5-1,3.3-1.6c0.8,0.4,0.2-0.2,0.7,0.7
			c0.7-0.4,1-0.7,2-1c0.4-0.5,0.4,0.1,1,0.3c0.4-0.4,1.4-0.6,1.6-1c-0.1-0.3-0.2-0.7-0.3-1c0.4-0.4,1.3-0.2,1.6-0.7
			c0.1-0.8,0.2-1.5,0.3-2.3c0.7-0.2,1.3-0.4,2-0.7c0.4-0.3,0.3-1.2,0.7-1.6l1.3-0.3c1-1,0.6-2.3,2-3c-0.5-0.7-1.1-1.3-1.6-2
			c0.7-0.4,2.7-2.3,3.3-3h0.3c-0.1-0.3-0.2-0.7-0.3-1l1.3-0.3v-1.3c0.7-0.8,3.1-2.1,4-3c0.3-0.5,0,0,0-1c0.8-0.3,1.1-0.5,1.6-1
			c0.5-0.4,0.2,0,0-0.7c1.4-0.8,3-2.5,3.6-4v-2l1.3-0.3v-1.3c0.3-0.4,1.3-0.2,1.6-0.7c-0.1-0.3-0.2-0.7-0.3-1l1-0.3
			c-0.1-0.8-0.2-1.5-0.3-2.3c0.1-0.3,0.9-0.5,1-0.7c0.8-1.2-1.5-3.5-1.6-4.3c-0.1-0.8,0.4-0.5,0.7-1.3c-0.9-0.9-1.4-2.1-2.3-3
			c0.2-1-0.2-0.6,0.7-1c0.3-2-1.4-1,0.3-3.3c-1.5-1.5-2.4-3.5-4-4.9v-1.6h0.7c0.5,1.2,1.1,3.3,2.3,4v0.3c0.6-0.2,0.3-0.1,0.7-0.3
			c0.3-0.3,0.1-0.1,0.3-0.7c-1.7-1.8-1.8-4.5-3.3-6.6c-0.9-1.2-3.2-3.2-3.6-3.6c-1.1-1.2-1.3-2.7-2.6-3.6v-1c0.7,0.1,0.6,0.1,1,0.3
			h0.3c-0.5-1.8-1.9-4-3.6-4.6c-0.1-3.5,1-5.2-1.6-7.9v-0.7c1,0.4,1.2,0.8,1.6,1.6c0.7-0.2,0.9-0.2,1.3-0.7h0.3
			c-0.6-0.9-1.1-0.3-2-1c-0.9-0.7-2.3-3.4-2.6-4.6c-1.5,0.4-2.2,1.2-3.6,1.6c-0.4-0.5-0.4-0.3-0.7-1c-0.9,0.2-0.5-0.2-0.7,0.7
			c-1.5-0.3-2.6,1.1-4.3,1.6c-0.5,0.2-0.2-0.4-1,0c-2-0.9-3.7-9.8-5.9-12.2c-0.9-0.7-1.4,0.3-2.6-0.3c-0.4-0.8-0.9-1.5-1.3-2.3
			l-1,0.3c-3-2.1-5.6-5.1-7.9-7.9c-0.6-0.4-0.9-0.2-2-0.3c-0.2-0.5-0.2-0.5-0.3-1.3c-0.2,0.4-0.2,0.3-0.3,1h-0.3v-0.3
			c0-0.4-0.2-0.2,0.3-0.7c-0.7-1.1-2.1-1.4-3-2.3c-0.9-0.9-0.8-2.8-1.6-3.6c-3.2-3.1-6.7-5.4-8.9-8.9c-1.5,0.1-1.2-0.2-1.3,0.7
			c-1.6-0.4-8.2,3.3-9.5,4.6c-3-0.2-1.4-1.7-3-3l-1,0.3c-1.3-0.9-1.9-2.2-4-2.6v-1.3c0.9,0,0.5,0.2,1,0c1.9-0.1,1.2,0,1.6-1
			c1.4,0.7,10.7,0,12.2-1h0.3c-0.3-0.9-1-1.4-1.6-2c1.6-1.7,0.4-0.9,1.3-2.3V292c0.9,0.6,1.7,1.8,3,1c2.1-1.2,2.6-4.3,4.6-4.9v-0.3
			c1.1,0.4,0.9,0.3,1,1.6c0.7-0.3,2.2-0.8,3-1.3c0.3,0.3,0.1,0.1,0.3,0.7h0.7c-0.4,0.3-0.8,0.3-1.6,0.3v0.7c1.3,0,1.7,0,2.3-0.7
			c-0.1-0.3,0.1-0.1-0.3-0.3v-0.3c1.1,0.1,0.7,0.1,2,0v-1c4.8,0.8,7.9-1.7,12.5-0.3c0.5-0.5,1.2-0.8,1.6-1.3c0.5-0.8,0.6-2.9,1-3.6
			c1.8-0.1,2.6-0.2,4.3,0c0.2,0.4,0.4,1.3,0.7,1.6c-0.3,1-0.8,1.5-1.6,2v0.3c1.7-0.1,4.8,0.8,6.9,0.3c0.7-0.1,2.6-1.2,3.6-1
			c0,0,0.9,0.6,1,0.7c2.7-0.1,3.4,0.6,4,2.6c3.6,0,12.8-0.1,13.5,1c0.6-0.2,0.3-0.1,0.7-0.3c0.4-0.6,0.4-1,0.3-1.3
			c-0.9-1.7-5.2-4.3-6.6-4.3c0.3-1.3-0.4-1-0.7-2c-0.2-0.9,0.8-0.8,0.7-1.3c-0.3-0.3-0.7-0.7-1-1c-0.2-1.1,0.3-0.6,0.7-1
			c-0.6-1-0.4-0.5-0.3-2c0.9-0.4,1.8-0.9,2.6-1.3c0.4-0.8,0.2-0.7,0.7-1.6c-0.8-0.6-1.4-1.9-1.6-3c-0.2-0.4,0.1-0.7,0-1.6
			c1-0.3,2-0.7,2.6-1.3c0,0,1.3-4.1,1-5.3c0.8-0.3,0.5-0.1,1-0.7c0.7,0.1,0.6,0.1,1,0.3c0.8-0.3,0.8-1.1,0.3-1.6
			c0.7-0.7,1.9-1,2.6-1.6c0.5-0.7,0.4-1.1,0.3-2c2.2-1.1,1.6-1.8,3-3.6c-0.2-1.3-2-2.8-3-2h-0.3c0.1-0.2,0.2-0.4,0.3-0.7h-0.3
			c-0.4-0.4-0.2,0.1-1,0.3c-0.9-1.7-1.1-1.9-2.6-2.6c-0.1,0-2.5,0.2-2.6,0.3c-2.4-0.2-2.9-1.8-4.3-3c-0.5-0.2-0.4-0.1-1,0.3
			c-1.5-0.1-1.9-0.2-2.6-1c0.4-0.3,0.7-1.4,1.3-2.3V242c-1.5,0.5-2.7,1.8-4,2.3c-0.2,0.1-1.3-0.6-2-0.3c-0.3,0.3-0.7,0.7-1,1
			c-2.1,0.7-4.5-0.1-6.2,1.6c-1.9-0.1-2.3-0.9-2.6-2.3c-2.6,0.8-3.9,2.1-6.9,2.3v-1c2.1-0.7,9.6-3.4,6.6-6.2
			c1.1-0.6,3.6-0.4,4.9-1.6c0.2-0.3-0.1-1,0.3-1.6c0.2-1.4,0.4-1.1,1-2c1,0.3,2.4,0.2,3,1.3c2.3-1.1,5.7-1,6.6-4
			c0.3-0.6,0.3-0.4,0-1c0-4-2.9-3.1-5.9-4c-0.9-3.7,0-5.4,1-9.2c0.5-2-0.1-8.5-0.3-9.2c-0.2-0.7-1.5-1.6-1.3-2.6
			c0.6-0.5,0.2-1.3,1-2.3l1-0.3c-0.1-0.3-0.2-0.7-0.3-1c0.2-0.4,1.1-0.5,1.3-1v-1.6c0.4-0.7,2.3-1.8,2.6-2.3c0.1-0.7,0.2-1.3,0.3-2
			c0.2-0.4,1.1-0.4,1.3-0.7v-1c0.5-0.6,1.3-0.5,2-1c-0.1-0.3-0.2-0.7-0.3-1c0.5-0.8,2.8-1.4,3.3-2.6c0.5-1.3-0.9-0.6-0.7-1.6
			c0.5-2,2.1-3.9,3.3-5.3l-0.7-1l1-0.3c0.2-1,0.4-2,0.7-3c0.4-0.5,1.6-0.8,2-1.3c0.8-1.2,0.2-2.7,1-3.6l1.3-0.3
			c-1.2-0.8,0.5-2.4,1.3-2.6c-0.4-0.8-0.8-1.3-1.3-2c0,0-1.3,0.1-0.7,0.3l0.3,0.3c-0.8-0.3-0.5-0.4-1.3-0.7c-0.3,0.6-0.4,0.9-1,1.3
			c0.6,1,0.7,0.5,1.6,0.3c-0.1,1.9-1.3,3.6-2.6,4.3c0.4,1.1-0.1,0.7,1,0.7c-0.5,1.2-1.6,1.4-2.6,2c0.2,0.7,0.2,0.9,0.7,1.3v0.7
			c-0.9,0-1.5,0-2-0.3c-0.5-1.1,0.7-1.9,0.7-3c-0.1-0.4-0.3-0.3-1.3-0.7c0-1,0.2-0.9,0-1.3v-0.7c1,0.2,0.8,0.1,1.3,0.7
			c0.9-0.6,0.7-3.2,1.6-4.6c0.3-1.3,0.1-0.7,1.3-1c0-1.8-0.8-3-1.6-3c0.2-1.2,0.3-1.4,1-2c-0.1-1.2-0.3-1.2-0.7-2
			c-1.6,0.2-1.3,0.7-2,2h-0.7l-0.3-0.3c0.5-0.8-0.1-0.4,1-0.7v-1h-1c0.2-0.6,0.1-0.3,0.3-0.7c0.1-2.1,1.5-1.9,3-2.6
			c0.2-0.6,0.1-0.3,0.3-0.7c-0.4-0.2-0.3-0.2-1-0.3c0.1-1.9-0.4-2.5,0.3-4.3c-0.9-0.3-0.7,0.3-1.3-0.7c-1.9,0.2-1.9,1.1-1.6,2.3
			c-0.7-0.3-1.2-0.6-1.6-0.3h-0.7l1-3.6h2c0.6-1,1.5-1.5,2-2.6c2,0.4,4.9,0.8,5.6,2.6c0.3,0.9-0.4,0.9-0.7,2
			c1.2,1.6,1.5,1.9,1.3,4.3h-1c-0.2,0.4-0.4,0.7-0.7,1c0.3,1.8,1.1,2.6,1.6,4c-0.5,0.6-1.3,1.6-1.6,2.3c-0.3,0.3-0.1,0.1-0.3,0.7
			c0.7,0.2,0.6,0.1,1,0.3c0.2,0.5,0.4,0.1,0,0.7c-0.3-0.1-0.2,0.1-0.7-0.7h-0.7c0.3,1.7,0.8,1.6,0.7,3.6c1,0.2,0.7,0.2,1.3,0.7V168
			h0.5c-0.8-0.1-1.1-1.8-1.5-2.3c0.5-0.5,1.2-0.8,1.6-1.3c-0.3-0.3-0.1-0.7-0.7-1.3c0.8-0.8,2-1.7,2.3-3c0.1-0.3-0.7-0.7-0.3-1.3
			l1.3-0.3c1-1.4-0.3-2.6,0.3-4c0.2-0.3,1-0.7,1.3-1c0.3-0.7-0.2-0.6-0.7-1.3c0,0,0.7-1.4,0-2.3c0.6-1,0.5-0.5,1.6-0.3
			c-0.2-0.4-1.3-1.7-1.3-2c-0.1-0.6,0.2-0.4,0.3-0.7c1.2-2.1-0.3-3.9,0-4.9c0.3-0.2,0.7-0.4,1-0.7c-0.5-2.6-2.2-2.7-3-4.6
			c-2.5,0.8-9-0.4-10.5-2.6c-0.4-0.9,0.7-1.9-1.3-3.3c0.5-1.1,1-2,1.3-3.6c-0.4-0.3-1-0.6-1.3-1c-0.3-0.2,0.3-1.1,0.3-1.3
			c-0.5-0.8,0.1-0.4-1-0.7c0.4-0.7,0.7-0.8,1-1.6c0.4-0.3-0.2-0.9-0.7-1.3c0.4-0.4,0.9-0.9,1.3-1.3c-0.5-0.2-0.1-0.4-0.7,0
			c-0.9-1.1-0.8-1.5-0.7-3c-2.7-0.1-5.9-0.5-8.2-1.3l-0.3,0.3c0.5,0.8,0.4,0.6,1.6,0.7c-1.6,1.2-3.2,0.4-4.6,1.6
			c-0.6,0.2-0.3,0.1-0.7,0.3c0.8,0.2,0.3,0.1,1.3,0v0.7c-0.8-0.1-1.5-0.2-2.3-0.3c-0.1,0.5-0.4,2.8-0.7,3.3c-0.4,0.9-1.5,0.7-2,2
			c-0.3,0.8-0.1,0.8,0.7,1.3v0.3c-2.1,0.1-1,0.2-2,1c0.4,0.2,0.3,0.2,1,0.3c0.1,0.3,0.2,0.7,0.3,1l-1,0.3c0.3,0.7,0.8,0.6,1,1
			c0.6,1.3-0.5,2.8-0.7,3.6c-0.3,1.1,0.6,2.7,0.7,3.3c0.1,0.7-1.1,0-0.7,1c0.1,0.1,1.2,0.4,1.3,0.7c0.2,0.4,0,2,0,2h1
			c0.4,0.4,0.3,1.2,0.7,1.6c0.3,0.3,1,0.4,1.3,0.7c0.5,0.8-0.3,0.4,0,1c0,1.8-0.2,2-1.6,2.3c0.4,0.8,0.6,1.2,1.3,1.6
			c-0.5,0.3,0,0-1,0c-0.2,0.9-0.1,0.9-0.3,1.3l-0.3,0.3c-0.3,0.2-3.9,1.1-4.9,0.3c-1.2-0.3-0.9-0.5-1.6-1c0.1-1.2,0.5-2.6,0.7-3.6
			c0.4-2.5-1.3-5,0-7.2v-0.3c-0.8,0.1-1.3,0.1-1.6,0.7c-0.4,0.7,0.3,1.7,0.3,2c-1.1,1.6-3,3.5-2.3,5.9l-0.3,0.3
			c-1.5-0.9-0.7-3.1-1.6-4.6c-0.8-1.4-4-4.3-5.3-5.3v-0.3l0.7,0.3v-0.3c0.3-0.3-0.2-0.3-0.3-1.3c-1.6,0.4-2.1-0.6-4-0.3
			c-0.7-1.5-2.2-3.8-3.3-4.9c-0.2-0.2-1.2-0.1-1.3-0.3c0.1-0.4,0.2-0.9,0.3-1.3l-1.3-0.3c0.1-0.7,0.2-1.3,0.3-2
			c-0.6-1.6-2.1-3.8-3.6-4.6c0.3-0.8,0.1-0.5,0.7-1c-0.3-0.3-1.2-0.5-1.6-0.7c-0.3-1.8-0.6-3.4-1.3-4.6c-1.4,0-2,0-2.6,0.7h-0.3
			c0.4-0.4,0.9-0.9,1.3-1.3v-0.3c-2.4,0.5-4.1,1.2-5.9,3h-0.7v0.7c1.3-0.2,2.2-0.6,3.3-1c-1.2,1.5-3.5,2-4.9,3.3h-0.7
			c0.3-0.8,0.1-0.5,0.7-1V118c-5.3,0.2-9.6,1.7-13.5,3.3l-2.3-1.6C606,118.5,606.2,117.1,605.3,116.1L605.3,116.1z M598.4,113.1h0.7
			v0.7c-0.5,0.2-1.1,0.4-1.6,0.7C597.7,114,598.1,113.6,598.4,113.1L598.4,113.1z M601.3,113.5h0.3c-0.4,0.8-0.3,0.6-1,1
			L601.3,113.5z M597.1,117.4c0.3-0.4,0.7-0.9,1-1.3c0.8,0.5,0.4-0.1,0.7,1c-0.8,0.1-0.9,0.1-1.3,0.3L597.1,117.4L597.1,117.4z
			 M601,116.4l0.3,0.3l0.3,0.3l-1.3,0.3L601,116.4L601,116.4z M604,116.8h0.7v0.3l-1,0.3C603.8,117.2,603.9,117,604,116.8L604,116.8
			z M578.3,129.6v-0.7c0.6-0.2,0.3-0.1,0.7-0.3h1l-0.3,0.3c-0.1,0.2-0.2,0.4-0.3,0.7H578.3L578.3,129.6z M552,169.1h0.7
			c-0.2,0.9,0.2,0.5-0.7,0.7V169.1z M556.6,205.3c-0.6,0.5-0.7,0.1-1,0.3C556,205.1,556,204.7,556.6,205.3z M514.5,207.2
			c0.3-1-0.2-1.1,0.7-1.6c-0.3-0.3-1.2-0.5-1.6-0.7c0.5-0.3,0,0,1,0c0.6-0.7,0.7-1.1,1.3-1.3c1-0.2,0.9,0.8,2,0.3h0.3
			c-0.1,0.9,0.3,1,0.7,2.3c-0.3,0.3-0.1,0.1-0.3,0.7c-1-0.1-0.9-0.5-1.3-0.7c-0.8-0.3-0.5,1.4-1.3,0.7c0,0-1.3,0.1-0.7,0.3
			L514.5,207.2L514.5,207.2z M524,138.8v-1c1.1,0.6,1.6,1.3,3,1.6c0.2,0.6,0.1,0.3,0.3,0.7v0.3C526,139.8,525.8,139,524,138.8
			L524,138.8z M530.3,140.1v-1l1.3,0.3c0.2,0.6,0.1,0.3,0.3,0.7v0.3C531.4,140.3,531.2,140.2,530.3,140.1z M534.2,141.4
			c0.2-0.6,0.1-0.3,0.3-0.7v0.3l0.3,0.3L534.2,141.4L534.2,141.4z M496.1,127.3v-0.7h0.7v0.7H496.1z M490.8,131.6
			c-0.2,0.6-0.1,0.3-0.3,0.7C490.7,131.7,490.6,131.9,490.8,131.6z M497.4,134.9c-0.1-0.7-0.1-0.6-0.3-1v-0.3
			c0.4,0.2,0.9,0.4,1.3,0.7l0.3,0.3v0.3H497.4z M477.7,126.6h1c-0.4,0.2-0.3,0.2-1,0.3V126.6z M473.4,129.6h1
			c-0.4,0.2-0.3,0.2-1,0.3V129.6z M460.9,117.8l0.7-1c0.2,0.4,0.2,0.3,0.3,1H460.9z M528,148.3c0.2,0.6,0.1,0.3,0.3,0.7v0.3
			c-0.6-0.2-1-0.3-2-0.3c0.1-0.3,0.2-0.7,0.3-1L528,148.3z M523.1,149.3v-0.7h0.3C523.3,149.4,523.8,149.3,523.1,149.3z M504,147v-1
			c0.3,0.3,0.7,0.7,1,1h0.7v0.3C504.8,147.3,504.5,147.2,504,147z M513.2,147.7h1c-0.4,0.2-0.3,0.2-1,0.3V147.7z M518.1,148.7V148
			c0.7,0.3,2.3,1.3,2.3,1.3C520.1,149.9,518.6,148.9,518.1,148.7z M513.9,156.9c0.2,0.6,0.1,0.3,0.3,0.7v0.3
			c-0.9-0.1-1.1-0.1-1.6-0.3v-0.7H513.9z M502.7,157.2l0.3,0.3h-0.7c0.2-0.6,0.1-0.3,0.3-0.7L502.7,157.2L502.7,157.2z M498.7,156.9
			h0.7c-0.4,0.2-0.3,0.2-1,0.3C498.6,156.8,498.5,157,498.7,156.9z M493.8,157.6c-0.2,0.6-0.1,0.3-0.3,0.7
			C493.7,157.6,493.5,157.9,493.8,157.6z M425.3,163.5v-0.7h0.7v0.7H425.3z M422.4,168.7c0.5-2.5,2.3-2,2.6-4.9h0.3
			c0.3,0.6,0.4,0.5,0.7,1.3c0.4,0.9-0.5,3.2-1.6,4.3c-0.4,0.4-0.3-0.3-1.3,0.3C422.8,169.3,422.7,169,422.4,168.7L422.4,168.7z
			 M419.4,202.3l-0.3-0.3c0.3-0.3,0.1-0.1,0.7-0.3C419.8,201.6,419.7,202.9,419.4,202.3L419.4,202.3z M417.5,209.5
			c-0.9-0.4-0.9-1.1-1.6-1.6c0.4-2.6,1.4-3.3,1.3-5.3h0.7c1.3-0.5,2.6,1.2,3.6,1.6v1.3h-1c0.2,1-1.2,3.1-2,4.3
			C417.8,209.7,417.8,209.8,417.5,209.5L417.5,209.5z M361.5,219.1c-0.2-0.4-0.4-0.7-0.7-1c0.8-2.6,2.9-4.9,4-7.2
			c0.7-0.2,0.9-0.2,1.3-0.7h1c0.2,0.6,0.1,0.3,0.3,0.7c0,1.8-0.2,2-1.6,2.3c0.2,0.4,0.4,0.7,0.7,1c0,3-0.9,3.6-2,5.3
			C363,219.2,362.8,219,361.5,219.1L361.5,219.1z M258.6,183.9v-0.3h0.7v0.3H258.6z M226,190.5c-0.2,0.6-0.1,0.3-0.3,0.7
			C225.9,190.6,225.8,190.8,226,190.5z M299,196c0,0,0.2-0.2,0.7,0.3L299,196z M211.2,603.3c0.3,0.6,0.3,0.4,0,1V603.3z
			 M210.9,604.6h0.7c-0.3,0.9-0.3,0.9-1,1.3L210.9,604.6z M231.9,606.9c-0.2-0.4-0.4-0.7-0.7-1v-0.3l1,0.7v0.7L231.9,606.9
			L231.9,606.9z M235.5,603.6c0.5,1.1-0.8,2.4-0.7,3.6c-0.6,0.2-0.3,0.1-0.7,0.3h-0.7c0.4-1.4,0.6-1.8-0.7-3
			c0.1-1.2,0.4-2.2,1.3-2.6v-0.3C235.3,602.1,235.3,602.5,235.5,603.6L235.5,603.6z M234.2,601h0.3v0.3c-0.8-0.1-0.8-0.2-1.3-0.3
			C233.6,600.8,233.8,600.7,234.2,601L234.2,601z M213.2,601c0.9,0.4,0.6,0,1,1c0.2,0.5,0.4,0.1,0,0.7c-1,0.2-2.6-1.3-3.6-1.6
			c-1.4-0.4-2.4,0.5-4,0.7v-1.3C208.7,600.5,211.6,599.9,213.2,601L213.2,601z M140.8,552c-0.2,0.6-0.1,0.3-0.3,0.7
			C140.7,552.1,140.5,552.3,140.8,552z M254.6,578.3c0,0,0.2-0.2,0.7,0.3L254.6,578.3z M327.3,572.7v0.3l-1,0.3v-0.7L327.3,572.7
			L327.3,572.7z M330.3,569.7l-0.3-0.3h-0.7v-1c0.8-0.1,0.8-0.2,1.3-0.3C330.4,568.6,330.3,568.9,330.3,569.7L330.3,569.7z
			 M332.6,566.8c0,0.9-0.1,1.4-0.3,2h-1.3c0.3-0.8,0.5-1.1,1-1.6v-0.3H332.6L332.6,566.8z M439.2,463.2c0.9-0.4,0.4-0.3,1.3-0.3
			l0.3-0.3c-0.2,0.6-0.1,0.3-0.3,0.7c-0.2,0.3-1,0.1-1.6,0.7c-0.9-0.5-0.4-0.8-1.3-1.6c0.5-0.8,0.4,0.2,0.7-0.7
			C439.4,461.8,438.9,461.9,439.2,463.2L439.2,463.2z M428.6,454c0.4,0.5,0.2,0.4,1,0.7v0.7c-0.5-0.2-0.5-0.2-1.3-0.3v-1L428.6,454
			L428.6,454z M420.1,449c-0.4,0.8,0.2,0.2-0.7,0.7v0.7c1-0.3,1.3-0.6,2-1l-0.3,0.7c1.9,1.1,4.3,3.8,6.9,3c-0.1,1.1-0.1,0.7,0,2
			c-1.6,0.1-3.3,0.2-4.9,0.3l0.3,0.3c1,2.4,9.4,2.9,11.2,5.6c1.2-0.4,0.8-0.6,1.6-0.7l0.3-0.3c0.1,0.7,0.3,1.5,0.7,2
			c-0.1,1.2-0.3,1.2-0.7,2c-5.6,0-11.3,2.3-13.5,3.6l-0.3,0.3c1.6,0.3,4,0.6,4.6,2l0.7-0.7h0.3c-0.4,0.8,0.2,0.2-0.7,0.7
			c0.5,1,3.7,0.6,5.3,1.3c2.6,1.2,7.2,0.6,10.5,2.6h0.3c-0.5,0.9,0.1,0.3-1,0.3c1.2,2,2.2,4.6,3.3,5.9c-0.5,0.2-1.6,0.4-2,0.7h-0.3
			c0.4,0.3,0.5,0.3,1.3,0.3c-0.3,0.5-0.6,1.2-1,1.6c1.5,1.1,4.2,1.1,4.9,3h0.3c-0.6,1.2-2,1.4-3,2.3c-0.3,0.5,0.5,1.3,0.3,1.6
			c-0.2,0.4-0.4-0.1-0.7,0.7c1.8,1.9,1.7,4.7,4.9,5.3c-0.4,1.5,0.5,2.6,0,4.3c-0.4,1.5-2.2,4.7-3.3,5.9c-2.5,1.8-4.1-0.3-5.9,1.3
			c-0.9,0.6-0.5,0-0.3,1l-1,0.3c-1.6,0.8-2.8-1.6-3.6-2.3c-0.9-0.8-2.5-0.7-3.6-1.3c-1.2-0.6-2.5-2.2-3.6-3c-0.3,0.1-1,0.6-1.6,0.3
			c-1.2-0.5-2.4-2.3-3.6-3c-1.6-0.9-4.3-0.8-4.9-2.6l-0.3,0.3h-0.7l0.7,0.7v0.3c-0.6,0.2-0.3,0.1-0.7,0.3c-0.3-0.5,0,0,0-1
			c-1.7,0.5-3.3,1.5-4.9,2c-0.1,0.7-0.1,0.6-0.3,1c0.4,0.7,0.5,0.5,1,1c0.4,0.7,0.5,2.8,1.3,4c0.5,0.7,1.3,0.8,2,1.3
			c1.3,1,1.7,2.3,2.6,3.6c0.4,0.6,1.1,0.2,1.6,0.7c1,0.9,2.4,3.8,3.3,4.6l1.3,0.3c0.5,0.8-0.9,1.3,0.7,2.6c-0.4,1.9-1.5,2.7-0.7,4
			c-0.5,0.8-0.4,0.6-1.6,0.7c0.4,1.4-0.1,1.7-1,2.6c-0.2,0.5-0.1,0.4,0.3,1v0.3c-0.9,0.2-2.4,0.9-3,1c-1,0.2-2.2-0.6-3.3-0.3
			c-1.1,0.3-3.2,1.6-4.6,2c-2,0.5-3-1.5-4.6-0.7c-2.1,0-3.6,1.2-4.6,3c-1.7-0.3-1-1-2-1.6c-0.1-0.1-1,0.6-1.6,0.3
			c-0.5-0.3-0.9-1.5-1.3-2c-0.2-0.2-0.8,0.1-1,0.3c-1.4-0.6-3.1-1.6-4.6-2.3c-2.6,2.5-6,0.7-8.9,3.3c-0.4,0.6,0.5,0.5,0.3,1.3
			c0,0.3-1,1-1,1.3c0,0.9,1.2,3,1.3,4c-0.2,0.7-0.4,1.3-0.7,2c0.1,0.1,1.2,0.4,1.3,0.7c0.6,1-0.3,1.5,0,2.3c0.4,0.4,0.9,0.9,1.3,1.3
			c0.4,0.3-0.1,0-0.3,0.3v0.3l1.6,0.7c0.1,1.4,0,1,0,2.6c-0.9,0.1-7.2,1.7-7.2,1.6c-0.1-0.1-0.4-0.9-0.7-1H378
			c-0.5-0.5-1.1-1.1-1.6-1.6c-0.4,0.2-3.5-0.3-4.3-0.7l-0.7-1.3c-2.2-1.1-3.8,1.2-4.9-2.3c-0.9,0.2-1.4,0.5-2,1c-0.3-0.5,0,0,0-1
			c-1.9,0.5-4.3,1.7-5.6,3h-0.3c0.4,0.3,0.5,0.3,1.3,0.3v0.3c-0.6,0.3-1.2,0.5-1.6,1c-0.3,0.3-0.1,0.1-0.3,0.7
			c1.6,1.5,3.4,4.7,5.3,5.6c-0.4,3.2-5.4,2.2-6.9,4c-0.4,0.6-1-0.5-1.3-1c-1.6,0-1.8-0.2-2.3,1c-0.9-0.3-0.9-0.3-1.3-1
			c-0.9,0.4-1.1,0.9-1.3,2c-1,0.2-1.1,0.3-2,0c-0.2,0.8-0.2,0.8,0,1.6l-1,0.3c-0.6,0.3-0.7-0.2-2-0.3c-0.4,1.5-1.3,1.1-2,2.3
			c-0.8-0.1-0.9-0.1-1.3-0.3c-0.4-0.5-0.1-0.7,0-2c-1.4-0.3-4.9-2-4.9-2.6c-1.4,0.5-1.4,0.8-2.3,1.3l-1-0.3l-0.3,1.3
			c-1.3,0.8-4.7-0.3-6.2,1c-1-0.4-0.9-0.5-1.3-1.3c-1.8,0.1-7.7,0.3-8.9,1c-1.6,0.9-3.6,3.6-5.9,2l-0.3-0.3h0.3v-0.7h-1.3
			c0.2,0.5,0.2,0.5,0.3,1.3h-1.6c0.2-0.4,0.4-0.7,0.7-1v-0.3c-1.6,0.1-4.6,2.3-3.6,4.9c-0.9,0.2-1.5,0.5-2.3,0h-0.3v1.3
			c-1.3-0.1-0.9-0.1-2,0c-1.4-2.8-3.2-2.9-5.6-4.6c-0.9-0.6-0.5,0-0.3-1c-2.4-0.7-3.8-0.4-5.6-2.3c-0.9,0.4-0.6,1.2-1.3,1.6
			c-0.7,0.2-1.3,0.4-2,0.7c-0.8,0.6,0.5,0.7,0,1.3l-1.3,0.3l0.3,1c-0.3,0.6-1.7,1.4-2,2c-0.6,1.2,0.8,6.8,1,7.6
			c0.4,1.6-1.2,2.8-0.7,4.3c0.1,0.4,1.2,1.2,1.3,1.6c0.4,1.6-1.3,2.6-0.7,4v0.7c-1.4-0.3-3.2-1-4-2c-0.7,0.3-0.5,0.3-1,0.7
			c-0.3,0.3-0.5-0.4-1.3,0l-0.3-0.3c0.6-0.3-1.3-1.2-1.6-1.6c-0.7,0.2-1.7,0.5-2.3,1c-0.6-0.5-0.4-0.7-1.3-1c0.4-1.5,1.4-1.5,2-2.3
			c0.7-1,0-1.7,0.3-2.3c0.3-0.5,1.2-0.3,1.6-0.7c0.7-0.6-0.5-0.7,0-1.3l1.3-0.3l-0.3-1c0.5-0.9,1.8-1.6,2.3-2.6
			c-0.8-0.8-1.2-1.9-2-2.6c-0.3-0.3-1.5,0.4-2,1c-0.2-0.4-0.2-0.3-0.3-1c-1.3,0.8-3.5,2.8-3.6,3.6l-0.3-0.3h-0.7l0.3,1
			c-1.1,0.6-0.9,1.3-1.6,2c-0.8,0.7-2.3,0.5-3,1.3l0.3,1c-0.4,0.5-1.6,0.5-2,1c-0.2,0.2,0.6,0.5,0,1c-1.6,1.4-4.1,1.5-4.9,3.6
			c-2.3-0.5-2.1-3-3.6-4.3v-0.7c-0.7,0.3-0.9,0.8-1.3,1.3h-0.3c0.1-1.5,0.3-1.6,0.7-2.6c-1.2-1.2-2.7-3.2-3.6-4.6h-0.7
			c0.3,0.7,0.3,0.5,0.7,1c-1.1,0.3-1.7,0.6-2.3,1.3c-1.6-0.4-5.6-1.5-5.9-1.3c-1.2-1.2-1.8-3-3-4.3c-0.8-1.4-10.9-0.9-12.8-1
			c-0.4-0.9-0.9-1.8-1.3-2.6c-0.8-0.2-0.3-0.1-1.3,0c-0.5-2-2.2-5.1-4-5.9c-1.1-0.2-2.2-0.4-3.3-0.7c-0.5-0.3-0.7-1.5-1.3-2
			c0.3-0.8,0.1-0.5,0.7-1c-0.3-0.9-0.3-0.9-1-1.3V552l-0.3,0.3c-0.8-0.3-0.7-0.7-0.7-2.3l-1,0.7c-0.3-0.3-2.6-3.6-2.6-3.6
			c-1.6-1-2.1,0.5-3-2c-0.8,0.4-1.5,0.9-2.3,1.3c-0.7-0.8-1.3-0.8-1.6-2l-0.7,0.7c-0.3-0.4-0.3-0.8-0.3-1.6c-0.3,0.3-0.4,0.6-0.7,1
			c-1.9-0.9-3.7-6.9-3.3-7.9h-0.7c-0.4-0.9-0.2-0.1-1,0.3l-0.7-1.3c0.5-0.2,0.5-0.2,1.3-0.3c-1-1.1-1-1.7-1.3-3.3
			c-0.5,0.1-1.1,0.2-1.6,0.3l-1-1c-0.1-0.6-0.3-0.1,0-0.7v-1l-0.3,0.3c-1.5-0.8-1.4-3.7-1-4.6c-0.7-0.4-0.8-0.7-1.6-1
			c-0.4-0.2-2.6,0.1-3,0.3h-0.7l0.7,0.7c-1,1.1-2.2,1.9-3.3,3h-2c-0.2-1.3,0.1-1.5,0.3-2.6c0.2-0.7-0.6-1-0.7-1.3
			c-0.4-1.9,1.2-2.9,2-3.6c0.6-0.2,0.3-0.1,0.7-0.3l-1.3-0.3c0.1-1.9,1.3-4.6,2.3-5.9c-0.3-1.2-0.6-1.2-1.6-1.6
			c0.1-1.7,1-2.3,1.3-3.3c0.4-1.1-1.2-2.5,0.3-4.6v-0.7c1.1,0.3,0.5-0.2,1,0.7c1.8-1,9.3-2.6,11.5-1.6c1.6-1.5,3.4-1.7,4.3-4
			c0.3-0.5,0.5-1.3,0.7-2c-0.2-0.1-1.3,0-1.3,0l-0.3-1.3c-0.4-0.4-0.8,0-1.3-0.3l-0.3-1c-0.9-0.6-1.7-0.2-2.6-0.7
			c0.2-2.3,0.6-1.2,1.6-2.3v-1l2.6-1.6c0.7-1.1,0-1.5,1-2.3c-0.2-0.9-0.4-1.3-0.3-1.6c-0.5-1.7-0.6,0-2-1l-1-2l-1.3,0.3
			c-1.5-0.6-2.3-1.1-4-2c0.2-2,1.2-2.6,2.3-3.6c-0.2-0.2,2.4-1.8,3.6-2.6c1.4-1,5.7-2.5,6.6-3.6v-1.3c0,0,5.6-3.1,5.9-3.3
			c1-0.5,1.5,0.1,2.3-0.3c0.9-0.5,0.3,0.1,0.3-1c2.3-1.1,4.7-3.1,6.9-4c3.9-1.4,10.2-0.2,12.5-2.3c1,1,1.1,2.4,2,3.6
			c0.8,1.1,1.9,1.2,2.6,2.6c1.5-0.1,1.8-0.4,3-0.7c1,1.1,2.2,1.6,3,3c3.1-0.2,6.1-1.6,8.6-3c0.8-0.4,3.1-2,4.3-1.3
			c0.4,0.3,0.1,0.9,1.3,1.3c0.9,0.4,0.5-0.4,1.6-0.3l0.7,0.7c2.1,0.6,2.1-1.3,4-1l0.3,0.3c0.8-0.2,1.9-1.5,2.6-1.6
			c0.5,0.1,1.1,0.2,1.6,0.3c0.6-0.2,1.6-1.4,2.3-1.6c1.9-0.6,3.1,0,4.9-0.7c1.7-0.6,3.9-1.8,5.3-1.6h1c0,1.3,0.1,0.4-0.3,1.6
			c3.5,3.4,4.8,7.7,7.6,11.8c1.1,1.7,3,1.7,4,3c5-0.2,9.3-0.7,14.1-2c1.2-0.3,3.1,0.4,3.3,0.3c0.3-0.1,1.1-0.9,1.3-1
			c0.4,0.1,0.3,0.7,0.3,0.7c0.9,0.1,1.4-0.8,2-1c0.7-0.2,1.4,0.4,1.6,0.3l0.3-0.7c0.4,0.1,1.2,0.6,2,0.3l0.3-0.7
			c1-0.3,2.7,0.6,3.6,0.3l1-1c0.4,0.1,0.3,0.6,0.3,0.7c0.8,0.1,11.5-1.6,12.5-2c0.4-1.3,0.6-3.2,1.3-4.3l0.3-0.7
			c2.5,0.2,3.8,1.1,4.9,0c0.9,0.4,2.1,1.5,2.6,2.3h0.7c-0.4-0.8,0.2-0.2-0.7-0.7v-0.3c2.1,0,4.4,0.1,5.9-0.3c1.2,1.7,3,3.6,4.9,5.3
			c0.9,0.6,3-0.6,3.6-0.3c1.5,0.4,5.1,4.6,5.9,5.9c2-0.2,4.3-1.4,5.3-2.6c1.5,0.1,5.6,2.4,6.2,3.3c0.6-0.5,0.5-1.1,1-1.6
			c0.9-0.9,2.8-0.8,3.6-1.6v-1c0.7-0.9,2.1-1.2,3-2c0.9-0.6,0.5,0,0.3-1c2.6-1.3,4.6-4.2,7.6-5.3h2.3c1.7-0.6,3.5-2.7,5.3-3.3
			c0.9-0.3,1.7,0,2.3-0.3c1.1-0.5,1.5-1.8,2-3c2.9-0.5,4.6-2.2,7.6-3l-1.6-3l1-1c2,0.1,3,0.4,4.3-0.7h0.7c0.6-0.3-0.7-0.3-0.7-0.3
			V449L420.1,449L420.1,449z M340.1,559.5c0.2-0.3,0-0.1,0.3,0c0.6,0.2,0.3,0.1,0.7,0.3h-0.3C340.4,560.5,340.6,559.8,340.1,559.5z
			 M324,559.2c0.2-0.6,0.1-0.3,0.3-0.7C324.1,559.1,324.3,558.9,324,559.2z M228,371.1c0.3-0.8,0.6-0.7,1-1.3h0.7
			C229.2,371.4,229.2,371.6,228,371.1z M232.6,383.6v-0.7h0.7v0.7H232.6z M229.3,385.5h0.3c0.3,0.8,0.5,1.1,1,1.6
			c-0.4,0.2-0.3,0.2-1,0.3L229.3,385.5z M229.6,390.5v-0.3h0.7v0.3H229.6z M237.2,419.7c0.1-1.4-0.5-2.9-1.6-4
			c0.3-0.5-0.2-0.8,0.7-0.7v0.3c1-1.2,0.7-3-0.3-4c0.5-0.5,1.3-1,2-1.3c-0.2-0.8-0.7-0.8-0.7-1.6c0.6,0.1,0.8,0,0.7-0.7
			c-0.2-0.9-1.5-2.3-2-3.3c-0.5-0.4,0.1-0.4,0.3-1c-0.7-0.2-0.7-0.4-1.3,0c-2.5-0.5-3.6-4.7-3.6-7.6h1.6c-0.2-0.9-1.7-5.1-2.3-5.6
			c0.4-0.9,0.8-0.9,1.6-1.3c-0.1-1.8-0.4-2.5-1.3-3.3v-0.3c1,0.5,1.2,1.4,1.6,2.3c0.5,0.1,1.1,0.2,1.6,0.3c-0.1-0.9-0.2-1.7-0.7-2.3
			c0.5-0.8-0.1-0.4,1-0.7c0.3-2,0.6-4.2,0.3-5.3c1.1-0.5,3.5-1,4-1.3c0.2-0.1,3.2-3.6,4.3-0.3c0.3-0.2,0.7-0.4,1-0.7v-4.3
			c-0.9,0.2-1,0.4-1.6,0c-2.1,0.4-2.9,3.3-4.3,4.6c-0.4,0.4-1.5-0.3-2-0.3c-0.9,0.6-0.5,0-0.3,1c-0.8-0.1-0.9-0.1-1.3-0.3
			c-0.6-0.5,0.2-0.1-0.3-0.7c-0.1,0-1.4,1.1-2,1.3c-1,0.4-0.6-0.9-1.3-0.3c-0.6,0.2-0.3,0.1-0.7,0.3c1,0.5,1.3,1.1,2.6,1.3
			c-0.2,0.6-0.1,0.3-0.3,0.7l-0.3,0.3c-0.2-0.4-0.4-0.7-0.7-1v-0.3c-0.4,0.6-0.2,1.4-0.3,1.6v0.7h-0.3c-0.7-1.2-1.6-2.2-1.3-3.6
			c0.1-0.3-0.1-0.4,1-0.7c-0.1-1.4-0.4-1.6-0.7-2.6c0.2-0.2,0.4-0.4,0.7-0.7c0.5-0.2,0.4-0.1,1,0.3h0.3c-0.1-0.8-0.2-0.8-0.3-1.3
			l0.3-0.3l1,0.3c0.2,0.6,0.1,0.3,0.3,0.7c-0.7,0.6-0.6,0.8-1.3,1v0.3c1.8,0.1,2.2,0.2,2.3-0.7c1.1,0,2.1-0.1,2.3,0
			c0,0,1.3-0.1,0.7-0.3l-0.3-0.3c2.1-0.7,2.7-0.8,4-3h0.7V371c-1.8-0.1-4.1-0.6-5.6,0.3c-5.4,0.2-3-0.4-5.3-2.6
			c-0.4,0-0.2-0.2-0.7,0.3h-0.3c-0.2-0.6-0.1-0.3-0.3-0.7c0.2-1.4,0.1-1.3,1.3-1.6c-0.1-1.5-0.9-2.6-1.6-2.6c0.3-1.3,0.9-1.2,1.6-2
			c0.8,0.5,0.4-0.1,0.7,1c0.8-0.7,0.3-0.1,0.3-1c1.6,0.1,3.7,0,4.3-0.3v0.7c0.3,0.8-0.4,1.5-1.3,2c0.4,0.3,1.6,0,1.6,0
			c0.6,0.4,0,0.7,1,1c0.7-0.7,1.9-2.4,3-2.6c2.5-0.6,2.3,1,4.3-1.6c0.9,0.6,0.4,0.3,2,0.3l0.3,0.3c-0.1,0.7-0.1,0.6-0.3,1
			c0.1,1.7,0.6,0,0.3,2c0.7-0.4,0.6-0.2,1-1c0.9-0.6,0.5,0,0.3-1c1.2-0.5,1.7-0.6,2.3-1.3c0.8,0.3,0.7,0.6,1.3,1
			c-0.2,1.4-0.3,1.2-0.3,2l-0.3,0.3c0.8-0.1,0.8-0.2,1.3-0.3c-0.2,0.6-0.1,0.3-0.3,0.7c0.3,0.7,0.3,0.7,0.3,0.7h0.3
			c-0.8,2.5-0.4,6.4,0.7,7.2c0,0-0.1,1.3-0.3,0.7l-0.3-0.3c0.3,0.9,0.4,1.3,0.7,1.6v0.3l-0.7-0.3c-0.4,1.9-2.3,5.6-1,6.9
			c-0.3,0.3-0.7,0.7-1,1c-0.4,0.2-0.3,0.2-1,0.3c0.2,1.3,1.2,1.5,1,2.6c-0.3,2-1.5,2.3-1,4.3c-4.6-1-1.2-9.1-3-12.2
			c-0.3-0.3-0.3,0.2-1.3,0.3v-1c-0.5,0.2-0.5,0.2-1.3,0.3c0.2,0.5,0.3,0.8,0.3,1.6c-0.7,0.4-0.6,0.2-1,1h-1
			c-0.6,5.1-1,12.8-2.3,17.8c-0.6,2.2,0.1,3.7-0.7,4.9v0.7c0.2-0.2,0.4-0.4,0.7-0.7h0.7c-0.1,4-2,10.4-1,12.8v1.3
			c-0.4-0.4-0.9-0.9-1.3-1.3c-0.4,0.9,0,0.6-1,1l0.3,0.3l0.3,1c1-0.2,0.8-0.1,1.3-0.7c1,0.6,0.7,2.1,1.3,3v1.3
			C239.3,420.5,239.2,420,237.2,419.7L237.2,419.7z M242.4,376c0.4-0.2,0.3-0.2,1-0.3v1.3C242.7,376.6,242.9,376.5,242.4,376
			L242.4,376z M234.5,373.7h0.3v0.7h-0.7L234.5,373.7L234.5,373.7z M286.5,370.7v1h-1.3c0.3,0.3,0.1,0.1,0.7,0.3c0,1,0,1.8-0.3,2.3
			c-0.4,0.2-0.3,0.2-1,0.3c0.1-1.7,0.4-1.7-0.7-2.6c0.4-0.9,0.9-0.7,1.3-1.6C286.1,370.8,285.7,370.7,286.5,370.7L286.5,370.7z
			 M295.7,374.3c0.9,0.6,0.1,0.3,1,0.3c-0.1,1.7-0.5,1.7-1,2.6c0.3,0.7,0.5,0.9,0.3,1.3l-0.3,1c-1-0.2-0.7-0.2-1.3-0.7
			c-0.3,0.1-0.1-0.1-0.3,0.3c-1.1-0.7-0.7-2-2-2.6c0.2-1.1,0.3-1.3,0.3-1.6v-1c0.6,0.5,0.7,0.4,1,1.3
			C294.8,375.2,295.2,375,295.7,374.3L295.7,374.3z M332.2,374.7v1h-1v-1h0.3l0.3,0.3L332.2,374.7L332.2,374.7z M292.1,374.7h-1.3
			v-1c0.2-0.2,0.4-0.4,0.7-0.7h0.3L292.1,374.7L292.1,374.7z M270.4,389.8c0.9,0.6,0.4,0.6,1.3,0.7c-0.2,0.7-0.3,1.2-0.7,1.6v0.7
			c-0.4-0.2-0.9-0.4-1.3-0.7C270.3,390.9,270.7,391.2,270.4,389.8z M245.1,393.8c0.2,0.4,0.4,0.7,0.7,1v0.7h-1.3
			c0.1-0.7,0.1-0.6,0.3-1C245,393.8,244.8,394.1,245.1,393.8L245.1,393.8z M246.7,397.7l0.3,0.3c-0.2,1.8-1.7,4.3-1.3,4.6
			c-0.2,0.9,0.2,0.5-0.7,0.7c-0.3,0.4,0-0.1-0.3-0.3h-0.3v-5.6C245.5,397.9,245.2,397.8,246.7,397.7L246.7,397.7z M269.4,411.5v1.6
			c0.8,1.1,1.9,0.3,2.6,1.6h0.3l-0.3-1.6c1.6,0.1,3.6,0.8,4.6,1.6c1.3,0.5,2.1,2.3,2.6,3.6l-0.3,0.3c0,0-1.3-0.1-0.7-0.3l0.3-0.3
			c-1.7,0.3-1.7,0-3.3,0v-1.3c-0.5,0.5-0.2,0.6-1,1c-0.9,0.4-0.9-0.3-1.6-1c-0.2-0.1-0.8,0-1.3,0.3c-0.8-0.5-0.5-0.1-0.7-1.3
			c-0.2,0.4-0.2,0.3-0.3,1c-0.6-0.3-0.5-0.4-1.3-0.7c-0.4,0.5-0.6,0.7-1.3,1l-0.3,0.3v-0.3h-0.7c0.2-0.6,0.5-0.4,0.7-0.7
			c0.2-0.4-1.1-1.5-0.7-2.6c0.2-0.6,1,0.1,1-1l-1-1c0.4-0.2,0.3-0.2,1-0.3v-0.3c-0.8-0.2-1.4-0.5-2-1l0.3-0.3h-0.3
			c0.4-1.4,0.9-0.4,2-1.3h0.3c-0.3,0.9-0.6,1-1,1.6C267.4,410.4,269.2,411.2,269.4,411.5L269.4,411.5z M270.7,410.2
			c0.8,0.3,0.9,0.1,1.6,0.3l0.3,0.7c-0.8,0.2-1.5,0.4-2.3,0.7C270.9,410.8,270.8,411.4,270.7,410.2L270.7,410.2z M283.6,414.8h0.7
			l-0.3,0.3c-0.4,0.9-1.1,0.9-1.6,1.6c-0.7-0.3-0.6-1.5-1.6-2.3C281.2,414.1,282.7,414.1,283.6,414.8L283.6,414.8z M361.2,417.8
			c0.3,0.2,0.7,0.4,1,0.7v0.3c-0.7-0.3-0.5-0.3-1-0.7V417.8z M265.2,408.9c0.4,0.8,0.2,1.4-0.7,1.3c0.2-0.8,0.2-0.8,0-1.6
			C265.1,408.8,264.8,408.6,265.2,408.9L265.2,408.9z M264.8,407.6v-1c1.4,0.5,0.6,0.6,2,0.7c0.2,0.6,0.1,0.3,0.3,0.7
			c-0.2,0.6-0.1,0.3-0.3,0.7C266.6,408.3,265.8,407.8,264.8,407.6L264.8,407.6z M246.1,415.1l-1,0.3c-1.5-3.3-0.6-7.7-0.3-11.5h1.3
			l0.3,0.3C246.4,409.7,246.2,410.4,246.1,415.1L246.1,415.1z M276.3,421.1c-0.7-0.3-0.5-0.3-1-0.7c0.1-0.6,0.3-0.1,0-0.7v-0.7
			c1.1,0.2,0.8,0.3,1.6,0.7C276.8,420.5,276.7,420.5,276.3,421.1z M277.3,420.4h1v1h-1V420.4z M238.2,425.3c-0.5-1.2-1.1-2.4-2-3.3
			v-1h0.7c0.5-0.2,0.1-0.4,0.7,0c1.6,0.1,1.4,0.3,2.3,1v1.3c-0.4-0.4-0.9-0.9-1.3-1.3h-0.3c0,0.9,0,1.5,0.3,2v1.3L238.2,425.3
			L238.2,425.3z M247.4,425.3v-2l0.3,0.3c1.2-0.1,0.9,0.2,1-0.7c0.7,0.4,0.8,0.7,1.6,1c-0.1,0.9-0.1,1.1-0.3,1.6
			C248.9,425.7,248.1,425.6,247.4,425.3L247.4,425.3z M249.4,428h0.3c-0.1,1.2,0.2,0.9-0.7,1L249.4,428L249.4,428z M241.1,435.5
			c0.4-0.2,0.3-0.2,1-0.3c-0.5-1.6-0.3-3.1-0.7-4.6c0.3-0.3,0.1-0.1,0.3-0.7h1c0.5,1.9,0.9,3.9-0.3,5.6v0.7
			C241.9,435.9,241.9,435.8,241.1,435.5L241.1,435.5z M506,387.8v0.3c-1-0.2-0.7-0.2-1.3-0.7c0.4-0.2,0.3-0.2,1-0.3
			C505.8,387.7,505.7,387.5,506,387.8L506,387.8z M681.9,372.4l-0.3,0.3c-0.7-0.3-0.5-0.3-1-0.7c0.2-0.4,0.4-0.7,0.7-1
			C681.5,371.5,681.7,371.9,681.9,372.4L681.9,372.4z M442.8,359.5h0.3c-0.2,0.7-0.3,0.4,0,1c0.3,0.4,0-0.1,0.3-0.3h0.3v0.3
			c0.4,0.4-0.1,0.2-0.3,1h0.3c0.1,0.1,4.4,0.6,5.6,0.7c0.2,1,0.3,1,0.7,1.6c1.6-0.4,2.5-1,4.3-0.3c0.7-1.6,1.7-2.1,2-4l0.3,0.3
			c0.8,0.4,0.7,0.3,1,1.3c0.5,0.4-0.1,0.4-0.3,1c0.7,0.5,1.5,1.3,2,1.3c0.3,0,1.6-0.8,2.3-0.3c0.9,0.5,0.2,1.1,2,1.3
			c0.3,0.7,0.3,0.7,0.3,0.7h0.3v0.3c-0.2,1.1,0.4,0.1,0.7,1c0.3,0.9-0.3,2.7,0,3.3c-0.4,0.7-0.5,0.5-1,1c0.7,1.2-0.6,4.2-1,4.9
			c0.2,0.2,0.4,0.4,0.7,0.7c0.4,0.7,0.5,0.4,2,0.3c-0.4,1.6,0.3,8.4,0.3,11.8c1,0,1.8,0,2.3-0.3h0.3c0.3,1.6,0.6,4-0.3,5.3
			c-0.5,0.3,0,0-1,0c-0.2,0.5-0.2,0.5-0.3,1.3c-0.2,0.5,0.5,2.4,0.7,2.6c-0.4,0.3-0.4-0.1-1,0.3c-0.3,0.5,0,0.6,0.3,1.3
			c-2.1,1.5-0.2,4.3-2,6.2v0.3l-0.7-0.3v0.3c-0.7,0.6-4.2,8.5-3.6,9.5v0.3l-0.7-0.3v0.3c-0.8,0.6-1.2,1.7-1.3,3
			c-2.4-0.1-1.1-0.5-3-0.7c0.3-0.9,0.6-2.8,0-3.6c-1.1-0.7-3.8,0.3-4.6,0.3c-0.2,0.6-0.6,1.7-0.7,2c-0.6,0.3,0,0-0.7,0
			c-0.3,1.5-0.1,1.7,0.3,3c-0.4,0.4-0.9,0.9-1.3,1.3c0.2,1.3,0.5,1.7,1,2.6c0.9-0.4,1.6-1.4,2-2.3h1c0.2,1.4,0.3,0.4,1,1.6h1
			c-0.3-0.3-0.1-0.1-0.7-0.3c0.1-1.3,0.3-1.6,1-2.3l0.3,0.3c-0.1,2.5-0.9,4-1.6,5.9c-0.8,0.2-0.2,0.1-1,0c-0.6,1.5-0.9,5.5-2.3,6.2
			v0.7c0.9-0.3,0.9-0.3,1.3-1c0.9,0.9,1,1.9,2,2c0.2,0.9,0.1,0.9,0.3,1.3c-0.2,1.6-0.4,0.8-1,1.3l-0.3,0.3c1,0.8-0.6,3.8,0,4.6
			c0.5,1,0.4,0.4,1.6,0.3c-0.1,0.3-0.2,0.7-0.3,1c-0.7,0.2-0.6,0.1-1,0.3h-0.7v1c-1,0-1.3,0.2-1.6,0c-2-0.2-1-0.6-2-1.6
			c-0.2-0.2-1.1,0.6-1.6,0.3c-0.9-0.4-1.1-1.5-1.6-2.3c-0.5-0.3-1,0.1-1.6-0.3h-1c0.3,0.6,0.5,0.9,0.7,1.6c-0.6,0.3-1.5,1.1-2.3,1
			c-0.1,0-1.1-0.7-1.3-0.7c-1.5,0.5-0.8,0.7-2.6,1c0.2-0.9-0.2-0.5,0.7-0.7v-0.7c-0.9-0.2-1.4-0.5-2-1h-0.3c0.2,0.9,0.5,1.2,0,2
			c-1,0.7-2.9,0.7-3.3,1c0,0-1.3,0.1-0.7,0.3l0.3,0.3c-0.7-0.2-0.7-0.4-1.3,0c-0.3-0.5,0,0,0-1c-0.9,0.2-0.5-0.2-0.7,0.7
			c-1.6-0.6-1.1-0.3-2.6,0c0.4-2.4,2.5-1.8,3.6-3.3c0.2-0.3-0.4-0.7,0.3-1.3l-0.3,0.7l1-0.3c-0.2,0.7-0.4,1,0,1.6v0.7
			c1-0.7,1.6-1.6,3-2c0,0-0.1-1.3-0.3-0.7l-0.3,0.3c0.3-0.7,0.3-0.5,0.7-1c-1.1-0.3-1.2-0.4-1.6-1.3h-0.7c0.2,0.7,0.4,0.7,0,1.3
			c0.5,0.9-0.1,0.3,1,0.3v0.7c-1.5-0.2-4-1.7-5.9-1.3c-0.8,0.2-1.2,0.9-2.6,1c0,1.3,0.1,2.2,0.7,3v0.7c-0.6-0.2-0.3-0.1-0.7-0.3
			c-0.9,0.2-0.5-0.2-0.7,0.7h-0.7c-0.6-1.9-1.4-2.4,0.3-3.6c-0.1-3.9-0.6-4.4-1.3-7.2c6.4-3.7,4.4-11.3,3.3-16.8
			c-0.4-2,0.2-5.1-0.7-6.2c-0.3-0.3-0.1-0.1-0.7-0.3c-1,1-2.7,1.3-3.3,2.6c-1.5-0.7-3.6-0.9-5.3-0.7c-0.5-1-0.9-2.2-1.6-3v-0.3
			c-0.8,0.5-0.4-0.1-0.7,1l-0.3-0.3c-0.9,0.5-0.4,0-0.3,1.3c-3.6,1.6-3.6,3.9-2,6.9c-0.6,1.6-0.7,4.8,0.3,5.9c-1,0.7-2.6,1-4.3,1
			c1,0.6,2.5,0.2,3.3,1c0.2,0.5,0.4,0.1,0,0.7c0.3,0.7,0.3,0.7,0.3,0.7h0.3c-0.2,0.6-1,3-1,3c0.5,0.5,0.9,0.6,0.3,1.6
			c0.6,0.5,1.3,1.2,2,1.6l-0.3,0.3v-0.3c-0.8,0.5-1,1.7-1.3,2.6c-0.7,0.3,0.2,0.1-0.3,0.7c0.2,0.4,0.1,0.2,0.3,0.3h0.3
			c-0.1,0.6-0.3,0.1,0,0.7c-0.4,0.6-0.5-0.3-1,1c-0.9-0.4-0.6,0-1-1c-1.4,0.7-2.3,1.6-3.6,0.7c-1.1,0.3-0.5-0.2-1,0.7
			c-0.3,0.7-0.3,0.4,0.3,1c-0.1,4.1-3.1,3-5.3,3.6c-0.6,0.2-1.2,1.1-2,1c-0.8-0.1-1.8-1.2-3-1c-1.8,0.4-5.4,1.9-7.6,0.3
			c-1.3-0.8-0.7-5.3-0.7-6.6c-0.6-0.2-0.3-0.1-0.7-0.3c-0.3,0.6-0.3,0.4,0,1c-0.2,0.1-1,0.1-1.6,0.3l-0.3,1.6
			c-1.3,0-0.8-0.6-1.3,0.3h-0.7c0.2-1.1,0.4-2.8,0.7-3.3v-0.3c-1,0.4-1.3,1-2,1.6c-0.2-0.4-0.4-1-0.7-1.3c0.3-1.3,0.1-0.7,1.3-1
			v-1.6c-0.7,0.1-0.6,0.1-1,0.3c-0.3-0.5-0.3-2.1-0.7-2.6l-0.3-0.7c-0.9,0.3-0.6,0.4-1.6,0.7c0-0.8,0-1.2,0.3-1.6
			c-0.1-1.8-0.2-2.5,0.7-2.6c0-2.1,0.8-5.7,1-5.9c0,0-0.1-1.3-0.3-0.7l-0.3,0.3c1.6-3,2.2-4.5-1.6-7.6c-0.8-0.6-0.1-1.2-1.3-1.6
			c0.3-0.8,0.4-0.5,0.7-1.3c-0.4-0.4-0.7-0.8-1-1.3c-2.6,0.1-2,1-2.6,2.6c-0.6,0.2-0.3,0.1-0.7,0.3c-0.4-0.6,0.3-1.3-0.3-2.3
			c-0.2-0.3-0.9-0.5-1.3-1.3c-1.6,0.2-1.2,0.5-2.3,1c0.2,0.4,1.3,3,1,3.6c-0.4,1-1,0.5-0.7,2l-0.3,0.3c-0.8-0.1-0.9-0.1-1.3-0.3
			c-0.9-0.5-1.5-2.1-2-3c-0.8,0.1-0.9,0.1-1.3,0.3c-0.8,1.2-1.2,5-0.7,5.6v0.3h-0.7c-1.3-2.5-3.4-4.8-4.3-7.6c-0.3-0.5,0.2-0.1,0-1
			c0.5-0.2,0.8-0.3,1.6-0.3c-0.6-1-1.7-0.5-2.3-1.6h-0.3c0,1.4-0.5,1.2,0.3,1.6v1.6c-1.9-0.8-10-1.9-12.5-0.3h-0.3
			c0.6-1.3-0.3-2.4,0-3h0.7c0.4-0.9,0.1-1.9,0.7-2.6l1.3-0.3c-0.9-0.8,0.4-2.2,1-2.6c-0.3-1.5-1.1-2.4-1.6-3.6
			c-1.5-0.5-1.6-0.1-2.6-1l-0.3-0.3v0.3c-1.5,0.6-0.3,0.6-1,2L342,399c-0.4,0.4,0,1.1-0.3,1.6c0,0-1-0.3-1.3,0c0,0,0.3,0.7,0,1
			l-0.3,0.3c-0.4-1-0.7-2.9-1.3-4c-0.3-0.4-0.5,0.1-1.3,0.3c-0.5-0.6-0.9-1.2-1.3-2h-1c0.7,1.9-0.3,3.3,0,4.9
			c-0.7,0.2-0.6,0.1-1,0.3c-1.2,0.6-2,1.8-2,2.6c-0.9-0.9-1.8-1.8-2.6-2.6c0.1-0.3,0.7-1,0.3-1.6l-1,0.3c0.3-0.3,0.1-0.1,0.7-0.3
			c-0.4-0.8-1.8-2-2.6-2.3c-1.4-0.4-2.6,1.4-4.3,0.7c-0.3,0.7-0.7,1.4-1,2c-1.5-0.2-3.4-0.2-4,0.7c-1-0.5-2.3-1.5-3-2.3
			c-0.7,0.1-0.6,0.1-1,0.3c-0.6,0.6,1.5,2.6,1.6,3.6c0.2,1.2-1.2,2.6-0.7,3.3c0.3,0.3,0.2,0,0.3,0.7c-1.3,0.6-2.8,1.1-4,2
			c0.1,0.1,0.2,1.7,0,2c-0.6,1.2-2.3,1.3-3,3.3c-0.4,0.7,0,1.1,0.7,1.6v0.3l-0.7-0.7c-0.4,0.7-0.2,0.6,0,1.3c-2,0-8.6,0-9.5,1
			c-1.8,0.1-5.2,0.5-5.9-0.7c-0.4-0.8,0.5-0.6,0.3-1c-0.2-0.4-1.1-1.3-1.3-1.6c1-2.3-0.7-1.1-0.3-3c0-0.3,1.1-1.4,1-1.6l-0.7-0.7
			c-0.3-1.5,0.6-1.4,0.7-1.6c0.4-1.2-0.8-5.5-1.3-5.9c-0.2-0.6-0.1-0.3-0.3-0.7c-0.5,1.9-0.6,2.5,0,4.6c-0.3,0.2-0.7,0.4-1,0.7
			c-0.5,1.5,1.2,1.5,0.7,3c-0.2,0.7-1,1.1-1.3,1.6c-0.1,0.2,0.6,0.9,0.7,1c0,0-0.1,1.3-0.3,0.7l-0.3-0.3v1.6c-0.8,0-1.2,0-1.6,0.3
			h-0.3c1.1-2.3-1.1-1.4-0.7-3.6c0.2-1.3,0.8-7.5,0-8.6c0-1.5-0.2-1.8-0.7-2.6c-1.5,0.2-2,0.7-3,1.3c-0.1,3.5,1.6,6.1,0.3,8.2
			c0.7,0.6,0.6,1,1.6,1.3c-0.2,0.6-0.1,0.3-0.3,0.7c-0.4,0.3-0.4-0.1-1,0.3c-0.5,0.3-0.5,1.1-0.3,2c-2.6-0.4-1.7-1.6-3-1.6
			c1.5-2.7,1.5-5.4,2-7.9c-0.7-0.2-0.7-0.4-1.3,0c-0.8-0.5-0.5-1.2-1-2c0,0-0.1-1.3-0.3-0.7l-0.3,0.3c0.4-1.8-1.1-3.7-1.3-4.9
			c-0.1-0.8,0.4-0.6,0.7-1.3c-0.5-0.4-0.4-0.2-0.7-1h-0.3c-0.6,0.9-1.3,1.4-1.6,2.6c-1.4,2.1,0.2,8.7,1.3,9.5
			c-0.3,1.1,0.2,0.6-1,0.7c0.2,1.4,0.3,2.3,0.3,4.3c-1.7-0.1-1.2-0.4-1.3-1.3c-1-0.1-0.5-0.1-1.3,0c0.2-0.7,0.5-1.3,0-2l-0.3-0.3
			v0.3c0,0-1.3,0.1-0.7,0.3l0.3,0.3c-1.5-0.3-1.2-0.5-2.6-0.3c-0.2-1-0.3-1.4,0-2.3c-0.8-0.2-0.2-0.1-1,0c0.2-0.9,0.5-2,1-2.6
			c0.6-0.9,0-0.5,1-0.3c0.1-1.8,0-2.8-1-3.6c0.4-1.2,0.6-0.8,0.7-1.6c0.8,0.3,1.4,0.8,2,1.3c0.6-0.2,0.3-0.1,0.7-0.3
			c0.3-0.3,0.1-0.1,0.3-0.7c-1.5-1.5-1.4-3.1-2.6-3.6c0.3-0.5,0.9-0.7,2-1c0.1-0.8,0.2-0.8,0.3-1.3c-0.8-0.2-0.2-0.1-1,0
			c0.9-1.7,1.3-3.3,3.3-4c-0.2-1.8-0.7-1.4-1-3h1v-1c1,0.5,0,0.4,0.7,1.3v0.7h0.3c0.3-0.3,0.6-0.4,1-0.7c-0.2-1.3-0.6-3.1-1-3.6
			c0-0.9,0.1-1.4,0.3-2h1.3v1.3h0.7c-0.1-0.8-0.1-0.9-0.3-1.3c0.4-0.2,0.3-0.2,1-0.3c-0.1,1.6-0.5,1.6-0.3,2.6l-0.3,0.3
			c0.6-0.2,0.3-0.1,0.7-0.3l0.3-0.3h-0.3c1.1-1.2,3.2-0.2,4-2.6c1.3,0.2,1.2,0.4,2,1c0.3-0.3,0.1-0.1,0.7-0.3v-1.3
			c0.9-0.1,1.4-0.2,2-0.7c0.8,0,1.2,0,1.6,0.3c0.3,0.5,0,0,0,1l0.3,0.3c0.2-0.2,0.4-0.4,0.7-0.7h0.7v1.6l0.7-0.3l0.3,1
			c0.7-0.1,1.3-0.2,2-0.3c1,0.3,0.7,1.2,1.3,1.6c0.3,0.2,3.6,0,3.6,0c1.7,0.3,2.3,1.4,2.6,3c-0.1,0.3,0.1,0.1-0.3,0.3
			c1,0.7,1.6,0.3,2.3,1.3c2.5,0,3.1-0.9,4.6-1.3c2-0.6,2.8,1.1,4.3-0.7c1,0.5,1,1.3,1.6,2v0.3c0.2-0.4,0.2-0.3,0.3-1
			c0.8,0.5,0.5,0.1,0.7,1.3c0.3-0.3,0.4-0.6,0.7-1l0.3,0.3c0.2,0.8,0.1,0.2-0.3,1c0.6,0.2,0.3,0.1,0.7,0.3h1
			c-0.4-0.8,0.2-0.2-0.7-0.7c0.1-0.8,0.2-0.8,0.3-1.3c1.1-0.3,1.4-0.6,3-0.7v1l0.3-0.3c1.3-0.4-0.1-2.1,2-2.6
			c-0.2-0.4-0.4-0.7-0.7-1c0.3-0.3,0.7-0.1,1.3-0.7c0.6-0.6-0.6-0.3,0-1c0.9-1,1.1,0.2,1-1.3c0.9-0.4,1.8-1.3,2.6-1.6l1,0.3
			c0.6-0.4,1.1-1.7,2-2c1.3-0.4,1.2,0.5,2.3-0.3c0.4-0.4,0.5-0.9,0.3-1.6l0.3,0.3c0.8-0.5,0.4-0.2,0.3-1.6c1.1,0.3,1.7,0.8,2.3,1.6
			c0.6-0.3,0.6-1,1-2c1.3,0.5,2,1.9,2.3,3.3c0.6-0.2,0.3-0.1,0.7-0.3h0.3c-0.5,0.6-0.3,0.5-1.3,0.7c0.5,1.6,1.3,1.4,2,2.6
			c1.4-0.4,9.4-0.9,10.2-0.7c0.3-0.6,0.7-1.2,1-2c1.3-0.3,3.1-0.8,3.6,0c1.3-0.3,0.9-0.6,1.6-1.3c0.8,1.4,0.7,1.6,0.7,4l0.3,0.3
			c2.1-0.1,3.5-0.9,4.6-0.3c1,0.4,0.7,0.6,1.3,1.3l0.3,0.3c0.1-1.1,0.1-0.7,0-2h0.7c0.5,1,1,1.8,1.3,3c0.4,0.8-0.6,0-0.3,1
			c0.2,0.8,1.7,1.7,2,2.3l-0.3,2h0.7v0.3l-0.3,0.3c-0.1,0.9,1.1,3,1,4l-0.7,0.3c0.3,0.4,0.9,0.7,1,1.3H369v0.7
			c0.5,0.7,1.1,1.3,1.6,2h1c-0.2-0.6-0.6-1.2-1-1.6v-0.3c0.4,0.2,1,0.4,1.3,0.7c0.2,0.5,0.4,0.1,0,0.7c0.2,1.2,0.5,1.2,1,2h1v-1h-1
			v-0.3c0.4-0.2,0.7-0.4,1-0.7c0.6-0.8,0.2-3.3,0-4c0.6-1,0.3-0.4,1.3-0.3c-0.1-1.2,0.2-0.9-0.7-1c0.6-1.6,0.9-4.4,0.3-5.3
			c0.3-0.3,0.9-0.5,1.3-0.7c0.1-3.4-1.4-12.8,1.3-14.8c-0.4-0.2-0.3-0.2-1-0.3c0.2-1,0.1-0.8,0.7-1.3c-0.4-1-0.1-0.3-1-0.7
			c0.3-0.3,0.7-0.1,1.3-0.7c0.2-0.3,0-0.6,0-1.6h1c0-1.7,1.4-3.6,1-4.3c2.1-1.9,5.8-1.5,7.6-3.6c1.7,0,1.9-0.2,2,0.7
			c0.8-0.4,0.2,0.2,0.7-0.7c1.1,0.2,0.5,0,1,0.7c0.4-0.3,2.5-1.3,3.6-0.7c0.5,0.3,0.1,0.7,1,1c1.2,0.4,2.2-1.3,3.6-1
			c4.3,1,10,4.5,13.5,6.2c0.3,2.1,0.5,6.5,1,7.2v2c1.5-0.2,2-0.1,3.3-0.7c-0.1,0.2-0.2,0.4-0.3,0.7c0.9,0.2,2.8,0.1,4,1
			c0.3,0.2,0.7,0.4,1,0.7c0,0-0.1,1.3-0.3,0.7l-0.3-0.3c0.2,1.3,0.6,1.9,1.3,2.6l0.3,0.3c0.4-0.4,0.9-0.9,1.3-1.3
			c1.3,0.6,2.9,3.1,2.6,4.3h1.6c0.2,2.2,1.6,2.8,2,4.3c0.3,1.1-0.2,1.3,0.3,2.3c1.3-0.2,1.3-0.2,1.6-1.3l0.3-0.3
			c-0.2-0.2-0.4-0.4-0.7-0.7c0.3-1,0.7-2,1-3l-1-0.3c0.7-2.4,1.6-4.7,2.3-5.9c0.1-0.1-0.5-1-0.3-1.6c0.6-2.7,0.3-5.6-0.3-7.6
			c-0.6-2.1,1.4-7.3,1.6-9.5h2.3c0.1,3.1,1.4,6.1,0.7,7.2h0.7c0.6,0.3,0.6,0.1,1.6,0c-0.3-0.3-0.1-0.1-0.7-0.3
			c0.3-1.6,0.7-1.6,2-1.3c-0.1-0.8-0.2-1.5-0.3-2.3c1,0,1.3,0.2,1.6,0L442.8,359.5z M446.7,359.9h0.7v1h-0.7V359.9z M456.6,357.2
			c0.2,0.6,0.1,0.3,0.3,0.7v1c-0.6,0.2-0.3,0.1-0.7,0.3h-0.3v-2.6h2l-0.3,0.3C457,357.8,457.6,357.3,456.6,357.2L456.6,357.2z
			 M674.4,356.2v0.7h-0.3c-0.2-0.6-0.1-0.3-0.3-0.7v-0.3L674.4,356.2L674.4,356.2z M669.1,348l-0.3,0.3c0,0-0.1,1.3-0.3,0.7
			l-0.3-0.3V348H669.1L669.1,348z M665.2,346.7v0.3c-1-0.2-0.7-0.2-1.3-0.7v-1h0.3C664.5,346,664.6,346.3,665.2,346.7L665.2,346.7z
			 M666.8,345.7v0.7h-1.3c-0.2-1-0.3-1.2-0.7-2l0.7-0.3C665.5,344.8,665.7,345.3,666.8,345.7L666.8,345.7z M662.2,344.1
			c-0.4,0.4-0.3,0-1,0.3C661.8,344,661.4,343.5,662.2,344.1z M663.5,337.8v-0.3c0.8,0.6,1,1.5,1.6,2.3v0.3
			C664.4,339.5,664.2,338.5,663.5,337.8z M184.6,316.1c-0.4,0.4-0.9,0.6-1.3,1c-0.5-0.5-0.8-1.4-1.3-2l0.3-0.7
			C184.1,314.7,183.7,315.1,184.6,316.1L184.6,316.1z M371.1,273.3c0.4-0.4,0.9-0.6,1.3-1c0.4,0.4,0.6,0.9,1,1.3
			c-0.4,0.4-0.9,0.6-1.3,1C371.7,274.3,371.5,273.7,371.1,273.3z M331,278.6c0.3-0.7,0.4-0.9,0.3-1.3V277h1c-0.3,1.1-0.2,0.8-1,1.3
			v0.3H331z M334.2,277.6c-0.3,0.7,0.5,0.3-0.3,1C334,278.3,333.6,277.4,334.2,277.6z M297.4,289.5c-0.2-0.3-0.4-1-0.7-1.3
			c-0.4-0.2-0.3-0.2-1-0.3c2-1.9,4.3,0.4,6.9,0c1.1-0.2,2.7-1.3,4.3-1c2.2,0.5,4.7,1.2,5.6,1.3v0.7c-0.7,0.3-1.3,0.7-2,1
			c-0.3,0.4-3.3-0.6-4.6-0.3c-0.3,0.3-0.7,0.7-1,1C303.1,289.7,298.7,289.2,297.4,289.5L297.4,289.5z M302.3,293.1
			c-0.3-0.6,0,0,0-0.7c-1.4,0.2-1-0.1-1,1c-1.2-0.3-0.9-0.3-1-2c2,0.1,2.4,0.6,4.3,0.7v1c-0.9,0-0.3-0.4-1,0.3c-0.3-0.5,0,0,0-1
			C302.8,292.8,302.7,292.8,302.3,293.1z M312.5,295.1h0.7c-0.3,0.8-0.1,0.5-0.7,1V295.1z M308.9,296.7c0.6,0.3,0.4,0.1,0,0.7V296.7
			z M310.6,297.4l0.3-1h0.3v1H310.6L310.6,297.4z M318.8,297c-1.3-0.9-1.5,0-2.3-1.3c-0.8,0.5-0.4-0.1-0.7,1c-0.7-0.1-0.6-0.1-1-0.3
			c-0.3-0.4-0.1-0.3-0.3-1c1.1-0.5,2.1-0.9,3.3,0c0.3-0.4,0.3-0.5,0.3-1.3c1.2,0.5,2.4,1.2,3,0.3c0.6,0.2,0.3,0.1,0.7,0.3
			c0.3,0.3,0.6,0.9,0.7,2.3l0.7-0.3v-1.3c1.6,0.1,1.7,0.5,2.3-0.7c0.6,0.2,0.3,0.1,0.7,0.3l0.3,0.3c-0.9,0.4-0.9,0.4-1.6,0.3
			c-0.1,1.1,0,1.8-0.3,2.3c0.6,0.3,0.2,0.1,1,0l0.3,0.3v1.3c-0.5,0.1-1.1,0.2-1.6,0.3c-0.1-0.7-0.1-0.6-0.3-1c-0.4,0-0.5-0.1-1,0.7
			c-0.3-0.4-0.3-0.5-0.3-1.3c-0.9,0-0.5-0.2-1,0c0,0-1.3,0.1-0.7,0.3l0.3,0.3c-1.1-0.6-1-0.9-2.3-0.7
			C318.6,297.6,318.4,297.7,318.8,297L318.8,297z M329,298.7h1v0.3c-0.5,0.2-0.5,0.2-1.3,0.3L329,298.7L329,298.7z M327.7,299.3
			L327,299C327,299,327.2,298.8,327.7,299.3z M318.5,300.3c-0.7-0.3-0.5-0.3-1-0.7c0.3-0.3,0.7-0.7,1-1l0.3,0.3h0.3
			C318.8,299.8,318.7,299.5,318.5,300.3L318.5,300.3z M299.7,300c0.1-0.9,1.1,0.5,1,0.7C300.4,300.4,300,300.2,299.7,300z
			 M302.3,299.3h1v0.7c-0.8,0.2-1,0.4-1.6,0.7C301.9,300.2,302.1,299.8,302.3,299.3z M303.7,300.3c0.2-0.6,0.1-0.3,0.3-0.7
			c0.5-0.3,1.1-0.4,2-0.7c0.5,0.4,0.9,0.5,1.3,1l0.3,0.3c-0.3,0.3-0.7,0.7-1,1C305.2,301,304.8,300.9,303.7,300.3L303.7,300.3z
			 M310.2,300c0.6,0.2,0.3,0.1,0.7,0.3c-0.5,0.2-0.5,0.2-1.3,0.3c0.2-0.6,0.1-0.3,0.3-0.7C310.1,299.7,309.9,299.9,310.2,300
			L310.2,300z M311.2,302.3l0.3-2l0.3-0.3c0.9,0.2,0.5-0.2,0.7,0.7c0.8-0.4,1.1-0.9,1.3-2h1.3c-0.5,1.1-1,1.6-1,2.3
			c-1.7,0.8-2-0.2-2.3,1.3L311.2,302.3L311.2,302.3z M317.1,301.3c0.6,0.2,0.3,0.1,0.7,0.3h0.7v0.3h-1.3V301.3L317.1,301.3z
			 M324.4,307.6c0.3-0.3,0.7-0.7,1-1l0.3,0.3l0.3,0.3C325.5,307.4,324.9,307.5,324.4,307.6L324.4,307.6z M329.6,304.6
			c0,0.2-0.7,2-1,2.3c-0.8,0.8-1.4-0.4-2.6-0.7v-1.3c1,0.5,1.2,0.9,2.6,1c-0.1-0.8-0.1-0.9-0.3-1.3v-0.7
			C329.1,304.2,329.2,304.2,329.6,304.6L329.6,304.6z M321.4,304.6c-0.6,0.9,0,0.5-1,0.3c0.3,1.2,0.3,0.8,1.3,1.3l0.3,0.7
			c-1.3,0.4-2,0.1-3,0.3c-0.7-1.1-1.6-1.6-2.3-2.6c-0.4,0.7-0.2,0.9,0,1.6c-0.8-0.2-0.2-0.1-1,0c-0.1-1.1-0.1-0.5,0-1.6
			c-0.5-0.2-1.1-0.4-1.6-0.7c0.4-0.6,0.6-0.6,1-1.3c2.9,0.2,3.6,1.4,5.9,1.3C321.3,304.5,321.2,304.3,321.4,304.6L321.4,304.6z
			 M319.8,303h-0.3c0.3-0.9,0.5-0.7,0.7-2h1C320.7,302,320.4,302.3,319.8,303L319.8,303z M329.3,302l-0.7-0.3
			C328.7,301.7,328.9,301.4,329.3,302z M604.3,301.3v0.3l-1,0.3c0.1-0.2,0.2-0.4,0.3-0.7L604.3,301.3L604.3,301.3z M562.2,300.7V300
			C562.8,300.3,562.6,300.1,562.2,300.7z M532.6,298.4v1l-1.3-0.3v-0.7H532.6z M530,298.7l0.3,0.3c-0.6,0.3-0.9,0.5-1.6,0.7
			c0.1-0.4,0.2-0.9,0.3-1.3C529.7,298.5,529.6,298.4,530,298.7L530,298.7z M333.3,298c-0.8,2.2-2.1,1.4-2,4.3L331,302
			c-0.3-0.5,0.1-1.3-0.3-2c0.3-0.9,0.8-1.6,1.6-2c-0.3-1.4-0.7-1.6-0.3-3c-0.6-0.2-0.3-0.1-0.7-0.3h-0.7l0.7,0.7
			c-0.4,0.7-0.5,0.5-1,1H330c0.1-0.8,0.1-0.9,0.3-1.3c-0.3-1.5-0.2-0.3-1-1.3c-0.8,0.4-0.5,0.7-1,1.3v0.3h-0.7c0.2-1.8,0-3-2-3.3
			l-1,0.3c-0.5-0.2-1-1.2-1.6-1.3c-0.8-0.2-1.5,0.8-1.6,0.7v-0.7c-0.6-0.4-1.8-0.3-2-0.3c-0.7-0.4-0.5-0.5-1-1
			c-0.2-0.2-1.5,0.3-2.3,0.7c-0.3-0.5-0.6-0.9-1-1.3c0.2-1.2,0-0.9,1-1.3c0,0,4.5-0.7,4.9,0c0.8-0.4,1.7-0.9,2.3-1.6
			c0.3,0.3,0.1,0.1,0.3,0.7c2.5-0.5,4.9-2.9,6.9-2c1.5-0.3,1.7-1.4,1.6-2.3c1,0.3,0.9,0.1,1.3,1c0.9-0.6,1.2-1.2,1.3-2.6
			c1.2,0.2,1.1,0.5,2.3,0.7c-0.1-1.4-0.4-2.6,0-3.3V278h-0.7c-0.3,0.6-0.5,1.2-1,1.6v0.3h-0.3c0.4-2,2.2-3.1,0.3-4.6V275l0.7,0.3
			l-0.3-1c0.8,0.3,0.5,0.1,1,0.7c0.2,0.5,0.1,1.4,0,2.6c0.5-0.7,0.7-1.7,0.7-3c0.6-0.2,0.3-0.1,0.7-0.3c1.2,0.3,1.2,0.6,1.6,1.6
			c1.2-0.2,1.4-0.5,2.6-0.7c-0.2,1.5,0,2.1,0.3,3.3c-0.6,0.3-0.9,0.5-1.6,0.7c0,1.2,0,2.1-0.3,2.6c-0.5,0.9,0.1,0.3-1,0.3
			c0.2,2.6-0.2,0.9-1.3,2.3c0,0-2.1,6.5-2,7.2c-0.6,0.6-2,1-1.3,2c-0.5,0.3,0,0-1,0c-0.1,0.3,0,2.3,0,2.3c-0.4,0.2-0.9,0.4-1.3,0.7
			L333.3,298L333.3,298z M461.9,281.6h0.3c-0.2,1.2-0.5,1.4-0.7,2.6c-1.2-0.6-1.4-0.7-2.6-1.3C460.2,282.1,460.8,282.9,461.9,281.6
			L461.9,281.6z M488.9,290.1h1.3l-0.3,0.3c-0.7,0.7-0.4,0.5-1.3,0.3C488.7,290.6,488.8,290.3,488.9,290.1L488.9,290.1z
			 M499.7,294.4c0.7-0.2,0.7,0.2,1,0.3c1.1,0.7-0.1,0.6,1,1.3v0.3c-1.7-0.4-2.4-1.5-3.6,0.3c-0.2-0.4-0.2-0.3-0.3-1
			c-3,1.9-7-1.4-9.2,0.7c-0.3-0.6-0.1-0.2,0-1h-0.7c0.6-1.7,4.9-0.7,6.9-0.3c0.6-0.4,0.6-1.4,2-1c0.9,0.2,1.4,0.7,2.6,1
			C499.5,294.8,499.6,294.6,499.7,294.4L499.7,294.4z M476.7,294.1c0.5-0.9-0.3-0.5,0.7-1l0.3-0.3v0.3c0.3,0.3,0.1,0.1,0.3,0.7
			C477.5,293.9,477.5,294,476.7,294.1L476.7,294.1z M463.2,293.1h1.6v0.3c-1.2,0.5-1.4,0.5-3,0.3v-0.7
			C462.8,293.2,462.6,293.4,463.2,293.1L463.2,293.1z M465.5,293.4v-0.7c1.9,0.1,3,0.4,3.3,0c1,0,2.1,0,2.6,0.3l0.3,0.3
			C469,294.4,468,293.9,465.5,293.4L465.5,293.4z M474.1,292.8h1c-0.1,0.3-0.2,0.7-0.3,1C473.9,293.3,474.4,293.8,474.1,292.8z
			 M493.8,293.7c0.1-0.4,0.2-0.9,0.3-1.3h1v1l-0.3,0.3L493.8,293.7L493.8,293.7z M459.9,292.8c1.1,0.4,0,0.3,1,1
			c-0.5,0.4-0.9,0.5-1.3,1c-1.5-0.3-2.3-1.8-3.6-1c-0.9-0.3-0.4-0.3-1-1c-0.2-0.4,0-0.3,0-1.3C457.2,291.5,458.9,292.3,459.9,292.8z
			 M425.1,293.4c-2.4,0-4.7-0.1-6.2-0.7v-0.7c4.5,0,8.9,0.4,12.8,0.3v1c-1.6,0-3.5-0.9-4.9,0.3c-0.9-0.6-0.5,0-0.3-1
			c-0.8-0.1-0.9-0.1-1.3-0.3C424.8,293.1,424.9,292.7,425.1,293.4L425.1,293.4z M392.5,291.8h1c-0.5,0.8,0.1,0.4-1,0.7V291.8z
			 M389.2,292.4v-0.7h1v0.3L389.2,292.4L389.2,292.4z M397.1,291.8h1.3v1l-1.3-0.3V291.8z M408.6,292.1h2.6l-0.7,1
			c-0.7-0.1-1.3-0.2-2-0.3V292.1z M413.2,292.4v-0.3h3.3v0.3c-0.6,0.2-2.1,0.3-2.6,0.7C413.7,292.9,413.4,292.7,413.2,292.4z
			 M416.8,292.8v-0.7c0.8,0.1,0.9,0.1,1.3,0.3c-0.3,0.6,0,0,0,0.7L416.8,292.8z M432.3,292.8c0.4-0.6,5.4-0.9,6.2-0.3
			c0.7,0.3,0.9,0.5,1.3,1l-0.3,0.3C436.6,293.4,435,293.7,432.3,292.8L432.3,292.8z M441.8,292.1h1c-0.1,0.4-0.2,0.9-0.3,1.3
			c-1.2,0.1-1.3,0.1-2,0C441.3,292.5,441.5,292.9,441.8,292.1L441.8,292.1z M443.8,292.8v-0.7c1.1,0.3,0.5-0.2,1,0.7h0.3v0.7
			c-0.6,0.2-0.3,0.1-0.7,0.3C444.2,293.5,444,293,443.8,292.8L443.8,292.8z M450.1,292.1v1.3c-1.2,0.1-2.3-0.4-3.6,0v-0.3
			c-0.5-0.4,0.1-0.4,0.3-1c1.1,0.1,0.8,0.3,1.3,0.7C448.8,292.4,448.8,292.2,450.1,292.1L450.1,292.1z M452,292.4h2.3v1
			c-1-0.3-1.3-0.2-2.3-0.7V292.4z M605.3,296c-0.1,0.8-0.2,0.8-0.3,1.3c-1.3,0.1-0.6,0.1-1.6-0.3v-1.3l0.3-0.3
			C604.7,295.6,604.6,295.7,605.3,296L605.3,296z M511.6,295c0.2,0.4,0.2,0.3,0.3,1h-1v-1l0.3-0.3L511.6,295L511.6,295z
			 M648.4,282.6v0.7h-0.7v-0.7H648.4z M478.3,271.7c0.2-0.2,0.4-0.4,0.7-0.7c1,1,1.3,2.6,2.3,3.6c1.8,1.3,3.9-0.2,6.2,0
			c4.4,0.4,9.1-0.3,13.5-1.6c2.3-0.7,6.3,1.1,6.9,2.3c0.9-0.3,1.8,0.4,3,0c0.6-0.2,1.6-1.4,2.3-1.6c1.4-0.5,2.1,0.1,3-0.7
			c0.6,0.5,0.7,0.4,1,1.3c0.2,0.5-2,12.3-3,12.8c0.4,0.9,0,0.6,1,1c-0.6,1.9-1.4,2.8-1.6,4.9l-1-0.3c0.2,1.2,0.2,0.3,0.7,1h0.7v0.7
			c-0.9,0.1-0.7,0.3-1.3,0c-1.9-0.1-2-0.2-2,1c-0.8-0.2-0.2-0.1-1,0v-1.6c-1,0.3-5.1-1.4-5.3-1.6c-0.6,0.8-0.4,1.8-1.3,2.3
			c0.3,1.1,0.2,0.8,1,1.3v1c-0.6-0.3-0.5-0.4-1.3-0.7c0-1.2-0.1-2.6,0.3-3.3v-1c-2.4,1-4.4-0.9-5.9,0.7h-0.3
			c0.1-0.5,0.2-1.1,0.3-1.6c-0.8,0-1.2,0-1.6,0.3c-1.3-0.2-3-1.3-3.3-2.6c-0.6,0.3-0.9,0.5-1.6,0.7c-1.7-3.5-10-5.4-13.8-4.3
			c-0.6-0.2-1.4-1.1-2-1c-0.1,0.2-0.2,0.4-0.3,0.7h-0.7v-0.7h-3.6v-0.7c-1.2-0.4-1.5,0.9-2,1c-1.2,0.3-1.9-0.7-3-0.7
			c-0.1-0.9-0.1-1.1-0.3-1.6c0.7-0.2,1-0.4,1.6,0h1.6c0.1,0-0.6-0.8-0.3-1.3c0.4-0.6,0.6,0,1,0c0.8-0.8-0.5-1.1,1.3-1.6
			c-0.3-0.6-0.5-0.9-0.7-1.6c-0.6,0.3-0.9,0.5-1.6,0.7v-0.3h-0.3c0.9-2.5,2.3-1.3,4.3-2c2.3-0.9,4.3-2.9,5.6-4.9
			C478.3,271.1,478,270.8,478.3,271.7L478.3,271.7z M478.7,270.1l-0.7-0.3C478,269.7,478.2,269.5,478.7,270.1z M216.5,240.4v-1
			c-0.7-0.1-0.6-0.1-1-0.3c-2.2,0-2.8-0.3-4-1c0.5-2.1,1.1-3,2.3-4.3c0.4-0.3-0.1,0-0.3-0.3v-0.3c1.8-0.9,1.7-1.7,3-2.6
			c0.9-0.7,2.6-0.8,3.3-1.6v-0.3c-0.1-0.1-0.7-0.2-0.3-0.7l1.3-0.3l0.3-1.6c0.8-0.8,1.6-0.7,2.3-1.6l0.7,0.3
			c-0.5,1.8-5.1,6.9-3.3,9.2v0.7l0.3-0.3h0.3c-0.3,1.1-0.2,1.3,0,2.6c-1.8,0.6-2.2,1.1-3,3.6L216.5,240.4L216.5,240.4z M285.2,238.8
			c0.3-1,0.8-0.7,0.3-1.6c0.2-1.4,2-1.5,3-2l0.3-0.3h-0.3v-0.3c0.8,0.2,3.7-0.2,4.6-1c0.7-0.4,0.7-0.9,1-1.6c2.3-0.6,4.1-1.4,6.6-2
			c0.3,0.3,0.6,0.4,1,0.7l0.3,1c-2.7,1.5-3.8,5-7.2,5.6l0.7,0.7c-0.7,0.7-2.4,0.9-3,1.6v1.3c-0.2,0.4-1,0.6-1.3,1
			C287.6,241.4,287.9,239.7,285.2,238.8L285.2,238.8z M369.1,229.9c0.8,0.1,0.8,0.2,1.3,0.3c-0.1,0.7-0.1,0.6-0.3,1
			c-0.3,0.3-0.4,0.2-1.3,0.3c0.1-0.7,0.1-0.6,0.3-1V229.9L369.1,229.9z M434.6,234.9c1.8-1.2,2.8-3.8,4.9-2c0.2,0.9-3.7,2.9-5.6,3.6
			c-0.5-0.6-0.4-0.7-1.3-1C433.3,234.7,433.7,235.5,434.6,234.9L434.6,234.9z M359.9,241.8c0-1.3,0.2-1.8-0.7-2.3
			c0.8-1.9,2.1-4.5,4.6-5.3c0.1-0.2,1.4,0.2,2.3-0.7c1,0.3,1.8,0.8,2.6,1.3l0.3,1c-1.7,1-4.4,6.1-5.6,6.6v-1.6
			C361.9,241.1,361.7,241.6,359.9,241.8z M501.7,236.5c0,0-0.1,1.3-0.3,0.7l-0.3-0.3C501.4,236.6,501.1,236.7,501.7,236.5
			L501.7,236.5z M574.4,243.4c0.1-0.7,0.1-0.6,0.3-1c0.4-0.7,1-1,1.6-1.3c0-1,0-1.8-0.3-2.3c0.1-0.9,0.1-1.1,0.3-1.6
			c2.6,0,3.1,0.7,4.6,1.6c0.2,0.9,0.5,1.2,0,2c-0.6,1.8-2.3,2.2-3.6,3.3C575.8,244.1,575.3,243.9,574.4,243.4L574.4,243.4z
			 M573.4,239.5v-1l0.3-0.3c0.7-0.1,1.3-0.2,2-0.3v1l-0.3,0.3C574.7,239.2,574.1,239.4,573.4,239.5z M651.4,237.8h0.7
			c0,1.9-1.7,3.4-3,2.6c-0.2,0.4-0.2,0.3-0.3,1h-3l1.6-3.3c1.7,0.1,1.5,0.3,2.3,1c0.7-0.7,1-0.4,1.3-1.6L651.4,237.8L651.4,237.8z
			 M616.8,232.6c-0.3,2.1-2.6,3.1-0.7,4.3c-0.5,1.9-1.8,2.9-1.3,4.6c-1.3,0.6-2.9,1.3-4,2.3c-1.8-1.6-3-4.5-3-7.9
			c-0.9,0.6-0.6,1-2,1.3c0.1-1.1,0.1-0.5,0-1.6c2.1-0.8,4.7-2.1,6.2-3.6C614.3,231.9,615.5,232.2,616.8,232.6L616.8,232.6z
			 M520.1,221c1.1,2.3-3.2,4.3-4.3,6.2c-0.5,1,0.6,1.2,0,2.3c-0.3,0.5-1.4,0.9-1.6,1.3v1.3c-0.6,0.8-1.8,1.5-2.3,2.3
			c-0.5,0.7-0.2,1.7-0.3,2c-0.3-0.7-0.5,0.2-0.7,0.3c-0.7,0.7-2.1,0.8-2.6,1.6c-0.4,0.6-0.3,1.5-0.7,2v0.3c-0.2-0.4-0.2-0.3-0.3-1
			c-0.9,0.6-0.6,1-2,1.3c0.4-1.3,2.1-2.9,3-4v-1c-1.9,1.1-2,0.4-4.6,0v-1c2.3-1.1,4.3-3,6.9-3.6c-0.2-1.5,0.3-3.3-1.3-4.3
			c0.9-3.1,6.4-3.2,8.6-5.3c0.6-0.5,1.2-1.7,1.6-2.3C519.9,220.2,519.9,220.3,520.1,221L520.1,221z M546.8,211.2
			c-2-0.7-0.8-1.3-3.3-0.7c0.3-0.4,1.1-0.6,1.3-1v-1.6c0,0,2,0.3,2.6-1.3c2.1,0.3,1.9,1.7,3,3c-0.7,0.5-1.6,0-1.6,1.3
			C548,210.7,547.2,211.3,546.8,211.2L546.8,211.2z M564.5,207.2c0.5,0.2,0.3,1.3,0.7,1.6c0,0,3.1,1.2,4,1.3
			c0.1,0.8,0.1,0.9,0.3,1.3v0.7c1-0.1,1.1-0.2,1.6-0.7c0.3,0.3,0.7,0.7,1,1l-0.3,0.3h0.3c-1.3,2.5-3.9,0.8-5.6,1.6
			c-0.8-0.5-0.7-1-0.7-2.3l-0.3-0.3c-2.6,0.1-6.6,1.3-7.9,3c-1.3,0-1.7,0-2.3-0.7c-0.7,0.4-0.5,0.5-1,1c-0.2,0.1-2,0.1-2.6-0.3
			c-0.3-0.9,1-2.4,1-3.3c3-1.4,5.5-1.8,8.6-2.6c-0.1-0.7-0.1-0.6-0.3-1v-0.7C561.8,207.2,563.9,207,564.5,207.2L564.5,207.2z
			 M658.6,161.5c0.2,0.2,0.4,0.4,0.7,0.7c0.2,1.2,0.2,4.6-0.3,5.3v0.3c-0.6-0.9-0.4-1.6-1.3-2.3c0.7-1.7,0.8-2.1,0.7-4L658.6,161.5
			L658.6,161.5z M657.6,152.6v-1C657.9,152.2,657.9,152.1,657.6,152.6z M690.2,151.6c0,0.8,0,1.2-0.3,1.6v0.7
			c-0.7-0.3-0.5-0.3-1-0.7c0.3-0.8,0.6-1,1-1.6H690.2z M690.2,150.3c-0.3,1.1-0.2,0.8-1,1.3c0.2-0.8,0.3-0.7,0.7-1.3H690.2z
			 M672.4,117.7c0.6-0.3,0.6,0,1.6,0v0.7C673,118.2,673.1,118.1,672.4,117.7z M674.4,118.7c0.1-0.2,0.2-0.4,0.3-0.7h0.3v0.7H674.4
			L674.4,118.7z M673.1,123.7c0.6-0.3,0.4-0.3,1,0h0.7v0.3C674.2,123.9,673.6,123.8,673.1,123.7L673.1,123.7z M680.6,146
			c-0.4,0.3-0.5,0.3-1.3,0.3C679.7,146.1,679.9,146.1,680.6,146z M635.6,130.6c0.4,0.2,0.2,0.1,0.3,0.3c0.3,0.6,1.3,0.8,2.6,1
			c-0.1,0.7-0.1,0.6-0.3,1c-0.3,1-3,1.4-4,2.6c-1.3-0.3-1.1,0-1.3-1.3c-0.4,0.2-0.9,0.4-1.3,0.7c0.1-0.9,0.3-0.7,0-1.3
			c0.3-1.7,0.3-1,1.3-1.3c0.2-0.6-0.1-1,0.3-1.6c0.1-0.2,0.2-0.4,0.3-0.7C634,130.1,635.2,130.3,635.6,130.6L635.6,130.6z"/>
		<path class="st0" d="M134.5,348l-0.3-0.3v0.7c0.6-0.2,0.3-0.1,0.7-0.3L134.5,348L134.5,348z"/>
		<path class="st0" d="M136.2,551l1,0.3V551C136.4,550.8,136.8,550.7,136.2,551z"/>
		<path class="st0" d="M142.8,553.9v0.7c0.3-0.3,0.1-0.1,0.3-0.7H142.8z"/>
		<path class="st0" d="M150.7,326c-0.5-0.2-0.4-0.1-1,0.3h1.3V326H150.7L150.7,326z"/>
		<path class="st0" d="M166.1,300.3c-0.7,0.3-0.3-0.5-1,0.3C165.5,300.6,166.3,300.9,166.1,300.3z"/>
		<path class="st0" d="M169.7,300c-1.6,0-0.7,0.1-2-0.3c-0.2,0.2-0.4,0.4-0.7,0.7h-0.7c0.4,0.8,0.6,0.5,1,1.3c1-0.3,1.2-0.5,2.3-0.7
			V300L169.7,300z"/>
		<path class="st0" d="M179.3,601.3c-0.5-1-1-1.2-2.3-1.3c0.1,0.8,0.2,0.8,0.3,1.3c-1.4,0.7-2.1,2.8-1.3,4v0.7
			c1.5-0.3,2.2-0.3,2.6,1.3l1-0.7C179.6,605,180,602.5,179.3,601.3L179.3,601.3z"/>
		<path class="st0" d="M190.8,616.1v-2.3l-1.6-1c-1.4-2-2.8-5-4.9-6.2v-1c-1.3-0.3-1.3-0.4-1.6-1.6c-0.6,0.3-0.9,0.5-1.6,0.7
			c0.6,1.3,0.7,2.4-0.3,3.6c0.8,3.8,7.6,4.8,8.6,9.5c0.7-0.2,1-0.4,1.6,0h0.3C190.8,616.8,190.5,616.9,190.8,616.1z"/>
		<path class="st0" d="M187.2,627.3V627c-1.8,0.2-3.8,0.7-4.6,2c0.4,0.4,0.5,0.6,0.7,1.3C185.3,629.3,186.3,628.4,187.2,627.3
			L187.2,627.3z"/>
		<path class="st0" d="M185.9,598.4h-0.3l-0.3,1C185.7,598.9,185.6,599.1,185.9,598.4L185.9,598.4z"/>
		<path class="st0" d="M186.9,601.6h-0.3V601h-0.3v1.6C186.7,602.2,186.6,602.4,186.9,601.6L186.9,601.6z"/>
		<path class="st0" d="M196.4,480.6v-0.3c-0.6,0.2-0.3,0.1-0.7,0.3H196.4z"/>
		<path class="st0" d="M221.1,557.2c0.8,0.1,0.9,0.1,1.3,0.3h0.7v-0.3c-0.6-0.3-0.9-0.4-1.3-1C220.9,556.7,221.3,556.2,221.1,557.2z
			"/>
		<path class="st0" d="M230.6,375.6h1v-0.3C230.9,375.5,230.9,375.4,230.6,375.6z"/>
		<path class="st0" d="M234.6,363.1h0.7v-0.3C234.6,363,234.9,362.9,234.6,363.1z"/>
		<path class="st0" d="M237.8,414.5v0.7c0.3-0.3,0.1-0.1,0.3-0.7H237.8z"/>
		<path class="st0" d="M246.7,365.8c-0.2,1.3-0.7,2.3-1.3,2.6c0.3,1,0.7,1.2,1,2.3c1.9-0.9,1.6-3.3,1.6-4.9c-1.1-0.3-0.8-0.2-1.3-1
			c-0.3,0.3-0.7,0.7-1,1C246.6,366,245.9,365.9,246.7,365.8L246.7,365.8z"/>
		<path class="st0" d="M248.4,385.2H248v0.7C248.3,385.5,248.2,385.8,248.4,385.2z"/>
		<path class="st0" d="M250.7,376.3V376c-1.3,0-1.7,0.1-2.3,0.7c0.9,0,1.5,0,2-0.3L250.7,376.3L250.7,376.3z"/>
		<path class="st0" d="M250.3,364.5c-0.3-0.3-0.9-0.5-1.3-0.7l-0.7,1.6c0.7,0.4,0.8,0.7,1.6,1C249.9,365.4,249.7,365.3,250.3,364.5
			L250.3,364.5z"/>
		<path class="st0" d="M249.4,369.4h0.7v-0.3C249.4,369.3,249.7,369.1,249.4,369.4z"/>
		<path class="st0" d="M250.7,366.4h0.7v-0.3C250.8,366.3,251,366.2,250.7,366.4z"/>
		<path class="st0" d="M252.6,372.7c-1.1,0.3-0.5-0.2-1,0.7l1-0.3V372.7L252.6,372.7z"/>
		<path class="st0" d="M270.7,404.9v0.7C271.1,405.1,271.3,405.3,270.7,404.9z"/>
		<path class="st0" d="M271.7,404.6v-1h-0.3l-0.3,1H271.7L271.7,404.6z"/>
		<path class="st0" d="M273.7,402.6c-0.4-1-0.2-0.9-1-0.3L273.7,402.6z"/>
		<path class="st0" d="M273.4,579.3c0.1,0.7,0.5,0,0.7-0.3C273.5,578.6,273.5,579.2,273.4,579.3z"/>
		<path class="st0" d="M273.4,393.4v0.7c0.3-0.3,0.1-0.1,0.3-0.7H273.4z"/>
		<path class="st0" d="M274.3,174.7c-0.8,0.4-0.2-0.2-0.7,0.7l1,0.3l-0.3-0.3L274.3,174.7L274.3,174.7z"/>
		<path class="st0" d="M274.3,173.7h0.7C274.7,173.1,274.9,173.3,274.3,173.7z"/>
		<path class="st0" d="M275.3,172h1v-0.3C275.6,171.8,275.7,171.8,275.3,172z"/>
		<path class="st0" d="M276.7,389.8c-0.7,0.1-0.6,0.1-1,0.3c0.8,0.4,0.7,1.1,1.3,1.6v0.3h0.3l-0.3-2L276.7,389.8L276.7,389.8z"/>
		<path class="st0" d="M278,386.5v0.7C278.4,386.7,278.5,386.9,278,386.5z"/>
		<path class="st0" d="M282.6,165.8l-0.3-0.3c-1.2,0.2-1.7,0.5-2.3,1.3c0.3,0.3,0.1,0.1,0.3,0.7c1.1,0.1,0.8,0.3,1.6-0.3
			C282.2,166.8,282.4,166.2,282.6,165.8L282.6,165.8z"/>
		<path class="st0" d="M281.9,381.2l-0.3,1h0.7v-1H281.9L281.9,381.2z"/>
		<path class="st0" d="M282.6,164.1c-0.2,0.4-0.2,0.3-0.3,1h1.3v-0.3C283.2,164.6,282.9,164.4,282.6,164.1L282.6,164.1z"/>
		<path class="st0" d="M284.2,163.5c0.3-0.3,0.1-0.1,0.3-0.7c-0.3-0.3-0.1-0.1-0.3-0.7l-0.3,0.3c-0.6,0.4-0.9,1.1-1.3,1.6
			C283.8,164.1,283.7,164.3,284.2,163.5L284.2,163.5z"/>
		<path class="st0" d="M282.9,575h0.7C283.3,574.4,283.5,574.6,282.9,575z"/>
		<path class="st0" d="M289.8,378.3c-0.5-0.3-0.9,0.2-1,0.3C289.3,378.3,289.2,379.1,289.8,378.3z"/>
		<path class="st0" d="M292.8,375.6c0.1,0.7,0.5,0,0.7-0.3C292.9,375,292.9,375.5,292.8,375.6z"/>
		<path class="st0" d="M306.6,397h0.7v-0.3C306.7,396.9,306.9,396.8,306.6,397z"/>
		<path class="st0" d="M308.6,393.7h-0.3l-0.3,1C308.4,394.3,308.3,394.5,308.6,393.7L308.6,393.7z"/>
		<path class="st0" d="M310.9,289.5v-0.3c-0.7,0.1-0.6,0.1-1,0.3H310.9z"/>
		<path class="st0" d="M310.9,394.1h-0.3l-0.3,1C310.7,394.6,310.6,394.9,310.9,394.1L310.9,394.1z"/>
		<path class="st0" d="M314.2,397v-0.3h-1l-0.3,1c0.4-0.2,0.7-0.4,1-0.7H314.2z"/>
		<path class="st0" d="M319.1,305.6c-0.2-0.6-0.1-0.3-0.3-0.7v-0.3c-0.2,0.4-0.2,0.3-0.3,1H319.1L319.1,305.6z"/>
		<path class="st0" d="M321.1,390.1l-0.3-0.3c-0.2,0.2-0.4,0.4-0.7,0.7v1c0.6-0.2,0.3-0.1,0.7-0.3c1.2,0.6,0.7,0.5,0.7,1.6l0.7-0.3
			C322,390.9,322,390.8,321.1,390.1L321.1,390.1z"/>
		<path class="st0" d="M322,393.1h0.7v-0.3C322.1,393,322.4,392.8,322,393.1z"/>
		<path class="st0" d="M324,393.4v-0.3l-1-0.3v0.7L324,393.4L324,393.4z"/>
		<path class="st0" d="M325.7,397c0.1,0.7,0.5,0,0.7-0.3C325.8,396.4,325.8,396.9,325.7,397z"/>
		<path class="st0" d="M327.3,385.5v0.7c0.6-0.2,0.3,0.5,1,0C328.5,386,327.4,385.6,327.3,385.5z"/>
		<path class="st0" d="M328,388.5h0.7C328.3,387.9,328.5,388.1,328,388.5z"/>
		<path class="st0" d="M338.2,211.5v-1.3h-1.3c0.3-0.9,0.5-0.7,1-1.3c0.4-0.3-0.5-1.2-1-1.6c-0.2-0.6-0.1-0.3-0.3-0.7
			c-0.2,0.8-0.1,0.2,0,1c-0.8,0-1.2,0-1.6,0.3c-0.6,0.4-0.9,1.1-1.3,1.6h-0.7c1,0.8,2.4,1.2,3,2.3c0.2-0.2,0.4-0.4,0.7-0.7
			c0.3,0.3,0.4,0.6,0.7,1C337.5,211.9,337.8,211.7,338.2,211.5L338.2,211.5z"/>
		<path class="st0" d="M336.9,394.7c-0.4-1-0.8-1.2-1.3-2c-0.5,0.5-0.2,0.6-1,1c0.6,1.4,0.3,0.7,0,2
			C336.8,395.7,335.8,395.1,336.9,394.7z"/>
		<path class="st0" d="M337.2,205.6l-0.3,1h0.7v-1H337.2L337.2,205.6z"/>
		<path class="st0" d="M337.5,390.1c0.6,0.5,0.7,0.4,1,1.3c0.3-0.6,0.3-0.4,0-1C338.4,389.4,338.2,389.4,337.5,390.1L337.5,390.1z"
			/>
		<path class="st0" d="M337.5,277.9h0.7v-0.3C337.6,277.8,337.8,277.7,337.5,277.9z"/>
		<path class="st0" d="M338.8,382.6h-0.3c-0.2,0.9-0.1,0.8,0,2h1C339.3,382.6,339.1,384.2,338.8,382.6L338.8,382.6z"/>
		<path class="st0" d="M341.1,194.1h-0.7c-0.4,0.4-0.9,0.9-1.3,1.3c1.2-0.2,1.2-0.5,2-1L341.1,194.1L341.1,194.1z"/>
		<path class="st0" d="M340.8,193.7v-0.3c-0.6,0.2-0.3,0.1-0.7,0.3H340.8z"/>
		<path class="st0" d="M341.5,391.1c0.1,0.3,0.9,0.7,0.7,1.3c-0.9,0.6-0.7,0.4-1.3,1.3c0.9,0.2,2.4,0.5,2.6,0.7h0.7
			c-0.4-0.8,0.2-0.2-0.7-0.7c0.1-0.8,0.2-0.8,0.3-1.3c0.6-0.4,0.4-0.5-0.3-1.3c0.4-1.2,1-1.4,2.3-1.6c-0.4-0.8,0.2-0.2-0.7-0.7
			c-0.5-0.3-1,0.1-1.6-0.3C342.9,388.5,341.1,389.9,341.5,391.1L341.5,391.1z"/>
		<path class="st0" d="M340.8,193.4h1v-0.7C341,193,341.3,192.9,340.8,193.4z"/>
		<path class="st0" d="M341.5,394.7l-0.3,1h0.7v-1H341.5L341.5,394.7z"/>
		<path class="st0" d="M342.5,191.8c-1,0.2-0.8,0.1-1.3,0.7c0.7-0.1,0.6-0.1,1-0.3h0.3L342.5,191.8L342.5,191.8z"/>
		<path class="st0" d="M343.1,191.1c-0.6,0.2-0.3,0.1-0.7,0.3h0.7V191.1z"/>
		<path class="st0" d="M344.1,199l-0.3,0.3h0.3c0,1.8-0.1,2,1,2c-0.2,1.3-0.1,1.4-0.7,2.3c0.8,0.5,0.7,0.2,1,1.3h1.6v-2.3
			c2-1.9,3.2-4,6.2-4.9c-0.1-0.7-0.3-2.4-0.7-3v-0.7c-0.2,0.2-0.4,0.4-0.7,0.7c-0.4-0.4-0.7-1-1-1.6
			C347,193.2,345.8,196.5,344.1,199L344.1,199z"/>
		<path class="st0" d="M344.7,190.1v-0.3c-0.6,0.2-0.3,0.1-0.7,0.3H344.7z"/>
		<path class="st0" d="M345.7,187.8v0.7C346.1,188,346.3,188.2,345.7,187.8z"/>
		<path class="st0" d="M347.4,392.4v-0.3c-0.6,0.2-0.3,0.1-0.7,0.3H347.4z"/>
		<path class="st0" d="M354.9,408.5v0.7C355.3,408.7,355.5,408.9,354.9,408.5z"/>
		<path class="st0" d="M357.6,403.3V403c-0.7,0.1-0.6,0.1-1,0.3H357.6z"/>
		<path class="st0" d="M357.6,376.3v0.7c0.3-0.3,0.1-0.1,0.3-0.7H357.6z"/>
		<path class="st0" d="M369.7,396.7h1v-0.3C370.1,396.5,370.1,396.5,369.7,396.7z"/>
		<path class="st0" d="M376.7,212.2h-0.3c-0.4,0.7-0.7,0.8-1,1.6c0.7,0.2,0.7,0.4,1.3,0h0.7C377.1,213.2,376.9,212.9,376.7,212.2
			L376.7,212.2z"/>
		<path class="st0" d="M381.3,208.9c-0.5-0.3-0.6,0.2-0.7,0.3C380.7,209.9,381.1,209.2,381.3,208.9z"/>
		<path class="st0" d="M383.6,433.5v-0.3c-0.7-0.2-0.4-0.3-1,0L383.6,433.5z"/>
		<path class="st0" d="M384.6,430.6v-0.3c-1,0.4-1,0.3-1.3,1.3l1-0.3C384.4,430.7,384.3,430.9,384.6,430.6L384.6,430.6z"/>
		<path class="st0" d="M383.9,429.3c0.3,0.3,0.1,0.1,0.3,0.7c0.7-0.1,0.6-0.1,1-0.3c1.4-0.9-0.3-2.2,2.3-2.6c-0.1-0.5,0-4.6,0-4.6
			v-0.7c-0.2,0.2-0.4,0.4-0.7,0.7C385.8,422.9,384.1,427.2,383.9,429.3L383.9,429.3z"/>
		<path class="st0" d="M386.9,420.7c0.1,0.7,0.5,0,0.7-0.3C387,420.1,387,420.6,386.9,420.7z"/>
		<path class="st0" d="M403,428.9c0.2,1.5,0.1,1.7,0,3.3c0.5-0.7,0.7-1.7,1.3-2.3c0.5-0.3,0,0,1,0c-0.3-0.7-0.5-1.6,0-2.3V427
			c-0.3,0.2-0.7,0.4-1,0.7C404.1,429,404.6,429,403,428.9z"/>
		<path class="st0" d="M407.3,424.7v-0.3c-0.6,0.2-0.3,0.1-0.7,0.3H407.3z"/>
		<path class="st0" d="M422.1,455.3h1v-0.3C422.4,455.1,422.4,455,422.1,455.3z"/>
		<path class="st0" d="M436.2,439.5h0.7v-0.3C436.3,439.4,436.5,439.2,436.2,439.5z"/>
		<path class="st0" d="M436.9,439.8h0.7v-0.3C436.9,439.7,437.2,439.5,436.9,439.8z"/>
		<path class="st0" d="M439.2,439.1c0.3,0.5,0.3,1.1,0.3,2c1.2,0,0.6,0.4,1.3-0.7c0.8,0.3,0.5,0.1,1,0.7h0.3
			C442.1,439.3,440.3,438.6,439.2,439.1z"/>
		<path class="st0" d="M440.1,363.1c0.9,0,0.5,0.4,1-0.7C440.4,362.8,440.6,362.6,440.1,363.1z"/>
		<path class="st0" d="M448.7,439.5c0.4-0.2,0.7-0.4,1-0.7h0.7v-0.7c-0.4,0.2-0.7,0.4-1,0.7C448.6,439.2,449.1,438.7,448.7,439.5z"
			/>
		<path class="st0" d="M448.7,427.9c0.4,0.2,0.3,0.2,1,0.3V427C449.2,427.5,449.4,427.6,448.7,427.9L448.7,427.9z"/>
		<path class="st0" d="M450,429.3c-0.4,0.4-0.5,1-0.7,1.6C450.2,430.4,450,430.5,450,429.3z"/>
		<path class="st0" d="M457.2,409.5h-0.3v0.7C457.2,409.9,457,410.1,457.2,409.5z"/>
		<path class="st0" d="M457.6,411.8c0.8-0.4,1.2-0.6,1.6-1.3h0.7v-0.3c-1.4,0.1-1.5,0.2-2.3,0.7V411.8L457.6,411.8z"/>
		<path class="st0" d="M459.2,413.5v-0.3c-0.6,0.2-0.3,0.1-0.7,0.3H459.2z"/>
		<path class="st0" d="M459.9,408.5c0.8-0.2,0.7-0.3,1.3-0.7v-0.7c-1,0.1-1.1,0.2-1.6,0.7C459.8,408.2,459.7,408,459.9,408.5z"/>
		<path class="st0" d="M464.8,399.7v-0.3c-0.6,0.2-0.3,0.1-0.7,0.3H464.8z"/>
		<path class="st0" d="M465.5,400v-0.3c-0.6,0.2-0.3,0.1-0.7,0.3H465.5z"/>
		<path class="st0" d="M465.5,397l1.3-0.3V396c-0.7,0.2-1.1,0-1.6,0.3C465.4,396.7,465.3,396.5,465.5,397z"/>
		<path class="st0" d="M477.3,273c-0.7-0.4-0.7-0.5-1,0.3C477,273.1,476.8,273.9,477.3,273z"/>
		<path class="st0" d="M478.3,193.1v-1l-0.3,0.3h-0.7C477.8,193.2,477.2,192.8,478.3,193.1z"/>
		<path class="st0" d="M478.6,134.5h-0.3v0.7C478.6,134.8,478.4,135.1,478.6,134.5z"/>
		<path class="st0" d="M479,190.8v0.7c0.3,0.3,0.4-0.1,0.3-0.3L479,190.8L479,190.8z"/>
		<path class="st0" d="M480.3,188.8v1c0.5-0.3,1.1-0.7,1.6-1v-1.3h-0.3C481.2,188.3,481.3,188.4,480.3,188.8z"/>
		<path class="st0" d="M482.3,187.5c1.5-0.7,1.4-1.4,2.6-2v-1c-0.7,0.4-1.3,0.8-2.3,1C482.5,186.2,482.4,186.8,482.3,187.5z"/>
		<path class="st0" d="M484.6,184.2c-0.4-0.8-0.7,0.2-1,0.3C483.8,184.7,484.9,184.8,484.6,184.2z"/>
		<path class="st0" d="M483.6,172c0.2-0.4,0.2-0.3,0.3-1C483.7,171.4,483.7,171.3,483.6,172z"/>
		<path class="st0" d="M504.3,160.5c0.6,0.2,0.3,0.1,0.7,0.3h0.7c-0.2-0.6-0.1-0.3-0.3-0.7v-0.3C504.5,160.1,504.8,160,504.3,160.5
			L504.3,160.5z"/>
		<path class="st0" d="M507.9,235.5h-0.3v0.7C507.9,235.8,507.7,236.1,507.9,235.5z"/>
		<path class="st0" d="M509.6,201.3c-0.6,0.2-0.3,0.1-0.7,0.3h0.7V201.3z"/>
		<path class="st0" d="M510.5,230.2h0.7v-1C510.4,229.7,510.8,229.2,510.5,230.2z"/>
		<path class="st0" d="M511.2,230.6h-0.3v0.7C511.1,230.9,511,231.2,511.2,230.6z"/>
		<path class="st0" d="M518.1,166.8c-0.6-0.2-0.3-0.1-0.7-0.3c-0.2,0.4-0.2,0.3-0.3,1C517.5,167.2,517.8,167.1,518.1,166.8z"/>
		<path class="st0" d="M527.6,157.9v-0.2C527.6,157.7,527.6,157.8,527.6,157.9L527.6,157.9L527.6,157.9z"/>
		<path class="st0" d="M525.7,194.1c0.8-0.1,0.9-0.1,1.3-0.3c0.2-0.3,0.4-1,0.7-1.3v-0.7h-1.3c-0.1,0.9-0.2,1.4-0.7,2V194.1
			L525.7,194.1z"/>
		<path class="st0" d="M534.9,181.9l1.3-0.3c0.4-0.4-1.4-1.3,0.7-2.3c-0.9-1.4-1.6-2.2-1.6-4.6c-2.2,2.5-3.6,5.9-4.9,9.2
			c-1.9,0.4-3,0.8-4.3,1.6v1.3c0.3,0.4,0.5,1.8,0.7,2.3C530.1,188.5,532.4,183.8,534.9,181.9L534.9,181.9z"/>
		<path class="st0" d="M526.3,191.4c0.2-0.4,0.2-0.3,0.3-1C526.4,190.8,526.5,190.8,526.3,191.4z"/>
		<path class="st0" d="M536.5,198c0.6,0.2,0.3,0.1,0.7,0.3c1-0.1,1.1-0.2,1.6-0.7c0.3-0.3,0.1-0.1,0.3-0.7l-1-0.3
			c-1-0.5-0.4,0.7-1.3-0.3h-0.3V198z"/>
		<path class="st0" d="M537.5,196c-0.6,0.2-0.3,0.1-0.7,0.3h0.7V196z"/>
		<path class="st0" d="M537.2,140.8h0.7C537.5,140.2,537.7,140.4,537.2,140.8z"/>
		<path class="st0" d="M540.8,156.9c-0.6-0.2-0.3-0.1-0.7-0.3c-0.2,0.4-0.2,0.3-0.3,1C540.7,157.6,540.3,158,540.8,156.9z"/>
		<path class="st0" d="M543.4,158.2h-2.6c0.4,2.2,1.9,2.3,2.6,4c0.5-0.4,1.1-0.9,1.6-1.3C544.5,159.5,544.2,159.3,543.4,158.2z"/>
		<path class="st0" d="M546.1,161.5c-0.6,0.2-0.3,0.1-0.7,0.3h0.7V161.5z"/>
		<path class="st0" d="M546.4,202c0.5,0.3,1.1,0.7,1.6,1c0.3-0.3,0.1-0.1,0.7-0.3V201c-1.1,0.2-0.8,0-2-0.3
			C546.6,201.2,546.5,201.2,546.4,202L546.4,202z"/>
		<path class="st0" d="M548.4,154.9c-0.7,0.1-0.6,0.1-1,0.3h1V154.9z"/>
		<path class="st0" d="M562.2,211.2c0.1,0.7,0.5,0,0.7-0.3C562.4,210.5,562.3,211.1,562.2,211.2z"/>
		<path class="st0" d="M613.5,240.1v-0.3c-0.6,0.2-0.3,0.1-0.7,0.3H613.5z"/>
		<path class="st0" d="M614.2,238.1v0.7C614.6,238.3,614.7,238.5,614.2,238.1z"/>
		<path class="st0" d="M638.8,295.1c0.5,1.7,0.6,0.1,1.3,1.3c0.9,0,1.4-0.1,2-0.3c0.1-0.7,0.2-1.3,0.3-2h-2
			C640,294.6,639.6,294.8,638.8,295.1L638.8,295.1z"/>
		<path class="st0" d="M648.1,136.2v0.7c0.3-0.3,0.1-0.1,0.3-0.7H648.1z"/>
		<path class="st0" d="M652,286.2c-1-0.3-0.9-0.1-1.3-1h-1v2c1-0.3,1-0.5,2.3-0.7V286.2z"/>
		<path class="st0" d="M662.9,139.8v-0.3c-0.7,0.1-0.6,0.1-1,0.3H662.9z"/>
		<path class="st0" d="M668.1,335.2c0.4,0.4,0.9,0.9,1.3,1.3v0.3h0.3c0-0.8,0-1.2-0.3-1.6v-0.7C668.4,334.7,668.6,334.6,668.1,335.2
			z"/>
		<path class="st0" d="M673.7,215.4l-0.3-0.3v-0.7h-1v1H673.7L673.7,215.4z"/>
		<path class="st0" d="M673.4,349c-0.1-0.5-0.2-1.1-0.3-1.6c-0.3,0.4-0.3,0.8-0.3,1.6H673.4L673.4,349z"/>
		<path class="st0" d="M673,337.5c-0.1,0.2-0.2,0.4-0.3,0.7c0.3,0.3,0.1,0.1,0.3,0.7h0.3C673.3,338.6,673.1,337.1,673,337.5z"/>
		<path class="st0" d="M673,214.1c0.3,0.2,1.3,0.3,1-0.3C673.6,213,673.3,214,673,214.1z"/>
		<path class="st0" d="M673.7,338.8h-0.3v0.7C673.6,339.1,673.5,339.4,673.7,338.8z"/>
		<path class="st0" d="M678,246.7v-0.3c-0.7-0.2-0.4-0.3-1,0L678,246.7z"/>
		<path class="st0" d="M677.3,210.2c0.7-0.1,0.6-0.1,1-0.3h0.7c-0.2-0.6-0.1-0.3-0.3-0.7l-0.3-0.3v0.3
			C677.4,209.6,677.7,209.2,677.3,210.2L677.3,210.2z"/>
		<path class="st0" d="M678.6,396.4h-0.3v0.7C678.6,396.7,678.4,397,678.6,396.4z"/>
		<path class="st0" d="M679,184.5v0.7c0.3-0.3,0.1-0.1,0.3-0.7H679z"/>
		<path class="st0" d="M679.3,208.5c0.5-0.3,0.9-0.6,1.3-1h0.3v-0.7c-0.7,0.2-0.9,0.2-1.3,0.7C679.4,207.9,679.4,207.9,679.3,208.5z
			"/>
		<path class="st0" d="M680.3,206.2c0.1,0.7,0.5,0,0.7-0.3C680.5,205.6,680.4,206.1,680.3,206.2z"/>
		<path class="st0" d="M680.6,149c-0.4,0.4-0.1,0.3-0.3,1C680.7,149.4,681.1,149.8,680.6,149z"/>
		<path class="st0" d="M681.3,393.4c-0.3,0.4-0.3,0.5-0.3,1.3C681.2,394.4,681.2,394.2,681.3,393.4z"/>
		<path class="st0" d="M686.9,198.7c0.1,0.3,0.2,0.7,0.3,1c-0.7,0.2-1.3,0.4-2,0.7v1.3l-1,0.3c0.1,0.3,0.2,0.7,0.3,1l-1.3,0.3
			c-0.8,0.6-1,1.7-2,2.3v1c3.7,0.9,8.6-6.6,9.9-8.6c-0.7-0.3-1.5-0.5-2-1C688.5,197.6,687.4,198.1,686.9,198.7L686.9,198.7z"/>
		<path class="st0" d="M681.6,159.5l-0.3-0.3v0.7C681.6,160.2,681.6,159.8,681.6,159.5L681.6,159.5z"/>
		<path class="st0" d="M681.3,150.6h0.7C681.6,150.1,681.8,150.3,681.3,150.6z"/>
		<path class="st0" d="M682.6,161.5h0.7C682.9,160.9,683.1,161.1,682.6,161.5z"/>
		<path class="st0" d="M688.2,136.2h2v-0.3c-1-0.5-3.4-1.5-4.6-0.7C686.4,135.5,687.3,135.8,688.2,136.2z"/>
		<path class="st0" d="M703.3,178.6c-0.9,1.1-4.2,1.6-3.3,4c-0.3,0.2-2.6,1.1-3.6,1.3c0.1,0.7,0.1,0.6,0.3,1
			c-0.3,1.3-0.4,1.3-1.6,1.6c0.1,1.9-1.3,3.9-0.3,4.9c-1,1.1-2.8,3.5-4,4c-0.4,0.5-0.4-0.1-1-0.3v0.3c-0.6,0.4,0,0.2,0.3,0.7
			c-0.4,0.2-0.7,0.4-1,0.7c1.1,0.3,2.2,0.7,2.6,0.7h1.3c-0.1-0.3-0.2-0.7-0.3-1c1.9-1,2.3-2.7,4.6-3.3c-0.3-0.3-0.7-0.7-1-1
			c0.3-0.4,0.8-2.2,0.7-3c0.6-0.5,1.8-0.4,2.3-1c-0.1-0.3-0.2-0.7-0.3-1c0.4-0.5,3.8-2.2,4.3-3c0.7-1.1-1.5-2,2-3
			c-0.5-1.5-0.2-3.7,1.6-4.9c-0.1-1.1-0.1-1.4-0.7-2L706,174v0.3C703.4,175.3,704.4,177.2,703.3,178.6L703.3,178.6z"/>
	</g>
</g>
</svg>
