<?xml version="1.0" encoding="utf-8"?>
<!-- Generator: Adobe Illustrator 26.3.1, SVG Export Plug-In . SVG Version: 6.00 Build 0)  -->
<svg version="1.1"
	 id="svg2" xmlns:cc="http://creativecommons.org/ns#" xmlns:rdf="http://www.w3.org/1999/02/22-rdf-syntax-ns#" xmlns:dc="http://purl.org/dc/elements/1.1/" xmlns:inkscape="http://www.inkscape.org/namespaces/inkscape" xmlns:sodipodi="http://sodipodi.sourceforge.net/DTD/sodipodi-0.dtd" xmlns:svg="http://www.w3.org/2000/svg" inkscape:version="0.48.2 r9819" sodipodi:docname="BezalelLogo.svg"
	 xmlns="http://www.w3.org/2000/svg" xmlns:xlink="http://www.w3.org/1999/xlink" x="0px" y="0px" viewBox="0 0 282.6 282.6"
	 style="enable-background:new 0 0 282.6 282.6;" xml:space="preserve">
<style type="text/css">
	.st0{fill:#ECEBE6;}
</style>
<sodipodi:namedview  bordercolor="#666666" borderopacity="1" fit-margin-bottom="0" fit-margin-left="0" fit-margin-right="0" fit-margin-top="0" gridtolerance="10" guidetolerance="10" id="namedview4" inkscape:current-layer="g10" inkscape:cx="91.163923" inkscape:cy="191.73345" inkscape:pageopacity="0" inkscape:pageshadow="2" inkscape:window-height="998" inkscape:window-maximized="1" inkscape:window-width="1680" inkscape:window-x="-8" inkscape:window-y="-8" inkscape:zoom="1.9166667" objecttolerance="10" pagecolor="#ffffff" showgrid="false">
	</sodipodi:namedview>
<g id="g10" transform="matrix(1.25,0,0,-1.25,253.62667,354.87747)" inkscape:label="form" inkscape:groupmode="layer">
	<path id="path102" inkscape:connector-curvature="0" class="st0" d="M-95,281.8c-16.6-0.5-30.8-4.1-43.9-10.4
		c-12.8-6.3-23.8-14.1-32.6-24.1c-16.7-18.8-31.9-45.9-30.3-81.5c0.8-17.4,5.8-31.8,12-44.1c6.4-12.8,14.7-22.9,24.5-32
		c19.1-18.3,46.2-30.2,79.2-30.1c15.9,0.1,32.4,4.6,44.7,10.9c25.4,12.7,44.3,31.2,54.9,57.8c5.5,13.7,9.1,28.5,8.4,47.6
		c-0.5,16.6-5,31.7-11.6,44.4c-6.4,13.2-14.3,23.1-24.6,32C-33.8,269.6-61,283-95,281.8 M-173.3,102.2c-3.9,4.6-8.6,10.7-11.7,16.7
		c-9.4,18.2-19.4,43.2-9.4,81.9c4.9,19,15.7,35.3,28,47.8c11.6,11.7,29.9,23,48.9,27.4c19.9,4.7,41.1,4.5,61.6-2
		c18-5.9,34.1-17.5,46.2-30.1c12.9-13.3,21.8-29.2,26.4-50c3.5-16.8,3.3-33.9-0.6-49.4C10,120.2-3.6,100.9-21.2,86.8
		c-15-12-34.4-21.3-58.7-23.9c-7.7-0.8-16.1-0.1-23.6,0.7C-132.5,67-157.1,83.1-173.3,102.2 M-29.9,110.1c0.1,0.1,0.1,0.9,0,0.9
		l-8.4-0.1c-25.3,9-72.3,9.3-101.2-0.6l-9.3-0.1l0-0.9l16.2,0.1c0.2-1.5,0.2-2.8,0-4.3l-11.2-0.1c13.8-12.7,34.9-20,56.6-19.4
		c19.9,0.4,38.6,7,52.3,20l-10.5-0.1c-0.2,1.3-0.2,2.7,0,4.3C-40.7,110-35.2,110.2-29.9,110.1 M-60.8,125.1
		c-9.7-0.2-16.9-0.1-27.4-0.2c-0.1,11.9-0.3,18.6-0.3,28.9l27.6,0.2L-60.8,125.1L-60.8,125.1z M-90,124.9
		c-10.3-0.2-16.9-0.4-27.1-0.2c-0.4,9.9-0.4,17.2-0.5,28.9c9.6,0,16.7-0.1,27.4,0.2L-90,124.9L-90,124.9z M-31.7,131.7l0.1-9.7
		c-20-0.9-37.7-0.5-58.5-0.6c-23.7-0.1-40.2-0.4-56.4,0.1c-0.2,3.1-0.2,6.6-0.1,9.6l27.9,0.2l0-7.8c11.8-0.1,40.7,0.5,59.2,0.6
		l0,7.5L-31.7,131.7L-31.7,131.7z M-61,159.5l-27.6-0.2l-0.1,8.3c3.1,3.7,7,5.9,13.4,6c5.7,0,11.8-2.1,14.2-6.1L-61,159.5L-61,159.5
		z M-138,153.5l7.4,0c0.2-1.3,0.3-1.6,0.6-2.2c1-0.3,2.4-0.4,3.7,0.2l0.4,2.1l7.1,0c0.2-7.1,0.1-11.4,0.1-17.5
		c-6.5-0.2-11.5-0.2-20.8-0.1L-138,153.5L-138,153.5z M-90.2,167.6l0.1-8.3l-27.6-0.2l0,7.5c2.8,3.5,7.5,6.5,13.7,6.7
		C-98.2,173.8-93.3,171.3-90.2,167.6 M-41.2,154.1l2-17.5c-7.2-0.2-12.8-0.1-20.3-0.1l-0.1,17.5l7.4,0c0-0.9,0.2-1.5,0.5-2.5
		c1.5-0.4,2.7-0.4,3.7,0c0.3,0.6,0.4,1.3,0.6,2.5L-41.2,154.1L-41.2,154.1z M-142.1,96.6l-2.2-2.7c0.7-0.6,1.6-1.2,2.7-1.8
		c-3.4-0.8-3.5-1.1-4.7-2.7l-2.9-4c7.1-5,12-7.6,20.8-11.2l2.9,5.6c2.5,5.2,2.5,6.2-2.1,8.4C-132.2,90.5-137.5,93.2-142.1,96.6
		 M-52.3,155l-73.7-0.4c0.1,1.2,0.1,2.1,0.1,3.7c25.6,0,48.2,0.3,73.5,0.3L-52.3,155L-52.3,155z M-90.3,235.4
		c4.7,0.2,7.9,3.1,8.8,7.9c2.7-1.6,4.4-2.8,6.5-4.5c-1.3-4.3-5.6-7.7-10.3-9.2c-4.1-1.3-10.3-0.3-13.3,1.4c-3.7,2.3-5.3,4.2-6.8,7.8
		c1.3,1.2,3.5,2.8,5.3,4C-98.3,238.8-95.5,235.2-90.3,235.4 M-165.6,121.8c-2.7,3.8-8,1.9-8.4-1.4c-3.4,0-5.6-2.7-2.5-7.1
		c2.1-2.9,5.2-6.9,6.8-8.7l10.3,8L-165.6,121.8z M-149.2,181.1l119.5,0.7l-0.6-1.8l-118.9-0.8L-149.2,181.1L-149.2,181.1z
		 M-149.2,178.6c83.1,0.8,109.1,0.6,118.8,0.7c-0.7-1.9-2.3-1.6-5-1.7l-108.5-0.6C-148,177-148.9,176.9-149.2,178.6 M-141.7,173.5
		l33.2,0.2c-4.7-1.2-7.8-3.1-11-6.5l-21.9-0.1L-141.7,173.5L-141.7,173.5z M-71,232c0.6-1.6,0.8-3.7,0.6-5c-4.8-6.1-12-8.9-19.4-9
		c-8.8,0-16.8,3.9-20.4,8.6c-0.2,1.2,0,3.2,0.4,4.6c3.3-5,10.5-9.7,19.8-9.6C-82.3,221.6-74.3,225.2-71,232 M-80.6,80.4l0.2-3.2
		l3.4,0c0-1.9,0-4.1-0.1-5c-2.9-2.2-5.4-2.4-7.8-2.4l-3.1,0c0.6,1.9,1.5,4,2.3,6.1c0.3,0.7,0.6,1.2,1.8,1.2l0.9,0l-0.2,3.2
		c-2.1-0.2-3.5-0.2-6-0.2l0-3.2l2.5,0l-2.2-3.8c-1.7-3-2.3-3.1-5.4-2.8l0.1,5.8c0,0.4,0.1,0.9,0.9,0.9l1.6,0l-0.2,3.2
		c-1,0-3.7,0.1-5.9,0.3l-0.1-3.2l1.8-0.1l-0.4-9.6c4.3-0.4,10.6-0.7,14.9-0.1c3.2,1.8,4.3,2.7,6.5,5.1c0.3,1.3,0.1,3.5,0.1,6.6
		c0,1.2-0.5,1.6-1.6,1.6L-80.6,80.4L-80.6,80.4z M-102,185c-0.6,7.4-1.2,11.5-3.5,15.4c0.4,4.4-1.4,6.6-1.8,9.3l0.3,0.6
		c1.5-3.5,3.4-6.2,6.4-8.1c0.6-0.4,1.3-0.9,1-1.2c-0.1-0.1-0.9-0.4-2.1,0.3c0.5-1.5,2.4-2.4,3.6-3.1c0.6-0.4,0-0.9-0.7-0.9
		c-1.8,0-3.1,0.9-4.1,1.3c2.4-3.2,8-6.9,13.3-7.9c1.5-0.3,2.8-0.6,3.1-1c0.6-1.2-4.7-1.2-6.6-0.5c-1-0.4,2.1-1,1.3-1.2
		c-1.2-0.1-3.4,0.7-4.9,1.6c-0.9-0.7,2.4-1.5,1.3-1.6c-1.6-0.2-2.9,0.1-4.4,0.7c3.7-3.8,9.3-3.9,14.8-4.3c1.8-0.3,4,0,4.4-1.1
		C-88.2,182.5-93.7,182.9-102,185 M-58.5,167.5c-3.6,3.5-6.1,5.3-10.2,6.4l30.2,0.2l0-6.5L-58.5,167.5L-58.5,167.5z M3.1,217.2
		c-4-1.8-8.1-4.2-12.2-6.1l1-2.2l6,3c0.9-1.8,1.6-2.9,2.2-4.7l-5.6-4.9l1-2.8l5.7,5.5c2.1-4.3,7.8-1.7,6.3,2.5
		C6.3,211.5,5.5,213.3,3.1,217.2 M-57.9,269.6c-1.5,0.6-1.6,0.6-3.5,1.2l-1-3.1l3.1-1c-0.3-1.2-1.2-2.4-2.3-3.3l-8.4,6.6l-0.6,2.6
		c-1.6,0.4-2.8,0.6-4.7,0.9l-0.7-3.1l5-1c3.3-3.1,6.4-6.1,9.6-9.5c-5.2,1.6-10.5,2.9-15.6,3.9c-0.4-1-0.7-2.1-0.9-3
		c5.8-1.1,12.4-2.7,17.7-4.6c0.7,1.3,1,2.4,1.5,4c-0.7,1-1.3,1.6-2.1,2.3l2.3,2.1c0.9,0.7,1.3,1.8,1.7,3
		C-56.5,268.8-57.1,269.3-57.9,269.6 M-179.8,219.3c-2-4.1-3.2-6.6-4.8-11.2l1.6-0.7c1.5,3.3,3.2,7.8,5.1,10.9l2.2-1
		c-1.6-3.4-3.5-7.2-4.8-10.9l3.4-1.5c1.4,3.8,2.9,7.1,4.8,10.6l2.2-1c-1.7-4-3.9-8.7-5.2-12.9c-4.4,1.4-8.6,3-12.8,4.8
		c1.7,4.9,3.8,9.6,6.1,13.9L-179.8,219.3L-179.8,219.3z M-170.2,129.3c-1.8,3.5-3.6,7.6-5.4,11.5l-2.4-1c1.6-3.8,3-6.5,4.5-9.6
		l-3.2-1.6c-1.6,3.4-3.3,6.3-4.5,9.8l-2.2-1l4.3-9.9l-2.1-1.2c-0.9,1.6-3.6,7.6-4.5,10.1l-2.1-0.9c1.9-5.6,3.6-8.5,5.7-12.6
		C-177.5,125.1-174.6,126.6-170.2,129.3 M-5.7,109.6l-10.8,8.3l-1.5-2.1l7.7-6l-6.9-0.5l0.9-7.2l-8,6.7l-1.8-1.9l10.8-8.8
		c0.7,0.6,1.5,1.3,2.1,2.2l-1.1,6.6l7.1,0.2L-5.7,109.6L-5.7,109.6z M-105.1,273.6c-2.1-0.2-3.7-0.5-5.3-0.8l0.5-2.8
		c1.3,0.3,2.4,0.5,3.7,0.6c-0.1-1.5-0.3-3.1-2.9-4.4c-6.4,1.6-11.2,1.4-16.4,3.1l-0.4-0.4c0.7-2.2,1.9-3.1,4-3.8
		c-1.8-2.4-0.4-5.9,0.6-9c1.6,0.7,2.5,1.2,4.6,1.9l-1.3,2.5l-2.5-1c-0.4,1.5-1.1,4,0.3,5.3c9.4-1.4,13.1-0.8,16.2-3.7l0.7,0.3
		c-0.6,2.2-1.8,3.1-3.8,4C-105.2,267.2-103.8,269.8-105.1,273.6 M4,125.4l-12.1,6c-1.9-3.8-3.8-6.7-6.1-10.3l2.1-1.6
		c2.2,3.1,3.8,5.8,5.4,8.6l3.1-1.6c-1.5-3.1-3.1-5.8-5-9.2l2.1-1.2l5.3,9.3l1.9-1c-1.6-4-2.9-5.9-5-9.6l1.9-1.3
		C0.3,117.3,2,120.8,4,125.4 M11.8,165.6c0.1,4.7,0.2,7.5-0.1,10.9l-8.6-10.5l-2.7,0c0.3,4.6,0.2,8.4,0.1,13.4
		c0.9,0.2,1.6,0.2,2.7,0.2c0.3-3.1,0.3-6.2,0.2-9.1c2.6,3.1,5,6.2,7.5,9.3l3.1,0c0.6-5,0.6-9.1,0.4-14.3L11.8,165.6L11.8,165.6z
		 M-186.8,174.7l6.3,3.6l0.1,3c-5-2.7-9.6-4.9-13.8-7.6c-0.1-2.1-0.1-3.4,0-4.7c6.1-4.7,12-8.5,14.2-9.5l-0.3,3.1
		c-2.5,1.6-4.3,2.6-6.8,4.5C-187.1,170-186.9,172.4-186.8,174.7 M-176.7,144.6c-1.2,4-2.3,7.9-3,12.4l-2.5-0.5
		c0.3-2.8,1.1-5.9,1.7-8.2l-10.2,6.6l-2.4-0.5c0.8-4.9,2.3-9.4,3.6-13.8l2.5,0.9c-1.1,3.1-2,6.2-2.9,10.2c2.1-1.2,9.3-6.3,11.2-7.8
		L-176.7,144.6L-176.7,144.6z M-129.7,78.2c-6.3,2.6-10,4.7-15.5,8.5l1.3,2.2c0.9,1.3,1.6,1.6,4,2.4l11.1-6c1.6-0.9,2.1-1.5,1.2-3.2
		C-127.6,82.1-129.7,78.2-129.7,78.2z M-105.4,81.2c-6.2,1.3-8.1,1.7-12.3,2.9l0.4,1.5c0.3,0.9-0.2,1.2-0.6,1.3l-2.7,0.9l-0.9-2.5
		l1.5-0.4l-0.9-3c5.3-1.6,10.5-2.7,13.6-3.3c2.2-0.4,1.8-0.3,1.5-2.1c0,0-4.7-0.3-7.1-0.5c-1.9-0.2-3.8-0.5-4.6-2.7l-0.7-2.2
		c1.2-0.4,2.1-0.7,3.5-1l0.7,2.2l-1.9,0.6c0.1,0.7,0.9,0.9,1.5,0.9l10.5-0.1l0.7,4.1C-102.5,80.5-103.3,80.8-105.4,81.2 M-62.9,206
		c0.2-2.1,0.9-4.3-0.7-7.5c-1.2-2.4-1.9-2.7-2.6-4.3c-2.6-0.9-7.1-0.8-6.5-3.1c0.3-0.9,1.6-1.5,2.7-1.5c-1.9,0.9-1.8,2.1-0.9,2.5
		c1.2,0.6,16.6,1.9,19.8,15.1c-2-4.4-3.5-6.5-7.6-7.6c-1.9-0.5-4,0.3-2.1,0.9c3.4,1.1,6.2,4.5,6.6,6.4c-1.5-2.1-3.1-3.3-5.4-3.1
		c-0.4,0-1.3,0.4,0,0.9c2.2,0.9,3.7,2.2,4.5,5.3c-1.8-2.4-3.4-2.2-2.8-1.5c0.9,1.3,1.3,2.8,1.4,5.6C-59.8,210.4-63.1,209.5-62.9,206
		 M-130.1,161.5l-0.4-2.4l-6.9,0l0.7,6.2l17.8,0.1l0-6.2l-7.1,0c-0.1,0.9-0.2,1.5-0.5,2.4C-127.9,162-128.8,161.8-130.1,161.5
		 M-145.7,174.1c-0.6,0-1,0.3-1.2,0.9l113,0.6c-0.3-0.9-0.9-0.9-1.5-0.9L-145.7,174.1L-145.7,174.1z M-47.7,159.6l-0.3,2.1
		c-1.2,0.3-2.9,0.1-3.8,0l-0.3-2.1l-7.5,0l0,6.2l17.1,0.1l0.6-6.2L-47.7,159.6L-47.7,159.6z M0,160.6c2.2-1.3,4.1-2.2,6.5-3.6
		l-0.9-5.2l-7.4-0.3l-0.4-2.7l14.4,0.8c0.4,1.9,0.9,4.1,1,6.6l-13,7L0,160.6L0,160.6z M-33.7,176.1l-113.3-0.6l-0.3,0.7
		c36.2,0.7,70,0.4,113.9,0.6L-33.7,176.1L-33.7,176.1z M11,143.4l-13.3,3.2c-1.3-4-2.8-7.8-4.2-11.7c3.3-1.7,5.6-2.6,8.3-3.9l1,2.4
		c-2.1,1.2-3.8,1.7-5.9,2.9c1,2.5,1.7,4.4,2.6,7.1l10.8-2.6L11,143.4L11,143.4z M-42.9,87l4-7.6l1.8,2.2l-4.9,8.4
		c-1.2,2.1-2.5,2-4.4,1c-3.1-1.6-8.2-4.2-14.3-6.4l1.2-3.1c7.1,2.5,10,4.2,14.1,6.1C-44.4,88-43.7,88.3-42.9,87 M-41.9,110.9l-3.5,0
		c-18.4,4.6-27.7,5-43.6,4.9c-24.8-0.1-43.3-5.4-43.3-5.4l-4,0C-106.7,118.6-70.3,119.3-41.9,110.9 M10.3,198.6
		c-5-1.5-7.5-2.1-12.8-3.9c0.9-3.8,1.7-7.7,2.3-11c5.3,0.5,9,1.1,13.5,1.7l-0.5,2.4c-3.8-0.6-6.6-0.9-10.7-1.4
		c-0.5,2.2-0.8,4.6-1.4,6.8c3.1,1,6.5,2.1,10.2,3L10.3,198.6L10.3,198.6z M-185,200l-0.9-2.5l5.6-1.9c-0.7-2.5-1.6-5.5-2-8.3
		l-10.6,1.6l-0.4-2.7l13.3-1.8c0.9,4.6,1.7,8.3,3,13L-185,200L-185,200z M-168.3,234.8l-1.5-2.2l5.6-4l-4.5-6.5l-9,5.7l-1.3-2.4
		c4.3-2.6,7.1-4.5,11.4-6.9c2.2,3.6,4.8,7,7,10.5L-168.3,234.8L-168.3,234.8z M-20.5,240.7c-0.4,0.6-1,1.2-1.8,1.9
		c-1.3-1.5-4.1-4-6.2-6.1c3.1-2.8,4.7-4.5,6.8-6.7l10.3,8.5l-1.8,1.9c-2.8-2.4-5.6-4.6-8.4-6.8l-3.4,3.4L-20.5,240.7z M-77.1,185.5
		c-1.8-0.3-2.4-0.6-2.9-1c-1.8,0.9-2.5,0.4-4.7,0.9c3.2,0.9,5.7,2.2,7.9,4.9c-1.6-1.2-3.2-2.5-6.2-2.8c-0.9-0.1,0.6,0.7,0.4,1.5
		c-1.9-1.5-4.3-1.9-6-1.2c5.2,0.5,2.1,3,2.1,3c5,1.4,8.5,3.6,11.6,6.4C-76.2,192.9-76.8,189.1-77.1,185.5 M-72,234.6
		c1.3-1.6-1.5-4.6-3.1-6.2c-4.1-3.9-9.5-5.5-15-5.5c-7.7,0-15.1,3.9-18,8c-0.7,1-1.6,2.1-0.8,2.9c4-5.6,11-9.8,19.1-9.6
		C-82.1,224.3-75.8,228.3-72,234.6 M-172.4,151.8c-0.2,0.9-0.2,1.5-0.2,1.5l33.6,0.2l0-1.3l-8.3-0.1
		C-156,152.1-160.6,151.9-172.4,151.8 M-40.3,154.1l33.9,0.2c0-0.6-0.1-0.9-0.3-1.3l-33.4-0.2L-40.3,154.1L-40.3,154.1z M-65.5,78.2
		c0.8-3.1,0.9-4.4,1.8-8.4l2.1,1.3l-2.7,10c-0.5,1.6-1.2,1.9-2.4,1.6l-4.1-1.1l0.6-3.2l3.1,0.8C-66.3,79.3-65.8,79.3-65.5,78.2
		 M-165.9,110.6c-1.5,2.1-3.6,4.7-4.8,6.5c-2.8,4,1.1,5.9,3.1,3.1l5.1-7L-165.9,110.6L-165.9,110.6z M-171.8,160.7l21.8,24.4
		l0.1-0.7l-19.3-23.7L-171.8,160.7L-171.8,160.7z M-10.8,161.6l-19.6,23.5l0.1,0.7l22.1-24.2L-10.8,161.6L-10.8,161.6z M-73.3,204.6
		c-0.4-3.2,0.2-5.7-2.6-7.5c-1.2-0.5,0.1,1.3,0.6,2.1c-2.2-2.2-8.5-2.6-6.3-1.4c2.6,1.3,5.4,1.5,6.3,4.2c-3.1-1.5-7.1-0.2-5,0.9
		c3.1,1.2,5.3,2.4,7.9,5.9l0.1-0.1C-72.9,207.4-73.2,206.6-73.3,204.6 M-36.1,132.6c-8-0.2-14.6-0.2-23.4-0.1l0,1.3
		c6.9,0.2,12.7,0.1,22.5,0.1L-36.1,132.6L-36.1,132.6z M-81,173.9c-4.6-1.5-5.6-2.5-8.4-4.6c-1.6,1.3-3.7,2.8-8.1,4.5
		C-97.5,173.8-81,173.9-81,173.9z M-118.8,133.4l0-1.3c-7.1-0.2-19.7-0.1-23.4-0.1l0.9,1.3C-131.3,133.2-127.6,133.5-118.8,133.4
		 M-171.4,189.3l19.7,11.9l0-0.9l-20.3-13.4L-171.4,189.3L-171.4,189.3z M-8.3,187.8L-28.7,201l0,0.9l19.8-11.7L-8.3,187.8
		L-8.3,187.8z M-169.2,108.2c-2.7,3.2-3.7,4.5-6.1,8.1c-1,1.5,0.4,2.5,1.6,0.9c2.4-3.2,4-5.1,6.1-7.8L-169.2,108.2z M-129.5,160.5
		c0.6,0.2,1.6,0.3,2.4,0c0.5-1.9,0.8-6,0-8.1c-0.6-0.2-1.5-0.3-2.2,0C-130.1,153.6-130,158.6-129.5,160.5 M-89,192.8
		c-0.6,0-1.2,0.1-1.6,0.3l0.8,23.1l0.4,0L-89,192.8L-89,192.8z M-51.1,160.6c0.6,0.2,1.5,0.2,2.4,0c0.3-1.8,0.8-6,0-8.1
		c-0.4-0.3-1.6-0.3-2.2,0C-51.7,153.7-51.6,158.7-51.1,160.6 M-35.1,96.3c-0.4,0.6-0.9,0.9-1.8,0.3l-3.2-2.2l1.8-2.6l2.2,1.5
		c0.4,0.3,0.9,0.6,1.3,0l1.5-2.1l0.9,1.6L-35.1,96.3L-35.1,96.3z M-37.6,134.9c0,0-17.2-0.2-22-0.3l0,0.9c6.6,0.2,9.6,0.2,21.4,0.3
		L-37.6,134.9L-37.6,134.9z M-16.2,211.2l-15.8,6.5l-0.3,1l14.8-5.2L-16.2,211.2L-16.2,211.2z M-163.3,212.8l14.7,5.4l-0.3-1
		l-15.7-6.7L-163.3,212.8L-163.3,212.8z M-118.8,134.3l-22.1-0.1l0.6,0.9l21.5,0.1L-118.8,134.3L-118.8,134.3z M2.1,214.1
		c1.9-2.9,2.7-5.6,3.4-7.6c0.6-1.8-1.8-2.2-2.2-0.9c-0.9,2.5-1.9,5-3.3,7.5L2.1,214.1z M-111.8,227.3c-1.8,1.8-6.2,2-7.1,1.7
		C-118,233.8-111.8,231.8-111.8,227.3 M-152.1,160.8l7.7,11.2l0.9,0l-6.9-11.2L-152.1,160.8L-152.1,160.8z M-29.6,161.5l-7,11.2
		l0.9,0l7.9-11.2L-29.6,161.5L-29.6,161.5z M-94.5,216.7l-2.4-16.7c-0.7,0.3-0.7,0.4-1,0.7l2.9,16.1L-94.5,216.7L-94.5,216.7z
		 M-85.2,216.6l0.4,0.1l3.2-17.2l-1-0.3L-85.2,216.6L-85.2,216.6z M-121.7,227.1c1.8,0.9,3.7,0.2,5.3,0c-2.5-0.7-2.1-2.5-5.6-2.7
		L-121.7,227.1L-121.7,227.1z M-102.8,207.6c-0.4,0.4-0.7,0.9-0.9,1.3l3.3,9.2l0.6-0.1L-102.8,207.6L-102.8,207.6z M-112.3,220.1
		c-0.7,0.4-1.8,0.4-2.2,1.5c0.6,0.4,0.9,0.9,1.8,0.7c0,1.9,0.1,2.8,1.2,3.5c0-2.4,0.3-3.8,0.9-5.4
		C-111.3,220.4-111.7,220.3-112.3,220.1 M-78.6,218.7l4.5-9.3l-0.9-0.7c-1.3,3.1-2.8,6.6-4,9.9L-78.6,218.7L-78.6,218.7z
		 M-191.6,172.5l2.2,1.2l0-5.5l-2.2,1.6L-191.6,172.5L-191.6,172.5z M-141.7,233.4c-3.4-0.8-5.3-1.1-7.4-1.7l2.4,1.9
		c2.4,0.5,4.1,0.6,6,0.9L-141.7,233.4L-141.7,233.4z M-41.1,235.1c1.9-0.3,3.7-0.4,6-0.9l2.4-1.9c-2.1,0.6-4,0.9-7.4,1.6
		L-41.1,235.1z M10.8,155.1c-0.1-1.2-0.3-2.2-0.6-3.1L8,152l0.7,4.1L10.8,155.1L10.8,155.1z M-68.6,229.2c1.3,0.9,4.7,1.4,6.5,0.9
		c0.1-0.1,0.2-0.4,0.3-0.7c-0.9,0.3-5.3,0-7.1-1.8C-68.9,228.2-68.9,228.6-68.6,229.2 M-30.4,248.4c-3.2-1.3,2.1-4.9,1.9-1.3
		C-28.5,248-29.5,248.9-30.4,248.4 M-24.8,96.1c0.7,3-3.6,3.1-2.7,0C-26.6,95.2-25.7,95.5-24.8,96.1 M-156.3,97.8
		c1.8-0.4,2.2,0.6,2.2,1.5C-154.5,101.8-158.8,99.7-156.3,97.8 M-158,243.9c1.5,0,2.2,0.5,2.2,1.3
		C-155.7,247.9-160.5,246.5-158,243.9 M-68.7,226.5c0,1.8,4.8,2.4,6.5,2.4c0.6,0,0.6-0.1,0.6-0.6C-63.6,228-66.7,227.6-68.7,226.5
		 M-111.9,226.3c-2.1,1-5.2,1.4-7.1,1.7c0,0.4,0,0.6,0.6,0.6C-116.8,228.6-111.9,228.1-111.9,226.3 M-62.4,230.7
		c-2.7,0.4-4.9-0.3-5.9-0.9C-67,232.2-63.9,232.9-62.4,230.7 M-46.5,256.3c1.2-0.9,2.5-0.3,2.2,0.9C-44.3,258.5-47,258.7-46.5,256.3
		 M-62.4,227.6c0.9-1.6,2.2-2.1,3.5-2.2l0.2-0.6c-3.5,0.1-3.1,1.9-5.6,2.6C-63.6,227.6-63.1,227.6-62.4,227.6 M-99.1,234.9
		c0.3,0.3,1.3,1.2,1.3,1.8c-0.3,0-0.3,0.3-0.7,0.3c-0.6-1.2-1.9-1.6-2.3-3l0.3-0.3C-99.7,233.9-99.9,234.2-99.1,234.9 M-62,227.8
		c1,0.2,1.9,0.2,3-0.3l0.2-1.5C-60.2,226.2-61.4,226.7-62,227.8 M-81.8,235c-0.4,0.6-0.9,2.1-1.9,1.6c0.9-1.2,2.2-4.3,3.6-2.9
		C-81,234.3-81,234.1-81.8,235 M-84.9,235.7c-0.1-1.3,0.9-2.9,1.6-4c0.3,0,0.6,0.3,0.6,0.6C-83.7,233.1-83.7,235-84.9,235.7
		 M-97.7,232.3c-0.2,0.9,1.6,2.2,1.2,3.4c-1.2-0.7-1.6-2.1-2.2-3.4C-98.7,232.1-98,232.3-97.7,232.3 M-86.2,235
		c0-0.1-0.3-0.3-0.4-0.3c0.5-1.6,0.7-2.5,0.8-3.7c0.1-0.1,0.6-0.4,1,0.2C-85.6,231.6-85.3,234-86.2,235 M-78.8,235.6
		c-0.7,0.9-2.1,2.1-3.1,2.9c0.2-1.9,1.9-2.2,2.7-3.7L-78.8,235.6z M-99.9,238.3c-0.9-0.9-2.6-1.2-3.1-2.7c1.3,0,2.2,1.8,3.5,2.2
		C-99.5,238-99.6,238.3-99.9,238.3 M-92.4,234.4c-0.1-0.9-1.5-3.4-0.4-3.8C-92.4,231.3-91.6,233.6-92.4,234.4 M-89.9,234.2
		c-0.3,0-0.4-0.2-0.4-0.4c0.2-1.5,0.2-2.8-0.4-3.8c0.4-0.1,0.9-0.1,1,0C-89.8,231.4-89.7,232.9-89.9,234.2 M-94.7,232.3l0.6,2.2
		c-1-0.4-1.5-2.7-1.5-3.5C-95.2,230.8-94.9,230.7-94.7,232.3 M-88.4,234.4c0.5-1.6,0-3.7,1.2-4.3c-0.3,1.3-0.8,2.5-0.3,3.8
		C-87.7,234.4-87.7,234.5-88.4,234.4 M-73.4,222.3l0.4,0.3l1.6-2.1c-0.4-0.2-0.7-0.5-0.7-0.5L-73.4,222.3L-73.4,222.3z M-114,225.4
		c-0.9,0-0.2,0.4-0.9,0.6c-0.4-0.9,0.4-1,0.9-1.3l0.9,1.3c-0.6,0.3-1.5,0.3-1.8,0.4c-0.1-0.6,1.2-0.1,1.2-0.9
		C-114,225.6-113.7,225.6-114,225.4 M-66.7,225.7c-0.3,0.1,0,0.1-0.3,0.1c0,0.7,1.3,0.3,1.2,0.9c-0.3-0.1-1.2-0.1-1.8-0.4l0.9-1.3
		c0.4,0.3,1.3,0.4,0.9,1.3C-66.5,226.1-65.8,225.7-66.7,225.7 M-68.3,220.4c-0.6,0.1-1,0.3-1.6,0.3c0.6,1.6,0.9,3.1,0.9,5.5
		c1-0.7,1.2-1.6,1.2-3.5c0.9,0.2,1.2-0.3,1.8-0.7C-66.5,220.8-67.5,220.8-68.3,220.4 M-85,255.2c-0.4-0.6-0.7-1.3-0.9-2.2
		c-2.5,1.5-6.6,1.3-9.3-0.1c-0.2,0.9-0.5,1.6-0.9,2.2C-93.1,255.9-88.1,256.1-85,255.2 M-84,246.1c-2.1,1.6-3.4,4.4,0.4,4.9
		c-2.7,3.8,1.9,5.2,4.4,5.6c-6.9,1.4-15.9,1.2-22.5-0.1c2.5-0.4,7.1-1.7,4.5-5.6c3.8-0.4,2.5-3.2,0.5-4.9c-6.2-5-12.9-7.3-14.6-15.7
		c-0.7,1-2.2,2.3-5.2,1.9c-2.7-0.5-3.1-2.4-3.5-4.1c-1,0-1.5-0.3-2.2-0.5c-0.4-2.2,0-3.4-1-6c-0.3,8.8,2.6,15.5,8.9,20.8
		c1.2,0.9,0.3,0.4-0.1,0.3c-6.9-4.5-11.3-12-9.9-23.3c0.2-1.8,2.5,2.7,2.6,4.7c0.7,0,1.8,0.2,3.1,0.6c-0.4-0.9-0.6-2.4-0.4-3.5
		c-1.8,0-1.2-0.7-1-0.9c2.7,0.5,4.3-0.7,4.9-4.1c0.7,0.2,1.9-0.4,2.1-0.3c0,0-0.4,1-1.8,1.2c-0.5,2.1-1.2,4-3.3,4.1
		c-0.6,1.8-0.6,3.8,0.4,4.3c0.3-1.2,1.2-1.6,1.6-2.2c0.1,0.6-1.2,1.5-1.2,2.6c1.6,1.3,3.8,1.4,5.2,0c-0.7-0.9-1.2-1.8-1.2-3.1
		c-0.6,0.1-1,0.4-1.3,1c-0.9-0.6,0.4-0.9,0.7-1c-0.3-0.7-2.1-0.3-2.5-0.5c0-0.4,0.4-1.3,0.9-1.2c0.7,0.3-0.4,0.3-0.2,0.9
		c0.4-0.1,0.4,0.3,0.9,0c-0.3-1.3,1.2-1.5,1.6-2.4c-1-0.4-1-1.6,1-1.2c-1.5-0.9-2.1-1.5-1.3-1.8c0.4-0.1,1.5,0,2.4,0.5
		c-1-1-1.3-1.8-0.9-1.9c0.4-0.1,0.7,0,1,0.3c0.2-0.4,0.6-0.3,1-0.1c0.9,0.3,1.6-0.6,2.5,0.5c-0.9-0.3-1.9,0.3-2.8-0.2
		c-0.3-0.1-0.6,0-0.4,0.3c0.1,0.3,1.5,0.6,1.3,0.9c-1.3-0.2-1.8-1.2-2.2-1.2c-0.9,0,1.3,1.6,0.7,1.9c-0.9-0.2-1.9-0.6-2.4-0.5
		c-0.7,0.3,1.6,1,1.6,1.6c0,0.1-0.6,0-1.3,0c-0.4,0-0.7,0.3-0.4,0.4c1.8,0.6,2.8,1.2,4,0.3c0.9-0.7,2.2-1.2,2.4-2.1
		c0.4-2.1,0.6-6-0.1-6.2c-0.3,3.1-0.8,3.5-0.8,3.4c-0.1-0.1,0.3-2.9,0.2-3.7c-0.1-0.9-0.7-1.6-1.7-2.5c-3.7,0.7-6.2,3.1-9.6,4.7
		c-0.1,0-0.1-0.4-0.1-0.4c3.6-1.9,6.2-4.7,9.8-5.1c0.9,0.3,1.2,0.9,1.9,1.6c0.2-1.8,1.6-4.9,1.2-7.2c-1.8,1.9-1.8,2.5-6.5,4.2
		c0,0-0.4-0.3-0.1-0.6c7.7-2.8,9.2-9.2,9.7-20.3c-2.2,0.4-5.9,0.4-6.4,3.5c1.3,0,2.5,0,2.9,0.9c0.6,1.6-2.1,2.5-4.9,3.8
		c-1.2,3.1-3.7,3.5-4,7.1c-0.2,2.4,0.4,3.1,0.1,4.9c-0.5,3.5-3.7,3.5-5.3,6.2c0.3-0.7-0.4-2.9-1-3.5c0.6-2.2,1.2-3.5,2.8-5
		c1.2-1,0.9-2.1-1.9-0.2c1.5-2.2,4-3.5,2.4-3.5c-3.5,0-7.5,4.8-9,7c0,0-0.9,1.2-0.3-0.2c3-6.2,7-9.8,14.2-13
		c3.3-1.5,6.6-1.9,6.6-2.8c0-2.5-9.7-0.1-13.7,1.2c8.7-8.3,15.1-6.5,19.5-8.3c-16.3-1.6-24.1,6-26.1,8.2c0,0-0.4,0.6-0.1-0.3
		c0.9-2.6,4.9-5.3,10.4-8.5c-1.8-0.3-5.3,0.1-7.7,1.7c-4.4,2.8-6.5,4.4-10.1,9.2c2.1-5.1,4.9-7,8.8-11c-4.4-0.8-6.9,2.3-8.3,4.1
		c-0.4,0.6,0.2-0.9,0.3-1.2c0.7-1.6,1.5-2.2,2.8-2.9c-3.5-0.3-5.8,3.1-7.3,4.5c0,0-0.3,0.3-0.3,0c0.9-1.9,2.1-2.8,3.4-4.5
		c-3.5-0.3-4.4,0.9-6.7,7.9c0,0.2-0.3,0.1-0.3,0c0.3-4,1.7-5.6,3-7.9c-3.8-0.8-5.3,3.2-6.3,11c0,0.4-0.3,0.4-0.3,0
		c-0.1-2.7,0.3-5.6,0.8-7.8c0.5-1.9,1.3-3.5-1.3-3.2c-2.5,5.4-3.9,12.9-2.6,22.7c3,24.2,17.9,39.7,36.4,48.7
		c-23.5-6.6-42.5-21.3-53.5-42.6c-6.1-12-9.3-24.4-9.8-36.3c-0.4-6.3,0.1-12.4,1.4-17.4l44.1,0.2l0-3.5l-43.3-0.2
		c2.9-16.8,11.4-29.6,20-40.6c0,1.8,0,3.8,0.3,6.3c45.5-0.2,82.4,0.5,129.5,0.6c0.2-1.6,0.2-2.8,0.2-4.3
		c9.2,10.5,15.8,22.6,18.8,38.9c-10.9-0.1-24-0.3-42.3-0.2l0,3.5c11.9,0.1,29,0.3,43,0.2c0.8,8.1,1.2,14.3,0.3,22.7
		c-2.3,19-10.7,34.4-21.8,46.6c-9.5,10.3-21,18.5-35.2,23.8c-2.1,0.9-4.3,1.6-6.5,2c19.4-7.9,35.1-27.5,36.5-52.3
		c0.3-6.8-0.4-13.3-2.3-18.3c-3.4-0.9-2.2,1.3-1.4,4c-2-3.8-4.7-4.7-7.9-4l1.9,2.2l0.9,2.2c-1.5-2.2-4.4-5.3-7.5-4.5
		c3.5,2.4,4.5,4.1,5.1,7c0,0,0.1,0.9-0.4-0.3c-3.2-6.5-7.9-7.1-10.1-6.7c1.9,1,3.7,1.8,5,3.7c0.3,0.4,0,0.3,0,0.3
		c-6.6-4.3-9.9-4.3-13.4-4.1c2.8,0.9,8.4,3.1,10.7,8c0.4,0.9,0,0.3-0.1,0.1c-6.3-6.4-14.4-9.1-28.5-8.1c0.7,2.5,4,0.5,12.4,2.6
		c2.2,0.6,4.3,1.4,6,2.2c6,3.1,9.7,7.7,9.7,9.8c-4.2-4.9-11.3-8.8-18.1-8.3c-0.3,0-0.3-0.3,0-0.3c3.7-0.6,0.6-3.4-6.6-3.7
		c0.7,8.8,2.3,14.3,6.7,20.2l-0.1,0.1c-1.5-1.5-2.3-2.4-3.2-3.7c0,2.8,0,4.3,1,6l0.7-0.4c3.5,0.5,6.2,3.3,9.7,5.2c0,0,0,0.4-0.2,0.4
		c-3.4-1.6-5.9-4-9.5-4.8c-1,0.9-1.6,1.6-1.8,2.5c-0.2,0.7,0.3,3.5,0.1,3.7c0,0.1-0.4-0.3-0.7-3.4c-0.7,0.1-0.6,4.1-0.2,6.2
		c0.1,0.9,1.5,1.3,2.3,2.1c1.2,0.9,2.2,0.3,4-0.3c0.3-0.1,0-0.4-0.4-0.4c-0.7,0-1.3,0.1-1.3,0c0-0.6,2.4-1.3,1.6-1.6
		c-0.4-0.2-1.5,0.3-2.4,0.4c-0.6-0.3,1.6-1.9,0.8-1.9c-0.4,0-0.9,1-2.2,1.2c-0.1-0.3,1.2-0.6,1.3-0.9c0.1-0.3-0.2-0.4-0.4-0.3
		c-0.9,0.4-1.9-0.2-2.8,0.1c0.9-1,1.6-0.1,2.5-0.4c0.4-0.1,0.9-0.3,1,0.2c0.3-0.3,0.6-0.4,1-0.3c0.4,0.2,0.1,0.9-0.9,1.9
		c0.9-0.4,1.9-0.6,2.4-0.4c0.7,0.3,0.1,0.9-1.3,1.8c2.1-0.4,2.1,0.7,1,1.2c0.4,0.9,1.9,1,1.6,2.4c0.4,0.3,0.4-0.2,0.9,0
		c0.3-0.6-0.9-0.6-0.1-0.9c0.4-0.1,0.9,0.7,0.9,1.2c-0.4,0.1-2.2-0.3-2.5,0.4c0.3,0.2,1.6,0.5,0.7,1c-0.3-0.6-0.7-0.9-1.3-1
		c0,1.3-0.6,1.9-1.2,3.1c1.9,1.5,3.5,1.3,5.2,0c0-1.2-1.3-2.1-1.2-2.7c0.4,0.6,1.3,1,1.6,2.2c1-0.4,1-2.5,0.5-4.3
		c-2.1-0.2-2.8-2.1-3.2-4.1c-1.3-0.2-1.8-1.2-1.8-1.2c0.1-0.1,1.3,0.4,2.1,0.3c0.6,3.4,2.2,4.6,4.8,4.2c0.1,0.1,0.7,0.9-1,0.9
		c0.1,1.2,0,2.7-0.5,3.5c1.3-0.4,2.4-0.6,3.1-0.6c0.2-2.1,2.5-6.5,2.7-4.7c1.3,11.4-3.2,18.8-10.1,23.2c-0.4,0.1-1.3,0.6-0.1-0.3
		c6.4-5.3,9.3-11.9,9.1-20.7c-1,2.6-0.6,3.8-1.1,6c-0.7,0.1-1.2,0.4-2.2,0.4c-0.5,1.8-0.9,3.7-3.6,4.1c-2.7,0.3-4.4-0.9-5.3-1.9
		c-0.5,2.5-1.2,4.3-2.7,6.3C-75.2,241.2-79.9,242.8-84,246.1 M-107,221.9l0.4-0.3l-1.2-2.2l-0.6,0.4L-107,221.9L-107,221.9z
		 M-18,225.5c2.5-3.4,4.9-7.2,7.1-11l2.1,1.5c-2.1,3.7-3.7,6.2-5.7,9l3.2,2.2c1.9-3.4,3.6-5.6,5.5-9.1l2.1,1.2l-5.5,9.1l1.9,1.3
		c1.2-1.8,4.5-6.6,5.6-9.2l2.2,1.3c-2.8,5.1-4.8,7.8-7.6,11.7L-18,225.5L-18,225.5z M-36.5,253.1c-1.2-1.6-1.3-1.9-4.7-2.7
		c1-0.6,1.9-1.2,2.7-1.8l-2.2-2.7c-4.6,3.4-11.7,7-16.3,9.2l1.5,2.7c4.4-1.9,8.6-4.2,12.6-6.6c2.4,0.8,3.1,1,4,2.4l1.3,2.2
		c-5.2,3.7-8.7,5.7-14.6,8.2l1.5,2.8c5.9-2.5,10.1-4.8,14.9-8.2c1.5-1,1.9-2.1,0.6-4L-36.5,253.1L-36.5,253.1z M-98.3,275.7
		c0,0.9-0.3,1.2-0.7,1.2l-3.1-0.3l0.2-2.4l1.5,0.2l0.2-3.1c5.3,0.2,11.1,0.2,15.8,0.1c1.5,0,1-0.7,1-1.8c0,0-4.9-1.1-7.8-1.7
		c-1.8-0.3-3.5-1.5-3.5-3.9l0-2.4c1,0.2,2.4,0.2,3.7,0c0.1,0.7,0.3,1.3,0,2.5l-2.1,0c0,0.7,0.1,1.5,3.5,1.9l8.7,1.1l0.3,4
		c0.1,2.7-0.5,2.8-2.7,2.9c-4.6,0.3-10.8,0.2-14.9,0.1L-98.3,275.7L-98.3,275.7z M-146,260.3c-0.6,0.9-0.9,1-1.3,0.7
		c-1-0.6-1.8-1.2-2.5-1.8l1.3-2.1l1.3,0.9l1.6-2.6c4.4,2.7,9.5,5.5,13.7,7.7c1.3,0.7,1.3,0,1.8-1c0,0-3.8-3.3-6-5.2
		c-1.5-1.2-2.5-3.1-1.1-5.2l1.2-1.9l3.1,1.9l-1.2,2.1l-1.8-1.2c-0.4,0.7-0.6,1.5,2,3.4l7.2,5.3l-1.8,3.5c-1.2,2.4-1.8,2.2-3.7,1.3
		c-4.1-2.1-9.6-5.1-13.1-7.1L-146,260.3L-146,260.3z"/>
</g>
</svg>
