<?xml version="1.0" encoding="utf-8"?>
<!-- Generator: Adobe Illustrator 26.3.1, SVG Export Plug-In . SVG Version: 6.00 Build 0)  -->
<svg version="1.1" id="Layer_1" xmlns="http://www.w3.org/2000/svg" xmlns:xlink="http://www.w3.org/1999/xlink" x="0px" y="0px"
	 viewBox="0 0 329.1 115" style="enable-background:new 0 0 329.1 115;" xml:space="preserve">
<style type="text/css">
	.st0{fill:#FF582B;}
	.st1{fill:none;stroke:#FF582B;stroke-width:2.5;stroke-miterlimit:10;}
	
		.st2{clip-path:url(#SVGID_00000142161417072807325780000011332669171351531945_);fill:none;stroke:#FF582B;stroke-width:2.5;stroke-miterlimit:10;}
	.st3{clip-path:url(#SVGID_00000142161417072807325780000011332669171351531945_);fill:#FF582B;}
	.st4{clip-path:url(#SVGID_00000142161417072807325780000011332669171351531945_);fill:none;stroke:#FF582B;stroke-width:2.5;}
	
		.st5{clip-path:url(#SVGID_00000092430411556172248490000001372210207916211902_);fill:none;stroke:#FF5723;stroke-width:2.5;stroke-dasharray:7.378,4.8855;}
	
		.st6{clip-path:url(#SVGID_00000092430411556172248490000001372210207916211902_);fill:none;stroke:#FF5723;stroke-width:2.5;stroke-dasharray:7.4727,4.9802;}
	
		.st7{clip-path:url(#SVGID_00000092430411556172248490000001372210207916211902_);fill:none;stroke:#FF5723;stroke-width:2.5;stroke-dasharray:7.5675,5.0749;}
	.st8{clip-path:url(#SVGID_00000092430411556172248490000001372210207916211902_);fill:none;stroke:#FF5723;stroke-width:2.5;}
	.st9{fill:none;stroke:#FF582B;stroke-width:2.5057;}
	.st10{fill:none;stroke:#FF582B;stroke-width:2;}
</style>
<polygon class="st0" points="253,36.7 256.2,36.7 262.1,48.2 259.4,48.2 254.6,38.9 254.6,38.9 250,48.1 247.3,48.1 "/>
<g>
	<defs>
		<rect id="SVGID_1_" x="7.4" y="31.5" width="313.4" height="59.8"/>
	</defs>
	<clipPath id="SVGID_00000106109477015229752730000013218773503368023991_">
		<use xlink:href="#SVGID_1_"  style="overflow:visible;"/>
	</clipPath>
</g>
<line class="st1" x1="290.8" y1="59.6" x2="299.7" y2="68.1"/>
<g>
	<defs>
		<rect id="SVGID_00000119111946157232881870000005445915026615122575_" x="7.4" y="31.5" width="313.4" height="59.8"/>
	</defs>
	<clipPath id="SVGID_00000178185288008840799110000015924764931972186772_">
		<use xlink:href="#SVGID_00000119111946157232881870000005445915026615122575_"  style="overflow:visible;"/>
	</clipPath>
	
		<circle style="clip-path:url(#SVGID_00000178185288008840799110000015924764931972186772_);fill:none;stroke:#FF582B;stroke-width:2.5;stroke-miterlimit:10;" cx="305.5" cy="73.9" r="8.5"/>
	<path style="clip-path:url(#SVGID_00000178185288008840799110000015924764931972186772_);fill:#FF582B;" d="M306.9,73.9
		c0,0.8-0.6,1.4-1.4,1.4c-0.8,0-1.4-0.6-1.4-1.4s0.6-1.4,1.4-1.4C306.3,72.5,306.9,73.2,306.9,73.9z"/>
	
		<line style="clip-path:url(#SVGID_00000178185288008840799110000015924764931972186772_);fill:none;stroke:#FF582B;stroke-width:2.5;" x1="311.1" y1="79.9" x2="319.9" y2="88.3"/>
	
		<line style="clip-path:url(#SVGID_00000178185288008840799110000015924764931972186772_);fill:none;stroke:#FF582B;stroke-width:2.5;stroke-miterlimit:10;" x1="319.8" y1="59.2" x2="311.4" y2="68.1"/>
	
		<line style="clip-path:url(#SVGID_00000178185288008840799110000015924764931972186772_);fill:none;stroke:#FF582B;stroke-width:2.5;" x1="299.6" y1="79.5" x2="291.1" y2="88.3"/>
</g>
<g>
	<defs>
		<rect id="SVGID_00000052826822397823813550000005599113870957599364_" x="29" y="28.4" width="116.8" height="50"/>
	</defs>
	<clipPath id="SVGID_00000145025370136435458280000016154364245431153300_">
		<use xlink:href="#SVGID_00000052826822397823813550000005599113870957599364_"  style="overflow:visible;"/>
	</clipPath>
	
		<path style="clip-path:url(#SVGID_00000145025370136435458280000016154364245431153300_);fill:none;stroke:#FF5723;stroke-width:2.5;stroke-dasharray:7.378,4.8855;" d="
		M32,36.6c1.4-2.9,3.8-5.1,7.3-6.2"/>
	
		<path style="clip-path:url(#SVGID_00000145025370136435458280000016154364245431153300_);fill:none;stroke:#FF5723;stroke-width:2.5;stroke-dasharray:7.4727,4.9802;" d="
		M52.9,33.1c5.5,6.9,4.6,22.3,13.6,31.7"/>
	
		<path style="clip-path:url(#SVGID_00000145025370136435458280000016154364245431153300_);fill:none;stroke:#FF5723;stroke-width:2.5;stroke-dasharray:7.5675,5.0749;" d="
		M79.3,72.8c9.1,3.9,20,4.3,60.2,4.3"/>
	
		<path style="clip-path:url(#SVGID_00000145025370136435458280000016154364245431153300_);fill:none;stroke:#FF5723;stroke-width:2.5;" d="
		M142.1,77.1c1.2,0,2.5,0,3.8,0 M68.4,66.5c0.9,0.8,1.9,1.5,3.1,2.1c1.2,0.7,2.2,1.3,3.3,1.9 M41.6,29.9c1.1-0.2,2.4-0.3,3.7-0.3
		c1.4,0,2.6,0.2,3.7,0.6 M30.3,48.1l0-3.1c0-1.3,0.1-2.5,0.3-3.7 M30.3,54.8l0-3.1"/>
</g>
<line class="st9" x1="149.1" y1="77.1" x2="129.1" y2="77.1"/>
<line class="st10" x1="227.4" y1="76.8" x2="202.7" y2="76.8"/>
<rect x="29" y="51.7" class="st0" width="2.6" height="4.5"/>
<line class="st1" x1="17.6" y1="102.3" x2="43" y2="102.3"/>
<line class="st1" x1="17.6" y1="56.7" x2="43" y2="56.7"/>
<line class="st1" x1="166.1" y1="102.3" x2="191.5" y2="102.3"/>
<line class="st1" x1="166.1" y1="56.7" x2="191.5" y2="56.7"/>
<line class="st1" x1="242.2" y1="102.3" x2="267.6" y2="102.3"/>
<line class="st1" x1="242.2" y1="56.7" x2="267.6" y2="56.7"/>
</svg>
