<?xml version="1.0" encoding="utf-8"?>
<!-- Generator: Adobe Illustrator 26.3.1, SVG Export Plug-In . SVG Version: 6.00 Build 0)  -->
<svg version="1.1" id="Layer_1" xmlns="http://www.w3.org/2000/svg" xmlns:xlink="http://www.w3.org/1999/xlink" x="0px" y="0px"
	 viewBox="0 0 263.2 115" style="enable-background:new 0 0 263.2 115;" xml:space="preserve">
<style type="text/css">
	.st0{fill:#FF5821;}
	.st1{fill:none;stroke:#FF5821;stroke-width:1.44;stroke-miterlimit:10;}
	.st2{fill:none;stroke:#FF5821;stroke-width:1.44;stroke-miterlimit:10;stroke-dasharray:2.83,2.83;}
	.st3{fill:#FF5821;stroke:#FF5821;stroke-width:1.44;stroke-miterlimit:10;}
	.st4{fill:none;stroke:#FF5821;stroke-width:1.44;stroke-miterlimit:10;stroke-dasharray:2.72,2.72,2.72,2.72;}
	.st5{fill:none;stroke:#FF5821;stroke-width:1.44;stroke-miterlimit:10;stroke-dasharray:2.72,2.72,2.72,2.72,2.72,2.72;}
</style>
<g id="Layer_2_00000137092313886953816010000011376663823702629541_">
	<path class="st0" d="M185.6,107.9h2l3.7,7.2h-1.7l-3-5.8l0,0l-2.9,5.7H182L185.6,107.9z"/>
	<path class="st0" d="M11.9,60.9l3,3.5l-0.3,0.8c-0.4,0.3-0.9,0.4-1.4,0.5c-1.8,0-3.6-0.2-5.3-0.8l0.4-1c1.8,0.6,3.7,0.9,5.6,1v-0.1
		c-1.2-1.1-2.3-2.3-3.2-3.6c-0.7-1.4-1.1-3-1.3-4.6c0.3-0.3,0.6-0.4,1-0.4c0.2,1.3,0.5,2.5,0.9,3.7c0.8,0.2,1.6,0.3,2.5,0.3
		c0.4-1.3,0.7-2.6,0.8-4h1.2c-0.1,1.3-0.4,2.6-0.8,3.9c-0.3,0.4-0.8,0.7-1.3,0.9C13,60.9,12.4,60.9,11.9,60.9z"/>
	<path class="st0" d="M74,59c0,2.1-0.4,4.2-1,6.3c-0.4,0.2-0.9,0.4-1.4,0.4c-0.9,0-1.8-0.1-2.6-0.4l0.4-1c0.9,0.3,1.8,0.4,2.7,0.5
		c0.4-1.7,0.6-3.5,0.7-5.3c0-1.6-0.6-2.2-2.2-2.2h-1l-2.8,8.4h-1.2l2.8-8.4h-2.3v-0.9c1.3-0.1,2.5-0.2,3.8-0.2H71
		C73,56.2,74,57.2,74,59z"/>
	<line class="st1" x1="128.1" y1="74.6" x2="151.9" y2="74.6"/>
	<path class="st2" d="M31.4,29c1.4-8.5,7.2-27,32.4-27c21.8,0,27.3,19,28.7,26.3"/>
	<line class="st1" x1="224.5" y1="61.5" x2="230.5" y2="67.5"/>
	<line class="st1" x1="239.6" y1="76.5" x2="245.6" y2="82.5"/>
	<line class="st1" x1="245.6" y1="61.5" x2="239.6" y2="67.5"/>
	<line class="st1" x1="230.5" y1="76.5" x2="224.5" y2="82.5"/>
	<circle class="st1" cx="235.1" cy="72" r="6.5"/>
	<circle class="st3" cx="235.1" cy="72" r="1.1"/>
	<line class="st4" x1="55.2" y1="42.8" x2="45.7" y2="42.8"/>
	<line class="st5" x1="44.3" y1="42.8" x2="13.1" y2="42.8"/>
	<line class="st4" x1="114.7" y1="42.8" x2="105.2" y2="42.8"/>
	<line class="st5" x1="103.8" y1="42.8" x2="72.5" y2="42.8"/>
	<line class="st4" x1="55.2" y1="96" x2="45.7" y2="96"/>
	<line class="st5" x1="44.3" y1="96" x2="13.1" y2="96"/>
	<line class="st4" x1="114.7" y1="96" x2="105.2" y2="96"/>
	<line class="st5" x1="103.8" y1="96" x2="72.5" y2="96"/>
	<line class="st4" x1="207.5" y1="96" x2="198" y2="96"/>
	<line class="st5" x1="196.6" y1="96" x2="165.4" y2="96"/>
	<line class="st4" x1="207.5" y1="42.8" x2="198" y2="42.8"/>
	<line class="st5" x1="196.6" y1="42.8" x2="165.4" y2="42.8"/>
</g>
</svg>
