<svg xmlns="http://www.w3.org/2000/svg" viewBox="0 0 263.21 108.71"><defs><style>.cls-1,.cls-4{fill:#ff5821;}.cls-10,.cls-11,.cls-12,.cls-13,.cls-2,.cls-3,.cls-5,.cls-6,.cls-7,.cls-8,.cls-9{fill:none;}.cls-10,.cls-11,.cls-12,.cls-13,.cls-2,.cls-3,.cls-4,.cls-5,.cls-6,.cls-7,.cls-8,.cls-9{stroke:#ff5821;stroke-miterlimit:10;}.cls-10,.cls-11,.cls-12,.cls-13,.cls-2,.cls-3,.cls-4{stroke-width:1.44px;}.cls-3{stroke-dasharray:2.83 2.83;}.cls-5,.cls-6,.cls-7,.cls-8,.cls-9{stroke-width:1.44px;}.cls-10,.cls-6{stroke-dasharray:2.72 2.72 2.72 2.72;}.cls-11,.cls-7{stroke-dasharray:2.72 2.72 2.72 2.72 2.72 2.72;}.cls-12,.cls-8{stroke-dasharray:2.68 2.68 2.68 2.68;}.cls-13,.cls-9{stroke-dasharray:2.68 2.68 2.68 2.68 2.68 2.68;}</style></defs><g id="Layer_2" data-name="Layer 2"><g id="Layer_1-2" data-name="Layer 1"><path class="cls-1" d="M185.64,101.56h2l3.72,7.15h-1.69l-3-5.76h0l-2.85,5.73h-1.67Z"/><path class="cls-1" d="M4,31.75l3,3.51-.28.79a2.71,2.71,0,0,1-1.43.45A14.68,14.68,0,0,1,0,35.65l.38-1a21.08,21.08,0,0,0,5.57,1v-.12a35.09,35.09,0,0,1-3.25-3.62,15,15,0,0,1-1.29-4.58,3.86,3.86,0,0,1,1.1-.33,26.1,26.1,0,0,0,.89,3.7,8.69,8.69,0,0,0,2.47.26A18.2,18.2,0,0,0,6.66,27H7.83A14.28,14.28,0,0,1,7,30.87a2.46,2.46,0,0,1-1.31.86C5.05,31.76,4.44,31.76,4,31.75Z"/><path class="cls-1" d="M71.11,29.81a22.41,22.41,0,0,1-1,6.28,3.55,3.55,0,0,1-1.42.43,6.88,6.88,0,0,1-2.59-.43l.41-1a13,13,0,0,0,2.7.5,28.16,28.16,0,0,0,.69-5.31c0-1.57-.6-2.2-2.18-2.2H66.68l-2.8,8.37H62.71l2.82-8.37H63.21v-.88A36.38,36.38,0,0,1,67,27h1.13C70.07,27,71.11,28,71.11,29.81Z"/><line class="cls-2" x1="128.1" y1="68.3" x2="151.92" y2="68.3"/><path class="cls-2" d="M31,31.92s0-.52.07-1.43"/><path class="cls-3" d="M31.35,27.68c1.35-8.53,7.17-27,32.37-27,21.76,0,27.35,19,28.7,26.29"/><path class="cls-2" d="M92.65,28.4c.13.9.17,1.43.17,1.43"/><line class="cls-2" x1="228.45" y1="48.58" x2="238.2" y2="58.34"/><line class="cls-2" x1="252.95" y1="73.08" x2="262.7" y2="82.84"/><line class="cls-2" x1="262.7" y1="48.58" x2="252.95" y2="58.34"/><line class="cls-2" x1="238.2" y1="73.08" x2="228.45" y2="82.84"/><circle class="cls-2" cx="245.61" cy="65.74" r="10.5"/><circle class="cls-4" cx="245.61" cy="65.74" r="1.86"/><polyline class="cls-5" points="59.38 88.22 59.38 89.66 57.94 89.66"/><line class="cls-6" x1="55.22" y1="89.66" x2="45.7" y2="89.66"/><line class="cls-7" x1="44.34" y1="89.66" x2="13.05" y2="89.66"/><polyline class="cls-5" points="11.7 89.66 10.25 89.66 10.25 88.22"/><line class="cls-8" x1="10.25" y1="85.54" x2="10.25" y2="76.16"/><line class="cls-9" x1="10.25" y1="74.82" x2="10.25" y2="43.99"/><polyline class="cls-5" points="10.25 42.65 10.25 41.2 11.7 41.2"/><line class="cls-6" x1="14.41" y1="41.21" x2="23.94" y2="41.21"/><line class="cls-7" x1="25.3" y1="41.21" x2="56.58" y2="41.21"/><polyline class="cls-5" points="57.94 41.2 59.38 41.2 59.38 42.65"/><line class="cls-8" x1="59.38" y1="45.33" x2="59.38" y2="54.71"/><line class="cls-9" x1="59.38" y1="56.05" x2="59.38" y2="86.88"/><polyline class="cls-2" points="118.83 88.22 118.83 89.66 117.39 89.66"/><line class="cls-10" x1="114.67" y1="89.66" x2="105.15" y2="89.66"/><line class="cls-11" x1="103.79" y1="89.66" x2="72.51" y2="89.66"/><polyline class="cls-2" points="71.15 89.66 69.71 89.66 69.71 88.22"/><line class="cls-12" x1="69.71" y1="85.54" x2="69.71" y2="76.16"/><line class="cls-13" x1="69.71" y1="74.82" x2="69.71" y2="43.99"/><polyline class="cls-2" points="69.71 42.65 69.71 41.2 71.15 41.2"/><line class="cls-10" x1="73.87" y1="41.21" x2="83.39" y2="41.21"/><line class="cls-11" x1="84.75" y1="41.21" x2="116.03" y2="41.21"/><polyline class="cls-2" points="117.39 41.2 118.83 41.2 118.83 42.65"/><line class="cls-12" x1="118.83" y1="45.33" x2="118.83" y2="54.71"/><line class="cls-13" x1="118.83" y1="56.05" x2="118.83" y2="86.88"/><polyline class="cls-2" points="211.67 88.22 211.67 89.66 210.23 89.66"/><line class="cls-10" x1="207.51" y1="89.66" x2="197.99" y2="89.66"/><line class="cls-11" x1="196.63" y1="89.66" x2="165.35" y2="89.66"/><polyline class="cls-2" points="163.99 89.66 162.55 89.66 162.55 88.22"/><line class="cls-12" x1="162.55" y1="85.54" x2="162.55" y2="76.16"/><line class="cls-13" x1="162.55" y1="74.82" x2="162.55" y2="43.99"/><polyline class="cls-2" points="162.55 42.65 162.55 41.2 163.99 41.2"/><line class="cls-10" x1="166.71" y1="41.21" x2="176.23" y2="41.21"/><line class="cls-11" x1="177.59" y1="41.21" x2="208.87" y2="41.21"/><polyline class="cls-2" points="210.23 41.2 211.67 41.2 211.67 42.65"/><line class="cls-12" x1="211.67" y1="45.33" x2="211.67" y2="54.71"/><line class="cls-13" x1="211.67" y1="56.05" x2="211.67" y2="86.88"/></g></g></svg>